<?xml version="1.0" encoding="UTF-8" standalone="no"?>
<svg
   version="1.1"
   viewBox="-10 0 1239 2048"
   id="svg1"
   sodipodi:docname="arcomp_tc_curl_final.svg"
   inkscape:version="1.3 (0e150ed6c4, 2023-07-21)"
   xml:space="preserve"
   xmlns:inkscape="http://www.inkscape.org/namespaces/inkscape"
   xmlns:sodipodi="http://sodipodi.sourceforge.net/DTD/sodipodi-0.dtd"
   xmlns="http://www.w3.org/2000/svg"
   xmlns:svg="http://www.w3.org/2000/svg"><defs
     id="defs1"><inkscape:path-effect
       effect="spiro"
       id="path-effect69"
       is_visible="true"
       lpeversion="1" /><inkscape:path-effect
       effect="spiro"
       id="path-effect68"
       is_visible="true"
       lpeversion="1" /><inkscape:path-effect
       effect="spiro"
       id="path-effect67"
       is_visible="true"
       lpeversion="1" /><inkscape:path-effect
       effect="spiro"
       id="path-effect66"
       is_visible="true"
       lpeversion="1" /><inkscape:path-effect
       effect="spiro"
       id="path-effect65"
       is_visible="true"
       lpeversion="1" /><inkscape:path-effect
       effect="bspline"
       id="path-effect64"
       is_visible="true"
       lpeversion="1.3"
       weight="33.333333"
       steps="2"
       helper_size="0"
       apply_no_weight="true"
       apply_with_weight="true"
       only_selected="false"
       uniform="false" /></defs><sodipodi:namedview
     id="namedview1"
     pagecolor="#ffffff"
     bordercolor="#999999"
     borderopacity="1"
     inkscape:showpageshadow="2"
     inkscape:pageopacity="0"
     inkscape:pagecheckerboard="0"
     inkscape:deskcolor="#d1d1d1"
     inkscape:zoom="0.35355339"
     inkscape:cx="234.75945"
     inkscape:cy="1214.8095"
     inkscape:window-width="1920"
     inkscape:window-height="1001"
     inkscape:window-x="-9"
     inkscape:window-y="-9"
     inkscape:window-maximized="1"
     inkscape:current-layer="layer2"
     showguides="false"><sodipodi:guide
       position="866,410"
       orientation="0,-1"
       id="guide1"
       inkscape:locked="false" /><sodipodi:guide
       position="1230,1230"
       orientation="0,1"
       id="guide2"
       inkscape:locked="false"
       inkscape:label=""
       inkscape:color="rgb(0,134,229)" /><sodipodi:guide
       position="208,219.91946"
       orientation="-1,0"
       id="guide4"
       inkscape:locked="false"
       inkscape:label=""
       inkscape:color="rgb(0,134,229)" /><sodipodi:guide
       position="986,96.214765"
       orientation="-1,0"
       id="guide5"
       inkscape:locked="false"
       inkscape:label=""
       inkscape:color="rgb(0,134,229)" /><sodipodi:guide
       position="0,0"
       orientation="0,-1"
       id="guide7"
       inkscape:locked="false" /><sodipodi:guide
       position="1239,481.27157"
       orientation="1,0"
       id="guide8"
       inkscape:locked="false" /><sodipodi:guide
       position="250,248.01176"
       orientation="-1,0"
       id="guide9"
       inkscape:locked="false"
       inkscape:label=""
       inkscape:color="rgb(0,134,229)" /><sodipodi:guide
       position="1028,452"
       orientation="-1,0"
       id="guide10"
       inkscape:locked="false"
       inkscape:label=""
       inkscape:color="rgb(0,134,229)" /><sodipodi:guide
       position="124.40523,452"
       orientation="0,1"
       id="guide11"
       inkscape:locked="false"
       inkscape:label=""
       inkscape:color="rgb(0,134,229)" /><sodipodi:guide
       position="427.64299,1188"
       orientation="0,1"
       id="guide12"
       inkscape:locked="false"
       inkscape:label=""
       inkscape:color="rgb(0,134,229)" /><sodipodi:guide
       position="97.19159,84"
       orientation="0,1"
       id="guide13"
       inkscape:locked="false"
       inkscape:label=""
       inkscape:color="rgb(0,134,229)" /><sodipodi:guide
       position="590.92487,1556"
       orientation="0,1"
       id="guide14"
       inkscape:locked="false"
       inkscape:label=""
       inkscape:color="rgb(0,134,229)" /></sodipodi:namedview><g
     inkscape:groupmode="layer"
     id="layer2"
     inkscape:label="letter parts 1"
     style="display:inline"><path
       id="path4"
       style="color:#000000;fill:#000000;stroke-linecap:round;-inkscape-stroke:none"
       d="m 424,450 c -23.19594,0 -42,18.80406 -42,42 V 818 H 240 c -23.19594,0 -42,18.80406 -42,42 0,23.19594 18.80406,42 42,42 h 142.00195 v 326.0039 c 4.9e-4,126.1659 14.76065,223.4292 50.43555,294.7793 C 468.11235,1594.1333 532.6683,1638 608,1638 c 32.05655,0 61.83183,-9.67 88.87695,-26.2383 C 725.16353,1628.6622 757.42147,1638 792,1638 h 92 c 73.50856,0 134,-60.4915 134,-134 0,-73.5085 -60.49366,-133.998 -134.00195,-133.998 -70.23147,0 -129.67219,46.0208 -172.90625,110.6445 -4.14329,6.1931 -8.31834,11.9351 -12.51368,17.2988 -37.94981,-65.8902 -48.57502,-170.3129 -48.57617,-269.9433 -10e-4,-119.1658 15.90086,-205.601 41.54883,-256.78716 C 717.19876,920.02878 744.60121,902.4132 792,902.00391 c 50.1968,-0.43345 114.7106,36.55547 147.55664,93.87304 11.53292,20.12525 37.19677,27.09095 57.32227,15.55855 20.12639,-11.5329 27.09229,-37.19823 15.55859,-57.32417 C 964.9877,871.30964 879.77686,817.24274 792.08008,818 c -0.0151,1.3e-4 -0.0298,0.002 -0.0449,0.002 C 792.02185,818.00194 792.01333,818 792,818 H 466 V 492 c 0,-23.19594 -18.80406,-42 -42,-42 z m 42.00195,452 h 169.57227 c -68.81983,96.241 -69.57293,268.4797 -69.57227,326.0039 2.28472,105.5871 5.41936,230.7054 66.36328,321.9492 C 624.11752,1552.6554 615.97049,1554 608,1554 c -47.33143,0 -74.77417,-17.4662 -100.43164,-68.7812 -25.65747,-51.3152 -41.56595,-138.051 -41.56641,-257.2168 z m 417.9961,552.002 c 28.11463,0 50.00195,21.8865 50.00195,49.998 0,28.1115 -21.88848,50 -50,50 h -92 c -10.42169,0 -19.83317,-0.9089 -28.51953,-2.7773 6.06476,-7.6165 11.8844,-15.5833 17.42773,-23.8692 33.9878,-50.8028 70.03519,-73.3515 103.08985,-73.3515 z"
       sodipodi:nodetypes="sscsssccsscsssssccsssscssscssccccssccsssscss" /></g></svg>
