<?xml version="1.0" encoding="UTF-8" standalone="no"?>
<svg
   version="1.1"
   viewBox="-10 0 1239 2048"
   id="svg1"
   sodipodi:docname="arcomp_germandbls_final.svg"
   inkscape:version="1.3 (0e150ed6c4, 2023-07-21)"
   xml:space="preserve"
   xmlns:inkscape="http://www.inkscape.org/namespaces/inkscape"
   xmlns:sodipodi="http://sodipodi.sourceforge.net/DTD/sodipodi-0.dtd"
   xmlns="http://www.w3.org/2000/svg"
   xmlns:svg="http://www.w3.org/2000/svg"><defs
     id="defs1"><inkscape:path-effect
       effect="spiro"
       id="path-effect69"
       is_visible="true"
       lpeversion="1" /><inkscape:path-effect
       effect="spiro"
       id="path-effect68"
       is_visible="true"
       lpeversion="1" /><inkscape:path-effect
       effect="spiro"
       id="path-effect67"
       is_visible="true"
       lpeversion="1" /><inkscape:path-effect
       effect="spiro"
       id="path-effect66"
       is_visible="true"
       lpeversion="1" /><inkscape:path-effect
       effect="spiro"
       id="path-effect65"
       is_visible="true"
       lpeversion="1" /><inkscape:path-effect
       effect="bspline"
       id="path-effect64"
       is_visible="true"
       lpeversion="1.3"
       weight="33.333333"
       steps="2"
       helper_size="0"
       apply_no_weight="true"
       apply_with_weight="true"
       only_selected="false"
       uniform="false" /></defs><sodipodi:namedview
     id="namedview1"
     pagecolor="#ffffff"
     bordercolor="#999999"
     borderopacity="1"
     inkscape:showpageshadow="2"
     inkscape:pageopacity="0"
     inkscape:pagecheckerboard="0"
     inkscape:deskcolor="#d1d1d1"
     inkscape:zoom="0.25"
     inkscape:cx="1270"
     inkscape:cy="1638"
     inkscape:window-width="1920"
     inkscape:window-height="1001"
     inkscape:window-x="-9"
     inkscape:window-y="-9"
     inkscape:window-maximized="1"
     inkscape:current-layer="svg1"
     showguides="false"><sodipodi:guide
       position="866,410"
       orientation="0,-1"
       id="guide1"
       inkscape:locked="false" /><sodipodi:guide
       position="1230,1230"
       orientation="0,1"
       id="guide2"
       inkscape:locked="false"
       inkscape:label=""
       inkscape:color="rgb(0,134,229)" /><sodipodi:guide
       position="208,219.91946"
       orientation="-1,0"
       id="guide4"
       inkscape:locked="false"
       inkscape:label=""
       inkscape:color="rgb(0,134,229)" /><sodipodi:guide
       position="986,96.214765"
       orientation="-1,0"
       id="guide5"
       inkscape:locked="false"
       inkscape:label=""
       inkscape:color="rgb(0,134,229)" /><sodipodi:guide
       position="0,0"
       orientation="0,-1"
       id="guide7"
       inkscape:locked="false" /><sodipodi:guide
       position="1239,481.27157"
       orientation="1,0"
       id="guide8"
       inkscape:locked="false" /><sodipodi:guide
       position="250,248.01176"
       orientation="-1,0"
       id="guide9"
       inkscape:locked="false"
       inkscape:label=""
       inkscape:color="rgb(0,134,229)" /><sodipodi:guide
       position="1028,452"
       orientation="-1,0"
       id="guide10"
       inkscape:locked="false"
       inkscape:label=""
       inkscape:color="rgb(0,134,229)" /><sodipodi:guide
       position="124.40523,452"
       orientation="0,1"
       id="guide11"
       inkscape:locked="false"
       inkscape:label=""
       inkscape:color="rgb(0,134,229)" /><sodipodi:guide
       position="427.64299,1188"
       orientation="0,1"
       id="guide12"
       inkscape:locked="false"
       inkscape:label=""
       inkscape:color="rgb(0,134,229)" /><sodipodi:guide
       position="97.19159,84"
       orientation="0,1"
       id="guide13"
       inkscape:locked="false"
       inkscape:label=""
       inkscape:color="rgb(0,134,229)" /><sodipodi:guide
       position="590.92487,1556"
       orientation="0,1"
       id="guide14"
       inkscape:locked="false"
       inkscape:label=""
       inkscape:color="rgb(0,134,229)" /></sodipodi:namedview><g
     inkscape:groupmode="layer"
     id="layer2"
     inkscape:label="letter parts 1"
     style="display:inline"><path
       style="color:#000000;fill:#000000;stroke-linecap:round;stroke-linejoin:round;-inkscape-stroke:none"
       d="M 608.01172,450.01367 C 480.09411,450.00615 378.89761,473.33893 306.8125,527.40039 234.72739,581.46185 198.01315,666.66242 198.01172,767.99414 L 198,1596 c 0,23.196 18.80404,42 42,42 23.19596,0 42,-18.804 42,-42 l 0.0117,-828.00391 c 0.001,-82.66593 24.61964,-135.46151 75.19922,-173.39453 50.57958,-37.93302 133.37971,-60.59479 250.79687,-60.58789 117.41798,0.007 200.21959,22.67432 250.80078,60.61133 50.5812,37.93701 75.19922,90.73279 75.19922,173.39844 0,82.66483 -24.61781,135.46167 -75.19726,173.39648 -66.17788,49.6337 -171.17956,60.56248 -250.81055,60.57788 -61.07843,0.012 -122.16477,0.01 -183.24607,0 -23.19596,-0 -42.00176,18.8001 -42.00391,41.9961 -0.002,23.196 18.80013,42.0017 41.99609,42.0039 l 183.26368,0.016 c 79.70285,0.01 184.60071,10.9459 250.78149,60.5821 50.57944,37.9349 75.19726,90.7327 75.19726,173.3984 0,82.6648 -24.63172,135.4861 -75.13867,173.4199 -50.50695,37.9338 -133.12658,60.5875 -250.19922,60.586 L 424,1554 c -23.19596,0 -42,18.804 -42,42 0,23.196 18.80404,42 42,42 h 184.64844 c 127.60268,0 228.65295,-23.3485 300.64648,-77.42 71.99353,-54.0715 108.69338,-139.2546 108.69338,-240.5859 0,-101.332 -36.71343,-186.5345 -108.79689,-240.5977 -18.33197,-13.7491 -38.56868,-25.4888 -60.62696,-35.3847 22.0657,-9.8977 42.3092,-21.6415 60.64649,-35.3946 72.08339,-54.0629 108.79686,-139.26432 108.79686,-240.59566 0,-101.33201 -36.71274,-186.53298 -108.79686,-240.59766 C 837.12681,473.3611 735.9285,450.0212 608.01172,450.01367 Z"
       id="path4-3"
       sodipodi:nodetypes="ssscscssssssscscssssscsssssscsscs" /></g></svg>
