<?xml version="1.0" encoding="UTF-8" standalone="no"?>
<svg
   version="1.1"
   viewBox="-10 0 1239 2048"
   id="svg1"
   sodipodi:docname="arcomp_tesh_final.svg"
   inkscape:version="1.3 (0e150ed6c4, 2023-07-21)"
   xml:space="preserve"
   xmlns:inkscape="http://www.inkscape.org/namespaces/inkscape"
   xmlns:sodipodi="http://sodipodi.sourceforge.net/DTD/sodipodi-0.dtd"
   xmlns="http://www.w3.org/2000/svg"
   xmlns:svg="http://www.w3.org/2000/svg"><defs
     id="defs1"><inkscape:path-effect
       effect="spiro"
       id="path-effect69"
       is_visible="true"
       lpeversion="1" /><inkscape:path-effect
       effect="spiro"
       id="path-effect68"
       is_visible="true"
       lpeversion="1" /><inkscape:path-effect
       effect="spiro"
       id="path-effect67"
       is_visible="true"
       lpeversion="1" /><inkscape:path-effect
       effect="spiro"
       id="path-effect66"
       is_visible="true"
       lpeversion="1" /><inkscape:path-effect
       effect="spiro"
       id="path-effect65"
       is_visible="true"
       lpeversion="1" /><inkscape:path-effect
       effect="bspline"
       id="path-effect64"
       is_visible="true"
       lpeversion="1.3"
       weight="33.333333"
       steps="2"
       helper_size="0"
       apply_no_weight="true"
       apply_with_weight="true"
       only_selected="false"
       uniform="false" /></defs><sodipodi:namedview
     id="namedview1"
     pagecolor="#ffffff"
     bordercolor="#999999"
     borderopacity="1"
     inkscape:showpageshadow="2"
     inkscape:pageopacity="0"
     inkscape:pagecheckerboard="0"
     inkscape:deskcolor="#d1d1d1"
     inkscape:zoom="0.25676704"
     inkscape:cx="541.34674"
     inkscape:cy="1703.8791"
     inkscape:window-width="1920"
     inkscape:window-height="1001"
     inkscape:window-x="-9"
     inkscape:window-y="-9"
     inkscape:window-maximized="1"
     inkscape:current-layer="layer2"
     showguides="false"><sodipodi:guide
       position="866,410"
       orientation="0,-1"
       id="guide1"
       inkscape:locked="false" /><sodipodi:guide
       position="1230,1230"
       orientation="0,1"
       id="guide2"
       inkscape:locked="false"
       inkscape:label=""
       inkscape:color="rgb(0,134,229)" /><sodipodi:guide
       position="208,219.91946"
       orientation="-1,0"
       id="guide4"
       inkscape:locked="false"
       inkscape:label=""
       inkscape:color="rgb(0,134,229)" /><sodipodi:guide
       position="986,96.214765"
       orientation="-1,0"
       id="guide5"
       inkscape:locked="false"
       inkscape:label=""
       inkscape:color="rgb(0,134,229)" /><sodipodi:guide
       position="0,0"
       orientation="0,-1"
       id="guide7"
       inkscape:locked="false" /><sodipodi:guide
       position="1239,481.27157"
       orientation="1,0"
       id="guide8"
       inkscape:locked="false" /><sodipodi:guide
       position="250,248.01176"
       orientation="-1,0"
       id="guide9"
       inkscape:locked="false"
       inkscape:label=""
       inkscape:color="rgb(0,134,229)" /><sodipodi:guide
       position="1028,452"
       orientation="-1,0"
       id="guide10"
       inkscape:locked="false"
       inkscape:label=""
       inkscape:color="rgb(0,134,229)" /><sodipodi:guide
       position="124.40523,452"
       orientation="0,1"
       id="guide11"
       inkscape:locked="false"
       inkscape:label=""
       inkscape:color="rgb(0,134,229)" /><sodipodi:guide
       position="427.64299,1188"
       orientation="0,1"
       id="guide12"
       inkscape:locked="false"
       inkscape:label=""
       inkscape:color="rgb(0,134,229)" /><sodipodi:guide
       position="97.19159,84"
       orientation="0,1"
       id="guide13"
       inkscape:locked="false"
       inkscape:label=""
       inkscape:color="rgb(0,134,229)" /><sodipodi:guide
       position="590.92487,1556"
       orientation="0,1"
       id="guide14"
       inkscape:locked="false"
       inkscape:label=""
       inkscape:color="rgb(0,134,229)" /></sodipodi:namedview><g
     inkscape:groupmode="layer"
     id="layer2"
     inkscape:label="letter parts 1"
     style="display:inline"><path
       id="path4"
       style="color:#000000;fill:#000000;stroke-linecap:round;-inkscape-stroke:none"
       d="m 424,450 c -23.19596,0 -42,18.80404 -42,42 l 0.002,326 H 240 c -23.19594,0 -42,18.80406 -42,42 0,23.19594 18.80406,42 42,42 h 142.00195 l 0.002,326.0039 c 4e-4,126.1659 14.75901,223.3912 50.43554,294.7188 35.67654,71.3274 100.19884,115.1682 175.5,115.2773 16.38624,0.024 32.93908,-0.7626 49.55274,-2.3926 -2.38117,99.93 -13.79759,174.6696 -31.31055,221.2852 -11.82107,30.0054 -28.33641,63.8422 -64.58984,65.1074 -37.71721,0.3672 -78.18383,-10.5185 -116.33594,-32.918 -20.00356,-11.7445 -45.74048,-5.0488 -57.48438,14.9551 -11.74317,20.0031 -5.04764,45.7385 14.95508,57.4824 50.22616,29.4883 105.34131,45.0056 159.6836,44.4766 82.07949,-0.7992 123.04534,-68.0312 142.40429,-119.5606 26.2388,-69.8418 37.18321,-165.1426 37.1836,-290.4335 l 0.004,-736.00395 C 742.00232,739.95724 754.05733,651.7069 773.81836,599.10742 785.63937,569.10207 802.15482,535.2651 838.4082,534 c 37.7172,-0.36718 78.18386,10.51852 116.33594,32.91797 20.00355,11.74451 45.74046,5.04882 57.48436,-14.95508 11.7432,-20.00312 5.0477,-45.73856 -14.95506,-57.48242 C 947.04729,464.99222 891.93212,449.47488 837.58984,450.00391 755.51028,450.80306 714.5445,518.03523 695.18555,569.56445 671.96833,631.36353 660.76411,713.19575 658.48242,818 H 466.00195 L 466,492 c 0,-23.19596 -18.80404,-42 -42,-42 z m 42.00195,452 h 192 l -0.004,648.9395 c -16.69008,2.0004 -33.3975,3.0844 -49.9375,3.0605 -47.36185,-0.069 -74.83831,-17.5603 -100.49414,-68.8535 -25.65584,-51.2933 -41.56212,-137.9787 -41.5625,-257.1445 z"
       sodipodi:nodetypes="sccsssccsscsssssssccssssssscccsccccscc" /></g></svg>
