<?xml version="1.0" encoding="UTF-8" standalone="no"?>
<svg
   version="1.1"
   viewBox="-10 0 1239 2048"
   id="svg1"
   sodipodi:docname="arcomp_feng_final.svg"
   inkscape:version="1.3 (0e150ed6c4, 2023-07-21)"
   xml:space="preserve"
   xmlns:inkscape="http://www.inkscape.org/namespaces/inkscape"
   xmlns:sodipodi="http://sodipodi.sourceforge.net/DTD/sodipodi-0.dtd"
   xmlns="http://www.w3.org/2000/svg"
   xmlns:svg="http://www.w3.org/2000/svg"><defs
     id="defs1"><inkscape:path-effect
       effect="spiro"
       id="path-effect69"
       is_visible="true"
       lpeversion="1" /><inkscape:path-effect
       effect="spiro"
       id="path-effect68"
       is_visible="true"
       lpeversion="1" /><inkscape:path-effect
       effect="spiro"
       id="path-effect67"
       is_visible="true"
       lpeversion="1" /><inkscape:path-effect
       effect="spiro"
       id="path-effect66"
       is_visible="true"
       lpeversion="1" /><inkscape:path-effect
       effect="spiro"
       id="path-effect65"
       is_visible="true"
       lpeversion="1" /><inkscape:path-effect
       effect="bspline"
       id="path-effect64"
       is_visible="true"
       lpeversion="1.3"
       weight="33.333333"
       steps="2"
       helper_size="0"
       apply_no_weight="true"
       apply_with_weight="true"
       only_selected="false"
       uniform="false" /></defs><sodipodi:namedview
     id="namedview1"
     pagecolor="#ffffff"
     bordercolor="#999999"
     borderopacity="1"
     inkscape:showpageshadow="2"
     inkscape:pageopacity="0"
     inkscape:pagecheckerboard="0"
     inkscape:deskcolor="#d1d1d1"
     inkscape:zoom="0.25676704"
     inkscape:cx="463.45513"
     inkscape:cy="1252.1078"
     inkscape:window-width="1920"
     inkscape:window-height="1001"
     inkscape:window-x="-9"
     inkscape:window-y="-9"
     inkscape:window-maximized="1"
     inkscape:current-layer="svg1"
     showguides="false"><sodipodi:guide
       position="866,410"
       orientation="0,-1"
       id="guide1"
       inkscape:locked="false" /><sodipodi:guide
       position="1230,1230"
       orientation="0,1"
       id="guide2"
       inkscape:locked="false"
       inkscape:label=""
       inkscape:color="rgb(0,134,229)" /><sodipodi:guide
       position="208,219.91946"
       orientation="-1,0"
       id="guide4"
       inkscape:locked="false"
       inkscape:label=""
       inkscape:color="rgb(0,134,229)" /><sodipodi:guide
       position="986,96.214765"
       orientation="-1,0"
       id="guide5"
       inkscape:locked="false"
       inkscape:label=""
       inkscape:color="rgb(0,134,229)" /><sodipodi:guide
       position="0,0"
       orientation="0,-1"
       id="guide7"
       inkscape:locked="false" /><sodipodi:guide
       position="1239,481.27157"
       orientation="1,0"
       id="guide8"
       inkscape:locked="false" /><sodipodi:guide
       position="250,248.01176"
       orientation="-1,0"
       id="guide9"
       inkscape:locked="false"
       inkscape:label=""
       inkscape:color="rgb(0,134,229)" /><sodipodi:guide
       position="1028,452"
       orientation="-1,0"
       id="guide10"
       inkscape:locked="false"
       inkscape:label=""
       inkscape:color="rgb(0,134,229)" /><sodipodi:guide
       position="124.40523,452"
       orientation="0,1"
       id="guide11"
       inkscape:locked="false"
       inkscape:label=""
       inkscape:color="rgb(0,134,229)" /><sodipodi:guide
       position="427.64299,1188"
       orientation="0,1"
       id="guide12"
       inkscape:locked="false"
       inkscape:label=""
       inkscape:color="rgb(0,134,229)" /><sodipodi:guide
       position="97.19159,84"
       orientation="0,1"
       id="guide13"
       inkscape:locked="false"
       inkscape:label=""
       inkscape:color="rgb(0,134,229)" /><sodipodi:guide
       position="590.92487,1556"
       orientation="0,1"
       id="guide14"
       inkscape:locked="false"
       inkscape:label=""
       inkscape:color="rgb(0,134,229)" /></sodipodi:namedview><g
     inkscape:groupmode="layer"
     id="layer2"
     inkscape:label="letter parts 1"
     style="display:inline"><path
       id="path3"
       style="color:#000000;fill:#000000;stroke-linecap:round;stroke-linejoin:round;-inkscape-stroke:none"
       d="M 515.5918,450.00195 C 433.47802,450.80141 392.52038,518.09941 373.18555,569.56445 349.96818,631.3639 338.76401,713.1952 336.48242,818 H 240 c -23.19596,0 -42,18.80404 -42,42 0,23.19596 18.80404,42 42,42 h 96.00195 L 336,1596 c -7e-5,23.196 18.80404,42 42,42 23.19596,0 41.99993,-18.804 42,-42 l 0.002,-694 H 566 c 0,0 0,462.6667 0,694 0,23.196 18.80404,42 42,42 23.19596,0 42,-18.804 42,-42 0,-181.3822 0,-544.1465 0,-544.1465 37.06789,-98.27265 98.5068,-150.60116 141.26758,-149.84959 28.56265,0.50201 63.83077,26.55268 93.29883,85.28906 C 914.03447,1046.0293 934,1132.0547 934,1228 c 0,0 0,245.3333 0,368 0,95.9453 -19.96554,181.9707 -49.43359,240.707 -29.46806,58.7365 -64.73616,84.7871 -93.29883,85.2891 -23.19211,0.4074 -41.66288,19.5384 -41.25586,42.7305 0.40743,23.1921 19.5384,41.6633 42.73047,41.2558 73.04876,-1.2834 129.77782,-57.6061 166.90429,-131.6074 C 996.77296,1800.3737 1018,1703.2951 1018,1596 c 0,-122.6667 0,-368 0,-368 0,-107.2951 -21.22704,-204.3737 -58.35352,-278.375 C 922.52001,875.6237 865.79093,819.30148 792.74219,818.01758 731.31703,816.93797 682.13126,854.95979 650,889.93164 V 860 c -0.002,-23.195 -18.805,-41.99768 -42,-42 H 420.53906 c 2.5026,-98.76574 13.90409,-172.64042 31.28125,-218.89453 11.82048,-30.00357 28.33603,-63.84238 64.58789,-65.10742 37.71716,-0.36721 78.18577,10.51858 116.33789,32.91797 20.00255,11.74364 45.73824,5.0491 57.48243,-14.95313 11.74485,-20.00336 5.04864,-45.74015 -14.95508,-57.48437 C 625.04704,464.9905 569.93406,449.47288 515.5918,450.00195 Z"
       sodipodi:nodetypes="sscssscsssccssscsssssssssssssccccssssss" /></g></svg>
