<?xml version="1.0" encoding="UTF-8" standalone="no"?>
<svg
   version="1.1"
   viewBox="-10 0 1239 2048"
   id="svg1"
   sodipodi:docname="arcomp_ls_final.svg"
   inkscape:version="1.3 (0e150ed6c4, 2023-07-21)"
   xml:space="preserve"
   xmlns:inkscape="http://www.inkscape.org/namespaces/inkscape"
   xmlns:sodipodi="http://sodipodi.sourceforge.net/DTD/sodipodi-0.dtd"
   xmlns="http://www.w3.org/2000/svg"
   xmlns:svg="http://www.w3.org/2000/svg"><defs
     id="defs1"><inkscape:path-effect
       effect="spiro"
       id="path-effect69"
       is_visible="true"
       lpeversion="1" /><inkscape:path-effect
       effect="spiro"
       id="path-effect68"
       is_visible="true"
       lpeversion="1" /><inkscape:path-effect
       effect="spiro"
       id="path-effect67"
       is_visible="true"
       lpeversion="1" /><inkscape:path-effect
       effect="spiro"
       id="path-effect66"
       is_visible="true"
       lpeversion="1" /><inkscape:path-effect
       effect="spiro"
       id="path-effect65"
       is_visible="true"
       lpeversion="1" /><inkscape:path-effect
       effect="bspline"
       id="path-effect64"
       is_visible="true"
       lpeversion="1.3"
       weight="33.333333"
       steps="2"
       helper_size="0"
       apply_no_weight="true"
       apply_with_weight="true"
       only_selected="false"
       uniform="false" /></defs><sodipodi:namedview
     id="namedview1"
     pagecolor="#ffffff"
     bordercolor="#999999"
     borderopacity="1"
     inkscape:showpageshadow="2"
     inkscape:pageopacity="0"
     inkscape:pagecheckerboard="0"
     inkscape:deskcolor="#d1d1d1"
     inkscape:zoom="0.36312343"
     inkscape:cx="619.62402"
     inkscape:cy="1023.0681"
     inkscape:window-width="1920"
     inkscape:window-height="1001"
     inkscape:window-x="-9"
     inkscape:window-y="-9"
     inkscape:window-maximized="1"
     inkscape:current-layer="layer2"
     showguides="false"><sodipodi:guide
       position="866,410"
       orientation="0,-1"
       id="guide1"
       inkscape:locked="false" /><sodipodi:guide
       position="1230,1230"
       orientation="0,1"
       id="guide2"
       inkscape:locked="false"
       inkscape:label=""
       inkscape:color="rgb(0,134,229)" /><sodipodi:guide
       position="208,219.91946"
       orientation="-1,0"
       id="guide4"
       inkscape:locked="false"
       inkscape:label=""
       inkscape:color="rgb(0,134,229)" /><sodipodi:guide
       position="986,96.214765"
       orientation="-1,0"
       id="guide5"
       inkscape:locked="false"
       inkscape:label=""
       inkscape:color="rgb(0,134,229)" /><sodipodi:guide
       position="0,0"
       orientation="0,-1"
       id="guide7"
       inkscape:locked="false" /><sodipodi:guide
       position="1239,481.27157"
       orientation="1,0"
       id="guide8"
       inkscape:locked="false" /><sodipodi:guide
       position="250,248.01176"
       orientation="-1,0"
       id="guide9"
       inkscape:locked="false"
       inkscape:label=""
       inkscape:color="rgb(0,134,229)" /><sodipodi:guide
       position="1028,452"
       orientation="-1,0"
       id="guide10"
       inkscape:locked="false"
       inkscape:label=""
       inkscape:color="rgb(0,134,229)" /><sodipodi:guide
       position="124.40523,452"
       orientation="0,1"
       id="guide11"
       inkscape:locked="false"
       inkscape:label=""
       inkscape:color="rgb(0,134,229)" /><sodipodi:guide
       position="427.64299,1188"
       orientation="0,1"
       id="guide12"
       inkscape:locked="false"
       inkscape:label=""
       inkscape:color="rgb(0,134,229)" /><sodipodi:guide
       position="97.19159,84"
       orientation="0,1"
       id="guide13"
       inkscape:locked="false"
       inkscape:label=""
       inkscape:color="rgb(0,134,229)" /><sodipodi:guide
       position="590.92487,1556"
       orientation="0,1"
       id="guide14"
       inkscape:locked="false"
       inkscape:label=""
       inkscape:color="rgb(0,134,229)" /></sodipodi:namedview><g
     inkscape:groupmode="layer"
     id="layer2"
     inkscape:label="letter parts 1"
     style="display:inline"><path
       style="color:#000000;fill:#000000;stroke-linecap:round;stroke-linejoin:round;-inkscape-stroke:none"
       d="m 243.84766,450 c -23.19596,0 -42,18.80404 -42,42 v 736 c 0,225.5993 184.16973,410.0003 408.08593,410.002 125.23337,9e-4 222.05313,-14.7681 293.15821,-50.4629 71.10507,-35.6949 114.9132,-100.2126 114.9043,-175.5508 -0.01,-71.8373 -30.95774,-135.1146 -87.70899,-172.9512 -56.75125,-37.8366 -133.62509,-53.0563 -230.28516,-53.0566 -87.32616,-2e-4 -148.44402,-15.4481 -183.68945,-38.9453 -35.24543,-23.4973 -50.29492,-52.2178 -50.29492,-103.045 0,-50.82718 15.04877,-79.54617 50.29492,-103.04293 35.24615,-23.49677 96.36511,-38.94336 183.69531,-38.94336 87.33021,0 148.45135,15.44784 183.69727,38.94531 C 918.951,964.44669 934,993.16757 934,1044 c 0,23.196 18.80404,42 42,42 23.19596,0 42,-18.804 42,-42 0,-71.83218 -30.94993,-135.1089 -87.70117,-172.94336 -56.75125,-37.83446 -133.62744,-53.05273 -230.29102,-53.05273 -96.66357,0 -173.53804,15.21784 -230.28906,53.05078 -56.75102,37.83294 -87.70117,101.10705 -87.70117,172.93551 0,71.8285 30.9493,135.1038 87.69922,172.9375 56.74991,37.8338 133.62484,53.0526 230.28515,53.0528 87.32641,2e-4 148.44291,15.448 183.68946,38.9472 35.24654,23.4992 50.29967,52.2267 50.30468,103.0684 0.005,47.3407 -17.51402,74.8305 -68.58984,100.4707 -51.07553,25.64 -137.29332,41.535 -255.4707,41.5352 -177.86282,0 -324.08789,-146.0215 -324.08789,-326.002 V 492 c 0,-23.19596 -18.80404,-42 -42,-42 z"
       id="path10-0"
       sodipodi:nodetypes="sssssssssssssssssssssssssssss" /></g></svg>
