<?xml version="1.0" encoding="UTF-8" standalone="no"?>
<svg
   version="1.1"
   viewBox="-10 0 1239 2048"
   id="svg1"
   sodipodi:docname="arcomp_s_swash_final.svg"
   inkscape:version="1.3 (0e150ed6c4, 2023-07-21)"
   xml:space="preserve"
   xmlns:inkscape="http://www.inkscape.org/namespaces/inkscape"
   xmlns:sodipodi="http://sodipodi.sourceforge.net/DTD/sodipodi-0.dtd"
   xmlns="http://www.w3.org/2000/svg"
   xmlns:svg="http://www.w3.org/2000/svg"><defs
     id="defs1"><inkscape:path-effect
       effect="spiro"
       id="path-effect69"
       is_visible="true"
       lpeversion="1" /><inkscape:path-effect
       effect="spiro"
       id="path-effect68"
       is_visible="true"
       lpeversion="1" /><inkscape:path-effect
       effect="spiro"
       id="path-effect67"
       is_visible="true"
       lpeversion="1" /><inkscape:path-effect
       effect="spiro"
       id="path-effect66"
       is_visible="true"
       lpeversion="1" /><inkscape:path-effect
       effect="spiro"
       id="path-effect65"
       is_visible="true"
       lpeversion="1" /><inkscape:path-effect
       effect="bspline"
       id="path-effect64"
       is_visible="true"
       lpeversion="1.3"
       weight="33.333333"
       steps="2"
       helper_size="0"
       apply_no_weight="true"
       apply_with_weight="true"
       only_selected="false"
       uniform="false" /></defs><sodipodi:namedview
     id="namedview1"
     pagecolor="#ffffff"
     bordercolor="#999999"
     borderopacity="1"
     inkscape:showpageshadow="2"
     inkscape:pageopacity="0"
     inkscape:pagecheckerboard="0"
     inkscape:deskcolor="#d1d1d1"
     inkscape:zoom="0.35355339"
     inkscape:cx="316.78384"
     inkscape:cy="1825.7497"
     inkscape:window-width="1920"
     inkscape:window-height="1001"
     inkscape:window-x="-9"
     inkscape:window-y="-9"
     inkscape:window-maximized="1"
     inkscape:current-layer="svg1"
     showguides="false"><sodipodi:guide
       position="866,410"
       orientation="0,-1"
       id="guide1"
       inkscape:locked="false" /><sodipodi:guide
       position="1230,1230"
       orientation="0,1"
       id="guide2"
       inkscape:locked="false"
       inkscape:label=""
       inkscape:color="rgb(0,134,229)" /><sodipodi:guide
       position="208,219.91946"
       orientation="-1,0"
       id="guide4"
       inkscape:locked="false"
       inkscape:label=""
       inkscape:color="rgb(0,134,229)" /><sodipodi:guide
       position="986,96.214765"
       orientation="-1,0"
       id="guide5"
       inkscape:locked="false"
       inkscape:label=""
       inkscape:color="rgb(0,134,229)" /><sodipodi:guide
       position="0,0"
       orientation="0,-1"
       id="guide7"
       inkscape:locked="false" /><sodipodi:guide
       position="1239,481.27157"
       orientation="1,0"
       id="guide8"
       inkscape:locked="false" /><sodipodi:guide
       position="250,248.01176"
       orientation="-1,0"
       id="guide9"
       inkscape:locked="false"
       inkscape:label=""
       inkscape:color="rgb(0,134,229)" /><sodipodi:guide
       position="1028,452"
       orientation="-1,0"
       id="guide10"
       inkscape:locked="false"
       inkscape:label=""
       inkscape:color="rgb(0,134,229)" /><sodipodi:guide
       position="124.40523,452"
       orientation="0,1"
       id="guide11"
       inkscape:locked="false"
       inkscape:label=""
       inkscape:color="rgb(0,134,229)" /><sodipodi:guide
       position="427.64299,1188"
       orientation="0,1"
       id="guide12"
       inkscape:locked="false"
       inkscape:label=""
       inkscape:color="rgb(0,134,229)" /><sodipodi:guide
       position="97.19159,84"
       orientation="0,1"
       id="guide13"
       inkscape:locked="false"
       inkscape:label=""
       inkscape:color="rgb(0,134,229)" /><sodipodi:guide
       position="590.92487,1556"
       orientation="0,1"
       id="guide14"
       inkscape:locked="false"
       inkscape:label=""
       inkscape:color="rgb(0,134,229)" /></sodipodi:namedview><g
     inkscape:groupmode="layer"
     id="layer2"
     inkscape:label="letter parts 1"
     style="display:inline"><path
       id="path10"
       style="color:#000000;fill:#000000;stroke-linecap:round;stroke-linejoin:round;-inkscape-stroke:none"
       d="m 608,818 c -126.1624,0 -223.42477,14.75831 -294.77344,50.43164 -71.34867,35.67333 -115.21484,100.22798 -115.21484,175.55666 0,75.3285 43.86548,139.8825 115.21289,175.5566 71.34741,35.6742 168.6078,50.4315 294.76562,50.4317 119.15742,2e-4 205.88726,15.9083 257.20118,41.5664 51.3139,25.6579 68.78368,53.106 68.78711,100.4433 0.003,47.335 -17.4603,74.7782 -68.77149,100.4356 -51.31193,25.6576 -138.04474,41.5644 -257.26079,41.5724 -119.21604,0.01 -205.94886,-15.8993 -257.26263,-41.5565 -51.31375,-25.657 -68.77929,-53.0991 -68.77929,-100.4316 0,-23.196 -18.80404,-42 -42,-42 -23.19596,0 -42,18.804 -42,42 0,75.3321 43.86389,139.8877 115.21289,175.5625 31.2581,15.6292 67.68193,26.3273 108.94922,35.3594 45.84514,10.034 65.74711,32.0718 85.5957,62.9863 20.78983,32.3805 36.04619,76.5039 66.10937,118.5469 89.47681,125.1321 249.38201,204.9447 403.11329,201.5781 23.21731,-0.5085 41.62671,-19.7417 41.11911,-42.959 -0.5075,-23.2181 -19.74089,-41.6294 -42.95896,-41.1211 -121.975,2.6705 -261.93349,-67.2217 -332.86328,-166.416 -22.19309,-31.0367 -35.2701,-71.7946 -65.73047,-117.9043 10.29874,0.2167 20.7277,0.3633 31.44141,0.3633 0.0326,-0.01 0.0651,-0.01 0.0977,-0.016 h 0.01 c 126.16249,0 223.42504,-14.7568 294.77344,-50.4336 71.3484,-35.6766 115.21306,-100.2389 115.20506,-175.5742 -0.01,-75.3342 -43.87191,-139.8905 -115.22069,-175.5664 -71.34878,-35.6759 -168.60992,-50.4352 -294.76758,-50.4355 -119.15722,-2e-4 -205.88629,-15.9077 -257.19921,-41.5645 -51.31294,-25.6568 -68.7793,-53.097 -68.7793,-100.4238 0,-47.32702 17.4652,-74.76751 68.7793,-100.42385 C 402.10511,917.90813 488.83762,902 608,902 c 119.16238,0 205.89523,15.90737 257.20898,41.56445 51.31377,25.6571 68.7793,53.09918 68.7793,100.43165 0,23.196 18.80404,42 42,42 23.19597,0 42.00002,-18.804 42.00002,-42 0,-75.33209 -43.86587,-139.88771 -115.21486,-175.56251 C 831.42445,832.75881 734.1624,818 608,818 Z"
       sodipodi:nodetypes="ssssssssssssssssssssscccsssssssssssssss" /></g></svg>
