<?xml version="1.0" encoding="UTF-8" standalone="no"?>
<svg
   version="1.1"
   viewBox="-10 0 1239 2048"
   id="svg1"
   sodipodi:docname="arcomp_dollar_final.svg"
   inkscape:version="1.3 (0e150ed6c4, 2023-07-21)"
   xml:space="preserve"
   xmlns:inkscape="http://www.inkscape.org/namespaces/inkscape"
   xmlns:sodipodi="http://sodipodi.sourceforge.net/DTD/sodipodi-0.dtd"
   xmlns="http://www.w3.org/2000/svg"
   xmlns:svg="http://www.w3.org/2000/svg"><defs
     id="defs1"><inkscape:path-effect
       effect="spiro"
       id="path-effect69"
       is_visible="true"
       lpeversion="1" /><inkscape:path-effect
       effect="spiro"
       id="path-effect68"
       is_visible="true"
       lpeversion="1" /><inkscape:path-effect
       effect="spiro"
       id="path-effect67"
       is_visible="true"
       lpeversion="1" /><inkscape:path-effect
       effect="spiro"
       id="path-effect66"
       is_visible="true"
       lpeversion="1" /><inkscape:path-effect
       effect="spiro"
       id="path-effect65"
       is_visible="true"
       lpeversion="1" /><inkscape:path-effect
       effect="bspline"
       id="path-effect64"
       is_visible="true"
       lpeversion="1.3"
       weight="33.333333"
       steps="2"
       helper_size="0"
       apply_no_weight="true"
       apply_with_weight="true"
       only_selected="false"
       uniform="false" /></defs><sodipodi:namedview
     id="namedview1"
     pagecolor="#ffffff"
     bordercolor="#999999"
     borderopacity="1"
     inkscape:showpageshadow="2"
     inkscape:pageopacity="0"
     inkscape:pagecheckerboard="0"
     inkscape:deskcolor="#d1d1d1"
     inkscape:zoom="0.36312343"
     inkscape:cx="618.24708"
     inkscape:cy="1023.0681"
     inkscape:window-width="1920"
     inkscape:window-height="1001"
     inkscape:window-x="-9"
     inkscape:window-y="-9"
     inkscape:window-maximized="1"
     inkscape:current-layer="layer2"
     showguides="false"><sodipodi:guide
       position="866,410"
       orientation="0,-1"
       id="guide1"
       inkscape:locked="false" /><sodipodi:guide
       position="1230,1230"
       orientation="0,1"
       id="guide2"
       inkscape:locked="false"
       inkscape:label=""
       inkscape:color="rgb(0,134,229)" /><sodipodi:guide
       position="208,219.91946"
       orientation="-1,0"
       id="guide4"
       inkscape:locked="false"
       inkscape:label=""
       inkscape:color="rgb(0,134,229)" /><sodipodi:guide
       position="986,96.214765"
       orientation="-1,0"
       id="guide5"
       inkscape:locked="false"
       inkscape:label=""
       inkscape:color="rgb(0,134,229)" /><sodipodi:guide
       position="0,0"
       orientation="0,-1"
       id="guide7"
       inkscape:locked="false" /><sodipodi:guide
       position="1239,481.27157"
       orientation="1,0"
       id="guide8"
       inkscape:locked="false" /><sodipodi:guide
       position="250,248.01176"
       orientation="-1,0"
       id="guide9"
       inkscape:locked="false"
       inkscape:label=""
       inkscape:color="rgb(0,134,229)" /><sodipodi:guide
       position="1028,452"
       orientation="-1,0"
       id="guide10"
       inkscape:locked="false"
       inkscape:label=""
       inkscape:color="rgb(0,134,229)" /><sodipodi:guide
       position="124.40523,452"
       orientation="0,1"
       id="guide11"
       inkscape:locked="false"
       inkscape:label=""
       inkscape:color="rgb(0,134,229)" /><sodipodi:guide
       position="427.64299,1188"
       orientation="0,1"
       id="guide12"
       inkscape:locked="false"
       inkscape:label=""
       inkscape:color="rgb(0,134,229)" /><sodipodi:guide
       position="97.19159,84"
       orientation="0,1"
       id="guide13"
       inkscape:locked="false"
       inkscape:label=""
       inkscape:color="rgb(0,134,229)" /><sodipodi:guide
       position="590.92487,1556"
       orientation="0,1"
       id="guide14"
       inkscape:locked="false"
       inkscape:label=""
       inkscape:color="rgb(0,134,229)" /></sodipodi:namedview><g
     inkscape:groupmode="layer"
     id="layer2"
     inkscape:label="letter parts 1"
     style="display:inline"><path
       id="path10"
       style="color:#000000;fill:#000000;stroke-linecap:round;stroke-linejoin:round;-inkscape-stroke:none"
       d="m 608,450 c -23.19596,0 -42,18.80404 -42,42 v 142.64258 c -105.9383,3.05751 -189.5744,18.19044 -252.77344,49.78906 -71.34867,35.67332 -115.21484,100.22802 -115.21484,175.55664 0,75.32858 43.86548,139.88252 115.21289,175.55662 63.19947,31.6002 146.83695,46.7322 252.77539,49.7891 v 283.9375 c -97.69874,-3.3191 -170.13701,-18.3132 -215.20898,-40.8496 -51.31379,-25.6575 -68.7793,-53.1013 -68.7793,-100.4336 0,-23.196 -18.80404,-42 -42,-42 -23.19596,0 -42,18.804 -42,42 0,75.332 43.86391,139.8893 115.21289,175.5644 63.19931,31.6004 146.83675,46.7335 252.77539,49.7911 V 1596 c 0,23.196 18.80404,42 42,42 23.19596,0 42,-18.804 42,-42 v -142.6562 c 105.93839,-3.0574 189.57463,-18.1895 252.77344,-49.7911 71.3484,-35.6766 115.21306,-100.2389 115.20506,-175.5742 -0.01,-75.3342 -43.87191,-139.8905 -115.22069,-175.5664 C 839.56092,1020.8124 755.92944,1005.6779 650,1002.6191 V 718.71484 c 97.69878,3.31917 170.13702,18.31346 215.20898,40.84961 51.31378,25.6571 68.7793,53.09922 68.7793,100.43164 0,23.19596 18.80404,42 42,42 23.19597,10e-6 42.00002,-18.80403 42.00002,-42 0,-75.33205 -43.86587,-139.88771 -115.21486,-175.5625 C 839.57411,652.83368 755.93824,637.70019 650,634.64258 V 492 c 0,-23.19596 -18.80404,-42 -42,-42 z m -42,268.71484 v 282.54686 c -97.69842,-3.31869 -170.13659,-18.31311 -215.20898,-40.84959 -51.31294,-25.65678 -68.7793,-53.09695 -68.7793,-100.42383 0,-47.32695 17.46519,-74.7675 68.7793,-100.42383 C 395.86327,737.02897 468.30127,722.03415 566,718.71484 Z m 84,367.97656 c 97.68916,3.3204 170.12104,18.3154 215.19141,40.8516 51.31391,25.6579 68.78368,53.106 68.78711,100.4433 0.003,47.335 -17.4603,74.7782 -68.77149,100.4356 C 820.13668,1350.9586 747.6987,1365.9524 650,1369.2715 Z"
       sodipodi:nodetypes="sscsssccssssscssscsssccssssscssccsssccssscc" /></g></svg>
