<?xml version="1.0" encoding="UTF-8" standalone="no"?>
<svg
   version="1.1"
   viewBox="-10 0 1239 2048"
   id="svg1"
   sodipodi:docname="arcomp_virgo_final.svg"
   inkscape:version="1.3 (0e150ed6c4, 2023-07-21)"
   xml:space="preserve"
   xmlns:inkscape="http://www.inkscape.org/namespaces/inkscape"
   xmlns:sodipodi="http://sodipodi.sourceforge.net/DTD/sodipodi-0.dtd"
   xmlns="http://www.w3.org/2000/svg"
   xmlns:svg="http://www.w3.org/2000/svg"><defs
     id="defs1"><inkscape:path-effect
       effect="spiro"
       id="path-effect69"
       is_visible="true"
       lpeversion="1" /><inkscape:path-effect
       effect="spiro"
       id="path-effect68"
       is_visible="true"
       lpeversion="1" /><inkscape:path-effect
       effect="spiro"
       id="path-effect67"
       is_visible="true"
       lpeversion="1" /><inkscape:path-effect
       effect="spiro"
       id="path-effect66"
       is_visible="true"
       lpeversion="1" /><inkscape:path-effect
       effect="spiro"
       id="path-effect65"
       is_visible="true"
       lpeversion="1" /><inkscape:path-effect
       effect="bspline"
       id="path-effect64"
       is_visible="true"
       lpeversion="1.3"
       weight="33.333333"
       steps="2"
       helper_size="0"
       apply_no_weight="true"
       apply_with_weight="true"
       only_selected="false"
       uniform="false" /></defs><sodipodi:namedview
     id="namedview1"
     pagecolor="#ffffff"
     bordercolor="#999999"
     borderopacity="1"
     inkscape:showpageshadow="2"
     inkscape:pageopacity="0"
     inkscape:pagecheckerboard="0"
     inkscape:deskcolor="#d1d1d1"
     inkscape:zoom="0.1767767"
     inkscape:cx="659.02352"
     inkscape:cy="1032.3759"
     inkscape:window-width="1920"
     inkscape:window-height="1001"
     inkscape:window-x="-9"
     inkscape:window-y="-9"
     inkscape:window-maximized="1"
     inkscape:current-layer="svg1"
     showguides="false"
     showgrid="false"><sodipodi:guide
       position="866,410"
       orientation="0,-1"
       id="guide1"
       inkscape:locked="false" /><sodipodi:guide
       position="1230,1230"
       orientation="0,1"
       id="guide2"
       inkscape:locked="false"
       inkscape:label=""
       inkscape:color="rgb(0,134,229)" /><sodipodi:guide
       position="208,219.91946"
       orientation="-1,0"
       id="guide4"
       inkscape:locked="false"
       inkscape:label=""
       inkscape:color="rgb(0,134,229)" /><sodipodi:guide
       position="986,96.214765"
       orientation="-1,0"
       id="guide5"
       inkscape:locked="false"
       inkscape:label=""
       inkscape:color="rgb(0,134,229)" /><sodipodi:guide
       position="0,0"
       orientation="0,-1"
       id="guide7"
       inkscape:locked="false" /><sodipodi:guide
       position="1239,481.27157"
       orientation="1,0"
       id="guide8"
       inkscape:locked="false" /><sodipodi:guide
       position="250,248.01176"
       orientation="-1,0"
       id="guide9"
       inkscape:locked="false"
       inkscape:label=""
       inkscape:color="rgb(0,134,229)" /><sodipodi:guide
       position="1028,452"
       orientation="-1,0"
       id="guide10"
       inkscape:locked="false"
       inkscape:label=""
       inkscape:color="rgb(0,134,229)" /><sodipodi:guide
       position="124.40523,452"
       orientation="0,1"
       id="guide11"
       inkscape:locked="false"
       inkscape:label=""
       inkscape:color="rgb(0,134,229)" /><sodipodi:guide
       position="427.64299,1188"
       orientation="0,1"
       id="guide12"
       inkscape:locked="false"
       inkscape:label=""
       inkscape:color="rgb(0,134,229)" /><sodipodi:guide
       position="97.19159,84"
       orientation="0,1"
       id="guide13"
       inkscape:locked="false"
       inkscape:label=""
       inkscape:color="rgb(0,134,229)" /><sodipodi:guide
       position="590.92487,1556"
       orientation="0,1"
       id="guide14"
       inkscape:locked="false"
       inkscape:label=""
       inkscape:color="rgb(0,134,229)" /></sodipodi:namedview><g
     inkscape:groupmode="layer"
     id="layer2"
     inkscape:label="letter parts 1"
     style="display:inline"><path
       id="path3-9"
       style="color:#000000;fill:#000000;stroke-linecap:round;stroke-linejoin:round;-inkscape-stroke:none"
       d="m -36,450.00586 c -23.195936,0 -42,18.80406 -42,42 0,23.19594 18.804064,42 42,42 47.331352,0 74.77247,17.46621 100.429688,68.78125 C 90.086904,654.10215 105.99514,740.83712 106,860.00195 V 1596 c 0,23.196 18.80406,42 42,42 23.19594,0 42,-18.804 42,-42 V 860.00195 c 0,-69.00367 5.85372,-185.7894 41.56641,-257.21484 25.65748,-51.31506 53.0983,-68.78125 100.42968,-68.78125 47.33141,0 74.77407,17.4663 100.43164,68.78125 25.65731,51.31437 41.56509,138.04841 41.56836,257.21094 L 474,1596 c 0,23.196 18.80404,42 42,42 23.19596,0 42,-18.804 42,-42 L 557.996,860.00195 V 860 c 0,-68.95163 5.85185,-185.77629 41.57032,-257.21289 25.65758,-51.31495 53.0983,-68.78125 100.42968,-68.78125 47.33141,0 74.7743,17.46612 100.43164,68.78125 25.65737,51.31513 41.56544,138.05087 41.56641,257.2168 l 0.002,183.99409 0.004,489.7657 C 796.8946,1546.8476 749.2838,1554 699.99609,1554 c -23.19593,0 -42,18.804 -42,42 0,23.196 18.80407,42 42,42 49.41206,0 97.41877,-6.1931 143.37696,-17.6719 C 855.61067,1733.3051 951.90373,1822 1068,1822 c 23.196,0 42,-18.804 42,-42 0,-23.196 -18.804,-42 -42,-42 -87.89611,0 -142,-71.6751 -142,-144.9434 215.5401,-89.2842 367.9961,-301.9923 367.9961,-549.0566 -0.01,-126.16352 -14.7652,-223.42814 -50.4395,-294.77734 -35.674,-71.34922 -100.229,-115.21485 -168.1571,-115.21585 -67.9282,-10e-4 -121.45882,28.36087 -158.68075,76.49705 -7.93726,-56.81437 -21.15861,-105.28174 -41.1582,-145.28125 -35.67471,-71.34998 -100.23282,-115.2168 -175.56446,-115.2168 -75.33161,0 -139.88567,43.8654 -175.56054,115.21484 -2.97438,5.94873 -5.75229,12.14633 -8.43946,18.45703 -2.68706,-6.31046 -5.46323,-12.50852 -8.4375,-18.45703 -35.67473,-71.34944 -100.23086,-115.21484 -175.5625,-115.21484 -75.33161,0 -139.88751,43.86674 -175.5625,115.2168 -3.0313,6.06262 -5.70249,12.57894 -8.43554,19.01757 -2.73333,-6.43943 -5.40589,-12.95621 -8.4375,-19.01953 C 103.88634,493.87153 39.331559,450.00586 -36,450.00586 Z m 1204.4238,336.78125 c 25.6572,51.31475 41.5673,138.0491 41.5723,257.21289 0,200.2428 -115.8265,373.6642 -283.9961,457.0879 l -0.004,-457.084 c 0.005,-119.16497 15.91307,-205.8998 41.57032,-257.21484 25.65721,-51.31504 53.09818,-68.78125 100.42958,-68.78223 47.3314,-9.7e-4 74.7709,17.46524 100.4279,68.78028 z"
       sodipodi:nodetypes="sssscsssssssscscccssscccssscsssccsscsssccssccsccccssc" /></g></svg>
