<?xml version="1.0" encoding="UTF-8" standalone="no"?>
<svg
   version="1.1"
   viewBox="-10 0 1239 2048"
   id="svg1"
   sodipodi:docname="arcomp_onsen_final.svg"
   inkscape:version="1.3 (0e150ed6c4, 2023-07-21)"
   xml:space="preserve"
   xmlns:inkscape="http://www.inkscape.org/namespaces/inkscape"
   xmlns:sodipodi="http://sodipodi.sourceforge.net/DTD/sodipodi-0.dtd"
   xmlns="http://www.w3.org/2000/svg"
   xmlns:svg="http://www.w3.org/2000/svg"><defs
     id="defs1"><inkscape:path-effect
       effect="spiro"
       id="path-effect69"
       is_visible="true"
       lpeversion="1" /><inkscape:path-effect
       effect="spiro"
       id="path-effect68"
       is_visible="true"
       lpeversion="1" /><inkscape:path-effect
       effect="spiro"
       id="path-effect67"
       is_visible="true"
       lpeversion="1" /><inkscape:path-effect
       effect="spiro"
       id="path-effect66"
       is_visible="true"
       lpeversion="1" /><inkscape:path-effect
       effect="spiro"
       id="path-effect65"
       is_visible="true"
       lpeversion="1" /><inkscape:path-effect
       effect="bspline"
       id="path-effect64"
       is_visible="true"
       lpeversion="1.3"
       weight="33.333333"
       steps="2"
       helper_size="0"
       apply_no_weight="true"
       apply_with_weight="true"
       only_selected="false"
       uniform="false" /></defs><sodipodi:namedview
     id="namedview1"
     pagecolor="#ffffff"
     bordercolor="#999999"
     borderopacity="1"
     inkscape:showpageshadow="2"
     inkscape:pageopacity="0"
     inkscape:pagecheckerboard="0"
     inkscape:deskcolor="#d1d1d1"
     inkscape:zoom="0.35355339"
     inkscape:cx="633.56768"
     inkscape:cy="1387.3435"
     inkscape:window-width="1920"
     inkscape:window-height="1001"
     inkscape:window-x="-9"
     inkscape:window-y="-9"
     inkscape:window-maximized="1"
     inkscape:current-layer="svg1"
     showguides="false"><sodipodi:guide
       position="866,410"
       orientation="0,-1"
       id="guide1"
       inkscape:locked="false" /><sodipodi:guide
       position="1230,1230"
       orientation="0,1"
       id="guide2"
       inkscape:locked="false"
       inkscape:label=""
       inkscape:color="rgb(0,134,229)" /><sodipodi:guide
       position="208,219.91946"
       orientation="-1,0"
       id="guide4"
       inkscape:locked="false"
       inkscape:label=""
       inkscape:color="rgb(0,134,229)" /><sodipodi:guide
       position="986,96.214765"
       orientation="-1,0"
       id="guide5"
       inkscape:locked="false"
       inkscape:label=""
       inkscape:color="rgb(0,134,229)" /><sodipodi:guide
       position="0,0"
       orientation="0,-1"
       id="guide7"
       inkscape:locked="false" /><sodipodi:guide
       position="1239,481.27157"
       orientation="1,0"
       id="guide8"
       inkscape:locked="false" /><sodipodi:guide
       position="250,248.01176"
       orientation="-1,0"
       id="guide9"
       inkscape:locked="false"
       inkscape:label=""
       inkscape:color="rgb(0,134,229)" /><sodipodi:guide
       position="1028,452"
       orientation="-1,0"
       id="guide10"
       inkscape:locked="false"
       inkscape:label=""
       inkscape:color="rgb(0,134,229)" /><sodipodi:guide
       position="124.40523,452"
       orientation="0,1"
       id="guide11"
       inkscape:locked="false"
       inkscape:label=""
       inkscape:color="rgb(0,134,229)" /><sodipodi:guide
       position="427.64299,1188"
       orientation="0,1"
       id="guide12"
       inkscape:locked="false"
       inkscape:label=""
       inkscape:color="rgb(0,134,229)" /><sodipodi:guide
       position="97.19159,84"
       orientation="0,1"
       id="guide13"
       inkscape:locked="false"
       inkscape:label=""
       inkscape:color="rgb(0,134,229)" /><sodipodi:guide
       position="590.92487,1556"
       orientation="0,1"
       id="guide14"
       inkscape:locked="false"
       inkscape:label=""
       inkscape:color="rgb(0,134,229)" /></sodipodi:namedview><g
     inkscape:groupmode="layer"
     id="layer4"
     inkscape:label="guide 1"
     style="display:inline"><path
       id="path15"
       style="display:inline;fill:#000000;stroke-width:84;stroke-linecap:round;stroke-linejoin:round;paint-order:stroke fill markers"
       d="m 608.34935,615.18754 c -7.0032,-0.1463 -13.953,3.0749 -18.2988,9.2265 -38.6875,50.4094 -61.6316,108.4136 -67.1211,171.8379 -4.5175,69.6141 15.918,134.6889 50.6406,183.48441 33.9257,47.67575 47.7542,94.44435 51.418,135.01375 2.7441,30.386 2.7637,90.4177 -32.6133,148.3007 -5.465,8.9418 -4.0104,20.4007 4.5488,26.4473 8.5592,6.0466 19.9055,3.6381 26.4473,-4.5489 20.7485,-25.9661 62.5415,-85.4808 68.541,-170.1972 4.823,-68.1034 -14.4203,-133.14625 -49.7363,-183.48446 -17.2664,-24.6108 -45.1768,-70.9498 -50.5137,-135.0156 -5.7713,-69.281 18.1168,-124.1279 34.0332,-146.6582 6.9533,-9.8427 4.6102,-23.4588 -5.2324,-30.4121 -3.691,-2.6075 -7.9114,-3.9064 -12.1133,-3.9941 z m -184,36 c -7.00315,-0.1463 -13.953,3.0749 -18.29883,9.2265 -38.68744,50.4094 -61.63154,108.4136 -67.1211,171.8379 -4.51745,69.6141 15.91802,134.68891 50.64063,183.48446 33.92571,47.6757 47.7542,94.4443 51.418,135.0137 2.7441,30.386 2.7637,90.4178 -32.61331,148.3008 -5.46502,8.9417 -4.01036,20.4006 4.54882,26.4472 8.55916,6.0466 19.90549,3.6381 26.44729,-4.5488 20.7484,-25.9662 62.5415,-85.4809 68.541,-170.1973 4.823,-68.1034 -14.4203,-133.1462 -49.7363,-183.48435 -17.2664,-24.61091 -45.17682,-70.94991 -50.51371,-135.01571 -5.77132,-69.281 18.11678,-124.1279 34.03321,-146.6582 6.9533,-9.8427 4.6103,-23.4588 -5.2324,-30.4121 -3.691,-2.6075 -7.91142,-3.9064 -12.1133,-3.9941 z m 368,0 c -7.0032,-0.1463 -13.953,3.0749 -18.2988,9.2265 -38.6875,50.4094 -61.6316,108.4136 -67.1211,171.8379 -4.5175,69.6141 15.918,134.68881 50.6406,183.48446 33.9258,47.6758 47.7542,94.4444 51.418,135.0137 2.7441,30.3861 2.7545,90.4122 -32.6133,148.3008 -5.4593,8.9354 -3.9899,20.3878 4.5625,26.4296 8.5523,6.0418 19.8946,3.6474 26.4336,-4.5312 20.7553,-25.9598 62.5415,-85.4804 68.541,-170.1973 4.823,-68.1034 -14.4203,-133.1462 -49.7363,-183.48445 -17.2667,-24.61121 -45.1768,-70.95011 -50.5137,-135.01561 -5.7714,-69.2818 18.1175,-124.1292 34.0332,-146.6582 6.9534,-9.8427 4.6102,-23.4588 -5.2324,-30.4121 -3.6911,-2.6075 -7.9114,-3.9064 -12.1133,-3.9941 z M 318.23216,996.83595 c -4.11519,0.1324 -8.23732,1.4519 -11.82422,4.04695 -18.5598,13.4275 -31.63827,25.32 -35.34375,28.8926 -54.666,52.7042 -63.99397,117.8901 -65.15234,152.2246 -2.28858,67.8336 18.42965,149.632 105.08202,205.9199 73.26368,47.591 178.20618,66.0918 296.87888,66.08 121.9959,-0.021 225.1978,-19.577 296.8399,-66.1445 86.61,-56.2964 107.49155,-138.0748 104.97665,-205.8554 -1.9832,-53.4461 -19.88005,-108.5853 -65.46105,-152.3008 -2.4265,-2.3272 -15.1379,-14.1397 -35.0742,-28.5625 -9.4256,-6.81915 -22.595,-4.70685 -29.4141,4.7187 -6.8191,9.4256 -4.7048,22.595 4.7207,29.4141 10.0699,6.8284 18.3351,15.9311 25.8262,25.4336 32.8581,42.7471 32.9668,92.0926 31.7461,121.2969 -2.8949,69.2558 -32.3366,111.5462 -79.0176,139.1445 -65.5215,38.7369 -164.5819,48.865 -255.1426,48.8554 -85.2867,-0.015 -187.57259,-8.9573 -255.10349,-48.9179 -46.82203,-27.7065 -76.05819,-70.0733 -78.9121,-139.082 -1.20143,-29.051 -1.08131,-78.2734 31.62109,-120.8985 7.41005,-9.7226 15.97307,-18.5547 25.99023,-25.58 9.56512,-6.9201 11.70913,-20.2846 4.78907,-29.8497 -4.32504,-5.97815 -11.16676,-9.05655 -18.02539,-8.83595 z" /></g></svg>
