<?xml version="1.0" encoding="UTF-8" standalone="no"?>
<svg
   version="1.1"
   viewBox="-10 0 1239 2048"
   id="svg1"
   sodipodi:docname="arcomp_infinity_final.svg"
   inkscape:version="1.3 (0e150ed6c4, 2023-07-21)"
   xml:space="preserve"
   xmlns:inkscape="http://www.inkscape.org/namespaces/inkscape"
   xmlns:sodipodi="http://sodipodi.sourceforge.net/DTD/sodipodi-0.dtd"
   xmlns="http://www.w3.org/2000/svg"
   xmlns:svg="http://www.w3.org/2000/svg"><defs
     id="defs1"><inkscape:path-effect
       effect="spiro"
       id="path-effect69"
       is_visible="true"
       lpeversion="1" /><inkscape:path-effect
       effect="spiro"
       id="path-effect68"
       is_visible="true"
       lpeversion="1" /><inkscape:path-effect
       effect="spiro"
       id="path-effect67"
       is_visible="true"
       lpeversion="1" /><inkscape:path-effect
       effect="spiro"
       id="path-effect66"
       is_visible="true"
       lpeversion="1" /><inkscape:path-effect
       effect="spiro"
       id="path-effect65"
       is_visible="true"
       lpeversion="1" /><inkscape:path-effect
       effect="bspline"
       id="path-effect64"
       is_visible="true"
       lpeversion="1.3"
       weight="33.333333"
       steps="2"
       helper_size="0"
       apply_no_weight="true"
       apply_with_weight="true"
       only_selected="false"
       uniform="false" /></defs><sodipodi:namedview
     id="namedview1"
     pagecolor="#ffffff"
     bordercolor="#999999"
     borderopacity="1"
     inkscape:showpageshadow="2"
     inkscape:pageopacity="0"
     inkscape:pagecheckerboard="0"
     inkscape:deskcolor="#d1d1d1"
     inkscape:zoom="0.35355339"
     inkscape:cx="1062.0744"
     inkscape:cy="1675.8431"
     inkscape:window-width="1920"
     inkscape:window-height="1001"
     inkscape:window-x="-9"
     inkscape:window-y="-9"
     inkscape:window-maximized="1"
     inkscape:current-layer="svg1"
     showguides="false"
     showgrid="false"><sodipodi:guide
       position="866,410"
       orientation="0,-1"
       id="guide1"
       inkscape:locked="false" /><sodipodi:guide
       position="1230,1230"
       orientation="0,1"
       id="guide2"
       inkscape:locked="false"
       inkscape:label=""
       inkscape:color="rgb(0,134,229)" /><sodipodi:guide
       position="208,219.91946"
       orientation="-1,0"
       id="guide4"
       inkscape:locked="false"
       inkscape:label=""
       inkscape:color="rgb(0,134,229)" /><sodipodi:guide
       position="986,96.214765"
       orientation="-1,0"
       id="guide5"
       inkscape:locked="false"
       inkscape:label=""
       inkscape:color="rgb(0,134,229)" /><sodipodi:guide
       position="0,0"
       orientation="0,-1"
       id="guide7"
       inkscape:locked="false" /><sodipodi:guide
       position="1239,481.27157"
       orientation="1,0"
       id="guide8"
       inkscape:locked="false" /><sodipodi:guide
       position="250,248.01176"
       orientation="-1,0"
       id="guide9"
       inkscape:locked="false"
       inkscape:label=""
       inkscape:color="rgb(0,134,229)" /><sodipodi:guide
       position="1028,452"
       orientation="-1,0"
       id="guide10"
       inkscape:locked="false"
       inkscape:label=""
       inkscape:color="rgb(0,134,229)" /><sodipodi:guide
       position="124.40523,452"
       orientation="0,1"
       id="guide11"
       inkscape:locked="false"
       inkscape:label=""
       inkscape:color="rgb(0,134,229)" /><sodipodi:guide
       position="427.64299,1188"
       orientation="0,1"
       id="guide12"
       inkscape:locked="false"
       inkscape:label=""
       inkscape:color="rgb(0,134,229)" /><sodipodi:guide
       position="97.19159,84"
       orientation="0,1"
       id="guide13"
       inkscape:locked="false"
       inkscape:label=""
       inkscape:color="rgb(0,134,229)" /><sodipodi:guide
       position="590.92487,1556"
       orientation="0,1"
       id="guide14"
       inkscape:locked="false"
       inkscape:label=""
       inkscape:color="rgb(0,134,229)" /></sodipodi:namedview><path
     style="color:#000000;fill:#000000;-inkscape-stroke:none"
     d="m 348.02344,1002 c -55.24202,-0.3142 -115.29066,21.4398 -160.04492,66.1934 -44.82194,44.8214 -66.19336,104.9135 -66.19336,159.8066 0,54.8924 21.37114,114.985 66.19336,159.8066 44.75426,44.7536 104.8029,66.5057 160.04492,66.1914 59.00152,-0.3355 117.53431,-24.1612 159.5664,-66.1933 33.47006,-33.4701 66.94008,-66.9401 100.41016,-100.4102 33.46977,33.4698 66.93845,66.9405 100.4082,100.4102 42.03241,42.0323 100.56577,65.8578 159.56641,66.1933 55.24256,0.3143 115.29264,-21.4391 160.04689,-66.1933 44.8213,-44.8213 66.1933,-104.9118 66.1933,-159.8047 0,-54.8936 -21.3723,-114.9856 -66.1933,-159.8066 -44.75425,-44.7543 -104.80433,-66.5076 -160.04689,-66.1934 -59.00064,0.3356 -117.534,24.161 -159.56641,66.1934 C 674.93877,1101.6628 641.46944,1135.1322 608,1168.6016 574.53024,1135.1318 541.05957,1101.6631 507.58984,1068.1934 465.55775,1026.1613 407.02496,1002.3355 348.02344,1002 Z m -0.47852,83.998 c 35.14118,0.1999 76.11142,17.0548 100.64844,41.5918 33.46975,33.4698 66.93844,66.9405 100.4082,100.4102 -33.46944,33.4694 -66.93878,66.9388 -100.4082,100.4082 -24.53702,24.537 -65.50726,41.3919 -100.64844,41.5918 -30.62423,0.1742 -73.81199,-15.2343 -100.16992,-41.5918 -26.28898,-26.2887 -41.58984,-69.4327 -41.58984,-100.4082 0,-30.9766 15.30059,-74.1212 41.58984,-100.4102 26.35793,-26.3575 69.54569,-41.7659 100.16992,-41.5918 z m 520.9082,0 c 30.62576,-0.1741 73.81443,15.2344 100.17188,41.5918 26.28867,26.2887 41.5898,69.4341 41.5898,100.4102 0,30.975 -15.30141,74.1198 -41.5898,100.4082 -26.35745,26.3575 -69.54612,41.766 -100.17188,41.5918 -35.14002,-0.1998 -76.11123,-17.0546 -100.64843,-41.5918 C 734.33492,1294.9385 700.8643,1261.4697 667.39453,1228 c 33.47009,-33.47 66.94006,-66.9401 100.41016,-100.4102 24.5372,-24.5371 65.50841,-41.3919 100.64843,-41.5918 z"
     id="path6" /></svg>
