<?xml version="1.0" encoding="UTF-8" standalone="no"?>
<svg
   version="1.1"
   viewBox="-10 0 1239 2048"
   id="svg1"
   sodipodi:docname="arcomp_beta_final.svg"
   inkscape:version="1.3 (0e150ed6c4, 2023-07-21)"
   xml:space="preserve"
   xmlns:inkscape="http://www.inkscape.org/namespaces/inkscape"
   xmlns:sodipodi="http://sodipodi.sourceforge.net/DTD/sodipodi-0.dtd"
   xmlns="http://www.w3.org/2000/svg"
   xmlns:svg="http://www.w3.org/2000/svg"><defs
     id="defs1"><inkscape:path-effect
       effect="spiro"
       id="path-effect69"
       is_visible="true"
       lpeversion="1" /><inkscape:path-effect
       effect="spiro"
       id="path-effect68"
       is_visible="true"
       lpeversion="1" /><inkscape:path-effect
       effect="spiro"
       id="path-effect67"
       is_visible="true"
       lpeversion="1" /><inkscape:path-effect
       effect="spiro"
       id="path-effect66"
       is_visible="true"
       lpeversion="1" /><inkscape:path-effect
       effect="spiro"
       id="path-effect65"
       is_visible="true"
       lpeversion="1" /><inkscape:path-effect
       effect="bspline"
       id="path-effect64"
       is_visible="true"
       lpeversion="1.3"
       weight="33.333333"
       steps="2"
       helper_size="0"
       apply_no_weight="true"
       apply_with_weight="true"
       only_selected="false"
       uniform="false" /></defs><sodipodi:namedview
     id="namedview1"
     pagecolor="#ffffff"
     bordercolor="#999999"
     borderopacity="1"
     inkscape:showpageshadow="2"
     inkscape:pageopacity="0"
     inkscape:pagecheckerboard="0"
     inkscape:deskcolor="#d1d1d1"
     inkscape:zoom="0.35355339"
     inkscape:cx="485.07525"
     inkscape:cy="1070.5597"
     inkscape:window-width="1920"
     inkscape:window-height="1001"
     inkscape:window-x="-9"
     inkscape:window-y="-9"
     inkscape:window-maximized="1"
     inkscape:current-layer="layer2"
     showguides="false"><sodipodi:guide
       position="866,410"
       orientation="0,-1"
       id="guide1"
       inkscape:locked="false" /><sodipodi:guide
       position="1230,1230"
       orientation="0,1"
       id="guide2"
       inkscape:locked="false"
       inkscape:label=""
       inkscape:color="rgb(0,134,229)" /><sodipodi:guide
       position="208,219.91946"
       orientation="-1,0"
       id="guide4"
       inkscape:locked="false"
       inkscape:label=""
       inkscape:color="rgb(0,134,229)" /><sodipodi:guide
       position="986,96.214765"
       orientation="-1,0"
       id="guide5"
       inkscape:locked="false"
       inkscape:label=""
       inkscape:color="rgb(0,134,229)" /><sodipodi:guide
       position="0,0"
       orientation="0,-1"
       id="guide7"
       inkscape:locked="false" /><sodipodi:guide
       position="1239,481.27157"
       orientation="1,0"
       id="guide8"
       inkscape:locked="false" /><sodipodi:guide
       position="250,248.01176"
       orientation="-1,0"
       id="guide9"
       inkscape:locked="false"
       inkscape:label=""
       inkscape:color="rgb(0,134,229)" /><sodipodi:guide
       position="1028,452"
       orientation="-1,0"
       id="guide10"
       inkscape:locked="false"
       inkscape:label=""
       inkscape:color="rgb(0,134,229)" /><sodipodi:guide
       position="124.40523,452"
       orientation="0,1"
       id="guide11"
       inkscape:locked="false"
       inkscape:label=""
       inkscape:color="rgb(0,134,229)" /><sodipodi:guide
       position="427.64299,1188"
       orientation="0,1"
       id="guide12"
       inkscape:locked="false"
       inkscape:label=""
       inkscape:color="rgb(0,134,229)" /><sodipodi:guide
       position="97.19159,84"
       orientation="0,1"
       id="guide13"
       inkscape:locked="false"
       inkscape:label=""
       inkscape:color="rgb(0,134,229)" /><sodipodi:guide
       position="590.92487,1556"
       orientation="0,1"
       id="guide14"
       inkscape:locked="false"
       inkscape:label=""
       inkscape:color="rgb(0,134,229)" /></sodipodi:namedview><g
     inkscape:groupmode="layer"
     id="layer2"
     inkscape:label="letter parts 1"
     style="display:inline"><path
       id="path2"
       style="color:#000000;fill:#000000;stroke-linecap:round;stroke-linejoin:round;-inkscape-stroke:none"
       d="m 608.01172,450.01367 c -127.91748,-0.008 -229.1158,23.32533 -301.20117,77.38672 -72.08539,54.06139 -108.79883,139.2638 -108.79883,240.5957 L 198,1964 c 0,23.196 18.80404,42 42,42 23.19596,0 42,-18.804 42,-42 l 0.004,-445.7695 c 90.32657,76.1731 210.27631,120.6786 326.32421,119.7617 127.74471,-1.0094 228.71499,-24.3016 300.7754,-78.0625 72.06039,-53.761 108.88479,-138.6018 108.88479,-239.9336 0,-101.3319 -36.71352,-186.5345 -108.7969,-240.5977 -18.34316,-13.7575 -38.59396,-25.5045 -60.66797,-35.4043 22.07213,-9.8992 42.34569,-21.6185 60.6875,-35.375 72.08336,-54.06276 108.79687,-139.26442 108.79687,-240.59566 0,-101.33191 -36.71282,-186.53303 -108.79687,-240.59766 C 837.1269,473.36116 735.92837,450.0212 608.01172,450.01367 Z m -0.004,84 c 117.41787,0.007 200.21964,22.67436 250.80078,60.61133 50.58115,37.93697 75.19922,90.73287 75.19922,173.39844 0,82.66474 -24.61786,135.46171 -75.19726,173.39648 -50.50837,37.8815 -133.16408,60.52238 -250.31446,60.58598 -0.16746,-10e-5 -0.32853,-0.01 -0.49609,-0.01 l -0.0781,0.016 -183.1679,-0.012 c -23.19596,0 -42.00176,18.8001 -42.00391,41.9961 -0.002,23.196 18.80013,42.0017 41.99609,42.0039 l 183.26563,0.016 c 80.7457,0 184.90241,11.1738 250.7795,60.5821 50.57939,37.9348 75.19726,90.7328 75.19726,173.3984 0,82.6641 -24.50983,134.8511 -75.11523,172.6055 -50.6054,37.7542 -133.63215,60.4635 -251.20899,61.3925 -118.54301,0.9367 -252.6772,-62.8487 -325.6582,-156.2988 l 0.006,-629.69921 c 0,-82.66555 24.61745,-135.46153 75.19726,-173.39453 50.57982,-37.93299 133.38179,-60.59479 250.79883,-60.58789 z"
       sodipodi:nodetypes="ssccsccsssscssssssssscccsccssssccsss" /></g></svg>
