<?xml version="1.0" encoding="UTF-8" standalone="no"?>
<svg
   version="1.1"
   viewBox="-10 0 1239 2048"
   id="svg1"
   sodipodi:docname="arcomp_xi_final.svg"
   inkscape:version="1.3 (0e150ed6c4, 2023-07-21)"
   xml:space="preserve"
   xmlns:inkscape="http://www.inkscape.org/namespaces/inkscape"
   xmlns:sodipodi="http://sodipodi.sourceforge.net/DTD/sodipodi-0.dtd"
   xmlns="http://www.w3.org/2000/svg"
   xmlns:svg="http://www.w3.org/2000/svg"><defs
     id="defs1"><inkscape:path-effect
       effect="spiro"
       id="path-effect69"
       is_visible="true"
       lpeversion="1" /><inkscape:path-effect
       effect="spiro"
       id="path-effect68"
       is_visible="true"
       lpeversion="1" /><inkscape:path-effect
       effect="spiro"
       id="path-effect67"
       is_visible="true"
       lpeversion="1" /><inkscape:path-effect
       effect="spiro"
       id="path-effect66"
       is_visible="true"
       lpeversion="1" /><inkscape:path-effect
       effect="spiro"
       id="path-effect65"
       is_visible="true"
       lpeversion="1" /><inkscape:path-effect
       effect="bspline"
       id="path-effect64"
       is_visible="true"
       lpeversion="1.3"
       weight="33.333333"
       steps="2"
       helper_size="0"
       apply_no_weight="true"
       apply_with_weight="true"
       only_selected="false"
       uniform="false" /></defs><sodipodi:namedview
     id="namedview1"
     pagecolor="#ffffff"
     bordercolor="#999999"
     borderopacity="1"
     inkscape:showpageshadow="2"
     inkscape:pageopacity="0"
     inkscape:pagecheckerboard="0"
     inkscape:deskcolor="#d1d1d1"
     inkscape:zoom="0.35355339"
     inkscape:cx="765.08954"
     inkscape:cy="1079.0449"
     inkscape:window-width="1920"
     inkscape:window-height="1001"
     inkscape:window-x="-9"
     inkscape:window-y="-9"
     inkscape:window-maximized="1"
     inkscape:current-layer="layer2"
     showguides="false"><sodipodi:guide
       position="866,410"
       orientation="0,-1"
       id="guide1"
       inkscape:locked="false" /><sodipodi:guide
       position="1230,1230"
       orientation="0,1"
       id="guide2"
       inkscape:locked="false"
       inkscape:label=""
       inkscape:color="rgb(0,134,229)" /><sodipodi:guide
       position="208,219.91946"
       orientation="-1,0"
       id="guide4"
       inkscape:locked="false"
       inkscape:label=""
       inkscape:color="rgb(0,134,229)" /><sodipodi:guide
       position="986,96.214765"
       orientation="-1,0"
       id="guide5"
       inkscape:locked="false"
       inkscape:label=""
       inkscape:color="rgb(0,134,229)" /><sodipodi:guide
       position="0,0"
       orientation="0,-1"
       id="guide7"
       inkscape:locked="false" /><sodipodi:guide
       position="1239,481.27157"
       orientation="1,0"
       id="guide8"
       inkscape:locked="false" /><sodipodi:guide
       position="250,248.01176"
       orientation="-1,0"
       id="guide9"
       inkscape:locked="false"
       inkscape:label=""
       inkscape:color="rgb(0,134,229)" /><sodipodi:guide
       position="1028,452"
       orientation="-1,0"
       id="guide10"
       inkscape:locked="false"
       inkscape:label=""
       inkscape:color="rgb(0,134,229)" /><sodipodi:guide
       position="124.40523,452"
       orientation="0,1"
       id="guide11"
       inkscape:locked="false"
       inkscape:label=""
       inkscape:color="rgb(0,134,229)" /><sodipodi:guide
       position="427.64299,1188"
       orientation="0,1"
       id="guide12"
       inkscape:locked="false"
       inkscape:label=""
       inkscape:color="rgb(0,134,229)" /><sodipodi:guide
       position="97.19159,84"
       orientation="0,1"
       id="guide13"
       inkscape:locked="false"
       inkscape:label=""
       inkscape:color="rgb(0,134,229)" /><sodipodi:guide
       position="590.92487,1556"
       orientation="0,1"
       id="guide14"
       inkscape:locked="false"
       inkscape:label=""
       inkscape:color="rgb(0,134,229)" /></sodipodi:namedview><g
     inkscape:groupmode="layer"
     id="layer2"
     inkscape:label="letter parts 1"
     style="display:inline"><path
       id="path20"
       style="color:#000000;fill:#000000;stroke-linecap:round;stroke-linejoin:round;-inkscape-stroke:none"
       d="m 240,450 c -23.19596,0 -42,18.80404 -42,42 0,23.19596 18.80404,42 42,42 H 393.10742 C 329.80253,592.19492 290,675.59344 290,768 c 0,105.22961 51.62191,198.7611 130.79102,256.7012 -43.65764,12.5475 -81.7514,30.5354 -113.98243,54.709 -72.08337,54.063 -108.79687,139.2638 -108.79687,240.5957 0,101.3312 36.71352,186.5328 108.79687,240.5957 C 378.89196,1614.6644 480.08759,1638 608,1638 h 184 c 78.92175,0 142,63.0783 142,142 0,78.9217 -63.07825,142 -142,142 -23.19596,0 -42,18.804 -42,42 0,23.196 18.80404,42 42,42 124.31863,0 226,-101.6813 226,-226 0,-124.3187 -101.68137,-226 -226,-226 H 608 c -117.41238,0 -200.21161,-22.6628 -250.79102,-60.5977 -50.5794,-37.9347 -75.19726,-90.7317 -75.19726,-173.3964 0,-82.6657 24.61787,-135.4617 75.19726,-173.3965 50.5794,-37.935 133.37865,-60.5977 250.79102,-60.5977 30.66409,-0.023 61.33386,-0.012 92,-0.012 23.19596,0 42,-18.804 42,-42 0,-23.196 -18.80404,-42 -42,-42 H 608 C 478.26815,1002 374,897.73185 374,768 374,638.26815 478.26815,534 608,534 h 92 c 23.19596,0 42,-18.80404 42,-42 0,-23.19596 -18.80404,-42 -42,-42 z"
       sodipodi:nodetypes="ssscscssssssssssssssscssssssssss" /></g></svg>
