<?xml version="1.0" encoding="UTF-8" standalone="no"?>
<svg
   version="1.1"
   viewBox="-10 0 1239 2048"
   id="svg1"
   sodipodi:docname="arcomp_epsilon_final.svg"
   inkscape:version="1.3 (0e150ed6c4, 2023-07-21)"
   xml:space="preserve"
   xmlns:inkscape="http://www.inkscape.org/namespaces/inkscape"
   xmlns:sodipodi="http://sodipodi.sourceforge.net/DTD/sodipodi-0.dtd"
   xmlns="http://www.w3.org/2000/svg"
   xmlns:svg="http://www.w3.org/2000/svg"><defs
     id="defs1"><inkscape:path-effect
       effect="spiro"
       id="path-effect69"
       is_visible="true"
       lpeversion="1" /><inkscape:path-effect
       effect="spiro"
       id="path-effect68"
       is_visible="true"
       lpeversion="1" /><inkscape:path-effect
       effect="spiro"
       id="path-effect67"
       is_visible="true"
       lpeversion="1" /><inkscape:path-effect
       effect="spiro"
       id="path-effect66"
       is_visible="true"
       lpeversion="1" /><inkscape:path-effect
       effect="spiro"
       id="path-effect65"
       is_visible="true"
       lpeversion="1" /><inkscape:path-effect
       effect="bspline"
       id="path-effect64"
       is_visible="true"
       lpeversion="1.3"
       weight="33.333333"
       steps="2"
       helper_size="0"
       apply_no_weight="true"
       apply_with_weight="true"
       only_selected="false"
       uniform="false" /></defs><sodipodi:namedview
     id="namedview1"
     pagecolor="#ffffff"
     bordercolor="#999999"
     borderopacity="1"
     inkscape:showpageshadow="2"
     inkscape:pageopacity="0"
     inkscape:pagecheckerboard="0"
     inkscape:deskcolor="#d1d1d1"
     inkscape:zoom="0.5"
     inkscape:cx="469"
     inkscape:cy="1213"
     inkscape:window-width="1920"
     inkscape:window-height="1001"
     inkscape:window-x="-9"
     inkscape:window-y="-9"
     inkscape:window-maximized="1"
     inkscape:current-layer="layer2"
     showguides="false"><sodipodi:guide
       position="866,410"
       orientation="0,-1"
       id="guide1"
       inkscape:locked="false" /><sodipodi:guide
       position="1230,1230"
       orientation="0,1"
       id="guide2"
       inkscape:locked="false"
       inkscape:label=""
       inkscape:color="rgb(0,134,229)" /><sodipodi:guide
       position="208,219.91946"
       orientation="-1,0"
       id="guide4"
       inkscape:locked="false"
       inkscape:label=""
       inkscape:color="rgb(0,134,229)" /><sodipodi:guide
       position="986,96.214765"
       orientation="-1,0"
       id="guide5"
       inkscape:locked="false"
       inkscape:label=""
       inkscape:color="rgb(0,134,229)" /><sodipodi:guide
       position="0,0"
       orientation="0,-1"
       id="guide7"
       inkscape:locked="false" /><sodipodi:guide
       position="1239,481.27157"
       orientation="1,0"
       id="guide8"
       inkscape:locked="false" /><sodipodi:guide
       position="250,248.01176"
       orientation="-1,0"
       id="guide9"
       inkscape:locked="false"
       inkscape:label=""
       inkscape:color="rgb(0,134,229)" /><sodipodi:guide
       position="1028,452"
       orientation="-1,0"
       id="guide10"
       inkscape:locked="false"
       inkscape:label=""
       inkscape:color="rgb(0,134,229)" /><sodipodi:guide
       position="124.40523,452"
       orientation="0,1"
       id="guide11"
       inkscape:locked="false"
       inkscape:label=""
       inkscape:color="rgb(0,134,229)" /><sodipodi:guide
       position="427.64299,1188"
       orientation="0,1"
       id="guide12"
       inkscape:locked="false"
       inkscape:label=""
       inkscape:color="rgb(0,134,229)" /><sodipodi:guide
       position="97.19159,84"
       orientation="0,1"
       id="guide13"
       inkscape:locked="false"
       inkscape:label=""
       inkscape:color="rgb(0,134,229)" /><sodipodi:guide
       position="590.92487,1556"
       orientation="0,1"
       id="guide14"
       inkscape:locked="false"
       inkscape:label=""
       inkscape:color="rgb(0,134,229)" /></sodipodi:namedview><g
     inkscape:groupmode="layer"
     id="layer2"
     inkscape:label="letter parts 1"
     style="display:inline"><path
       style="color:#000000;fill:#000000;stroke-linecap:round;stroke-linejoin:round;-inkscape-stroke:none"
       d="M 608,818 C 481.83747,818 384.57382,832.75818 313.22461,868.43359 241.8754,904.109 198.01172,968.66644 198.01172,1044 c 0,114.7037 93.37148,166.8433 133.6582,184 C 291.36205,1245.164 198,1297.2993 198,1412 c 0,75.3322 43.86513,139.8895 115.21484,175.5645 71.34972,35.6749 168.61408,50.4326 294.7793,50.4335 126.16537,10e-4 223.42941,-14.757 294.7793,-50.4316 71.34989,-35.6745 115.21486,-100.2303 115.21486,-175.5625 0,-23.196 -18.80405,-42 -42.00002,-42 -23.19596,0 -42,18.804 -42,42 0,47.3325 -17.46679,74.7747 -68.78125,100.4316 -51.31446,25.657 -138.04748,41.5634 -257.21289,41.5625 -119.16546,-8e-4 -205.89828,-15.909 -257.21289,-41.5664 C 299.46664,1486.7742 282,1459.3325 282,1412 c 0,-47.3325 17.46664,-74.7742 68.78125,-100.4316 51.31461,-25.6574 138.04743,-41.5656 257.21289,-41.5664 22.96436,-0.3248 41.4102,-19.0334 41.4102,-42 0,-22.9666 -18.44584,-41.6752 -41.4102,-42 -119.15965,-9e-4 -205.89004,-15.9088 -257.20312,-41.5665 -51.31309,-25.6576 -68.7793,-53.1008 -68.7793,-100.4355 0,-47.33472 17.4656,-74.77812 68.7793,-100.43555 C 402.10471,917.90702 488.8375,902 608,902 c 119.16255,0 205.89515,15.90733 257.20898,41.56445 51.31384,25.65712 68.7793,53.09913 68.7793,100.43165 0,23.196 18.80404,42 42,42 23.19597,0 42.00002,-18.804 42.00002,-42 0,-75.33217 -43.86383,-139.88769 -115.21291,-175.56251 C 831.42631,832.75877 734.16257,818 608,818 Z"
       id="path8-9-8"
       sodipodi:nodetypes="ssscsssssssssssscscssssssssss" /></g></svg>
