<?xml version="1.0" encoding="UTF-8" standalone="no"?>
<svg
   version="1.1"
   viewBox="-10 0 1239 2048"
   id="svg1"
   sodipodi:docname="arcomp_omega_final.svg"
   inkscape:version="1.3 (0e150ed6c4, 2023-07-21)"
   xml:space="preserve"
   xmlns:inkscape="http://www.inkscape.org/namespaces/inkscape"
   xmlns:sodipodi="http://sodipodi.sourceforge.net/DTD/sodipodi-0.dtd"
   xmlns="http://www.w3.org/2000/svg"
   xmlns:svg="http://www.w3.org/2000/svg"><defs
     id="defs1"><inkscape:path-effect
       effect="spiro"
       id="path-effect69"
       is_visible="true"
       lpeversion="1" /><inkscape:path-effect
       effect="spiro"
       id="path-effect68"
       is_visible="true"
       lpeversion="1" /><inkscape:path-effect
       effect="spiro"
       id="path-effect67"
       is_visible="true"
       lpeversion="1" /><inkscape:path-effect
       effect="spiro"
       id="path-effect66"
       is_visible="true"
       lpeversion="1" /><inkscape:path-effect
       effect="spiro"
       id="path-effect65"
       is_visible="true"
       lpeversion="1" /><inkscape:path-effect
       effect="bspline"
       id="path-effect64"
       is_visible="true"
       lpeversion="1.3"
       weight="33.333333"
       steps="2"
       helper_size="0"
       apply_no_weight="true"
       apply_with_weight="true"
       only_selected="false"
       uniform="false" /></defs><sodipodi:namedview
     id="namedview1"
     pagecolor="#ffffff"
     bordercolor="#999999"
     borderopacity="1"
     inkscape:showpageshadow="2"
     inkscape:pageopacity="0"
     inkscape:pagecheckerboard="0"
     inkscape:deskcolor="#d1d1d1"
     inkscape:zoom="0.5"
     inkscape:cx="739"
     inkscape:cy="1203"
     inkscape:window-width="1920"
     inkscape:window-height="1001"
     inkscape:window-x="-9"
     inkscape:window-y="-9"
     inkscape:window-maximized="1"
     inkscape:current-layer="layer2"
     showguides="false"><sodipodi:guide
       position="866,410"
       orientation="0,-1"
       id="guide1"
       inkscape:locked="false" /><sodipodi:guide
       position="1230,1230"
       orientation="0,1"
       id="guide2"
       inkscape:locked="false"
       inkscape:label=""
       inkscape:color="rgb(0,134,229)" /><sodipodi:guide
       position="208,219.91946"
       orientation="-1,0"
       id="guide4"
       inkscape:locked="false"
       inkscape:label=""
       inkscape:color="rgb(0,134,229)" /><sodipodi:guide
       position="986,96.214765"
       orientation="-1,0"
       id="guide5"
       inkscape:locked="false"
       inkscape:label=""
       inkscape:color="rgb(0,134,229)" /><sodipodi:guide
       position="0,0"
       orientation="0,-1"
       id="guide7"
       inkscape:locked="false" /><sodipodi:guide
       position="1239,481.27157"
       orientation="1,0"
       id="guide8"
       inkscape:locked="false" /><sodipodi:guide
       position="250,248.01176"
       orientation="-1,0"
       id="guide9"
       inkscape:locked="false"
       inkscape:label=""
       inkscape:color="rgb(0,134,229)" /><sodipodi:guide
       position="1028,452"
       orientation="-1,0"
       id="guide10"
       inkscape:locked="false"
       inkscape:label=""
       inkscape:color="rgb(0,134,229)" /><sodipodi:guide
       position="124.40523,452"
       orientation="0,1"
       id="guide11"
       inkscape:locked="false"
       inkscape:label=""
       inkscape:color="rgb(0,134,229)" /><sodipodi:guide
       position="427.64299,1188"
       orientation="0,1"
       id="guide12"
       inkscape:locked="false"
       inkscape:label=""
       inkscape:color="rgb(0,134,229)" /><sodipodi:guide
       position="97.19159,84"
       orientation="0,1"
       id="guide13"
       inkscape:locked="false"
       inkscape:label=""
       inkscape:color="rgb(0,134,229)" /><sodipodi:guide
       position="590.92487,1556"
       orientation="0,1"
       id="guide14"
       inkscape:locked="false"
       inkscape:label=""
       inkscape:color="rgb(0,134,229)" /></sodipodi:namedview><g
     inkscape:groupmode="layer"
     id="layer2"
     inkscape:label="letter parts 1"
     style="display:inline"><path
       style="color:#000000;fill:#000000;stroke-linecap:round;stroke-linejoin:round;-inkscape-stroke:none"
       d="m 430.84961,818.5625 c -10.98976,-1.81664 -22.25106,0.80672 -31.30664,7.29297 -125.18443,89.67183 -202.74121,249.52563 -201.52539,402.48043 1.00156,126.0005 15.75299,223.0527 51.10937,294.3321 35.35639,71.2793 99.55695,115.3398 174.88477,115.3398 114.88279,0 167.10338,-93.5626 184.51367,-134.7148 17.32227,41.0132 69.43522,134.7069 184.0293,134.7109 75.12335,0 139.17109,-44.1114 174.43945,-115.3711 35.26836,-71.2597 50.01706,-168.2992 51.00586,-294.3008 1.2003,-152.9526 -76.35902,-312.80504 -201.54297,-402.47653 -18.85751,-13.50721 -45.0943,-9.16997 -58.60156,9.6875 -13.50721,18.85751 -9.16997,45.0943 9.6875,58.60156 99.00697,70.92045 167.42486,210.69047 166.46094,333.52737 -0.93644,119.3327 -16.84979,206.2932 -42.29297,257.7011 -25.44282,51.4072 -52.15753,68.6304 -99.1543,68.6309 -46.99867,0 -74.34658,-17.4254 -100.02734,-68.7851 -25.68077,-51.3598 -41.71112,-138.1244 -41.98047,-257.3028 -0.32477,-22.9644 -19.03336,-41.4102 -42,-41.4102 -22.96664,0 -41.67523,18.4458 -42,41.4102 -0.26935,119.1827 -16.3049,205.9367 -42.03125,257.2774 -25.72636,51.3406 -53.18209,68.8144 -100.50586,68.8144 -47.32288,0 -74.14378,-17.2756 -99.63477,-68.666 -25.49098,-51.3904 -41.41276,-138.3401 -42.36133,-257.6738 -0.9764,-122.8353 67.43493,-262.60336 166.44141,-333.52347 18.85747,-13.50726 23.19471,-39.74405 9.6875,-58.60156 -6.48654,-9.05577 -16.30483,-15.16384 -27.29492,-16.98047 z"
       id="path5"
       sodipodi:nodetypes="scsssccsscscsscscscsssscss" /></g></svg>
