<?xml version="1.0" encoding="UTF-8" standalone="no"?>
<svg
   version="1.1"
   viewBox="-10 0 1239 2048"
   id="svg1"
   sodipodi:docname="arcomp_s_final.svg"
   inkscape:version="1.3 (0e150ed6c4, 2023-07-21)"
   xml:space="preserve"
   xmlns:inkscape="http://www.inkscape.org/namespaces/inkscape"
   xmlns:sodipodi="http://sodipodi.sourceforge.net/DTD/sodipodi-0.dtd"
   xmlns="http://www.w3.org/2000/svg"
   xmlns:svg="http://www.w3.org/2000/svg"><defs
     id="defs1"><inkscape:path-effect
       effect="spiro"
       id="path-effect69"
       is_visible="true"
       lpeversion="1" /><inkscape:path-effect
       effect="spiro"
       id="path-effect68"
       is_visible="true"
       lpeversion="1" /><inkscape:path-effect
       effect="spiro"
       id="path-effect67"
       is_visible="true"
       lpeversion="1" /><inkscape:path-effect
       effect="spiro"
       id="path-effect66"
       is_visible="true"
       lpeversion="1" /><inkscape:path-effect
       effect="spiro"
       id="path-effect65"
       is_visible="true"
       lpeversion="1" /><inkscape:path-effect
       effect="bspline"
       id="path-effect64"
       is_visible="true"
       lpeversion="1.3"
       weight="33.333333"
       steps="2"
       helper_size="0"
       apply_no_weight="true"
       apply_with_weight="true"
       only_selected="false"
       uniform="false" /></defs><sodipodi:namedview
     id="namedview1"
     pagecolor="#ffffff"
     bordercolor="#999999"
     borderopacity="1"
     inkscape:showpageshadow="2"
     inkscape:pageopacity="0"
     inkscape:pagecheckerboard="0"
     inkscape:deskcolor="#d1d1d1"
     inkscape:zoom="0.36312343"
     inkscape:cx="618.24708"
     inkscape:cy="1023.0681"
     inkscape:window-width="1920"
     inkscape:window-height="1001"
     inkscape:window-x="-9"
     inkscape:window-y="-9"
     inkscape:window-maximized="1"
     inkscape:current-layer="svg1"
     showguides="false"><sodipodi:guide
       position="866,410"
       orientation="0,-1"
       id="guide1"
       inkscape:locked="false" /><sodipodi:guide
       position="1230,1230"
       orientation="0,1"
       id="guide2"
       inkscape:locked="false"
       inkscape:label=""
       inkscape:color="rgb(0,134,229)" /><sodipodi:guide
       position="208,219.91946"
       orientation="-1,0"
       id="guide4"
       inkscape:locked="false"
       inkscape:label=""
       inkscape:color="rgb(0,134,229)" /><sodipodi:guide
       position="986,96.214765"
       orientation="-1,0"
       id="guide5"
       inkscape:locked="false"
       inkscape:label=""
       inkscape:color="rgb(0,134,229)" /><sodipodi:guide
       position="0,0"
       orientation="0,-1"
       id="guide7"
       inkscape:locked="false" /><sodipodi:guide
       position="1239,481.27157"
       orientation="1,0"
       id="guide8"
       inkscape:locked="false" /><sodipodi:guide
       position="250,248.01176"
       orientation="-1,0"
       id="guide9"
       inkscape:locked="false"
       inkscape:label=""
       inkscape:color="rgb(0,134,229)" /><sodipodi:guide
       position="1028,452"
       orientation="-1,0"
       id="guide10"
       inkscape:locked="false"
       inkscape:label=""
       inkscape:color="rgb(0,134,229)" /><sodipodi:guide
       position="124.40523,452"
       orientation="0,1"
       id="guide11"
       inkscape:locked="false"
       inkscape:label=""
       inkscape:color="rgb(0,134,229)" /><sodipodi:guide
       position="427.64299,1188"
       orientation="0,1"
       id="guide12"
       inkscape:locked="false"
       inkscape:label=""
       inkscape:color="rgb(0,134,229)" /><sodipodi:guide
       position="97.19159,84"
       orientation="0,1"
       id="guide13"
       inkscape:locked="false"
       inkscape:label=""
       inkscape:color="rgb(0,134,229)" /><sodipodi:guide
       position="590.92487,1556"
       orientation="0,1"
       id="guide14"
       inkscape:locked="false"
       inkscape:label=""
       inkscape:color="rgb(0,134,229)" /></sodipodi:namedview><g
     inkscape:groupmode="layer"
     id="layer2"
     inkscape:label="letter parts 1"
     style="display:inline"><path
       style="color:#000000;fill:#000000;stroke-linecap:round;stroke-linejoin:round;-inkscape-stroke:none"
       d="m 608.01953,818.02148 c -126.16253,0 -223.4247,14.75829 -294.77344,50.43164 -71.34874,35.67336 -115.21484,100.22794 -115.21484,175.55668 0,75.3286 43.86541,139.8824 115.21289,175.5566 71.34748,35.6742 168.60767,50.4313 294.76563,50.4316 119.15753,2e-4 205.88716,15.9084 257.20117,41.5665 51.31401,25.658 68.78336,53.1039 68.78711,100.4414 0.004,47.3362 -17.46146,74.7797 -68.77344,100.4375 -51.31199,25.6577 -138.04267,41.5644 -257.20508,41.5644 -119.16241,0 -205.89514,-15.907 -257.20898,-41.5644 -51.31384,-25.6575 -68.7793,-53.1012 -68.7793,-100.4336 0,-23.196 -18.80404,-42 -42,-42 -23.19596,0 -42,18.804 -42,42 0,75.3321 43.86384,139.8892 115.21289,175.5644 71.34905,35.6753 168.61277,50.4336 294.77539,50.4336 126.16262,0 223.42496,-14.7569 294.77344,-50.4336 C 974.14144,1551.8975 1018.006,1487.3354 1017.998,1412 c -0.01,-75.3344 -43.87176,-139.8905 -115.22066,-175.5664 -71.34889,-35.6759 -168.6098,-50.4353 -294.76757,-50.4356 -119.15735,-3e-4 -205.88624,-15.9076 -257.19922,-41.5644 -51.31299,-25.6568 -68.7793,-53.0969 -68.7793,-100.4238 0,-47.32704 17.46514,-74.76751 68.7793,-100.42386 51.31415,-25.65635 138.04648,-41.56446 257.20898,-41.56446 119.1625,0 205.89516,15.90734 257.20899,41.56446 51.31382,25.65711 68.77929,53.09917 68.77929,100.43166 0,23.196 18.80404,42 42,42 23.19596,0 41.99999,-18.804 41.99999,-42 0,-75.33216 -43.86577,-139.88771 -115.21483,-175.56252 -71.34907,-35.67482 -168.61091,-50.4336 -294.77344,-50.4336 z"
       id="path10"
       sodipodi:nodetypes="sssssssssssssssssssssssssssss" /></g></svg>
