<?xml version="1.0" encoding="UTF-8" standalone="no"?>
<svg
   version="1.1"
   viewBox="-10 0 1239 2048"
   id="svg1"
   sodipodi:docname="arcomp_s_cap_final.svg"
   inkscape:version="1.3 (0e150ed6c4, 2023-07-21)"
   xml:space="preserve"
   xmlns:inkscape="http://www.inkscape.org/namespaces/inkscape"
   xmlns:sodipodi="http://sodipodi.sourceforge.net/DTD/sodipodi-0.dtd"
   xmlns="http://www.w3.org/2000/svg"
   xmlns:svg="http://www.w3.org/2000/svg"><defs
     id="defs1"><inkscape:path-effect
       effect="spiro"
       id="path-effect69"
       is_visible="true"
       lpeversion="1" /><inkscape:path-effect
       effect="spiro"
       id="path-effect68"
       is_visible="true"
       lpeversion="1" /><inkscape:path-effect
       effect="spiro"
       id="path-effect67"
       is_visible="true"
       lpeversion="1" /><inkscape:path-effect
       effect="spiro"
       id="path-effect66"
       is_visible="true"
       lpeversion="1" /><inkscape:path-effect
       effect="spiro"
       id="path-effect65"
       is_visible="true"
       lpeversion="1" /><inkscape:path-effect
       effect="bspline"
       id="path-effect64"
       is_visible="true"
       lpeversion="1.3"
       weight="33.333333"
       steps="2"
       helper_size="0"
       apply_no_weight="true"
       apply_with_weight="true"
       only_selected="false"
       uniform="false" /></defs><sodipodi:namedview
     id="namedview1"
     pagecolor="#ffffff"
     bordercolor="#999999"
     borderopacity="1"
     inkscape:showpageshadow="2"
     inkscape:pageopacity="0"
     inkscape:pagecheckerboard="0"
     inkscape:deskcolor="#d1d1d1"
     inkscape:zoom="0.35355339"
     inkscape:cx="383.25188"
     inkscape:cy="1296.8338"
     inkscape:window-width="1920"
     inkscape:window-height="1001"
     inkscape:window-x="-9"
     inkscape:window-y="-9"
     inkscape:window-maximized="1"
     inkscape:current-layer="layer2"
     showguides="false"><sodipodi:guide
       position="866,410"
       orientation="0,-1"
       id="guide1"
       inkscape:locked="false" /><sodipodi:guide
       position="1230,1230"
       orientation="0,1"
       id="guide2"
       inkscape:locked="false"
       inkscape:label=""
       inkscape:color="rgb(0,134,229)" /><sodipodi:guide
       position="208,219.91946"
       orientation="-1,0"
       id="guide4"
       inkscape:locked="false"
       inkscape:label=""
       inkscape:color="rgb(0,134,229)" /><sodipodi:guide
       position="986,96.214765"
       orientation="-1,0"
       id="guide5"
       inkscape:locked="false"
       inkscape:label=""
       inkscape:color="rgb(0,134,229)" /><sodipodi:guide
       position="0,0"
       orientation="0,-1"
       id="guide7"
       inkscape:locked="false" /><sodipodi:guide
       position="1239,481.27157"
       orientation="1,0"
       id="guide8"
       inkscape:locked="false" /><sodipodi:guide
       position="250,248.01176"
       orientation="-1,0"
       id="guide9"
       inkscape:locked="false"
       inkscape:label=""
       inkscape:color="rgb(0,134,229)" /><sodipodi:guide
       position="1028,452"
       orientation="-1,0"
       id="guide10"
       inkscape:locked="false"
       inkscape:label=""
       inkscape:color="rgb(0,134,229)" /><sodipodi:guide
       position="124.40523,452"
       orientation="0,1"
       id="guide11"
       inkscape:locked="false"
       inkscape:label=""
       inkscape:color="rgb(0,134,229)" /><sodipodi:guide
       position="427.64299,1188"
       orientation="0,1"
       id="guide12"
       inkscape:locked="false"
       inkscape:label=""
       inkscape:color="rgb(0,134,229)" /><sodipodi:guide
       position="97.19159,84"
       orientation="0,1"
       id="guide13"
       inkscape:locked="false"
       inkscape:label=""
       inkscape:color="rgb(0,134,229)" /><sodipodi:guide
       position="590.92487,1556"
       orientation="0,1"
       id="guide14"
       inkscape:locked="false"
       inkscape:label=""
       inkscape:color="rgb(0,134,229)" /></sodipodi:namedview><g
     inkscape:groupmode="layer"
     id="layer2"
     inkscape:label="letter parts 1"
     style="display:inline"><path
       style="color:#000000;fill:#000000;stroke-linecap:round;stroke-linejoin:round;-inkscape-stroke:none"
       d="m 608.01953,450.0293 c -127.91254,0 -229.10795,23.33531 -301.19141,77.39843 -72.08345,54.06313 -108.79687,139.2637 -108.79687,240.59571 0,101.33132 36.71283,186.53273 108.79492,240.59566 72.0821,54.063 173.27571,77.3985 301.1836,77.3985 117.40742,0 200.20481,22.6631 250.7832,60.5976 50.57838,37.9346 75.19531,90.7308 75.19531,173.3946 0,82.6628 -24.61776,135.458 -75.19726,173.3925 C 808.21152,1531.3368 725.41249,1554 608,1554 c -117.41249,0 -200.21156,-22.6628 -250.79102,-60.5977 -50.57946,-37.9348 -75.19726,-90.7316 -75.19726,-173.3964 a 42,42 0 0 0 -42,-42 42,42 0 0 0 -42,42 c 0,101.3313 36.71344,186.5328 108.79687,240.5957 C 378.89203,1614.6645 480.08746,1638 608,1638 c 127.91254,0 229.10802,-23.3361 301.19141,-77.3984 72.08338,-54.0624 108.79689,-139.2621 108.79689,-240.5918 0,-101.3305 -36.71287,-186.5311 -108.79494,-240.5938 -72.08207,-54.0626 -173.27572,-77.3984 -301.18359,-77.3984 -117.40743,0 -200.20484,-22.66292 -250.78321,-60.59768 -50.57836,-37.93475 -75.19531,-90.73169 -75.19531,-173.39648 0,-82.66565 24.61783,-135.46153 75.19727,-173.39649 50.57943,-37.93495 133.37851,-60.59765 250.79101,-60.59765 117.4125,0 200.21158,22.6627 250.79102,60.59765 50.57943,37.93496 75.19726,90.73084 75.19726,173.39649 a 42,42 0 0 0 42,42 42,42 0 0 0 41.99999,-42 c 0,-101.33201 -36.71341,-186.53258 -108.79686,-240.59571 C 837.12749,473.36461 735.93207,450.0293 608.01953,450.0293 Z"
       id="path20" /></g></svg>
