<?xml version="1.0" encoding="UTF-8" standalone="no"?>
<svg
   version="1.1"
   viewBox="-10 0 1239 2048"
   id="svg1"
   sodipodi:docname="arcomp_w_2_cap_final.svg"
   inkscape:version="1.3 (0e150ed6c4, 2023-07-21)"
   xml:space="preserve"
   xmlns:inkscape="http://www.inkscape.org/namespaces/inkscape"
   xmlns:sodipodi="http://sodipodi.sourceforge.net/DTD/sodipodi-0.dtd"
   xmlns="http://www.w3.org/2000/svg"
   xmlns:svg="http://www.w3.org/2000/svg"><defs
     id="defs1"><inkscape:path-effect
       effect="spiro"
       id="path-effect69"
       is_visible="true"
       lpeversion="1" /><inkscape:path-effect
       effect="spiro"
       id="path-effect68"
       is_visible="true"
       lpeversion="1" /><inkscape:path-effect
       effect="spiro"
       id="path-effect67"
       is_visible="true"
       lpeversion="1" /><inkscape:path-effect
       effect="spiro"
       id="path-effect66"
       is_visible="true"
       lpeversion="1" /><inkscape:path-effect
       effect="spiro"
       id="path-effect65"
       is_visible="true"
       lpeversion="1" /><inkscape:path-effect
       effect="bspline"
       id="path-effect64"
       is_visible="true"
       lpeversion="1.3"
       weight="33.333333"
       steps="2"
       helper_size="0"
       apply_no_weight="true"
       apply_with_weight="true"
       only_selected="false"
       uniform="false" /></defs><sodipodi:namedview
     id="namedview1"
     pagecolor="#ffffff"
     bordercolor="#999999"
     borderopacity="1"
     inkscape:showpageshadow="2"
     inkscape:pageopacity="0"
     inkscape:pagecheckerboard="0"
     inkscape:deskcolor="#d1d1d1"
     inkscape:zoom="0.36312343"
     inkscape:cx="618.24708"
     inkscape:cy="1023.0681"
     inkscape:window-width="1920"
     inkscape:window-height="1001"
     inkscape:window-x="-9"
     inkscape:window-y="-9"
     inkscape:window-maximized="1"
     inkscape:current-layer="svg1"
     showguides="false"><sodipodi:guide
       position="866,410"
       orientation="0,-1"
       id="guide1"
       inkscape:locked="false" /><sodipodi:guide
       position="1230,1230"
       orientation="0,1"
       id="guide2"
       inkscape:locked="false"
       inkscape:label=""
       inkscape:color="rgb(0,134,229)" /><sodipodi:guide
       position="208,219.91946"
       orientation="-1,0"
       id="guide4"
       inkscape:locked="false"
       inkscape:label=""
       inkscape:color="rgb(0,134,229)" /><sodipodi:guide
       position="986,96.214765"
       orientation="-1,0"
       id="guide5"
       inkscape:locked="false"
       inkscape:label=""
       inkscape:color="rgb(0,134,229)" /><sodipodi:guide
       position="0,0"
       orientation="0,-1"
       id="guide7"
       inkscape:locked="false" /><sodipodi:guide
       position="1239,481.27157"
       orientation="1,0"
       id="guide8"
       inkscape:locked="false" /><sodipodi:guide
       position="250,248.01176"
       orientation="-1,0"
       id="guide9"
       inkscape:locked="false"
       inkscape:label=""
       inkscape:color="rgb(0,134,229)" /><sodipodi:guide
       position="1028,452"
       orientation="-1,0"
       id="guide10"
       inkscape:locked="false"
       inkscape:label=""
       inkscape:color="rgb(0,134,229)" /><sodipodi:guide
       position="124.40523,452"
       orientation="0,1"
       id="guide11"
       inkscape:locked="false"
       inkscape:label=""
       inkscape:color="rgb(0,134,229)" /><sodipodi:guide
       position="427.64299,1188"
       orientation="0,1"
       id="guide12"
       inkscape:locked="false"
       inkscape:label=""
       inkscape:color="rgb(0,134,229)" /><sodipodi:guide
       position="97.19159,84"
       orientation="0,1"
       id="guide13"
       inkscape:locked="false"
       inkscape:label=""
       inkscape:color="rgb(0,134,229)" /><sodipodi:guide
       position="590.92487,1556"
       orientation="0,1"
       id="guide14"
       inkscape:locked="false"
       inkscape:label=""
       inkscape:color="rgb(0,134,229)" /></sodipodi:namedview><g
     inkscape:groupmode="layer"
     id="layer2"
     inkscape:label="letter parts 1"
     style="display:inline"><path
       style="color:#000000;fill:#000000;stroke-linecap:round;stroke-linejoin:round;-inkscape-stroke:none"
       d="m 240,450 c -23.19596,0 -42,18.80404 -42,42 0,0 0,368 0,552 0,186.3328 14.83337,327.3125 48.15625,427.2813 16.66144,49.9843 38.0449,90.3183 67.64453,119.9179 C 343.40042,1620.7988 382.83336,1638 424,1638 c 41.16664,0 80.59958,-17.2012 110.19922,-46.8008 29.59964,-29.5996 50.98308,-69.9336 67.64453,-119.9179 2.12841,-6.3853 4.17776,-12.947 6.15625,-19.668 1.97849,6.721 4.02784,13.2827 6.15625,19.668 16.66145,49.9843 38.04489,90.3183 67.64453,119.9179 C 711.40042,1620.7988 750.83336,1638 792,1638 c 41.16664,0 80.59958,-17.2012 110.19922,-46.8008 29.59963,-29.5996 50.98309,-69.9336 67.64453,-119.9179 C 1003.1666,1371.3125 1018,1230.3328 1018,1044 c 0,-184 0,-552 0,-552 0,-23.19596 -18.80404,-42 -42,-42 -23.19596,0 -42,18.80404 -42,42 0,0 0,368 0,552 0,181.6662 -15.83545,316.6879 -43.8457,400.7188 -14.00513,42.0154 -30.95322,70.6817 -47.35352,87.082 C 826.40048,1548.2011 812.16672,1554 792,1554 c -20.16672,0 -34.40048,-5.7989 -50.80078,-22.1992 -16.4003,-16.4003 -33.35033,-45.0666 -47.35547,-87.082 C 665.83347,1360.6879 650.28841,1225.666 650,1044 c -0.0365,-22.9666 -19.03336,-41.4102 -42,-41.4102 -22.96664,0 -41.96354,18.4436 -42,41.4102 -0.28841,181.666 -15.83347,316.6879 -43.84375,400.7188 -14.00514,42.0154 -30.95517,70.6817 -47.35547,87.082 C 458.40048,1548.2011 444.16672,1554 424,1554 c -20.16672,0 -34.40048,-5.7989 -50.80078,-22.1992 -16.4003,-16.4003 -33.34839,-45.0666 -47.35352,-87.082 C 297.83545,1360.6879 282,1225.6662 282,1044 c 0,-184 0,-552 0,-552 0,-23.19596 -18.80404,-42 -42,-42 z"
       id="path22-8-3-5-3"
       sodipodi:nodetypes="sssssssscssssssssssssssssssssssssss" /></g></svg>
