<?xml version="1.0" encoding="UTF-8" standalone="no"?>
<svg
   version="1.1"
   viewBox="-10 0 1239 2048"
   id="svg1"
   sodipodi:docname="arcomp_mono_katakana_guide.svg"
   inkscape:version="1.3 (0e150ed6c4, 2023-07-21)"
   xml:space="preserve"
   xmlns:inkscape="http://www.inkscape.org/namespaces/inkscape"
   xmlns:sodipodi="http://sodipodi.sourceforge.net/DTD/sodipodi-0.dtd"
   xmlns="http://www.w3.org/2000/svg"
   xmlns:svg="http://www.w3.org/2000/svg"><defs
     id="defs1"><inkscape:path-effect
       effect="spiro"
       id="path-effect69"
       is_visible="true"
       lpeversion="1" /><inkscape:path-effect
       effect="spiro"
       id="path-effect68"
       is_visible="true"
       lpeversion="1" /><inkscape:path-effect
       effect="spiro"
       id="path-effect67"
       is_visible="true"
       lpeversion="1" /><inkscape:path-effect
       effect="spiro"
       id="path-effect66"
       is_visible="true"
       lpeversion="1" /><inkscape:path-effect
       effect="spiro"
       id="path-effect65"
       is_visible="true"
       lpeversion="1" /><inkscape:path-effect
       effect="bspline"
       id="path-effect64"
       is_visible="true"
       lpeversion="1.3"
       weight="33.333333"
       steps="2"
       helper_size="0"
       apply_no_weight="true"
       apply_with_weight="true"
       only_selected="false"
       uniform="false" /><marker
       id="DistanceX"
       orient="auto"
       refX="0.0"
       refY="0.0"
       style="overflow:visible"><path
         d="M 3,-3 L -3,3 M 0,-5 L  0,5"
         style="stroke:#000000; stroke-width:0.5"
         id="path1-3" /></marker><pattern
       id="Hatch"
       patternUnits="userSpaceOnUse"
       width="8"
       height="8"
       x="0"
       y="0"><path
         d="M8 4 l-4,4"
         stroke="#000000"
         stroke-width="0.25"
         linecap="square"
         id="path2" /><path
         d="M6 2 l-4,4"
         stroke="#000000"
         stroke-width="0.25"
         linecap="square"
         id="path3" /><path
         d="M4 0 l-4,4"
         stroke="#000000"
         stroke-width="0.25"
         linecap="square"
         id="path4" /></pattern><symbol
       id="*Model_Space" /><symbol
       id="*Paper_Space" /><symbol
       id="*Paper_Space0" /><marker
       id="DistanceX-7"
       orient="auto"
       refX="0.0"
       refY="0.0"
       style="overflow:visible"><path
         d="M 3,-3 L -3,3 M 0,-5 L  0,5"
         style="stroke:#000000; stroke-width:0.5"
         id="path1-2" /></marker><pattern
       id="Hatch-4"
       patternUnits="userSpaceOnUse"
       width="8"
       height="8"
       x="0"
       y="0"><path
         d="M8 4 l-4,4"
         stroke="#000000"
         stroke-width="0.25"
         linecap="square"
         id="path2-3" /><path
         d="M6 2 l-4,4"
         stroke="#000000"
         stroke-width="0.25"
         linecap="square"
         id="path3-1" /><path
         d="M4 0 l-4,4"
         stroke="#000000"
         stroke-width="0.25"
         linecap="square"
         id="path4-6" /></pattern><symbol
       id="*Model_Space-8" /><symbol
       id="*Paper_Space-9" /><symbol
       id="*Paper_Space0-4" /></defs><sodipodi:namedview
     id="namedview1"
     pagecolor="#ffffff"
     bordercolor="#999999"
     borderopacity="1"
     inkscape:showpageshadow="2"
     inkscape:pageopacity="0"
     inkscape:pagecheckerboard="0"
     inkscape:deskcolor="#d1d1d1"
     inkscape:zoom="0.0625"
     inkscape:cx="4424"
     inkscape:cy="5192"
     inkscape:window-width="1920"
     inkscape:window-height="1001"
     inkscape:window-x="-9"
     inkscape:window-y="-9"
     inkscape:window-maximized="1"
     inkscape:current-layer="layer2"
     showguides="false"><sodipodi:guide
       position="866,410"
       orientation="0,-1"
       id="guide1"
       inkscape:locked="false" /><sodipodi:guide
       position="1230,1230"
       orientation="0,1"
       id="guide2"
       inkscape:locked="false"
       inkscape:label=""
       inkscape:color="rgb(0,134,229)" /><sodipodi:guide
       position="208,219.91946"
       orientation="-1,0"
       id="guide4"
       inkscape:locked="false"
       inkscape:label=""
       inkscape:color="rgb(0,134,229)" /><sodipodi:guide
       position="986,96.214765"
       orientation="-1,0"
       id="guide5"
       inkscape:locked="false"
       inkscape:label=""
       inkscape:color="rgb(0,134,229)" /><sodipodi:guide
       position="0,0"
       orientation="0,-1"
       id="guide7"
       inkscape:locked="false" /><sodipodi:guide
       position="1239,481.27157"
       orientation="1,0"
       id="guide8"
       inkscape:locked="false" /><sodipodi:guide
       position="250,248.01176"
       orientation="-1,0"
       id="guide9"
       inkscape:locked="false"
       inkscape:label=""
       inkscape:color="rgb(0,134,229)" /><sodipodi:guide
       position="1028,452"
       orientation="-1,0"
       id="guide10"
       inkscape:locked="false"
       inkscape:label=""
       inkscape:color="rgb(0,134,229)" /><sodipodi:guide
       position="124.40523,452"
       orientation="0,1"
       id="guide11"
       inkscape:locked="false"
       inkscape:label=""
       inkscape:color="rgb(0,134,229)" /><sodipodi:guide
       position="427.64299,1188"
       orientation="0,1"
       id="guide12"
       inkscape:locked="false"
       inkscape:label=""
       inkscape:color="rgb(0,134,229)" /><sodipodi:guide
       position="97.19159,84"
       orientation="0,1"
       id="guide13"
       inkscape:locked="false"
       inkscape:label=""
       inkscape:color="rgb(0,134,229)" /><sodipodi:guide
       position="590.92487,1556"
       orientation="0,1"
       id="guide14"
       inkscape:locked="false"
       inkscape:label=""
       inkscape:color="rgb(0,134,229)" /></sodipodi:namedview><g
     inkscape:groupmode="layer"
     id="layer7"
     inkscape:label="courier letters"
     sodipodi:insensitive="true"><g
       inkscape:groupmode="layer"
       id="layer5"
       inkscape:label="courier m"
       style="display:none"
       sodipodi:insensitive="true"><path
         fill="currentColor"
         d="m 232,772 v 85 Q 339,742 447,742 512,742 561,776.5 610,811 643,881 699,811 756.5,776.5 814,742 872,742 q 91,0 145,59 71,76 71,166 v 587 h 71 q 30,0 43,11.5 13,11.5 13,30.5 0,18 -13,30 -13,12 -43,12 H 1004 V 975 q 0,-64 -39,-106 -39,-42 -90,-42 -46,0 -97,34.5 Q 727,896 662,997 v 557 h 70 q 30,0 43,11.5 13,11.5 13,30.5 0,18 -13,30 -13,12 -43,12 H 577 V 981 Q 577,914 537.5,870.5 498,827 449,827 q -45,0 -89,29 -61,41 -128,141 v 557 h 71 q 30,0 43,11.5 13,11.5 13,30.5 0,18 -13,30 -13,12 -43,12 H 77 q -30,0 -43,-12 -13,-12 -13,-30 0,-19 13,-30.5 13,-11.5 43,-11.5 h 71 V 857 H 77 Q 47,857 34,845 21,833 21,814 21,796 34,784 47,772 77,772 Z"
         id="path1-4"
         style="fill:#000000;fill-opacity:0.5" /></g><g
       inkscape:groupmode="layer"
       id="layer3"
       inkscape:label="courier a cap"
       style="display:none"
       sodipodi:insensitive="true"><path
         fill="currentColor"
         d="M 891,1247 H 339 l -113,307 h 161 q 30,0 43,11.5 13,11.5 13,30.5 0,18 -13,30 -13,12 -43,12 H 73 q -30,0 -43,-12 -13,-12 -13,-30 0,-19 13,-30.5 13,-11.5 43,-11.5 h 65 L 509,552 H 261 Q 231,552 218,540.5 205,529 205,510 205,491 218,479.5 231,468 261,468 h 423 l 410,1086 h 65 q 30,0 43,11.5 13,11.5 13,30.5 0,18 -13,30 -13,12 -43,12 H 846 q -31,0 -44,-12 -13,-12 -13,-30 0,-19 13,-30.5 13,-11.5 44,-11.5 h 160 z M 859,1163 627,552 h -31 l -225,611 z"
         id="path1-7"
         style="fill:#000000;fill-opacity:0.5" /></g><g
       inkscape:groupmode="layer"
       id="layer1"
       inkscape:label="courier a"
       style="display:none"
       sodipodi:insensitive="true"><path
         fill="currentColor"
         d="m 856,1638 v -121 q -183,154 -391,154 -151,0 -236,-76.5 -85,-76.5 -85,-187.5 0,-122 112,-213 112,-91 327,-91 58,0 126,7.5 68,7.5 147,23.5 V 998 q 0,-69 -64,-120 -64,-51 -192,-51 -98,0 -275,57 -32,10 -41,10 -16,0 -27.5,-12 -11.5,-12 -11.5,-30 0,-17 10,-27 14,-15 113,-41 156,-42 236,-42 159,0 248,78.5 89,78.5 89,177.5 v 556 h 112 q 31,0 44,11.5 13,11.5 13,30.5 0,18 -13,30 -13,12 -44,12 z m 0,-418 q -59,-17 -125,-25 -66,-8 -139,-8 -183,0 -286,79 -78,59 -78,141 0,76 59.5,128 59.5,52 173.5,52 109,0 202.5,-43.5 Q 757,1500 856,1405 Z"
         id="path1"
         style="fill:#000000;fill-opacity:0.5" /></g></g><g
     inkscape:groupmode="layer"
     id="layer6"
     inkscape:label="guide"
     sodipodi:insensitive="true"><path
       style="fill:none;stroke:#000000;stroke-width:1px;stroke-linecap:butt;stroke-linejoin:miter;stroke-opacity:1"
       d="M 240,860 V 492"
       id="path26" /><path
       style="fill:none;stroke:#000000;stroke-width:1px;stroke-linecap:butt;stroke-linejoin:miter;stroke-opacity:1"
       d="M 976,860 V 492"
       id="path27" /><path
       style="fill:none;stroke:#000000;stroke-width:1px;stroke-linecap:butt;stroke-linejoin:miter;stroke-opacity:1"
       d="m 240,1596 v 368"
       id="path29" /><path
       style="fill:none;stroke:#000000;stroke-width:1px;stroke-linecap:butt;stroke-linejoin:miter;stroke-opacity:1"
       d="m 976,1596 v 368"
       id="path30" /><path
       style="fill:none;stroke:#000000;stroke-width:1px;stroke-linecap:butt;stroke-linejoin:miter;stroke-opacity:1"
       d="M 608,492 V 1964"
       id="path32" /><path
       style="fill:none;stroke:#000000;stroke-width:1px;stroke-linecap:butt;stroke-linejoin:miter;stroke-opacity:1"
       d="M 240,676 H 608"
       id="path33" /><path
       style="fill:none;stroke:#000000;stroke-width:1px;stroke-linecap:butt;stroke-linejoin:miter;stroke-opacity:1"
       d="M 976,676 H 608"
       id="path34" /><path
       style="fill:none;stroke:#000000;stroke-width:1px;stroke-linecap:butt;stroke-linejoin:miter;stroke-opacity:1"
       d="M 240,1780 H 608"
       id="path35" /><path
       style="fill:none;stroke:#000000;stroke-width:1px;stroke-linecap:butt;stroke-linejoin:miter;stroke-opacity:1"
       d="M 976,1780 H 608"
       id="path36" /><path
       style="fill:none;stroke:#000000;stroke-width:1px;stroke-linecap:butt;stroke-linejoin:miter;stroke-opacity:1"
       d="m 240,860 v 368"
       id="path37" /><path
       style="fill:none;stroke:#000000;stroke-width:1px;stroke-linecap:butt;stroke-linejoin:miter;stroke-opacity:1"
       d="M 240,1596 V 1228"
       id="path38" /><path
       style="fill:none;stroke:#000000;stroke-width:1px;stroke-linecap:butt;stroke-linejoin:miter;stroke-opacity:1"
       d="M 976,1596 V 1228"
       id="path39" /><path
       style="fill:none;stroke:#000000;stroke-width:1px;stroke-linecap:butt;stroke-linejoin:miter;stroke-opacity:1"
       d="m 976,860 v 368"
       id="path40" /><path
       style="fill:none;stroke:#000000;stroke-width:1px;stroke-linecap:butt;stroke-linejoin:miter;stroke-opacity:1"
       d="M 240,860 H 608"
       id="path41" /><path
       style="fill:none;stroke:#000000;stroke-width:1px;stroke-linecap:butt;stroke-linejoin:miter;stroke-opacity:1"
       d="M 240,1228 H 608"
       id="path42" /><path
       style="fill:none;stroke:#000000;stroke-width:1px;stroke-linecap:butt;stroke-linejoin:miter;stroke-opacity:1"
       d="M 240,1596 H 608"
       id="path43" /><path
       style="fill:none;stroke:#000000;stroke-width:1px;stroke-linecap:butt;stroke-linejoin:miter;stroke-opacity:1"
       d="M 608,1596 H 976"
       id="path44" /><path
       style="fill:none;stroke:#000000;stroke-width:1px;stroke-linecap:butt;stroke-linejoin:miter;stroke-opacity:1"
       d="M 608,1228 H 976"
       id="path45" /><path
       style="fill:none;stroke:#000000;stroke-width:1px;stroke-linecap:butt;stroke-linejoin:miter;stroke-opacity:1"
       d="M 240,1964 H 608"
       id="path46" /><path
       style="fill:none;stroke:#000000;stroke-width:1px;stroke-linecap:butt;stroke-linejoin:miter;stroke-opacity:1"
       d="M 976,1964 H 608"
       id="path47" /><path
       style="fill:none;stroke:#000000;stroke-width:1px;stroke-linecap:butt;stroke-linejoin:miter;stroke-opacity:1"
       d="M 608,860 H 976"
       id="path48" /><path
       style="fill:none;stroke:#000000;stroke-width:1px;stroke-linecap:butt;stroke-linejoin:miter;stroke-opacity:1"
       d="M 976,492 H 608"
       id="path49" /><path
       style="fill:none;stroke:#000000;stroke-width:1px;stroke-linecap:butt;stroke-linejoin:miter;stroke-opacity:1"
       d="M 240,492 H 608"
       id="path50" /><path
       style="fill:none;stroke:#000000;stroke-width:1px;stroke-linecap:butt;stroke-linejoin:miter;stroke-opacity:1"
       d="M 792,492 V 1964"
       id="path51" /><path
       style="fill:none;stroke:#000000;stroke-width:1px;stroke-linecap:butt;stroke-linejoin:miter;stroke-opacity:1"
       d="M 424,492 V 1964"
       id="path52" /><path
       style="fill:none;stroke:#000000;stroke-width:1px;stroke-linecap:butt;stroke-linejoin:miter;stroke-opacity:1"
       d="M 240,1412 H 608"
       id="path53" /><path
       style="fill:none;stroke:#000000;stroke-width:1px;stroke-linecap:butt;stroke-linejoin:miter;stroke-opacity:1"
       d="M 976,1412 H 608"
       id="path54" /><path
       style="fill:none;stroke:#000000;stroke-width:1px;stroke-linecap:butt;stroke-linejoin:miter;stroke-opacity:1"
       d="M 240,1044 H 609.5"
       id="path55" /><path
       style="fill:none;stroke:#000000;stroke-width:1px;stroke-linecap:butt;stroke-linejoin:miter;stroke-opacity:1"
       d="M 976,1044 H 608"
       id="path56" /><rect
       style="fill:none;fill-opacity:0.5;stroke:#000000;stroke-width:3.644;stroke-linecap:butt;stroke-linejoin:miter;stroke-dasharray:none;stroke-opacity:1"
       id="rect65"
       width="1239"
       height="2048"
       x="-10"
       y="0" /></g><g
     inkscape:groupmode="layer"
     id="layer8"
     inkscape:label="letter parts"
     sodipodi:insensitive="true" /><g
     inkscape:groupmode="layer"
     id="layer2"
     inkscape:label="letter parts 1"
     style="display:inline"><g
       inkscape:label="0"
       id="g4"
       style="stroke-width:18.9001;stroke-dasharray:none;paint-order:stroke fill markers"
       transform="matrix(1.2169873,0,0,1.2169873,240.0291,-874.06311)" /><path
       d="m 240.87952,6007.6039 h 735.29662 c -52.87329,211.4932 -172.72022,400.2184 -341.65411,538.0092"
       style="fill:none;stroke:#000000;stroke-width:84;stroke-linecap:round;stroke-linejoin:round;stroke-dasharray:none;stroke-opacity:1"
       id="path5"
       sodipodi:nodetypes="ccc" /><path
       d="M 792.35199,6742.9005 424.70367,6283.3401"
       style="fill:none;stroke:#000000;stroke-width:84;stroke-dasharray:none;stroke-linecap:round;stroke-linejoin:round;stroke-opacity:1"
       id="path7" /><path
       d="m 3917.3626,3525.9778 735.2967,183.8241"
       style="fill:none;stroke:#000000;stroke-width:84;stroke-dasharray:none;stroke-linecap:round;stroke-linejoin:round;stroke-opacity:1"
       id="path8" /><path
       d="m 3733.5384,4720.8347 -367.6482,-83.8812"
       style="fill:none;stroke:#000000;stroke-width:84;stroke-dasharray:none;stroke-linecap:round;stroke-linejoin:round;stroke-opacity:1"
       id="path9" /><path
       d="M 3365.8902,4904.6589 V 4636.9535"
       style="fill:none;stroke:#000000;stroke-width:84;stroke-dasharray:none;stroke-linecap:round;stroke-linejoin:round;stroke-opacity:1"
       id="path10" /><path
       d="m 3365.8902,4169.3623 v 137.8682"
       style="fill:none;stroke:#000000;stroke-width:84;stroke-dasharray:none;stroke-linecap:round;stroke-linejoin:round;stroke-opacity:1"
       id="path12" /><path
       style="fill:none;stroke:#000000;stroke-width:84;stroke-linecap:round;stroke-linejoin:round;stroke-dasharray:none;stroke-opacity:1"
       d="m 2998.246,4307.2334 735.2918,-0 c -157.2649,255.5549 -435.2317,411.9112 -735.296,413.6028"
       id="path13"
       sodipodi:nodetypes="ccc" /><path
       d="M 2814.4176,4904.6589 2354.8573,4445.0985"
       style="fill:none;stroke:#000000;stroke-width:84;stroke-dasharray:none;stroke-linecap:round;stroke-linejoin:round;stroke-opacity:1"
       id="path14" /><path
       d="m 923.40658,3617.8899 -406.79083,0"
       style="fill:none;stroke:#000000;stroke-width:84;stroke-linecap:round;stroke-linejoin:round;stroke-dasharray:none;stroke-opacity:1"
       id="path15"
       sodipodi:nodetypes="cc" /><path
       d="m 608.52784,3985.5381 c 227.81339,-134.2472 367.64828,-378.9582 367.64805,-643.3825 l -560.75711,0"
       style="fill:none;stroke:#000000;stroke-width:84;stroke-linecap:round;stroke-linejoin:round;stroke-dasharray:none;stroke-opacity:1"
       id="path17"
       sodipodi:nodetypes="ccc" /><path
       style="fill:none;stroke:#000000;stroke-width:84;stroke-dasharray:none;stroke-linecap:round;stroke-linejoin:round;stroke-opacity:1"
       d="m 2253.6652,1503.9172 h 560.758"
       id="path18" /><path
       d="M 2446.7694,2147.2966 A 746.78564,746.78564 0 0 0 2814.4176,1503.912"
       style="fill:none;stroke:#000000;stroke-width:84;stroke-dasharray:none;stroke-linecap:round;stroke-linejoin:round;stroke-opacity:1"
       id="path19" /><path
       style="fill:none;stroke:#000000;stroke-width:84;stroke-linecap:round;stroke-linejoin:round;stroke-dasharray:none;stroke-opacity:1"
       d="m 2998.246,8764.967 735.2918,-4e-4 c 6e-4,144.6496 -68.1036,280.8579 -183.8236,367.6479"
       id="path20"
       sodipodi:nodetypes="ccc" /><path
       style="fill:none;stroke:#000000;stroke-width:84;stroke-linecap:round;stroke-linejoin:round;stroke-dasharray:none;stroke-opacity:1"
       d="m 240.87952,492.87958 735.29637,-1.8e-4 c 2.5e-4,144.64981 -68.10391,280.85814 -183.8239,367.64813"
       id="path22"
       sodipodi:nodetypes="ccc" /><path
       style="fill:none;stroke:#000000;stroke-width:84;stroke-linecap:round;stroke-linejoin:round;stroke-dasharray:none;stroke-opacity:1"
       d="m 608.52758,676.7024 1.3e-4,183.82397 c 1.1e-4,144.65113 -68.10406,280.85943 -183.82404,367.64943"
       id="path24"
       sodipodi:nodetypes="ccc" /><path
       d="m 4468.8351,5456.1314 183.8242,275.7362"
       style="fill:none;stroke:#000000;stroke-width:84;stroke-dasharray:none;stroke-linecap:round;stroke-linejoin:round;stroke-opacity:1"
       id="path26-7" /><path
       d="m 4101.1869,5456.1314 -183.8243,275.7362"
       style="fill:none;stroke:#000000;stroke-width:84;stroke-dasharray:none;stroke-linecap:round;stroke-linejoin:round;stroke-opacity:1"
       id="path27-5" /><path
       d="m 4009.2747,6007.6039 h 551.4725"
       style="fill:none;stroke:#000000;stroke-width:84;stroke-dasharray:none;stroke-linecap:round;stroke-linejoin:round;stroke-opacity:1"
       id="path28" /><path
       d="m 3917.3626,8764.9662 h 735.2967 c 0,340.4151 -224.6739,639.9803 -551.4724,735.2966"
       style="fill:none;stroke:#000000;stroke-width:84;stroke-linecap:round;stroke-linejoin:round;stroke-dasharray:none;stroke-opacity:1"
       id="path29-0"
       sodipodi:nodetypes="ccc" /><path
       d="m 240.87952,9040.7024 v -275.7362 h 735.29662 c -1e-5,340.4151 -224.67398,639.9804 -551.47247,735.2966"
       style="fill:none;stroke:#000000;stroke-width:84;stroke-linecap:round;stroke-linejoin:round;stroke-dasharray:none;stroke-opacity:1"
       id="path31"
       sodipodi:nodetypes="cccc" /><path
       d="m 2998.2418,7845.8454 v 735.2966 c 289.3,0 561.7166,-136.2083 735.2966,-367.6482"
       style="fill:none;stroke:#000000;stroke-width:84;stroke-linecap:round;stroke-linejoin:round;stroke-dasharray:none;stroke-opacity:1"
       id="path33-8"
       sodipodi:nodetypes="ccc" /><path
       d="m 2538.6815,7845.8454 v 735.2966 c 131.1989,-87.4659 228.5045,-217.2068 275.7361,-367.6482"
       style="fill:none;stroke:#000000;stroke-width:84;stroke-linecap:round;stroke-linejoin:round;stroke-dasharray:none;stroke-opacity:1"
       id="path35-9"
       sodipodi:nodetypes="ccc" /><path
       d="m 1895.2969,7845.8454 v 367.6484 c 0,97.5064 -38.7343,191.0191 -107.6817,259.9665 -68.9475,68.9474 -162.4602,107.6817 -259.9666,107.6817"
       style="fill:none;stroke:#000000;stroke-width:84;stroke-linecap:round;stroke-linejoin:round;stroke-dasharray:none;stroke-opacity:1"
       id="path37-9"
       sodipodi:nodetypes="ccsc" /><path
       d="m 240.87952,8029.6696 h 735.29662 c -2e-5,146.2596 -58.10142,286.5287 -161.52257,389.9499 -103.42115,103.4211 -243.69032,161.5225 -389.9499,161.5225"
       style="fill:none;stroke:#000000;stroke-width:84;stroke-linecap:round;stroke-linejoin:round;stroke-dasharray:none;stroke-opacity:1"
       id="path39-3"
       sodipodi:nodetypes="ccsc" /><path
       d="m 1160.0003,7845.8454 v 459.5604"
       style="fill:none;stroke:#000000;stroke-width:84;stroke-dasharray:none;stroke-linecap:round;stroke-linejoin:round;stroke-opacity:1"
       id="path41-8" /><path
       d="m 4193.0988,6007.6039 v 551.4724 c 0,101.5233 82.3009,183.8242 183.8242,183.8242 h 275.7363"
       style="fill:none;stroke:#000000;stroke-width:84;stroke-linecap:round;stroke-linejoin:round;stroke-dasharray:none;stroke-opacity:1"
       id="path42-9"
       sodipodi:nodetypes="cccc" /><path
       d="m 2446.7694,6007.6039 -367.6484,735.2966 653.5971,-163.3992"
       style="fill:none;stroke:#000000;stroke-width:84;stroke-dasharray:none;stroke-linecap:round;stroke-linejoin:round;stroke-opacity:1"
       id="path45-2" /><path
       d="m 2079.121,5088.483 h 735.2966 c 0,195.0128 -77.4685,382.0384 -215.3634,519.9333 -137.8948,137.8949 -324.9204,215.3634 -519.9332,215.3634"
       style="fill:none;stroke:#000000;stroke-width:84;stroke-linecap:round;stroke-linejoin:round;stroke-dasharray:none;stroke-opacity:1"
       id="path46-7"
       sodipodi:nodetypes="ccsc" /><path
       d="m 1160.0003,5088.483 v 551.4726 c 0,101.5233 82.3009,183.8241 183.8242,183.8241 h 551.4724"
       style="fill:none;stroke:#000000;stroke-width:84;stroke-linecap:round;stroke-linejoin:round;stroke-dasharray:none;stroke-opacity:1"
       id="path48-7"
       sodipodi:nodetypes="cccc" /><path
       d="m 2079.121,4169.3623 735.2966,0 c 0,195.0128 -77.4685,382.0383 -215.3634,519.9332 -137.8949,137.8949 -324.9204,215.3634 -519.9332,215.3634"
       style="fill:none;stroke:#000000;stroke-width:84;stroke-linecap:round;stroke-linejoin:round;stroke-dasharray:none;stroke-opacity:1"
       id="path51-0"
       sodipodi:nodetypes="ccsc" /><path
       d="m 608.52784,4169.3623 v 275.7362 c 10e-6,220.3136 -152.7082,411.1989 -367.64832,459.5604"
       style="fill:none;stroke:#000000;stroke-width:84;stroke-linecap:round;stroke-linejoin:round;stroke-dasharray:none;stroke-opacity:1"
       id="path53-2"
       sodipodi:nodetypes="ccc" /><path
       d="m 1527.6486,3296.1976 v 321.6923 c 0,144.6499 -68.1042,280.8582 -183.8241,367.6482"
       style="fill:none;stroke:#000000;stroke-width:84;stroke-linecap:round;stroke-linejoin:round;stroke-dasharray:none;stroke-opacity:1"
       id="path55-0"
       sodipodi:nodetypes="ccc" /><path
       d="m 3182.066,2331.1207 v 551.4725 c 0,101.5233 82.3009,183.8241 183.8242,183.8241 h 367.6482"
       style="fill:none;stroke:#000000;stroke-width:84;stroke-linecap:round;stroke-linejoin:round;stroke-dasharray:none;stroke-opacity:1"
       id="path57"
       sodipodi:nodetypes="cccc" /><path
       d="m 3090.1539,3250.2415 h 551.4725"
       style="fill:none;stroke:#000000;stroke-width:84;stroke-dasharray:none;stroke-linecap:round;stroke-linejoin:round;stroke-opacity:1"
       id="path60" /><path
       d="m 2079.121,2331.1207 h 735.2966 c -90.5179,362.0718 -373.2248,644.7787 -735.2966,735.2966"
       style="fill:none;stroke:#000000;stroke-width:84;stroke-linecap:round;stroke-linejoin:round;stroke-dasharray:none;stroke-opacity:1"
       id="path61"
       sodipodi:nodetypes="ccc" /><path
       d="m 240.87952,1595.8242 h 735.29662 v 367.6482 c 3e-5,101.5233 -82.30086,183.8242 -183.82415,183.8242"
       style="fill:none;stroke:#000000;stroke-width:84;stroke-linecap:round;stroke-linejoin:round;stroke-dasharray:none;stroke-opacity:1"
       id="path63"
       sodipodi:nodetypes="cccc" /><path
       d="m 2446.7694,1228.1758 c 222.6298,-92.7625 367.6482,-310.29007 367.6482,-551.47243 H 2079.121 v 183.82416"
       style="fill:none;stroke:#000000;stroke-width:84;stroke-linecap:round;stroke-linejoin:round;stroke-dasharray:none;stroke-opacity:1"
       id="path66"
       sodipodi:nodetypes="cccc" /><path
       d="m 424.70367,3066.4173 c 97.50638,0 191.01915,-38.7342 259.96658,-107.6817 68.94743,-68.9474 107.68171,-162.4601 107.68174,-259.9665 v -367.6484"
       style="fill:none;stroke:#000000;stroke-width:84;stroke-linecap:round;stroke-linejoin:round;stroke-dasharray:none;stroke-opacity:1"
       id="path68"
       sodipodi:nodetypes="cscc" /><path
       d="M 240.87952,9684.087 H 608.52784"
       style="fill:none;stroke:#000000;stroke-width:84;stroke-dasharray:none;stroke-linecap:round;stroke-linejoin:round;stroke-opacity:1"
       id="path70" /><path
       d="M 240.87952,10419.384 A 735.29662,735.29662 0 0 0 976.17614,9684.087"
       style="fill:none;stroke:#000000;stroke-width:84;stroke-dasharray:none;stroke-linecap:round;stroke-linejoin:round;stroke-opacity:1"
       id="path71" /><path
       d="M 4601.3051,9040.7024 H 3986.2967"
       style="fill:none;stroke:#000000;stroke-width:84;stroke-dasharray:none;stroke-linecap:round;stroke-linejoin:round;stroke-opacity:1"
       id="path72" /><path
       d="m 2998.2418,9500.2628 h 735.2966"
       style="fill:none;stroke:#000000;stroke-width:84;stroke-dasharray:none;stroke-linecap:round;stroke-linejoin:round;stroke-opacity:1"
       id="path73" /><path
       d="m 3365.8902,8948.7904 v 551.4724"
       style="fill:none;stroke:#000000;stroke-width:84;stroke-dasharray:none;stroke-linecap:round;stroke-linejoin:round;stroke-opacity:1"
       id="path74" /><path
       d="m 1343.8245,8948.7904 v 367.6482"
       style="fill:none;stroke:#000000;stroke-width:84;stroke-dasharray:none;stroke-linecap:round;stroke-linejoin:round;stroke-opacity:1"
       id="path75" /><path
       d="m 1251.9124,8948.7904 h 643.3845"
       style="fill:none;stroke:#000000;stroke-width:84;stroke-dasharray:none;stroke-linecap:round;stroke-linejoin:round;stroke-opacity:1"
       id="path76" /><path
       d="m 1160.0003,9316.4386 h 735.2966"
       style="fill:none;stroke:#000000;stroke-width:84;stroke-dasharray:none;stroke-linecap:round;stroke-linejoin:round;stroke-opacity:1"
       id="path77" /><path
       d="m 1711.4727,8764.9662 v 735.2966"
       style="fill:none;stroke:#000000;stroke-width:84;stroke-dasharray:none;stroke-linecap:round;stroke-linejoin:round;stroke-opacity:1"
       id="path78" /><path
       d="m 3917.3626,8581.142 v -735.2966 h 735.2967 v 735.2966 z"
       style="fill:none;stroke:#000000;stroke-width:84;stroke-dasharray:none;stroke-linecap:round;stroke-linejoin:round;stroke-opacity:1"
       id="path79" /><path
       d="m 2079.121,8581.142 a 1291.3646,1291.3646 0 0 0 229.7803,-735.2966"
       style="fill:none;stroke:#000000;stroke-width:84;stroke-dasharray:none;stroke-linecap:round;stroke-linejoin:round;stroke-opacity:1"
       id="path80" /><path
       d="M 424.70367,7845.8454 H 792.35199"
       style="fill:none;stroke:#000000;stroke-width:84;stroke-dasharray:none;stroke-linecap:round;stroke-linejoin:round;stroke-opacity:1"
       id="path81" /><path
       d="m 3917.3626,7294.373 h 735.2967"
       style="fill:none;stroke:#000000;stroke-width:84;stroke-dasharray:none;stroke-linecap:round;stroke-linejoin:round;stroke-opacity:1"
       id="path82" /><path
       d="m 3917.3626,6926.7247 h 735.2967 v 735.2966 h -735.2967"
       style="fill:none;stroke:#000000;stroke-width:84;stroke-dasharray:none;stroke-linecap:round;stroke-linejoin:round;stroke-opacity:1"
       id="path83" /><path
       d="m 2171.0331,6926.7247 h 551.4726 l -91.9122,735.2966"
       style="fill:none;stroke:#000000;stroke-width:84;stroke-dasharray:none;stroke-linecap:round;stroke-linejoin:round;stroke-opacity:1"
       id="path84" /><path
       d="m 2079.121,7662.0213 h 735.2966"
       style="fill:none;stroke:#000000;stroke-width:84;stroke-dasharray:none;stroke-linecap:round;stroke-linejoin:round;stroke-opacity:1"
       id="path85" /><path
       d="M 240.87952,7202.4608 976.17614,6926.7247 884.26407,7294.373"
       style="fill:none;stroke:#000000;stroke-width:84;stroke-dasharray:none;stroke-linecap:round;stroke-linejoin:round;stroke-opacity:1"
       id="path86" /><path
       d="M 608.52784,7662.0213 332.7916,6926.7247"
       style="fill:none;stroke:#000000;stroke-width:84;stroke-dasharray:none;stroke-linecap:round;stroke-linejoin:round;stroke-opacity:1"
       id="path87" /><path
       d="m 3917.3626,6283.3401 h 735.2967"
       style="fill:none;stroke:#000000;stroke-width:84;stroke-dasharray:none;stroke-linecap:round;stroke-linejoin:round;stroke-opacity:1"
       id="path88" /><path
       d="m 3273.9781,6283.3401 367.6483,367.6483"
       style="fill:none;stroke:#000000;stroke-width:84;stroke-dasharray:none;stroke-linecap:round;stroke-linejoin:round;stroke-opacity:1"
       id="path89" /><path
       d="m 2998.2418,6742.9005 a 1010.5685,1010.5685 0 0 0 735.2966,-735.2966"
       style="fill:none;stroke:#000000;stroke-width:84;stroke-dasharray:none;stroke-linecap:round;stroke-linejoin:round;stroke-opacity:1"
       id="path90" /><path
       d="M 2814.4176,6742.9005 2569.3188,6252.7027"
       style="fill:none;stroke:#000000;stroke-width:84;stroke-dasharray:none;stroke-linecap:round;stroke-linejoin:round;stroke-opacity:1"
       id="path91" /><path
       d="m 1297.8684,6336.9555 459.5604,76.5933"
       style="fill:none;stroke:#000000;stroke-width:84;stroke-dasharray:none;stroke-linecap:round;stroke-linejoin:round;stroke-opacity:1"
       id="path92" /><path
       style="fill:none;stroke:#000000;stroke-width:84;stroke-dasharray:none;stroke-linecap:round;stroke-linejoin:round;stroke-opacity:1"
       d="m 1164.9679,6621.1781 730.3291,121.7258"
       id="path93" /><path
       d="m 1251.9124,6007.6039 551.4725,91.912"
       style="fill:none;stroke:#000000;stroke-width:84;stroke-dasharray:none;stroke-linecap:round;stroke-linejoin:round;stroke-opacity:1"
       id="path94" /><path
       d="m 4285.011,5088.483 v 735.2967"
       style="fill:none;stroke:#000000;stroke-width:84;stroke-dasharray:none;stroke-linecap:round;stroke-linejoin:round;stroke-opacity:1"
       id="path96" /><path
       d="m 3917.3626,5272.3072 h 735.2967"
       style="fill:none;stroke:#000000;stroke-width:84;stroke-dasharray:none;stroke-linecap:round;stroke-linejoin:round;stroke-opacity:1"
       id="path97" /><path
       d="m 2998.2418,5639.9556 275.7363,-551.4726 459.5603,735.2967"
       style="fill:none;stroke:#000000;stroke-width:84;stroke-dasharray:none;stroke-linecap:round;stroke-linejoin:round;stroke-opacity:1"
       id="path98" /><path
       d="m 1160.0003,5456.1314 735.2966,-183.8242"
       style="fill:none;stroke:#000000;stroke-width:84;stroke-dasharray:none;stroke-linecap:round;stroke-linejoin:round;stroke-opacity:1"
       id="path99" /><path
       d="m 746.39595,5088.483 a 1291.3646,1291.3646 0 0 0 229.78019,735.2967"
       style="fill:none;stroke:#000000;stroke-width:84;stroke-dasharray:none;stroke-linecap:round;stroke-linejoin:round;stroke-opacity:1"
       id="path100" /><path
       d="M 240.87952,5823.7797 A 1291.3646,1291.3646 0 0 0 470.65972,5088.483"
       style="fill:none;stroke:#000000;stroke-width:84;stroke-dasharray:none;stroke-linecap:round;stroke-linejoin:round;stroke-opacity:1"
       id="path101" /><path
       d="m 3917.3626,4904.6589 a 735.29662,735.29662 0 0 0 735.2967,-735.2966"
       style="fill:none;stroke:#000000;stroke-width:84;stroke-dasharray:none;stroke-linecap:round;stroke-linejoin:round;stroke-opacity:1"
       id="path102" /><path
       d="m 1160.0003,4904.6589 h 735.2966"
       style="fill:none;stroke:#000000;stroke-width:84;stroke-dasharray:none;stroke-linecap:round;stroke-linejoin:round;stroke-opacity:1"
       id="path103" /><path
       d="m 1251.9124,4169.3623 h 551.4725"
       style="fill:none;stroke:#000000;stroke-width:84;stroke-dasharray:none;stroke-linecap:round;stroke-linejoin:round;stroke-opacity:1"
       id="path104" /><path
       d="M 240.87952,4445.0985 H 976.17614"
       style="fill:none;stroke:#000000;stroke-width:84;stroke-dasharray:none;stroke-linecap:round;stroke-linejoin:round;stroke-opacity:1"
       id="path105" /><path
       d="m 3917.3626,3250.2415 v 735.2966"
       style="fill:none;stroke:#000000;stroke-width:84;stroke-dasharray:none;stroke-linecap:round;stroke-linejoin:round;stroke-opacity:1"
       id="path106" /><path
       d="m 2998.2418,3985.5381 a 597.4285,597.4285 0 0 0 367.6484,-551.4724"
       style="fill:none;stroke:#000000;stroke-width:84;stroke-dasharray:none;stroke-linecap:round;stroke-linejoin:round;stroke-opacity:1"
       id="path107" /><path
       d="m 2998.2418,3434.0657 h 735.2966"
       style="fill:none;stroke:#000000;stroke-width:84;stroke-dasharray:none;stroke-linecap:round;stroke-linejoin:round;stroke-opacity:1"
       id="path108" /><path
       d="m 1160.0003,2606.857 h 367.6483"
       style="fill:none;stroke:#000000;stroke-width:84;stroke-dasharray:none;stroke-linecap:round;stroke-linejoin:round;stroke-opacity:1"
       id="path109" /><path
       d="m 2354.8573,3250.2415 v 367.6484"
       style="fill:none;stroke:#000000;stroke-width:84;stroke-dasharray:none;stroke-linecap:round;stroke-linejoin:round;stroke-opacity:1"
       id="path110" /><path
       d="m 2079.121,3250.2415 v 367.6484"
       style="fill:none;stroke:#000000;stroke-width:84;stroke-dasharray:none;stroke-linecap:round;stroke-linejoin:round;stroke-opacity:1"
       id="path111" /><path
       d="m 2079.121,3985.5381 a 735.29662,735.29662 0 0 0 735.2966,-735.2966"
       style="fill:none;stroke:#000000;stroke-width:84;stroke-dasharray:none;stroke-linecap:round;stroke-linejoin:round;stroke-opacity:1"
       id="path112" /><path
       d="m 1251.9124,3342.1536 551.4725,-91.9121"
       style="fill:none;stroke:#000000;stroke-width:84;stroke-dasharray:none;stroke-linecap:round;stroke-linejoin:round;stroke-opacity:1"
       id="path113" /><path
       d="m 1160.0003,3525.9778 h 735.2966"
       style="fill:none;stroke:#000000;stroke-width:84;stroke-dasharray:none;stroke-linecap:round;stroke-linejoin:round;stroke-opacity:1"
       id="path114" /><path
       d="M 240.87952,3617.8899 A 459.56039,459.56039 0 0 0 424.70367,3250.2415"
       style="fill:none;stroke:#000000;stroke-width:84;stroke-dasharray:none;stroke-linecap:round;stroke-linejoin:round;stroke-opacity:1"
       id="path115" /><path
       d="m 3917.3626,2331.1207 v 367.6484"
       style="fill:none;stroke:#000000;stroke-width:84;stroke-dasharray:none;stroke-linecap:round;stroke-linejoin:round;stroke-opacity:1"
       id="path116" /><path
       d="m 3917.3626,3066.4173 a 735.29662,735.29662 0 0 0 735.2967,-735.2966"
       style="fill:none;stroke:#000000;stroke-width:84;stroke-dasharray:none;stroke-linecap:round;stroke-linejoin:round;stroke-opacity:1"
       id="path117" /><path
       d="m 2998.2418,2698.7691 735.2966,-183.8242 -91.912,275.7363"
       style="fill:none;stroke:#000000;stroke-width:84;stroke-dasharray:none;stroke-linecap:round;stroke-linejoin:round;stroke-opacity:1"
       id="path118" /><path
       style="fill:none;stroke:#000000;stroke-width:84;stroke-dasharray:none;stroke-linecap:round;stroke-linejoin:round;stroke-opacity:1"
       d="M 2814.4232,3066.4233 2548.5988,2800.5988"
       id="path119" /><path
       d="m 1160.0003,2331.1207 h 367.6483"
       style="fill:none;stroke:#000000;stroke-width:84;stroke-dasharray:none;stroke-linecap:round;stroke-linejoin:round;stroke-opacity:1"
       id="path120" /><path
       d="m 1160.0003,3066.4173 a 735.29662,735.29662 0 0 0 735.2966,-735.2966"
       style="fill:none;stroke:#000000;stroke-width:84;stroke-dasharray:none;stroke-linecap:round;stroke-linejoin:round;stroke-opacity:1"
       id="path121" /><path
       d="m 424.70367,2331.1207 v 551.4725"
       style="fill:none;stroke:#000000;stroke-width:84;stroke-dasharray:none;stroke-linecap:round;stroke-linejoin:round;stroke-opacity:1"
       id="path122" /><path
       d="M 240.87952,2514.9449 H 976.17614"
       style="fill:none;stroke:#000000;stroke-width:84;stroke-dasharray:none;stroke-linecap:round;stroke-linejoin:round;stroke-opacity:1"
       id="path123" /><path
       d="m 3917.3626,2147.2966 h 735.2967 V 1412 h -735.2967"
       style="fill:none;stroke:#000000;stroke-width:84;stroke-linecap:round;stroke-linejoin:round;stroke-dasharray:none;stroke-opacity:1"
       id="path124"
       sodipodi:nodetypes="cccc" /><path
       d="m 3090.1539,2147.2966 a 597.4285,597.4285 0 0 0 367.6483,-551.4724"
       style="fill:none;stroke:#000000;stroke-width:84;stroke-dasharray:none;stroke-linecap:round;stroke-linejoin:round;stroke-opacity:1"
       id="path126" /><path
       d="m 3143.6996,1595.8242 h 589.8388"
       style="fill:none;stroke:#000000;stroke-width:84;stroke-dasharray:none;stroke-linecap:round;stroke-linejoin:round;stroke-opacity:1"
       id="path127" /><path
       d="M 2998.2418,1779.6483 A 459.56039,459.56039 0 0 0 3182.066,1412"
       style="fill:none;stroke:#000000;stroke-width:84;stroke-dasharray:none;stroke-linecap:round;stroke-linejoin:round;stroke-opacity:1"
       id="path128" /><path
       d="M 2079.121,1779.6483 A 459.56039,459.56039 0 0 0 2262.9452,1412"
       style="fill:none;stroke:#000000;stroke-width:84;stroke-dasharray:none;stroke-linecap:round;stroke-linejoin:round;stroke-opacity:1"
       id="path129" /><path
       d="m 1722.9617,1535.5068 -241.2692,60.3174"
       style="fill:none;stroke:#000000;stroke-width:84;stroke-dasharray:none;stroke-linecap:round;stroke-linejoin:round;stroke-opacity:1"
       id="path130" /><path
       d="m 1481.6925,1595.8242 -241.2692,60.3172"
       style="fill:none;stroke:#000000;stroke-width:84;stroke-dasharray:none;stroke-linecap:round;stroke-linejoin:round;stroke-opacity:1"
       id="path131" /><path
       d="m 1435.7366,1412 91.912,367.6483"
       style="fill:none;stroke:#000000;stroke-width:84;stroke-dasharray:none;stroke-linecap:round;stroke-linejoin:round;stroke-opacity:1"
       id="path132" /><path
       d="m 1527.6486,1779.6483 367.6483,-91.9122"
       style="fill:none;stroke:#000000;stroke-width:84;stroke-dasharray:none;stroke-linecap:round;stroke-linejoin:round;stroke-opacity:1"
       id="path133" /><path
       d="m 1527.6486,1779.6483 -367.6483,91.9121"
       style="fill:none;stroke:#000000;stroke-width:84;stroke-dasharray:none;stroke-linecap:round;stroke-linejoin:round;stroke-opacity:1"
       id="path134" /><path
       d="M 240.87952,2147.2966 A 1118.2636,1118.2636 0 0 0 516.61575,1412"
       style="fill:none;stroke:#000000;stroke-width:84;stroke-dasharray:none;stroke-linecap:round;stroke-linejoin:round;stroke-opacity:1"
       id="path135" /><path
       d="m 1435.7366,1412 183.8241,735.2966"
       style="fill:none;stroke:#000000;stroke-width:84;stroke-dasharray:none;stroke-linecap:round;stroke-linejoin:round;stroke-opacity:1"
       id="path136" /><path
       d="M 4468.8351,676.70337 3917.3626,1228.1758"
       style="fill:none;stroke:#000000;stroke-width:84;stroke-dasharray:none;stroke-linecap:round;stroke-linejoin:round;stroke-opacity:1"
       id="path138" /><path
       d="m 4468.8351,492.87922 v 643.38448 c 0,50.7617 -41.1504,91.9121 -91.9121,91.9121"
       style="fill:none;stroke:#000000;stroke-width:84;stroke-linecap:round;stroke-linejoin:round;stroke-dasharray:none;stroke-opacity:1"
       id="path139"
       sodipodi:nodetypes="ccc" /><path
       d="m 3917.3626,676.70337 h 735.2967"
       style="fill:none;stroke:#000000;stroke-width:84;stroke-dasharray:none;stroke-linecap:round;stroke-linejoin:round;stroke-opacity:1"
       id="path140" /><path
       d="m 3090.1539,492.87922 h 551.4725"
       style="fill:none;stroke:#000000;stroke-width:84;stroke-dasharray:none;stroke-linecap:round;stroke-linejoin:round;stroke-opacity:1"
       id="path141" /><path
       d="M 3365.8902,492.87922 V 1228.1758"
       style="fill:none;stroke:#000000;stroke-width:84;stroke-dasharray:none;stroke-linecap:round;stroke-linejoin:round;stroke-opacity:1"
       id="path142" /><path
       d="m 2998.2418,1228.1758 h 735.2966"
       style="fill:none;stroke:#000000;stroke-width:84;stroke-dasharray:none;stroke-linecap:round;stroke-linejoin:round;stroke-opacity:1"
       id="path143" /><path
       d="M 2446.7694,492.87922 V 676.70337"
       style="fill:none;stroke:#000000;stroke-width:84;stroke-dasharray:none;stroke-linecap:round;stroke-linejoin:round;stroke-opacity:1"
       id="path144" /><path
       d="M 1527.6486,783.79482 V 1228.1758"
       style="fill:none;stroke:#000000;stroke-width:84;stroke-dasharray:none;stroke-linecap:round;stroke-linejoin:round;stroke-opacity:1"
       id="path145" /><path
       d="M 1160.0003,860.52753 A 919.12077,919.12077 0 0 0 1895.2969,492.87922"
       style="fill:none;stroke:#000000;stroke-width:84;stroke-dasharray:none;stroke-linecap:round;stroke-linejoin:round;stroke-opacity:1"
       id="path146" /></g></svg>
