<?xml version="1.0" encoding="UTF-8" standalone="no"?>
<svg
   version="1.1"
   viewBox="-10 0 1239 2048"
   id="svg1"
   sodipodi:docname="arcomp_onsen.svg"
   inkscape:version="1.3 (0e150ed6c4, 2023-07-21)"
   xml:space="preserve"
   xmlns:inkscape="http://www.inkscape.org/namespaces/inkscape"
   xmlns:sodipodi="http://sodipodi.sourceforge.net/DTD/sodipodi-0.dtd"
   xmlns="http://www.w3.org/2000/svg"
   xmlns:svg="http://www.w3.org/2000/svg"><defs
     id="defs1"><inkscape:path-effect
       effect="powerstroke"
       id="path-effect74"
       is_visible="true"
       lpeversion="1.3"
       scale_width="1"
       interpolator_type="CentripetalCatmullRom"
       interpolator_beta="0.19738407"
       start_linecap_type="round"
       end_linecap_type="round"
       offset_points="0.052997839,21.376437 | 2,42 | 3.9488538,21.064583"
       linejoin_type="round"
       miter_limit="4"
       not_jump="false"
       sort_points="true"
       message="&lt;b&gt;Ctrl + click&lt;/b&gt; on existing node and move it" /><inkscape:path-effect
       effect="powerstroke"
       id="path-effect71"
       is_visible="true"
       lpeversion="1.3"
       scale_width="1"
       interpolator_type="CentripetalCatmullRom"
       interpolator_beta="0.2"
       start_linecap_type="round"
       end_linecap_type="round"
       offset_points="0.024513142,29.270665 | 2,42 | 3.9786697,29.367814"
       linejoin_type="round"
       miter_limit="4"
       not_jump="false"
       sort_points="true"
       message="&lt;b&gt;Ctrl + click&lt;/b&gt; on existing node and move it" /><inkscape:path-effect
       effect="powerstroke"
       id="path-effect70"
       is_visible="true"
       lpeversion="1.3"
       scale_width="1"
       interpolator_type="CentripetalCatmullRom"
       interpolator_beta="0.2"
       start_linecap_type="round"
       end_linecap_type="round"
       offset_points="0.2,42 | 2,42 | 3.8,42"
       linejoin_type="round"
       miter_limit="4"
       not_jump="false"
       sort_points="true"
       message="&lt;b&gt;Ctrl + click&lt;/b&gt; on existing node and move it" /><inkscape:path-effect
       effect="powerstroke"
       id="path-effect23"
       is_visible="true"
       lpeversion="1.3"
       scale_width="1"
       interpolator_type="CentripetalCatmullRom"
       interpolator_beta="0.2"
       start_linecap_type="round"
       end_linecap_type="round"
       offset_points="0,18.974911 | 1,42 | 1.976628,21.820312"
       linejoin_type="round"
       miter_limit="4"
       not_jump="false"
       sort_points="true"
       message="&lt;b&gt;Ctrl + click&lt;/b&gt; on existing node and move it" /><inkscape:path-effect
       effect="powerstroke"
       id="path-effect13"
       is_visible="true"
       lpeversion="1.3"
       scale_width="1"
       interpolator_type="CentripetalCatmullRom"
       interpolator_beta="0.2"
       start_linecap_type="round"
       end_linecap_type="round"
       offset_points="0.012777837,18.528452 | 1,42 | 2,13.861806"
       linejoin_type="round"
       miter_limit="4"
       not_jump="false"
       sort_points="true"
       message="&lt;b&gt;Ctrl + click&lt;/b&gt; on existing node and move it" /><inkscape:path-effect
       effect="spiro"
       id="path-effect69"
       is_visible="true"
       lpeversion="1" /><inkscape:path-effect
       effect="spiro"
       id="path-effect68"
       is_visible="true"
       lpeversion="1" /><inkscape:path-effect
       effect="spiro"
       id="path-effect67"
       is_visible="true"
       lpeversion="1" /><inkscape:path-effect
       effect="spiro"
       id="path-effect66"
       is_visible="true"
       lpeversion="1" /><inkscape:path-effect
       effect="spiro"
       id="path-effect65"
       is_visible="true"
       lpeversion="1" /><inkscape:path-effect
       effect="bspline"
       id="path-effect64"
       is_visible="true"
       lpeversion="1.3"
       weight="33.333333"
       steps="2"
       helper_size="0"
       apply_no_weight="true"
       apply_with_weight="true"
       only_selected="false"
       uniform="false" /><inkscape:path-effect
       effect="powerstroke"
       id="path-effect23-9"
       is_visible="true"
       lpeversion="1.3"
       scale_width="1"
       interpolator_type="CentripetalCatmullRom"
       interpolator_beta="0.2"
       start_linecap_type="round"
       end_linecap_type="round"
       offset_points="0,18.974911 | 1,42 | 1.976628,21.820312"
       linejoin_type="round"
       miter_limit="4"
       not_jump="false"
       sort_points="true"
       message="&lt;b&gt;Ctrl + click&lt;/b&gt; on existing node and move it" /><inkscape:path-effect
       effect="powerstroke"
       id="path-effect23-4"
       is_visible="true"
       lpeversion="1.3"
       scale_width="1"
       interpolator_type="CentripetalCatmullRom"
       interpolator_beta="0.2"
       start_linecap_type="round"
       end_linecap_type="round"
       offset_points="0,18.974911 | 1,42 | 1.976628,21.820312"
       linejoin_type="round"
       miter_limit="4"
       not_jump="false"
       sort_points="true"
       message="&lt;b&gt;Ctrl + click&lt;/b&gt; on existing node and move it" /></defs><sodipodi:namedview
     id="namedview1"
     pagecolor="#ffffff"
     bordercolor="#999999"
     borderopacity="1"
     inkscape:showpageshadow="2"
     inkscape:pageopacity="0"
     inkscape:pagecheckerboard="0"
     inkscape:deskcolor="#d1d1d1"
     inkscape:zoom="0.35355339"
     inkscape:cx="675.99408"
     inkscape:cy="1047.9322"
     inkscape:window-width="1920"
     inkscape:window-height="1001"
     inkscape:window-x="-9"
     inkscape:window-y="-9"
     inkscape:window-maximized="1"
     inkscape:current-layer="layer2"
     showguides="false"><sodipodi:guide
       position="866,410"
       orientation="0,-1"
       id="guide1"
       inkscape:locked="false" /><sodipodi:guide
       position="1230,1230"
       orientation="0,1"
       id="guide2"
       inkscape:locked="false"
       inkscape:label=""
       inkscape:color="rgb(0,134,229)" /><sodipodi:guide
       position="208,219.91946"
       orientation="-1,0"
       id="guide4"
       inkscape:locked="false"
       inkscape:label=""
       inkscape:color="rgb(0,134,229)" /><sodipodi:guide
       position="986,96.214765"
       orientation="-1,0"
       id="guide5"
       inkscape:locked="false"
       inkscape:label=""
       inkscape:color="rgb(0,134,229)" /><sodipodi:guide
       position="0,0"
       orientation="0,-1"
       id="guide7"
       inkscape:locked="false" /><sodipodi:guide
       position="1239,481.27157"
       orientation="1,0"
       id="guide8"
       inkscape:locked="false" /><sodipodi:guide
       position="250,248.01176"
       orientation="-1,0"
       id="guide9"
       inkscape:locked="false"
       inkscape:label=""
       inkscape:color="rgb(0,134,229)" /><sodipodi:guide
       position="1028,452"
       orientation="-1,0"
       id="guide10"
       inkscape:locked="false"
       inkscape:label=""
       inkscape:color="rgb(0,134,229)" /><sodipodi:guide
       position="124.40523,452"
       orientation="0,1"
       id="guide11"
       inkscape:locked="false"
       inkscape:label=""
       inkscape:color="rgb(0,134,229)" /><sodipodi:guide
       position="427.64299,1188"
       orientation="0,1"
       id="guide12"
       inkscape:locked="false"
       inkscape:label=""
       inkscape:color="rgb(0,134,229)" /><sodipodi:guide
       position="97.19159,84"
       orientation="0,1"
       id="guide13"
       inkscape:locked="false"
       inkscape:label=""
       inkscape:color="rgb(0,134,229)" /><sodipodi:guide
       position="590.92487,1556"
       orientation="0,1"
       id="guide14"
       inkscape:locked="false"
       inkscape:label=""
       inkscape:color="rgb(0,134,229)" /></sodipodi:namedview><g
     inkscape:groupmode="layer"
     id="layer4"
     inkscape:label="guide 1"
     style="display:inline"><g
       inkscape:groupmode="layer"
       id="layer7"
       inkscape:label="courier letters"
       sodipodi:insensitive="true"><g
         inkscape:groupmode="layer"
         id="layer5"
         inkscape:label="courier m"
         style="display:none"
         sodipodi:insensitive="true"><path
           fill="currentColor"
           d="m 232,772 v 85 Q 339,742 447,742 512,742 561,776.5 610,811 643,881 699,811 756.5,776.5 814,742 872,742 q 91,0 145,59 71,76 71,166 v 587 h 71 q 30,0 43,11.5 13,11.5 13,30.5 0,18 -13,30 -13,12 -43,12 H 1004 V 975 q 0,-64 -39,-106 -39,-42 -90,-42 -46,0 -97,34.5 Q 727,896 662,997 v 557 h 70 q 30,0 43,11.5 13,11.5 13,30.5 0,18 -13,30 -13,12 -43,12 H 577 V 981 Q 577,914 537.5,870.5 498,827 449,827 q -45,0 -89,29 -61,41 -128,141 v 557 h 71 q 30,0 43,11.5 13,11.5 13,30.5 0,18 -13,30 -13,12 -43,12 H 77 q -30,0 -43,-12 -13,-12 -13,-30 0,-19 13,-30.5 13,-11.5 43,-11.5 h 71 V 857 H 77 Q 47,857 34,845 21,833 21,814 21,796 34,784 47,772 77,772 Z"
           id="path1-4"
           style="fill:#000000;fill-opacity:0.5" /></g><g
         inkscape:groupmode="layer"
         id="layer3"
         inkscape:label="courier a cap"
         style="display:none"
         sodipodi:insensitive="true"><path
           fill="currentColor"
           d="M 891,1247 H 339 l -113,307 h 161 q 30,0 43,11.5 13,11.5 13,30.5 0,18 -13,30 -13,12 -43,12 H 73 q -30,0 -43,-12 -13,-12 -13,-30 0,-19 13,-30.5 13,-11.5 43,-11.5 h 65 L 509,552 H 261 Q 231,552 218,540.5 205,529 205,510 205,491 218,479.5 231,468 261,468 h 423 l 410,1086 h 65 q 30,0 43,11.5 13,11.5 13,30.5 0,18 -13,30 -13,12 -43,12 H 846 q -31,0 -44,-12 -13,-12 -13,-30 0,-19 13,-30.5 13,-11.5 44,-11.5 h 160 z M 859,1163 627,552 h -31 l -225,611 z"
           id="path1-7"
           style="fill:#000000;fill-opacity:0.5" /></g><g
         inkscape:groupmode="layer"
         id="layer1"
         inkscape:label="courier a"
         style="display:none"
         sodipodi:insensitive="true"><path
           fill="currentColor"
           d="m 856,1638 v -121 q -183,154 -391,154 -151,0 -236,-76.5 -85,-76.5 -85,-187.5 0,-122 112,-213 112,-91 327,-91 58,0 126,7.5 68,7.5 147,23.5 V 998 q 0,-69 -64,-120 -64,-51 -192,-51 -98,0 -275,57 -32,10 -41,10 -16,0 -27.5,-12 -11.5,-12 -11.5,-30 0,-17 10,-27 14,-15 113,-41 156,-42 236,-42 159,0 248,78.5 89,78.5 89,177.5 v 556 h 112 q 31,0 44,11.5 13,11.5 13,30.5 0,18 -13,30 -13,12 -44,12 z m 0,-418 q -59,-17 -125,-25 -66,-8 -139,-8 -183,0 -286,79 -78,59 -78,141 0,76 59.5,128 59.5,52 173.5,52 109,0 202.5,-43.5 Q 757,1500 856,1405 Z"
           id="path1"
           style="fill:#000000;fill-opacity:0.5" /></g></g><g
       inkscape:groupmode="layer"
       id="layer6"
       inkscape:label="guide"
       sodipodi:insensitive="true"><path
         style="fill:none;stroke:#000000;stroke-width:1px;stroke-linecap:butt;stroke-linejoin:miter;stroke-opacity:1"
         d="M 240,860 V 492"
         id="path26" /><path
         style="fill:none;stroke:#000000;stroke-width:1px;stroke-linecap:butt;stroke-linejoin:miter;stroke-opacity:1"
         d="M 976,860 V 492"
         id="path27" /><path
         style="fill:none;stroke:#000000;stroke-width:1px;stroke-linecap:butt;stroke-linejoin:miter;stroke-opacity:1"
         d="m 240,1596 v 368"
         id="path29" /><path
         style="fill:none;stroke:#000000;stroke-width:1px;stroke-linecap:butt;stroke-linejoin:miter;stroke-opacity:1"
         d="m 976,1596 v 368"
         id="path30" /><path
         style="fill:none;stroke:#000000;stroke-width:1px;stroke-linecap:butt;stroke-linejoin:miter;stroke-opacity:1"
         d="M 608,492 V 1964"
         id="path32" /><path
         style="fill:none;stroke:#000000;stroke-width:1px;stroke-linecap:butt;stroke-linejoin:miter;stroke-opacity:1"
         d="M 240,676 H 608"
         id="path33" /><path
         style="fill:none;stroke:#000000;stroke-width:1px;stroke-linecap:butt;stroke-linejoin:miter;stroke-opacity:1"
         d="M 976,676 H 608"
         id="path34" /><path
         style="fill:none;stroke:#000000;stroke-width:1px;stroke-linecap:butt;stroke-linejoin:miter;stroke-opacity:1"
         d="M 240,1780 H 608"
         id="path35" /><path
         style="fill:none;stroke:#000000;stroke-width:1px;stroke-linecap:butt;stroke-linejoin:miter;stroke-opacity:1"
         d="M 976,1780 H 608"
         id="path36" /><path
         style="fill:none;stroke:#000000;stroke-width:1px;stroke-linecap:butt;stroke-linejoin:miter;stroke-opacity:1"
         d="m 240,860 v 368"
         id="path37" /><path
         style="fill:none;stroke:#000000;stroke-width:1px;stroke-linecap:butt;stroke-linejoin:miter;stroke-opacity:1"
         d="M 240,1596 V 1228"
         id="path38" /><path
         style="fill:none;stroke:#000000;stroke-width:1px;stroke-linecap:butt;stroke-linejoin:miter;stroke-opacity:1"
         d="M 976,1596 V 1228"
         id="path39" /><path
         style="fill:none;stroke:#000000;stroke-width:1px;stroke-linecap:butt;stroke-linejoin:miter;stroke-opacity:1"
         d="m 976,860 v 368"
         id="path40" /><path
         style="fill:none;stroke:#000000;stroke-width:1px;stroke-linecap:butt;stroke-linejoin:miter;stroke-opacity:1"
         d="M 240,860 H 608"
         id="path41" /><path
         style="fill:none;stroke:#000000;stroke-width:1px;stroke-linecap:butt;stroke-linejoin:miter;stroke-opacity:1"
         d="M 240,1228 H 608"
         id="path42" /><path
         style="fill:none;stroke:#000000;stroke-width:1px;stroke-linecap:butt;stroke-linejoin:miter;stroke-opacity:1"
         d="M 240,1596 H 608"
         id="path43" /><path
         style="fill:none;stroke:#000000;stroke-width:1px;stroke-linecap:butt;stroke-linejoin:miter;stroke-opacity:1"
         d="M 608,1596 H 976"
         id="path44" /><path
         style="fill:none;stroke:#000000;stroke-width:1px;stroke-linecap:butt;stroke-linejoin:miter;stroke-opacity:1"
         d="M 608,1228 H 976"
         id="path45" /><path
         style="fill:none;stroke:#000000;stroke-width:1px;stroke-linecap:butt;stroke-linejoin:miter;stroke-opacity:1"
         d="M 240,1964 H 608"
         id="path46" /><path
         style="fill:none;stroke:#000000;stroke-width:1px;stroke-linecap:butt;stroke-linejoin:miter;stroke-opacity:1"
         d="M 976,1964 H 608"
         id="path47" /><path
         style="fill:none;stroke:#000000;stroke-width:1px;stroke-linecap:butt;stroke-linejoin:miter;stroke-opacity:1"
         d="M 608,860 H 976"
         id="path48" /><path
         style="fill:none;stroke:#000000;stroke-width:1px;stroke-linecap:butt;stroke-linejoin:miter;stroke-opacity:1"
         d="M 976,492 H 608"
         id="path49" /><path
         style="fill:none;stroke:#000000;stroke-width:1px;stroke-linecap:butt;stroke-linejoin:miter;stroke-opacity:1"
         d="M 240,492 H 608"
         id="path50" /><path
         style="fill:none;stroke:#000000;stroke-width:1px;stroke-linecap:butt;stroke-linejoin:miter;stroke-opacity:1"
         d="M 792,492 V 1964"
         id="path51" /><path
         style="fill:none;stroke:#000000;stroke-width:1px;stroke-linecap:butt;stroke-linejoin:miter;stroke-opacity:1"
         d="M 424,492 V 1964"
         id="path52" /><path
         style="fill:none;stroke:#000000;stroke-width:1px;stroke-linecap:butt;stroke-linejoin:miter;stroke-opacity:1"
         d="M 240,1412 H 608"
         id="path53" /><path
         style="fill:none;stroke:#000000;stroke-width:1px;stroke-linecap:butt;stroke-linejoin:miter;stroke-opacity:1"
         d="M 976,1412 H 608"
         id="path54" /><path
         style="fill:none;stroke:#000000;stroke-width:1px;stroke-linecap:butt;stroke-linejoin:miter;stroke-opacity:1"
         d="M 240,1044 H 609.5"
         id="path55" /><path
         style="fill:none;stroke:#000000;stroke-width:1px;stroke-linecap:butt;stroke-linejoin:miter;stroke-opacity:1"
         d="M 976,1044 H 608"
         id="path56" /><rect
         style="fill:none;fill-opacity:0.5;stroke:#000000;stroke-width:3.644;stroke-linecap:butt;stroke-linejoin:miter;stroke-dasharray:none;stroke-opacity:1"
         id="rect65"
         width="1239"
         height="2048"
         x="-10"
         y="0" /></g></g><g
     inkscape:groupmode="layer"
     id="layer2"
     inkscape:label="letter parts 1"
     style="display:inline"><path
       id="path15"
       style="fill:#000000;fill-rule:nonzero;stroke:none;stroke-width:84;stroke-linecap:round;stroke-linejoin:round;stroke-opacity:1;paint-order:stroke fill markers"
       d="m 541.8173,1010.1549 c 0,0 -0.33156,0.1078 0,0 16.61269,-5.4041 41.68416,-14.55093 69.41552,-31.53381 27.97556,-17.13243 56.61667,-41.02413 81.1734,-73.28955 19.64135,-25.80707 35.22812,-55.1349 45.47386,-86.87318 10.2536,-31.76266 14.42596,-63.68456 13.45176,-93.86744 -0.67007,-21.44951 0.56466,-44.67328 5.71087,-69.37097 5.14082,-24.67183 13.76226,-48.66266 26.00757,-71.25198 16.17927,-29.8464 36.51091,-53.25841 56.93933,-70.86874 19.79631,-17.06542 37.836,-26.99043 44.92011,-30.30315 3.70322,-1.73171 6.03035,-2.49901 6.96503,-2.8679 A 21.820312,21.820312 90 0 0 875.8538,439.33467 c -2.90033,1.14466 -5.25172,2.21201 -8.15205,3.35668 -8.15007,3.2354 -31.50109,11.55538 -58.19403,27.73062 -27.70472,16.78836 -57.88774,41.21535 -83.95457,75.88742 -19.77109,26.29796 -35.3411,56.12528 -45.43774,88.28576 -10.09988,32.17078 -13.83969,63.8772 -12.7316,92.95026 0.87019,22.22595 -0.43665,45.74467 -5.47973,70.26539 -5.03901,24.50093 -13.48996,48.35807 -25.48241,70.85283 -15.01471,28.16374 -34.09016,51.40367 -54.59932,69.76421 -20.33445,18.20414 -40.04141,29.7787 -53.93687,36.42698 -0.27454,0.13135 0,0 0,0 a 18.974911,18.974911 90 0 0 13.93182,35.30008 z"
       sodipodi:nodetypes="csc"
       inkscape:path-effect="#path-effect23"
       inkscape:original-d="M 534.85139,992.50484 C 643.5654,949.59884 713.46871,842.87039 709.35783,726.06816 705.24695,609.26592 775.15027,502.53734 883.86428,459.63142"
       transform="rotate(-33.223352,1043.2029,1010.6576)" /><path
       id="path15-9"
       style="display:inline;fill:#000000;fill-rule:nonzero;stroke:none;stroke-width:84;stroke-linecap:round;stroke-linejoin:round;stroke-opacity:1;paint-order:stroke fill markers"
       d="m 554.26226,1019.4395 c 0,0 -0.33156,0.1078 0,0 16.61269,-5.4041 41.68415,-14.5509 69.41552,-31.53381 27.97555,-17.13242 56.61667,-41.02411 81.17339,-73.28953 19.64136,-25.80706 35.22813,-55.13489 45.47387,-86.87317 10.2536,-31.76266 14.42596,-63.68456 13.45176,-93.86744 -0.67007,-21.44951 0.56466,-44.67328 5.71087,-69.37097 5.14082,-24.67183 13.76226,-48.66266 26.00757,-71.25198 16.17927,-29.8464 36.51091,-53.25841 56.93933,-70.86874 19.79631,-17.06542 37.836,-26.99043 44.92011,-30.30315 3.70322,-1.73171 6.03035,-2.49901 6.96503,-2.8679 A 21.820312,21.820312 90 0 0 888.29876,448.6193 c -2.90033,1.14466 -5.25172,2.21201 -8.15205,3.35668 -8.15007,3.2354 -31.50109,11.55538 -58.19403,27.73062 -27.70472,16.78836 -57.88774,41.21535 -83.95458,75.88742 -19.77108,26.29796 -35.34109,56.12528 -45.43773,88.28576 -10.09988,32.17077 -13.83969,63.8772 -12.7316,92.95026 0.87019,22.22595 -0.43665,45.74468 -5.47973,70.26539 -5.03901,24.50093 -13.48996,48.35806 -25.48241,70.85282 -15.01471,28.16373 -34.09016,51.40366 -54.59931,69.7642 -20.33446,18.20413 -40.04141,29.77869 -53.93688,36.42697 -0.27454,0.13135 0,0 0,0 a 18.974911,18.974911 90 0 0 13.93182,35.30008 z"
       sodipodi:nodetypes="csc"
       inkscape:path-effect="#path-effect23-9"
       inkscape:original-d="M 547.29635,1001.7894 C 656.01036,958.88344 725.91367,852.15504 721.80279,735.35279 717.69191,618.55055 787.59523,511.82197 896.30924,468.91605"
       transform="rotate(-33.223352,1002.1995,1362.5356)" /><path
       id="path15-2"
       style="display:inline;fill:#000000;fill-rule:nonzero;stroke:none;stroke-width:84;stroke-linecap:round;stroke-linejoin:round;stroke-opacity:1;paint-order:stroke fill markers"
       d="m 543.86012,1024.6743 c 0,0 -0.33156,0.1078 0,0 16.61269,-5.4041 41.68416,-14.5509 69.41552,-31.53382 27.97556,-17.13243 56.61668,-41.02414 81.1734,-73.28957 19.64135,-25.80707 35.22813,-55.13491 45.47386,-86.8732 10.2536,-31.76266 14.42596,-63.68457 13.45176,-93.86744 -0.67007,-21.44951 0.56466,-44.67328 5.71087,-69.37097 5.14082,-24.67183 13.76226,-48.66266 26.00757,-71.25198 16.17927,-29.8464 36.51091,-53.25841 56.93933,-70.86874 19.79631,-17.06542 37.836,-26.99043 44.92011,-30.30315 3.70322,-1.73171 6.03035,-2.49901 6.96503,-2.8679 a 21.820312,21.820312 90 0 0 -16.02095,-40.59351 c -2.90033,1.14466 -5.25172,2.21201 -8.15205,3.35668 -8.15007,3.2354 -31.50109,11.55538 -58.19403,27.73062 -27.70472,16.78836 -57.88774,41.21535 -83.95458,75.88742 -19.77108,26.29796 -35.34109,56.12528 -45.43773,88.28576 -10.09988,32.17077 -13.83969,63.8772 -12.7316,92.95026 0.87019,22.22595 -0.43665,45.74468 -5.47973,70.2654 -5.03901,24.50094 -13.48996,48.35808 -25.48242,70.85285 -15.0147,28.16374 -34.09016,51.40369 -54.59931,69.76423 -20.33445,18.20414 -40.04141,29.7787 -53.93687,36.42698 -0.27454,0.13135 0,0 0,0 a 18.974911,18.974911 90 0 0 13.93182,35.30008 z"
       sodipodi:nodetypes="csc"
       transform="rotate(-33.223352,1172.2252,730.96268)"
       inkscape:original-d="M 536.89421,1007.0242 C 645.60822,964.11824 715.51153,857.38974 711.40065,740.58751 707.28977,623.78527 777.19309,517.05669 885.9071,474.15077"
       inkscape:path-effect="#path-effect23-4" /><path
       id="path63"
       style="display:inline;fill:#000000;fill-rule:nonzero;stroke:none;stroke-width:84;stroke-linecap:round;stroke-linejoin:round;stroke-dasharray:none;stroke-opacity:1"
       d="m 306.53596,1000.8831 c -1.53199,1.1084 -3.86534,2.9463 -8.97041,6.8194 -4.8363,3.6692 -15.239,11.3384 -26.37379,22.0737 -11.48951,11.0772 -24.54466,26.0878 -35.94384,46.1348 -15.73436,27.6711 -26.92426,62.4936 -29.20936,106.0896 -1.03186,42.473 6.40948,82.2971 24.3974,117.9976 18.06641,35.8562 45.54743,65.0958 80.68546,87.9209 36.29531,23.5769 79.74173,39.6766 127.47286,50.0776 52.48151,11.4362 110.33401,16.0091 169.40572,16.0033 59.04208,-0.01 116.90186,-4.5873 169.39801,-16.0403 47.71463,-10.4098 91.15381,-26.5173 127.44096,-50.104 35.11678,-22.8259 62.5792,-52.0612 80.62772,-87.9094 17.96521,-35.6829 25.39311,-75.487 24.34971,-117.9457 -2.3095,-43.5635 -13.51256,-78.3554 -29.25753,-105.9963 -11.48365,-20.1601 -24.64534,-35.2198 -36.20391,-46.3053 -11.19094,-10.733 -21.65046,-18.393 -26.42066,-21.9965 -4.9426,-3.7337 -7.17651,-5.4985 -8.65306,-6.5667 a 21.064583,21.064583 90 0 0 -24.69422,34.133 c 0.9186,0.6646 3.51561,2.3463 7.10667,5.3927 3.92005,3.3255 11.20648,10.2669 18.71951,20.0411 7.65418,9.9578 15.48134,22.7298 21.47792,38.7904 8.10112,21.6971 12.55335,48.5033 10.26978,82.5076 -1.04351,33.5248 -8.66664,60.9347 -21.64904,83.3039 -12.88979,22.2097 -31.78479,40.7149 -57.36839,55.8402 -26.97888,15.9502 -61.20878,28.0052 -102.55202,36.1457 C 715.12634,1366.2425 663.39046,1370.0058 608,1370 c -55.4175,-0.01 -107.14308,-3.7857 -152.58373,-12.7466 -41.3479,-8.1538 -75.56295,-20.2205 -102.52014,-36.1721 -25.57175,-15.1318 -44.44304,-33.6355 -57.31063,-55.8287 -12.96343,-22.3584 -20.5694,-49.7512 -21.6014,-83.252 -2.25926,-33.9933 2.21529,-60.766 10.31798,-82.4144 5.9577,-15.9175 13.71295,-28.5905 21.30404,-38.4849 7.45533,-9.7175 14.69184,-16.6342 18.64529,-19.9971 3.69633,-3.1442 6.39527,-4.8961 7.34435,-5.5827 a 21.376437,21.376437 90 0 0 -25.0598,-34.6384 z"
       inkscape:path-effect="#path-effect74"
       inkscape:original-d="m 319.06586,1018.2023 c -52.70292,38.129 -79.05453,92.7284 -79.05453,163.7983 C 240.01133,1335.3337 362.67497,1412 608,1412 c 245.32503,0 367.98867,-76.6663 367.98867,-229.9994 0,-71.0699 -26.35162,-125.6693 -79.05454,-163.7983"
       sodipodi:nodetypes="csssc" /></g></svg>
