<?xml version="1.0" encoding="UTF-8" standalone="no"?>
<svg
   version="1.1"
   viewBox="-10 0 1239 2048"
   id="svg1"
   sodipodi:docname="arcomp_at_2_final.svg"
   inkscape:version="1.3 (0e150ed6c4, 2023-07-21)"
   xml:space="preserve"
   xmlns:inkscape="http://www.inkscape.org/namespaces/inkscape"
   xmlns:sodipodi="http://sodipodi.sourceforge.net/DTD/sodipodi-0.dtd"
   xmlns="http://www.w3.org/2000/svg"
   xmlns:svg="http://www.w3.org/2000/svg"><defs
     id="defs1"><inkscape:path-effect
       effect="spiro"
       id="path-effect69"
       is_visible="true"
       lpeversion="1" /><inkscape:path-effect
       effect="spiro"
       id="path-effect68"
       is_visible="true"
       lpeversion="1" /><inkscape:path-effect
       effect="spiro"
       id="path-effect67"
       is_visible="true"
       lpeversion="1" /><inkscape:path-effect
       effect="spiro"
       id="path-effect66"
       is_visible="true"
       lpeversion="1" /><inkscape:path-effect
       effect="spiro"
       id="path-effect65"
       is_visible="true"
       lpeversion="1" /><inkscape:path-effect
       effect="bspline"
       id="path-effect64"
       is_visible="true"
       lpeversion="1.3"
       weight="33.333333"
       steps="2"
       helper_size="0"
       apply_no_weight="true"
       apply_with_weight="true"
       only_selected="false"
       uniform="false" /></defs><sodipodi:namedview
     id="namedview1"
     pagecolor="#ffffff"
     bordercolor="#999999"
     borderopacity="1"
     inkscape:showpageshadow="2"
     inkscape:pageopacity="0"
     inkscape:pagecheckerboard="0"
     inkscape:deskcolor="#d1d1d1"
     inkscape:zoom="0.35355339"
     inkscape:cx="841.45707"
     inkscape:cy="1449.5689"
     inkscape:window-width="1920"
     inkscape:window-height="1001"
     inkscape:window-x="-9"
     inkscape:window-y="-9"
     inkscape:window-maximized="1"
     inkscape:current-layer="g16"
     showguides="false"><sodipodi:guide
       position="866,410"
       orientation="0,-1"
       id="guide1"
       inkscape:locked="false" /><sodipodi:guide
       position="1230,1230"
       orientation="0,1"
       id="guide2"
       inkscape:locked="false"
       inkscape:label=""
       inkscape:color="rgb(0,134,229)" /><sodipodi:guide
       position="208,219.91946"
       orientation="-1,0"
       id="guide4"
       inkscape:locked="false"
       inkscape:label=""
       inkscape:color="rgb(0,134,229)" /><sodipodi:guide
       position="986,96.214765"
       orientation="-1,0"
       id="guide5"
       inkscape:locked="false"
       inkscape:label=""
       inkscape:color="rgb(0,134,229)" /><sodipodi:guide
       position="0,0"
       orientation="0,-1"
       id="guide7"
       inkscape:locked="false" /><sodipodi:guide
       position="1239,481.27157"
       orientation="1,0"
       id="guide8"
       inkscape:locked="false" /><sodipodi:guide
       position="250,248.01176"
       orientation="-1,0"
       id="guide9"
       inkscape:locked="false"
       inkscape:label=""
       inkscape:color="rgb(0,134,229)" /><sodipodi:guide
       position="1028,452"
       orientation="-1,0"
       id="guide10"
       inkscape:locked="false"
       inkscape:label=""
       inkscape:color="rgb(0,134,229)" /><sodipodi:guide
       position="124.40523,452"
       orientation="0,1"
       id="guide11"
       inkscape:locked="false"
       inkscape:label=""
       inkscape:color="rgb(0,134,229)" /><sodipodi:guide
       position="427.64299,1188"
       orientation="0,1"
       id="guide12"
       inkscape:locked="false"
       inkscape:label=""
       inkscape:color="rgb(0,134,229)" /><sodipodi:guide
       position="97.19159,84"
       orientation="0,1"
       id="guide13"
       inkscape:locked="false"
       inkscape:label=""
       inkscape:color="rgb(0,134,229)" /><sodipodi:guide
       position="590.92487,1556"
       orientation="0,1"
       id="guide14"
       inkscape:locked="false"
       inkscape:label=""
       inkscape:color="rgb(0,134,229)" /></sodipodi:namedview><g
     inkscape:groupmode="layer"
     id="g16"
     inkscape:label="letter parts 2 copy"><path
       style="color:#000000;fill:#000000;stroke-linecap:round;stroke-linejoin:round;-inkscape-stroke:none"
       d="m 198,860 v 368 c 0,225.9402 184.14813,408.0007 409.63672,410.002 153.00793,1.3578 312.85331,-76.3604 402.51558,-201.5332 13.5077,-18.857 9.1712,-45.0935 -9.6855,-58.6016 -18.85751,-13.5087 -45.09543,-9.1725 -58.60352,9.6855 -70.92952,99.0212 -210.70402,167.5427 -333.48047,166.4532 C 427.38676,1552.3995 282,1408.541 282,1228 V 860 c 0,-180.54214 145.45787,-326 326,-326 180.54213,0 326,145.45736 326,326 v 27 H 745.99805 c -80.16629,0 -142.93124,9.00912 -191.28125,33.18555 -48.35001,24.17643 -80.71382,71.48757 -80.70703,123.82225 0.007,52.3339 32.56614,99.4693 80.8457,123.418 48.27956,23.9486 110.83173,32.9459 190.82812,33.5762 66.07755,0.5206 133.11088,-20.7925 188.32032,-58.7012 v 16.7012 c 0,23.1952 18.80482,41.998 42,41.998 23.19596,0 41.99999,-18.804 41.99999,-42 V 860 c 0,-225.93855 -184.06095,-410 -410.00195,-410 C 382.06095,450 198,634.06094 198,860 Z m 547.99805,111 h 188.0039 v 58.6816 c -43.01024,51.6377 -120.83268,87.8488 -187.6582,87.3223 -73.328,-0.5777 -125.77326,-10.7461 -154.16211,-24.8281 -28.38885,-14.0821 -34.16882,-23.8424 -34.17187,-48.1778 -0.003,-24.3344 5.9621,-34.5241 34.27539,-48.68159 C 620.59844,981.15893 672.83163,971 745.99805,971 Z"
       id="path18"
       sodipodi:nodetypes="ssssssssssscssssscssssssccsssssc" /></g></svg>
