<?xml version="1.0" encoding="UTF-8" standalone="no"?>
<svg
   version="1.1"
   viewBox="-10 0 1239 2048"
   id="svg1"
   sodipodi:docname="arcomp_section_final.svg"
   inkscape:version="1.3 (0e150ed6c4, 2023-07-21)"
   xml:space="preserve"
   xmlns:inkscape="http://www.inkscape.org/namespaces/inkscape"
   xmlns:sodipodi="http://sodipodi.sourceforge.net/DTD/sodipodi-0.dtd"
   xmlns="http://www.w3.org/2000/svg"
   xmlns:svg="http://www.w3.org/2000/svg"><defs
     id="defs1"><inkscape:path-effect
       effect="spiro"
       id="path-effect69"
       is_visible="true"
       lpeversion="1" /><inkscape:path-effect
       effect="spiro"
       id="path-effect68"
       is_visible="true"
       lpeversion="1" /><inkscape:path-effect
       effect="spiro"
       id="path-effect67"
       is_visible="true"
       lpeversion="1" /><inkscape:path-effect
       effect="spiro"
       id="path-effect66"
       is_visible="true"
       lpeversion="1" /><inkscape:path-effect
       effect="spiro"
       id="path-effect65"
       is_visible="true"
       lpeversion="1" /><inkscape:path-effect
       effect="bspline"
       id="path-effect64"
       is_visible="true"
       lpeversion="1.3"
       weight="33.333333"
       steps="2"
       helper_size="0"
       apply_no_weight="true"
       apply_with_weight="true"
       only_selected="false"
       uniform="false" /></defs><sodipodi:namedview
     id="namedview1"
     pagecolor="#ffffff"
     bordercolor="#999999"
     borderopacity="1"
     inkscape:showpageshadow="2"
     inkscape:pageopacity="0"
     inkscape:pagecheckerboard="0"
     inkscape:deskcolor="#d1d1d1"
     inkscape:zoom="0.35355339"
     inkscape:cx="572.75649"
     inkscape:cy="1308.1475"
     inkscape:window-width="1920"
     inkscape:window-height="1001"
     inkscape:window-x="-9"
     inkscape:window-y="-9"
     inkscape:window-maximized="1"
     inkscape:current-layer="g8"
     showguides="false"><sodipodi:guide
       position="866,410"
       orientation="0,-1"
       id="guide1"
       inkscape:locked="false" /><sodipodi:guide
       position="1230,1230"
       orientation="0,1"
       id="guide2"
       inkscape:locked="false"
       inkscape:label=""
       inkscape:color="rgb(0,134,229)" /><sodipodi:guide
       position="208,219.91946"
       orientation="-1,0"
       id="guide4"
       inkscape:locked="false"
       inkscape:label=""
       inkscape:color="rgb(0,134,229)" /><sodipodi:guide
       position="986,96.214765"
       orientation="-1,0"
       id="guide5"
       inkscape:locked="false"
       inkscape:label=""
       inkscape:color="rgb(0,134,229)" /><sodipodi:guide
       position="0,0"
       orientation="0,-1"
       id="guide7"
       inkscape:locked="false" /><sodipodi:guide
       position="1239,481.27157"
       orientation="1,0"
       id="guide8"
       inkscape:locked="false" /><sodipodi:guide
       position="250,248.01176"
       orientation="-1,0"
       id="guide9"
       inkscape:locked="false"
       inkscape:label=""
       inkscape:color="rgb(0,134,229)" /><sodipodi:guide
       position="1028,452"
       orientation="-1,0"
       id="guide10"
       inkscape:locked="false"
       inkscape:label=""
       inkscape:color="rgb(0,134,229)" /><sodipodi:guide
       position="124.40523,452"
       orientation="0,1"
       id="guide11"
       inkscape:locked="false"
       inkscape:label=""
       inkscape:color="rgb(0,134,229)" /><sodipodi:guide
       position="427.64299,1188"
       orientation="0,1"
       id="guide12"
       inkscape:locked="false"
       inkscape:label=""
       inkscape:color="rgb(0,134,229)" /><sodipodi:guide
       position="97.19159,84"
       orientation="0,1"
       id="guide13"
       inkscape:locked="false"
       inkscape:label=""
       inkscape:color="rgb(0,134,229)" /><sodipodi:guide
       position="590.92487,1556"
       orientation="0,1"
       id="guide14"
       inkscape:locked="false"
       inkscape:label=""
       inkscape:color="rgb(0,134,229)" /></sodipodi:namedview><g
     inkscape:groupmode="layer"
     id="g8"
     inkscape:label="letter parts 1 copy 1"
     style="display:inline"><path
       id="path5"
       style="color:#000000;fill:#000000;stroke-linecap:round;stroke-linejoin:round;-inkscape-stroke:none"
       d="M 700.00781 450 C 602.761 450 524.565 467.58511 467.81445 510.14844 C 411.06392 552.71176 382.01758 620.66387 382.01758 698.99609 C 382.01758 713.18569 383.00205 727.02036 384.90039 740.43945 C 333.61997 753.31748 290.57365 775.28043 258.5332 808.45117 C 217.67896 850.74664 198.03125 909.20202 198.03125 975.01758 C 198.03125 1053.3493 227.07864 1121.3021 283.82812 1163.8652 C 340.57762 1206.4285 418.77226 1224.0137 516.01562 1224.0137 C 602.75856 1224.0137 662.55695 1240.9265 697.80273 1267.3613 C 733.04853 1293.7962 750 1329.3434 750 1389.0078 C 750 1448.6716 733.04934 1484.2176 697.80273 1510.6523 C 662.55614 1537.0872 602.7546 1554 516.00781 1554 C 429.26104 1554 369.46141 1537.0874 334.21484 1510.6523 C 298.96829 1484.2173 282.01758 1448.6691 282.01758 1389.0039 A 42 42 0 0 0 240.01758 1347.0039 A 42 42 0 0 0 198.01758 1389.0039 C 198.01758 1467.3356 227.06394 1535.2884 283.81445 1577.8516 C 340.56497 1620.4146 418.761 1638 516.00781 1638 C 613.25464 1638 691.4507 1620.4142 748.20117 1577.8516 C 804.95165 1535.2888 834 1467.3384 834 1389.0078 C 834 1374.8176 833.01573 1360.9822 831.11719 1347.5625 C 882.39762 1334.6844 925.44379 1312.721 957.48438 1279.5508 C 998.33881 1237.2559 1017.9863 1178.8007 1017.9863 1112.9863 C 1017.9863 1034.6552 988.93891 966.70359 932.18945 924.14062 C 875.44 881.57767 797.24533 863.99219 700.00195 863.99219 C 613.25903 863.99219 553.46062 847.07757 518.21484 820.64258 C 482.96908 794.20758 466.01758 758.66133 466.01758 698.99609 C 466.01758 639.33022 482.9683 603.78478 518.21484 577.34961 C 553.46139 550.91444 613.26104 534 700.00781 534 C 786.7546 534 846.5562 550.91444 881.80273 577.34961 C 917.04928 603.78478 934 639.33022 934 698.99609 A 42 42 0 0 0 976 740.99609 A 42 42 0 0 0 1018 698.99609 C 1018 620.66387 988.95366 552.71176 932.20312 510.14844 C 875.4526 467.58511 797.25463 450 700.00781 450 z M 410.46875 820.6543 C 424.49014 846.88172 443.60906 869.6873 467.81445 887.8418 C 524.56395 930.40497 602.75859 947.99219 700.00195 947.99219 C 786.74488 947.99219 846.54131 964.90496 881.78711 991.33984 C 917.0329 1017.7748 933.98633 1053.322 933.98633 1112.9863 C 933.98633 1163.1165 921.15804 1196.2503 897.06641 1221.1914 C 877.41483 1241.5359 847.70491 1257.5391 805.54492 1267.3457 C 791.52375 1241.1202 772.40706 1218.3154 748.20312 1200.1621 C 691.45367 1157.5992 613.25901 1140.0137 516.01562 1140.0137 C 429.2727 1140.0137 369.47428 1123.101 334.22852 1096.666 C 298.98274 1070.231 282.03125 1034.6828 282.03125 975.01758 C 282.03125 924.88575 294.85766 891.75004 318.94922 866.80859 C 338.60042 846.46414 368.30982 830.46092 410.46875 820.6543 z " /></g></svg>
