<?xml version="1.0" encoding="UTF-8" standalone="no"?>
<svg
   version="1.1"
   viewBox="-10 0 1239 2048"
   id="svg1"
   sodipodi:docname="arcomp_dakuten.svg"
   inkscape:version="1.3 (0e150ed6c4, 2023-07-21)"
   xml:space="preserve"
   xmlns:inkscape="http://www.inkscape.org/namespaces/inkscape"
   xmlns:sodipodi="http://sodipodi.sourceforge.net/DTD/sodipodi-0.dtd"
   xmlns="http://www.w3.org/2000/svg"
   xmlns:svg="http://www.w3.org/2000/svg"><defs
     id="defs1"><inkscape:path-effect
       effect="spiro"
       id="path-effect69"
       is_visible="true"
       lpeversion="1" /><inkscape:path-effect
       effect="spiro"
       id="path-effect68"
       is_visible="true"
       lpeversion="1" /><inkscape:path-effect
       effect="spiro"
       id="path-effect67"
       is_visible="true"
       lpeversion="1" /><inkscape:path-effect
       effect="spiro"
       id="path-effect66"
       is_visible="true"
       lpeversion="1" /><inkscape:path-effect
       effect="spiro"
       id="path-effect65"
       is_visible="true"
       lpeversion="1" /><inkscape:path-effect
       effect="bspline"
       id="path-effect64"
       is_visible="true"
       lpeversion="1.3"
       weight="33.333333"
       steps="2"
       helper_size="0"
       apply_no_weight="true"
       apply_with_weight="true"
       only_selected="false"
       uniform="false" /></defs><sodipodi:namedview
     id="namedview1"
     pagecolor="#ffffff"
     bordercolor="#999999"
     borderopacity="1"
     inkscape:showpageshadow="2"
     inkscape:pageopacity="0"
     inkscape:pagecheckerboard="0"
     inkscape:deskcolor="#d1d1d1"
     inkscape:zoom="0.35"
     inkscape:cx="264.28571"
     inkscape:cy="1064.2857"
     inkscape:window-width="1920"
     inkscape:window-height="1001"
     inkscape:window-x="-9"
     inkscape:window-y="-9"
     inkscape:window-maximized="1"
     inkscape:current-layer="svg1"
     showguides="true"><sodipodi:guide
       position="866,410"
       orientation="0,-1"
       id="guide1"
       inkscape:locked="false" /><sodipodi:guide
       position="1230,1230"
       orientation="0,1"
       id="guide2"
       inkscape:locked="false"
       inkscape:label=""
       inkscape:color="rgb(0,134,229)" /><sodipodi:guide
       position="208,219.91946"
       orientation="-1,0"
       id="guide4"
       inkscape:locked="false"
       inkscape:label=""
       inkscape:color="rgb(0,134,229)" /><sodipodi:guide
       position="986,96.214765"
       orientation="-1,0"
       id="guide5"
       inkscape:locked="false"
       inkscape:label=""
       inkscape:color="rgb(0,134,229)" /><sodipodi:guide
       position="0,0"
       orientation="0,-1"
       id="guide7"
       inkscape:locked="false" /><sodipodi:guide
       position="1239,481.27157"
       orientation="1,0"
       id="guide8"
       inkscape:locked="false" /><sodipodi:guide
       position="250,248.01176"
       orientation="-1,0"
       id="guide9"
       inkscape:locked="false"
       inkscape:label=""
       inkscape:color="rgb(0,134,229)" /><sodipodi:guide
       position="1028,452"
       orientation="-1,0"
       id="guide10"
       inkscape:locked="false"
       inkscape:label=""
       inkscape:color="rgb(0,134,229)" /><sodipodi:guide
       position="124.40523,452"
       orientation="0,1"
       id="guide11"
       inkscape:locked="false"
       inkscape:label=""
       inkscape:color="rgb(0,134,229)" /><sodipodi:guide
       position="427.64299,1188"
       orientation="0,1"
       id="guide12"
       inkscape:locked="false"
       inkscape:label=""
       inkscape:color="rgb(0,134,229)" /><sodipodi:guide
       position="97.19159,84"
       orientation="0,1"
       id="guide13"
       inkscape:locked="false"
       inkscape:label=""
       inkscape:color="rgb(0,134,229)" /><sodipodi:guide
       position="590.92487,1556"
       orientation="0,1"
       id="guide14"
       inkscape:locked="false"
       inkscape:label=""
       inkscape:color="rgb(0,134,229)" /></sodipodi:namedview><g
     inkscape:groupmode="layer"
     id="layer7"
     inkscape:label="courier letters"
     sodipodi:insensitive="true"><g
       inkscape:groupmode="layer"
       id="layer5"
       inkscape:label="courier m"
       style="display:none"
       sodipodi:insensitive="true"><path
         fill="currentColor"
         d="m 232,772 v 85 Q 339,742 447,742 512,742 561,776.5 610,811 643,881 699,811 756.5,776.5 814,742 872,742 q 91,0 145,59 71,76 71,166 v 587 h 71 q 30,0 43,11.5 13,11.5 13,30.5 0,18 -13,30 -13,12 -43,12 H 1004 V 975 q 0,-64 -39,-106 -39,-42 -90,-42 -46,0 -97,34.5 Q 727,896 662,997 v 557 h 70 q 30,0 43,11.5 13,11.5 13,30.5 0,18 -13,30 -13,12 -43,12 H 577 V 981 Q 577,914 537.5,870.5 498,827 449,827 q -45,0 -89,29 -61,41 -128,141 v 557 h 71 q 30,0 43,11.5 13,11.5 13,30.5 0,18 -13,30 -13,12 -43,12 H 77 q -30,0 -43,-12 -13,-12 -13,-30 0,-19 13,-30.5 13,-11.5 43,-11.5 h 71 V 857 H 77 Q 47,857 34,845 21,833 21,814 21,796 34,784 47,772 77,772 Z"
         id="path1-4"
         style="fill:#000000;fill-opacity:0.5" /></g><g
       inkscape:groupmode="layer"
       id="layer3"
       inkscape:label="courier a cap"
       style="display:none"
       sodipodi:insensitive="true"><path
         fill="currentColor"
         d="M 891,1247 H 339 l -113,307 h 161 q 30,0 43,11.5 13,11.5 13,30.5 0,18 -13,30 -13,12 -43,12 H 73 q -30,0 -43,-12 -13,-12 -13,-30 0,-19 13,-30.5 13,-11.5 43,-11.5 h 65 L 509,552 H 261 Q 231,552 218,540.5 205,529 205,510 205,491 218,479.5 231,468 261,468 h 423 l 410,1086 h 65 q 30,0 43,11.5 13,11.5 13,30.5 0,18 -13,30 -13,12 -43,12 H 846 q -31,0 -44,-12 -13,-12 -13,-30 0,-19 13,-30.5 13,-11.5 44,-11.5 h 160 z M 859,1163 627,552 h -31 l -225,611 z"
         id="path1-7"
         style="fill:#000000;fill-opacity:0.5" /></g><g
       inkscape:groupmode="layer"
       id="layer1"
       inkscape:label="courier a"
       style="display:none"
       sodipodi:insensitive="true"><path
         fill="currentColor"
         d="m 856,1638 v -121 q -183,154 -391,154 -151,0 -236,-76.5 -85,-76.5 -85,-187.5 0,-122 112,-213 112,-91 327,-91 58,0 126,7.5 68,7.5 147,23.5 V 998 q 0,-69 -64,-120 -64,-51 -192,-51 -98,0 -275,57 -32,10 -41,10 -16,0 -27.5,-12 -11.5,-12 -11.5,-30 0,-17 10,-27 14,-15 113,-41 156,-42 236,-42 159,0 248,78.5 89,78.5 89,177.5 v 556 h 112 q 31,0 44,11.5 13,11.5 13,30.5 0,18 -13,30 -13,12 -44,12 z m 0,-418 q -59,-17 -125,-25 -66,-8 -139,-8 -183,0 -286,79 -78,59 -78,141 0,76 59.5,128 59.5,52 173.5,52 109,0 202.5,-43.5 Q 757,1500 856,1405 Z"
         id="path1"
         style="fill:#000000;fill-opacity:0.5" /></g></g><g
     inkscape:groupmode="layer"
     id="layer6"
     inkscape:label="guide"
     sodipodi:insensitive="true"><path
       style="fill:none;stroke:#000000;stroke-width:1px;stroke-linecap:butt;stroke-linejoin:miter;stroke-opacity:1"
       d="M 240,860 V 492"
       id="path26" /><path
       style="fill:none;stroke:#000000;stroke-width:1px;stroke-linecap:butt;stroke-linejoin:miter;stroke-opacity:1"
       d="M 976,860 V 492"
       id="path27" /><path
       style="fill:none;stroke:#000000;stroke-width:1px;stroke-linecap:butt;stroke-linejoin:miter;stroke-opacity:1"
       d="m 240,1596 v 368"
       id="path29" /><path
       style="fill:none;stroke:#000000;stroke-width:1px;stroke-linecap:butt;stroke-linejoin:miter;stroke-opacity:1"
       d="m 976,1596 v 368"
       id="path30" /><path
       style="fill:none;stroke:#000000;stroke-width:1px;stroke-linecap:butt;stroke-linejoin:miter;stroke-opacity:1"
       d="M 608,492 V 1964"
       id="path32" /><path
       style="fill:none;stroke:#000000;stroke-width:1px;stroke-linecap:butt;stroke-linejoin:miter;stroke-opacity:1"
       d="M 240,676 H 608"
       id="path33" /><path
       style="fill:none;stroke:#000000;stroke-width:1px;stroke-linecap:butt;stroke-linejoin:miter;stroke-opacity:1"
       d="M 976,676 H 608"
       id="path34" /><path
       style="fill:none;stroke:#000000;stroke-width:1px;stroke-linecap:butt;stroke-linejoin:miter;stroke-opacity:1"
       d="M 240,1780 H 608"
       id="path35" /><path
       style="fill:none;stroke:#000000;stroke-width:1px;stroke-linecap:butt;stroke-linejoin:miter;stroke-opacity:1"
       d="M 976,1780 H 608"
       id="path36" /><path
       style="fill:none;stroke:#000000;stroke-width:1px;stroke-linecap:butt;stroke-linejoin:miter;stroke-opacity:1"
       d="m 240,860 v 368"
       id="path37" /><path
       style="fill:none;stroke:#000000;stroke-width:1px;stroke-linecap:butt;stroke-linejoin:miter;stroke-opacity:1"
       d="M 240,1596 V 1228"
       id="path38" /><path
       style="fill:none;stroke:#000000;stroke-width:1px;stroke-linecap:butt;stroke-linejoin:miter;stroke-opacity:1"
       d="M 976,1596 V 1228"
       id="path39" /><path
       style="fill:none;stroke:#000000;stroke-width:1px;stroke-linecap:butt;stroke-linejoin:miter;stroke-opacity:1"
       d="m 976,860 v 368"
       id="path40" /><path
       style="fill:none;stroke:#000000;stroke-width:1px;stroke-linecap:butt;stroke-linejoin:miter;stroke-opacity:1"
       d="M 240,860 H 608"
       id="path41" /><path
       style="fill:none;stroke:#000000;stroke-width:1px;stroke-linecap:butt;stroke-linejoin:miter;stroke-opacity:1"
       d="M 240,1228 H 608"
       id="path42" /><path
       style="fill:none;stroke:#000000;stroke-width:1px;stroke-linecap:butt;stroke-linejoin:miter;stroke-opacity:1"
       d="M 240,1596 H 608"
       id="path43" /><path
       style="fill:none;stroke:#000000;stroke-width:1px;stroke-linecap:butt;stroke-linejoin:miter;stroke-opacity:1"
       d="M 608,1596 H 976"
       id="path44" /><path
       style="fill:none;stroke:#000000;stroke-width:1px;stroke-linecap:butt;stroke-linejoin:miter;stroke-opacity:1"
       d="M 608,1228 H 976"
       id="path45" /><path
       style="fill:none;stroke:#000000;stroke-width:1px;stroke-linecap:butt;stroke-linejoin:miter;stroke-opacity:1"
       d="M 240,1964 H 608"
       id="path46" /><path
       style="fill:none;stroke:#000000;stroke-width:1px;stroke-linecap:butt;stroke-linejoin:miter;stroke-opacity:1"
       d="M 976,1964 H 608"
       id="path47" /><path
       style="fill:none;stroke:#000000;stroke-width:1px;stroke-linecap:butt;stroke-linejoin:miter;stroke-opacity:1"
       d="M 608,860 H 976"
       id="path48" /><path
       style="fill:none;stroke:#000000;stroke-width:1px;stroke-linecap:butt;stroke-linejoin:miter;stroke-opacity:1"
       d="M 976,492 H 608"
       id="path49" /><path
       style="fill:none;stroke:#000000;stroke-width:1px;stroke-linecap:butt;stroke-linejoin:miter;stroke-opacity:1"
       d="M 240,492 H 608"
       id="path50" /><path
       style="fill:none;stroke:#000000;stroke-width:1px;stroke-linecap:butt;stroke-linejoin:miter;stroke-opacity:1"
       d="M 792,492 V 1964"
       id="path51" /><path
       style="fill:none;stroke:#000000;stroke-width:1px;stroke-linecap:butt;stroke-linejoin:miter;stroke-opacity:1"
       d="M 424,492 V 1964"
       id="path52" /><path
       style="fill:none;stroke:#000000;stroke-width:1px;stroke-linecap:butt;stroke-linejoin:miter;stroke-opacity:1"
       d="M 240,1412 H 608"
       id="path53" /><path
       style="fill:none;stroke:#000000;stroke-width:1px;stroke-linecap:butt;stroke-linejoin:miter;stroke-opacity:1"
       d="M 976,1412 H 608"
       id="path54" /><path
       style="fill:none;stroke:#000000;stroke-width:1px;stroke-linecap:butt;stroke-linejoin:miter;stroke-opacity:1"
       d="M 240,1044 H 609.5"
       id="path55" /><path
       style="fill:none;stroke:#000000;stroke-width:1px;stroke-linecap:butt;stroke-linejoin:miter;stroke-opacity:1"
       d="M 976,1044 H 608"
       id="path56" /><rect
       style="fill:none;fill-opacity:0.5;stroke:#000000;stroke-width:3.644;stroke-linecap:butt;stroke-linejoin:miter;stroke-dasharray:none;stroke-opacity:1"
       id="rect65"
       width="1239"
       height="2048"
       x="-10"
       y="0" /></g><g
     inkscape:groupmode="layer"
     id="layer8"
     inkscape:label="letter parts"
     sodipodi:insensitive="true" /><g
     inkscape:groupmode="layer"
     id="layer2"
     inkscape:label="letter parts 1" /><path
     style="fill:none;stroke:#000000;stroke-width:84;stroke-linecap:round;stroke-linejoin:miter;stroke-dasharray:none;stroke-opacity:1"
     d="m 930,377 92,184"
     id="path5" /><path
     style="fill:none;stroke:#000000;stroke-width:84;stroke-linecap:round;stroke-linejoin:miter;stroke-dasharray:none;stroke-opacity:1"
     d="m 1068,308 92,184"
     id="path6" /></svg>
