<?xml version="1.0" encoding="UTF-8" standalone="no"?>
<svg
   version="1.1"
   viewBox="-10 0 1239 2048"
   id="svg1"
   sodipodi:docname="arcomp_hiragana_me_final.svg"
   inkscape:version="1.3 (0e150ed6c4, 2023-07-21)"
   xml:space="preserve"
   xmlns:inkscape="http://www.inkscape.org/namespaces/inkscape"
   xmlns:sodipodi="http://sodipodi.sourceforge.net/DTD/sodipodi-0.dtd"
   xmlns="http://www.w3.org/2000/svg"
   xmlns:svg="http://www.w3.org/2000/svg"><defs
     id="defs1"><inkscape:path-effect
       effect="spiro"
       id="path-effect69"
       is_visible="true"
       lpeversion="1" /><inkscape:path-effect
       effect="spiro"
       id="path-effect68"
       is_visible="true"
       lpeversion="1" /><inkscape:path-effect
       effect="spiro"
       id="path-effect67"
       is_visible="true"
       lpeversion="1" /><inkscape:path-effect
       effect="spiro"
       id="path-effect66"
       is_visible="true"
       lpeversion="1" /><inkscape:path-effect
       effect="spiro"
       id="path-effect65"
       is_visible="true"
       lpeversion="1" /><inkscape:path-effect
       effect="bspline"
       id="path-effect64"
       is_visible="true"
       lpeversion="1.3"
       weight="33.333333"
       steps="2"
       helper_size="0"
       apply_no_weight="true"
       apply_with_weight="true"
       only_selected="false"
       uniform="false" /></defs><sodipodi:namedview
     id="namedview1"
     pagecolor="#ffffff"
     bordercolor="#999999"
     borderopacity="1"
     inkscape:showpageshadow="2"
     inkscape:pageopacity="0"
     inkscape:pagecheckerboard="0"
     inkscape:deskcolor="#d1d1d1"
     inkscape:zoom="0.5"
     inkscape:cx="695"
     inkscape:cy="1121"
     inkscape:window-width="1920"
     inkscape:window-height="1001"
     inkscape:window-x="-9"
     inkscape:window-y="-9"
     inkscape:window-maximized="1"
     inkscape:current-layer="svg1"
     showguides="true"><sodipodi:guide
       position="866,410"
       orientation="0,-1"
       id="guide1"
       inkscape:locked="false" /><sodipodi:guide
       position="1230,1230"
       orientation="0,1"
       id="guide2"
       inkscape:locked="false"
       inkscape:label=""
       inkscape:color="rgb(0,134,229)" /><sodipodi:guide
       position="208,219.91946"
       orientation="-1,0"
       id="guide4"
       inkscape:locked="false"
       inkscape:label=""
       inkscape:color="rgb(0,134,229)" /><sodipodi:guide
       position="986,96.214765"
       orientation="-1,0"
       id="guide5"
       inkscape:locked="false"
       inkscape:label=""
       inkscape:color="rgb(0,134,229)" /><sodipodi:guide
       position="0,0"
       orientation="0,-1"
       id="guide7"
       inkscape:locked="false" /><sodipodi:guide
       position="1239,481.27157"
       orientation="1,0"
       id="guide8"
       inkscape:locked="false" /><sodipodi:guide
       position="250,248.01176"
       orientation="-1,0"
       id="guide9"
       inkscape:locked="false"
       inkscape:label=""
       inkscape:color="rgb(0,134,229)" /><sodipodi:guide
       position="1028,452"
       orientation="-1,0"
       id="guide10"
       inkscape:locked="false"
       inkscape:label=""
       inkscape:color="rgb(0,134,229)" /><sodipodi:guide
       position="124.40523,452"
       orientation="0,1"
       id="guide11"
       inkscape:locked="false"
       inkscape:label=""
       inkscape:color="rgb(0,134,229)" /><sodipodi:guide
       position="427.64299,1188"
       orientation="0,1"
       id="guide12"
       inkscape:locked="false"
       inkscape:label=""
       inkscape:color="rgb(0,134,229)" /><sodipodi:guide
       position="97.19159,84"
       orientation="0,1"
       id="guide13"
       inkscape:locked="false"
       inkscape:label=""
       inkscape:color="rgb(0,134,229)" /><sodipodi:guide
       position="590.92487,1556"
       orientation="0,1"
       id="guide14"
       inkscape:locked="false"
       inkscape:label=""
       inkscape:color="rgb(0,134,229)" /></sodipodi:namedview><g
     inkscape:groupmode="layer"
     id="layer2"
     inkscape:label="letter parts 1"><path
       id="path18"
       style="color:#000000;fill:#000000;stroke-linecap:round;stroke-linejoin:round;-inkscape-stroke:none"
       d="m 792,450 c -23.19596,0 -42,18.80404 -42,42 0,62.99086 -3.55378,155.05949 -16.86328,263.29883 C 694.22642,736.64792 652.3104,726 608,726 540.25209,726 477.22372,750.8198 422.11523,792.51953 L 372.38477,618.46094 c -4.66738,-16.33321 -18.71385,-28.24674 -35.58985,-30.18555 -5.47918,-0.63005 -11.0288,-0.17477 -16.33203,1.33984 -22.30424,6.37241 -35.21911,29.61988 -28.8457,51.92383 l 61.79101,216.26953 c -13.96893,16.31634 -27.18685,33.71085 -39.42968,52.17969 C 241.72064,1018.9924 198,1164.3029 198,1320 v 31.5938 c 0,112.9487 44.40062,216.5313 123.73633,263.4882 40.44384,23.9378 88.09867,28.4662 130.32617,14.2129 42.2275,-14.2533 78.76765,-45.617 105.54883,-88.5898 81.64415,-131.0057 182.7928,-339.89 237.51562,-632.46487 14.89984,16.92436 29.0757,35.66357 42.27149,56.25391 61.5924,96.10706 99.48275,227.12646 96.61133,354.55856 -1.68569,74.8096 -22.77308,136.0065 -51.07032,176.4024 C 854.64221,1535.8508 821.39052,1554 792,1554 c -23.19596,0 -42,18.804 -42,42 0,23.196 18.80404,42 42,42 63.2133,0 120.11139,-37.782 159.73828,-94.3516 39.62689,-56.5694 64.23712,-133.3746 66.25002,-222.7031 3.2676,-145.0151 -38.23019,-289.9949 -109.86721,-401.77538 C 880.63674,876.28408 848.17816,837.94164 811.69141,806.88281 829.97885,676.38402 834,565.77336 834,492 834,468.80404 815.19596,450 792,450 Z M 608,810 c 38.81205,0 76.78475,12.01806 112.45898,33.94922 -24.37264,148.6102 -67.91975,319.00418 -144.79101,486.01168 L 447.31055,880.70508 C 496.44246,835.02016 551.78261,810 608,810 Z m -225.67188,149.0332 137.3125,480.5938 c -10.67104,19.0014 -21.64971,37.9269 -33.31835,56.6503 -18.3636,29.4662 -40.55942,46.4868 -61.12305,53.4278 -20.56363,6.9409 -39.75735,5.4721 -60.67774,-6.9102 C 324.16327,1518.9078 282,1440.5311 282,1351.5938 V 1320 c 0,-138.4953 39.55648,-268.0153 100.32812,-360.9668 z"
       sodipodi:nodetypes="sscsccccccsssssscssssssssscssscccsccsssssc" /></g></svg>
