<?xml version="1.0" encoding="UTF-8" standalone="no"?>
<svg
   version="1.1"
   viewBox="-10 0 1239 2048"
   id="svg1"
   sodipodi:docname="arcomp_hiragana_mu_final.svg"
   inkscape:version="1.3 (0e150ed6c4, 2023-07-21)"
   xml:space="preserve"
   xmlns:inkscape="http://www.inkscape.org/namespaces/inkscape"
   xmlns:sodipodi="http://sodipodi.sourceforge.net/DTD/sodipodi-0.dtd"
   xmlns="http://www.w3.org/2000/svg"
   xmlns:svg="http://www.w3.org/2000/svg"><defs
     id="defs1"><inkscape:path-effect
       effect="spiro"
       id="path-effect69"
       is_visible="true"
       lpeversion="1" /><inkscape:path-effect
       effect="spiro"
       id="path-effect68"
       is_visible="true"
       lpeversion="1" /><inkscape:path-effect
       effect="spiro"
       id="path-effect67"
       is_visible="true"
       lpeversion="1" /><inkscape:path-effect
       effect="spiro"
       id="path-effect66"
       is_visible="true"
       lpeversion="1" /><inkscape:path-effect
       effect="spiro"
       id="path-effect65"
       is_visible="true"
       lpeversion="1" /><inkscape:path-effect
       effect="bspline"
       id="path-effect64"
       is_visible="true"
       lpeversion="1.3"
       weight="33.333333"
       steps="2"
       helper_size="0"
       apply_no_weight="true"
       apply_with_weight="true"
       only_selected="false"
       uniform="false" /></defs><sodipodi:namedview
     id="namedview1"
     pagecolor="#ffffff"
     bordercolor="#999999"
     borderopacity="1"
     inkscape:showpageshadow="2"
     inkscape:pageopacity="0"
     inkscape:pagecheckerboard="0"
     inkscape:deskcolor="#d1d1d1"
     inkscape:zoom="0.5"
     inkscape:cx="695"
     inkscape:cy="1039"
     inkscape:window-width="1920"
     inkscape:window-height="1001"
     inkscape:window-x="-9"
     inkscape:window-y="-9"
     inkscape:window-maximized="1"
     inkscape:current-layer="svg1"
     showguides="true"><sodipodi:guide
       position="866,410"
       orientation="0,-1"
       id="guide1"
       inkscape:locked="false" /><sodipodi:guide
       position="1230,1230"
       orientation="0,1"
       id="guide2"
       inkscape:locked="false"
       inkscape:label=""
       inkscape:color="rgb(0,134,229)" /><sodipodi:guide
       position="208,219.91946"
       orientation="-1,0"
       id="guide4"
       inkscape:locked="false"
       inkscape:label=""
       inkscape:color="rgb(0,134,229)" /><sodipodi:guide
       position="986,96.214765"
       orientation="-1,0"
       id="guide5"
       inkscape:locked="false"
       inkscape:label=""
       inkscape:color="rgb(0,134,229)" /><sodipodi:guide
       position="0,0"
       orientation="0,-1"
       id="guide7"
       inkscape:locked="false" /><sodipodi:guide
       position="1239,481.27157"
       orientation="1,0"
       id="guide8"
       inkscape:locked="false" /><sodipodi:guide
       position="250,248.01176"
       orientation="-1,0"
       id="guide9"
       inkscape:locked="false"
       inkscape:label=""
       inkscape:color="rgb(0,134,229)" /><sodipodi:guide
       position="1028,452"
       orientation="-1,0"
       id="guide10"
       inkscape:locked="false"
       inkscape:label=""
       inkscape:color="rgb(0,134,229)" /><sodipodi:guide
       position="124.40523,452"
       orientation="0,1"
       id="guide11"
       inkscape:locked="false"
       inkscape:label=""
       inkscape:color="rgb(0,134,229)" /><sodipodi:guide
       position="427.64299,1188"
       orientation="0,1"
       id="guide12"
       inkscape:locked="false"
       inkscape:label=""
       inkscape:color="rgb(0,134,229)" /><sodipodi:guide
       position="97.19159,84"
       orientation="0,1"
       id="guide13"
       inkscape:locked="false"
       inkscape:label=""
       inkscape:color="rgb(0,134,229)" /><sodipodi:guide
       position="590.92487,1556"
       orientation="0,1"
       id="guide14"
       inkscape:locked="false"
       inkscape:label=""
       inkscape:color="rgb(0,134,229)" /></sodipodi:namedview><g
     inkscape:groupmode="layer"
     id="layer2"
     inkscape:label="letter parts 1"><path
       id="path19"
       style="color:#000000;fill:#000000;stroke-linecap:round;stroke-linejoin:round;-inkscape-stroke:none"
       d="m 516,450 c -23.19596,0 -42,18.80404 -42,42 V 657 H 240 c -23.19596,0 -42,18.80404 -42,42 0,23.19596 18.80404,42 42,42 h 234 v 299.9062 C 447.29427,1017.3154 414.67182,1002 378,1002 c -55.45964,0 -101.7506,34.9038 -132.13672,80.7422 C 215.47716,1128.5805 198,1187.6396 198,1251 c 0,63.3591 17.47755,122.4169 47.86328,168.2559 C 276.24901,1465.0947 322.53919,1500 378,1500 c 36.71814,0 69.37753,-15.3546 96.10156,-38.9961 0.537,43.7495 12.62487,84.4536 34.14258,116.9102 C 530.25734,1611.118 565.04659,1638 608,1638 h 276 c 42.95717,0 77.74585,-26.8868 99.75781,-60.0918 C 1005.7698,1544.7032 1018,1502.8936 1018,1458 v -276 c 0,-23.196 -18.80404,-42 -42,-42 -23.19596,0 -42,18.804 -42,42 v 276 c 0,28.9757 -8.76735,56.1668 -20.25391,73.4941 C 902.25955,1548.8216 891.04819,1554 884,1554 H 608 c -7.04769,0 -18.25781,-5.1763 -29.74414,-22.502 C 566.76952,1514.1725 558,1486.9818 558,1458 V 741 h 142 c 23.19596,0 42,-18.80404 42,-42 0,-23.19596 -18.80404,-42 -42,-42 H 558 V 492 c 0,-23.19596 -18.80404,-42 -42,-42 z m 277.69336,138.03516 c -3.29986,-0.13335 -6.60394,0.12298 -9.84375,0.76367 -5.41062,1.07053 -10.5574,3.19627 -15.14649,6.25586 -19.30049,12.86692 -24.51571,38.94389 -11.64843,58.24414 l 184,275.99805 c 12.86683,19.29928 38.94232,24.51438 58.24219,11.64843 19.29932,-12.86683 24.51442,-38.94232 11.64842,-58.24219 l -183.99999,-276 c -7.45745,-11.18586 -19.81904,-18.12577 -33.25195,-18.66796 z M 378,1086 c 19.55478,0 42.26462,13.1959 62.125,43.1582 C 459.98538,1159.1205 474,1203.5635 474,1251 c 0,47.4343 -14.01482,91.8768 -33.875,121.8398 C 420.26482,1402.803 397.55624,1416 378,1416 c -19.55375,0 -42.26265,-13.1935 -62.12305,-43.1543 C 296.01656,1342.8849 282,1298.4427 282,1251 c 0,-47.4438 14.01645,-91.8855 33.87695,-121.8457 C 335.73745,1099.1941 358.44706,1086 378,1086 Z"
       sodipodi:nodetypes="sscsssccssssscsssssssssssssscssscssscccccccssssssssss" /></g></svg>
