<?xml version="1.0" encoding="UTF-8" standalone="no"?>
<svg
   version="1.1"
   viewBox="-10 0 1239 2048"
   id="svg1"
   sodipodi:docname="arcomp_hiragana_ya_final.svg"
   inkscape:version="1.3 (0e150ed6c4, 2023-07-21)"
   xml:space="preserve"
   xmlns:inkscape="http://www.inkscape.org/namespaces/inkscape"
   xmlns:sodipodi="http://sodipodi.sourceforge.net/DTD/sodipodi-0.dtd"
   xmlns="http://www.w3.org/2000/svg"
   xmlns:svg="http://www.w3.org/2000/svg"><defs
     id="defs1"><inkscape:path-effect
       effect="spiro"
       id="path-effect69"
       is_visible="true"
       lpeversion="1" /><inkscape:path-effect
       effect="spiro"
       id="path-effect68"
       is_visible="true"
       lpeversion="1" /><inkscape:path-effect
       effect="spiro"
       id="path-effect67"
       is_visible="true"
       lpeversion="1" /><inkscape:path-effect
       effect="spiro"
       id="path-effect66"
       is_visible="true"
       lpeversion="1" /><inkscape:path-effect
       effect="spiro"
       id="path-effect65"
       is_visible="true"
       lpeversion="1" /><inkscape:path-effect
       effect="bspline"
       id="path-effect64"
       is_visible="true"
       lpeversion="1.3"
       weight="33.333333"
       steps="2"
       helper_size="0"
       apply_no_weight="true"
       apply_with_weight="true"
       only_selected="false"
       uniform="false" /></defs><sodipodi:namedview
     id="namedview1"
     pagecolor="#ffffff"
     bordercolor="#999999"
     borderopacity="1"
     inkscape:showpageshadow="2"
     inkscape:pageopacity="0"
     inkscape:pagecheckerboard="0"
     inkscape:deskcolor="#d1d1d1"
     inkscape:zoom="0.5"
     inkscape:cx="543"
     inkscape:cy="1033"
     inkscape:window-width="1920"
     inkscape:window-height="1001"
     inkscape:window-x="-9"
     inkscape:window-y="-9"
     inkscape:window-maximized="1"
     inkscape:current-layer="svg1"
     showguides="true"><sodipodi:guide
       position="866,410"
       orientation="0,-1"
       id="guide1"
       inkscape:locked="false" /><sodipodi:guide
       position="1230,1230"
       orientation="0,1"
       id="guide2"
       inkscape:locked="false"
       inkscape:label=""
       inkscape:color="rgb(0,134,229)" /><sodipodi:guide
       position="208,219.91946"
       orientation="-1,0"
       id="guide4"
       inkscape:locked="false"
       inkscape:label=""
       inkscape:color="rgb(0,134,229)" /><sodipodi:guide
       position="986,96.214765"
       orientation="-1,0"
       id="guide5"
       inkscape:locked="false"
       inkscape:label=""
       inkscape:color="rgb(0,134,229)" /><sodipodi:guide
       position="0,0"
       orientation="0,-1"
       id="guide7"
       inkscape:locked="false" /><sodipodi:guide
       position="1239,481.27157"
       orientation="1,0"
       id="guide8"
       inkscape:locked="false" /><sodipodi:guide
       position="250,248.01176"
       orientation="-1,0"
       id="guide9"
       inkscape:locked="false"
       inkscape:label=""
       inkscape:color="rgb(0,134,229)" /><sodipodi:guide
       position="1028,452"
       orientation="-1,0"
       id="guide10"
       inkscape:locked="false"
       inkscape:label=""
       inkscape:color="rgb(0,134,229)" /><sodipodi:guide
       position="124.40523,452"
       orientation="0,1"
       id="guide11"
       inkscape:locked="false"
       inkscape:label=""
       inkscape:color="rgb(0,134,229)" /><sodipodi:guide
       position="427.64299,1188"
       orientation="0,1"
       id="guide12"
       inkscape:locked="false"
       inkscape:label=""
       inkscape:color="rgb(0,134,229)" /><sodipodi:guide
       position="97.19159,84"
       orientation="0,1"
       id="guide13"
       inkscape:locked="false"
       inkscape:label=""
       inkscape:color="rgb(0,134,229)" /><sodipodi:guide
       position="590.92487,1556"
       orientation="0,1"
       id="guide14"
       inkscape:locked="false"
       inkscape:label=""
       inkscape:color="rgb(0,134,229)" /></sodipodi:namedview><g
     inkscape:groupmode="layer"
     id="layer2"
     inkscape:label="letter parts 1"><path
       id="path16"
       style="color:#000000;fill:#000000;stroke-linecap:round;stroke-linejoin:round;-inkscape-stroke:none"
       d="m 656.04102,450.04883 c -17.4185,-0.84658 -37.36063,10.05663 -42.78711,31.76562 l -48.30079,193.21094 -126.1621,70.9668 -66.04493,-264.17774 c -4.11961,-16.48079 -17.76161,-28.85702 -34.56445,-31.35742 -5.45513,-0.81157 -11.0167,-0.54079 -16.36719,0.79688 -22.50436,5.62536 -36.18703,28.42951 -30.56054,50.93359 l 71.62695,286.50391 -143.47461,80.70312 c -20.21726,11.37193 -27.38773,36.9801 -16.01563,57.19727 11.37261,20.21655 36.98061,27.38608 57.19727,16.01367 l 123.41602,-69.41992 183.25,732.99995 c 5.62536,22.5034 28.42819,36.1858 50.93164,30.5606 22.50338,-5.6254 36.18576,-28.4282 30.56054,-50.9316 L 459.91406,830.48633 742.18164,671.71094 c 41.13507,-23.13845 82.4454,-16.81658 122.50586,24.82617 38.68261,40.21049 69.30859,118.816 69.30859,203.02148 0,24.95722 -7.49558,138.77631 -69.30859,203.03121 -43.95204,45.6885 -89.50535,44.763 -121.35742,25.4922 -19.84615,-12.0071 -45.66872,-5.6528 -57.67578,14.1934 -12.0072,19.8464 -5.65117,45.6687 14.19531,57.6758 65.1549,39.4187 158.47929,30.4094 225.37305,-39.127 90.77994,-94.3663 92.77344,-227.29071 92.77344,-261.26561 0,-103.34554 -33.47583,-199.61808 -92.77344,-261.25781 -38.09113,-39.59562 -87.66451,-61.2715 -137.29493,-61.94336 -29.77824,-0.40311 -59.57554,6.75504 -86.92773,22.14063 l -35.29492,19.85351 29.04101,-116.16406 c 5.62649,-22.50408 -8.05618,-45.30823 -30.56054,-50.93359 -2.66882,-0.66746 -5.39677,-1.07109 -8.14453,-1.20508 z"
       sodipodi:nodetypes="ccccccccccccccsccsssssssssssscccc" /></g></svg>
