<?xml version="1.0" encoding="UTF-8" standalone="no"?>
<svg
   version="1.1"
   viewBox="-10 0 1239 2048"
   id="svg1"
   sodipodi:docname="arcomp_hiragana_a_small_final.svg"
   inkscape:version="1.3 (0e150ed6c4, 2023-07-21)"
   xml:space="preserve"
   xmlns:inkscape="http://www.inkscape.org/namespaces/inkscape"
   xmlns:sodipodi="http://sodipodi.sourceforge.net/DTD/sodipodi-0.dtd"
   xmlns="http://www.w3.org/2000/svg"
   xmlns:svg="http://www.w3.org/2000/svg"><defs
     id="defs1"><inkscape:path-effect
       effect="spiro"
       id="path-effect69"
       is_visible="true"
       lpeversion="1" /><inkscape:path-effect
       effect="spiro"
       id="path-effect68"
       is_visible="true"
       lpeversion="1" /><inkscape:path-effect
       effect="spiro"
       id="path-effect67"
       is_visible="true"
       lpeversion="1" /><inkscape:path-effect
       effect="spiro"
       id="path-effect66"
       is_visible="true"
       lpeversion="1" /><inkscape:path-effect
       effect="spiro"
       id="path-effect65"
       is_visible="true"
       lpeversion="1" /><inkscape:path-effect
       effect="bspline"
       id="path-effect64"
       is_visible="true"
       lpeversion="1.3"
       weight="33.333333"
       steps="2"
       helper_size="0"
       apply_no_weight="true"
       apply_with_weight="true"
       only_selected="false"
       uniform="false" /></defs><sodipodi:namedview
     id="namedview1"
     pagecolor="#ffffff"
     bordercolor="#999999"
     borderopacity="1"
     inkscape:showpageshadow="2"
     inkscape:pageopacity="0"
     inkscape:pagecheckerboard="0"
     inkscape:deskcolor="#d1d1d1"
     inkscape:zoom="0.49497475"
     inkscape:cx="372.74629"
     inkscape:cy="1471.7923"
     inkscape:window-width="1920"
     inkscape:window-height="1001"
     inkscape:window-x="-9"
     inkscape:window-y="-9"
     inkscape:window-maximized="1"
     inkscape:current-layer="svg1"
     showguides="true"><sodipodi:guide
       position="866,410"
       orientation="0,-1"
       id="guide1"
       inkscape:locked="false" /><sodipodi:guide
       position="1230,1230"
       orientation="0,1"
       id="guide2"
       inkscape:locked="false"
       inkscape:label=""
       inkscape:color="rgb(0,134,229)" /><sodipodi:guide
       position="208,219.91946"
       orientation="-1,0"
       id="guide4"
       inkscape:locked="false"
       inkscape:label=""
       inkscape:color="rgb(0,134,229)" /><sodipodi:guide
       position="986,96.214765"
       orientation="-1,0"
       id="guide5"
       inkscape:locked="false"
       inkscape:label=""
       inkscape:color="rgb(0,134,229)" /><sodipodi:guide
       position="0,0"
       orientation="0,-1"
       id="guide7"
       inkscape:locked="false" /><sodipodi:guide
       position="1239,481.27157"
       orientation="1,0"
       id="guide8"
       inkscape:locked="false" /><sodipodi:guide
       position="250,248.01176"
       orientation="-1,0"
       id="guide9"
       inkscape:locked="false"
       inkscape:label=""
       inkscape:color="rgb(0,134,229)" /><sodipodi:guide
       position="1028,452"
       orientation="-1,0"
       id="guide10"
       inkscape:locked="false"
       inkscape:label=""
       inkscape:color="rgb(0,134,229)" /><sodipodi:guide
       position="124.40523,452"
       orientation="0,1"
       id="guide11"
       inkscape:locked="false"
       inkscape:label=""
       inkscape:color="rgb(0,134,229)" /><sodipodi:guide
       position="427.64299,1188"
       orientation="0,1"
       id="guide12"
       inkscape:locked="false"
       inkscape:label=""
       inkscape:color="rgb(0,134,229)" /><sodipodi:guide
       position="97.19159,84"
       orientation="0,1"
       id="guide13"
       inkscape:locked="false"
       inkscape:label=""
       inkscape:color="rgb(0,134,229)" /><sodipodi:guide
       position="590.92487,1556"
       orientation="0,1"
       id="guide14"
       inkscape:locked="false"
       inkscape:label=""
       inkscape:color="rgb(0,134,229)" /></sodipodi:namedview><path
     id="path48-9"
     style="color:#000000;fill:#000000;stroke-linecap:round;stroke-linejoin:round;-inkscape-stroke:none"
     d="M 424 818 A 42 42 0 0 0 382 860 L 382 910 L 240 910 A 42 42 0 0 0 198 952 A 42 42 0 0 0 240 994 L 382 994 L 382 1109.1621 C 275.97804 1146.5146 197.99805 1248.7044 197.99805 1365.9961 L 197.99805 1504 C 197.99805 1578.871 259.77753 1637.9961 332 1637.9961 C 404.08373 1637.9961 557.40858 1619.2311 685.16992 1492.752 C 767.30055 1411.4455 817.31884 1302.8453 830.42578 1199.6699 C 890.7429 1231.7647 933.99609 1295.8019 933.99609 1365.9961 C 933.99609 1466.1325 846.11921 1553.9961 746 1553.9961 A 42 42 0 0 0 704 1595.9961 A 42 42 0 0 0 746 1637.9961 C 893.95203 1637.9961 1017.9961 1513.9653 1017.9961 1365.9961 C 1017.9961 1218.0336 893.95722 1093.9961 746 1093.9961 L 470 1093.9961 C 468.65967 1093.9961 467.33633 1094.0793 466 1094.0996 L 466 994 L 976 994 A 42 42 0 0 0 1018 952 A 42 42 0 0 0 976 910 L 466 910 L 466 860 A 42 42 0 0 0 424 818 z M 470 1177.9961 L 746 1177.9961 C 746.75247 1177.9961 747.49699 1178.0496 748.24805 1178.0586 C 739.27638 1263.803 696.02161 1363.8093 626.07422 1433.0547 C 574.56681 1484.0455 517.62167 1513.8675 466 1531.2051 L 466 1178.1055 C 467.33408 1178.0742 468.66136 1177.9961 470 1177.9961 z M 382 1201.4512 L 382 1550.5703 C 362.3108 1553.1021 345.16674 1553.9961 332 1553.9961 C 308.00655 1553.9961 281.99805 1530.2576 281.99805 1504 L 281.99805 1365.9961 C 281.99805 1297.1726 323.52025 1234.1376 382 1201.4512 z " /></svg>
