<?xml version="1.0" encoding="UTF-8" standalone="no"?>
<svg
   version="1.1"
   viewBox="-10 0 1239 2048"
   id="svg1"
   sodipodi:docname="arcomp_hiragana_wo_final.svg"
   inkscape:version="1.3 (0e150ed6c4, 2023-07-21)"
   xml:space="preserve"
   xmlns:inkscape="http://www.inkscape.org/namespaces/inkscape"
   xmlns:sodipodi="http://sodipodi.sourceforge.net/DTD/sodipodi-0.dtd"
   xmlns="http://www.w3.org/2000/svg"
   xmlns:svg="http://www.w3.org/2000/svg"><defs
     id="defs1"><inkscape:path-effect
       effect="spiro"
       id="path-effect69"
       is_visible="true"
       lpeversion="1" /><inkscape:path-effect
       effect="spiro"
       id="path-effect68"
       is_visible="true"
       lpeversion="1" /><inkscape:path-effect
       effect="spiro"
       id="path-effect67"
       is_visible="true"
       lpeversion="1" /><inkscape:path-effect
       effect="spiro"
       id="path-effect66"
       is_visible="true"
       lpeversion="1" /><inkscape:path-effect
       effect="spiro"
       id="path-effect65"
       is_visible="true"
       lpeversion="1" /><inkscape:path-effect
       effect="bspline"
       id="path-effect64"
       is_visible="true"
       lpeversion="1.3"
       weight="33.333333"
       steps="2"
       helper_size="0"
       apply_no_weight="true"
       apply_with_weight="true"
       only_selected="false"
       uniform="false" /></defs><sodipodi:namedview
     id="namedview1"
     pagecolor="#ffffff"
     bordercolor="#999999"
     borderopacity="1"
     inkscape:showpageshadow="2"
     inkscape:pageopacity="0"
     inkscape:pagecheckerboard="0"
     inkscape:deskcolor="#d1d1d1"
     inkscape:zoom="0.5"
     inkscape:cx="401"
     inkscape:cy="1115"
     inkscape:window-width="1920"
     inkscape:window-height="1001"
     inkscape:window-x="-9"
     inkscape:window-y="-9"
     inkscape:window-maximized="1"
     inkscape:current-layer="svg1"
     showguides="true"><sodipodi:guide
       position="866,410"
       orientation="0,-1"
       id="guide1"
       inkscape:locked="false" /><sodipodi:guide
       position="1230,1230"
       orientation="0,1"
       id="guide2"
       inkscape:locked="false"
       inkscape:label=""
       inkscape:color="rgb(0,134,229)" /><sodipodi:guide
       position="208,219.91946"
       orientation="-1,0"
       id="guide4"
       inkscape:locked="false"
       inkscape:label=""
       inkscape:color="rgb(0,134,229)" /><sodipodi:guide
       position="986,96.214765"
       orientation="-1,0"
       id="guide5"
       inkscape:locked="false"
       inkscape:label=""
       inkscape:color="rgb(0,134,229)" /><sodipodi:guide
       position="0,0"
       orientation="0,-1"
       id="guide7"
       inkscape:locked="false" /><sodipodi:guide
       position="1239,481.27157"
       orientation="1,0"
       id="guide8"
       inkscape:locked="false" /><sodipodi:guide
       position="250,248.01176"
       orientation="-1,0"
       id="guide9"
       inkscape:locked="false"
       inkscape:label=""
       inkscape:color="rgb(0,134,229)" /><sodipodi:guide
       position="986,84"
       orientation="-1,0"
       id="guide10"
       inkscape:locked="false"
       inkscape:label=""
       inkscape:color="rgb(0,134,229)" /><sodipodi:guide
       position="124.40523,452"
       orientation="0,1"
       id="guide11"
       inkscape:locked="false"
       inkscape:label=""
       inkscape:color="rgb(0,134,229)" /><sodipodi:guide
       position="427.64299,1188"
       orientation="0,1"
       id="guide12"
       inkscape:locked="false"
       inkscape:label=""
       inkscape:color="rgb(0,134,229)" /><sodipodi:guide
       position="97.19159,84"
       orientation="0,1"
       id="guide13"
       inkscape:locked="false"
       inkscape:label=""
       inkscape:color="rgb(0,134,229)" /><sodipodi:guide
       position="590.92487,1556"
       orientation="0,1"
       id="guide14"
       inkscape:locked="false"
       inkscape:label=""
       inkscape:color="rgb(0,134,229)" /></sodipodi:namedview><g
     inkscape:groupmode="layer"
     id="layer2"
     inkscape:label="letter parts 1"><path
       id="path1-9"
       style="color:#000000;fill:#000000;stroke-linecap:round;stroke-linejoin:round;-inkscape-stroke:none"
       d="m 612.07812,450.19922 c -16.90658,-1.64965 -33.14223,7.04709 -41.13671,22.03516 L 472.39844,657.00391 H 240 c -23.19596,0 -42,18.80404 -42,42 0,23.19596 18.80404,42 42,42 h 187.59766 c 0,0 -143.73951,269.51179 -215.60938,404.26759 -2.52891,4.7417 -5.07339,9.5054 -7.61523,14.2812 -16.76837,31.5054 3.29075,52.5486 16.29628,59.3594 20.3263,10.6446 45.5792,3.0874 56.39122,-17.1504 C 343.40341,1077.582 478.16276,948 608,948 c 32.05501,0 66.26499,21.21133 94.5,63.8047 9.53217,14.3796 17.92234,31.0762 25.01367,49.2363 -92.79499,45.5481 -167.28237,110.4819 -221.85351,169.1856 -54.95022,59.1113 -75.01772,154.9872 -55.25391,245.9726 19.38497,89.2414 78.81643,161.7988 159.24805,161.7988 H 976 c 23.19596,0 42,-18.804 42,-42 0,-23.196 -18.80404,-42 -42,-42 H 609.6543 c -24.4672,0 -63.40046,-32.2751 -77.16211,-95.6289 -13.99892,-64.4458 7.30842,-141.4925 34.6914,-170.9492 46.39942,-49.9131 107.19969,-102.9172 180.62696,-142.0801 C 749.11189,1157.37 750,1169.5679 750,1181.998 v 138 c 0,23.196 18.80404,42 42,42 23.19596,0 42,-18.804 42,-42 v -138 c 0,-24.4611 -2.26158,-48.3251 -6.14453,-71.4707 C 873.5366,1095.2012 922.98499,1086 976,1086 c 23.19596,0 42,-18.804 42,-42 0,-23.196 -18.80404,-42 -42,-42 -61.3841,0 -118.29738,10.2712 -170.57617,27.332 C 796.327,1006.3973 785.4026,984.83589 772.51367,965.39258 733.75309,906.9211 675.9619,864 608,864 548.40119,864 487.53603,882.18842 429.93359,915.12695 L 522.79883,741.00391 H 976 c 23.19596,0 42,-18.80404 42,-42 0,-23.19596 -18.80404,-42 -42,-42 H 567.59766 l 77.46093,-145.23829 c 10.91638,-20.46688 3.17403,-45.90804 -17.29297,-56.82421 -4.86704,-2.59551 -10.19767,-4.20692 -15.6875,-4.74219 z"
       sodipodi:nodetypes="cccssscsssssscssssssssscssssscssscssccssscccc" /></g></svg>
