<?xml version="1.0" encoding="UTF-8" standalone="no"?>
<svg
   version="1.1"
   viewBox="-10 0 1239 2048"
   id="svg1"
   sodipodi:docname="arcomp_hiragana_o_final.svg"
   inkscape:version="1.3 (0e150ed6c4, 2023-07-21)"
   xml:space="preserve"
   xmlns:inkscape="http://www.inkscape.org/namespaces/inkscape"
   xmlns:sodipodi="http://sodipodi.sourceforge.net/DTD/sodipodi-0.dtd"
   xmlns="http://www.w3.org/2000/svg"
   xmlns:svg="http://www.w3.org/2000/svg"><defs
     id="defs1"><inkscape:path-effect
       effect="spiro"
       id="path-effect69"
       is_visible="true"
       lpeversion="1" /><inkscape:path-effect
       effect="spiro"
       id="path-effect68"
       is_visible="true"
       lpeversion="1" /><inkscape:path-effect
       effect="spiro"
       id="path-effect67"
       is_visible="true"
       lpeversion="1" /><inkscape:path-effect
       effect="spiro"
       id="path-effect66"
       is_visible="true"
       lpeversion="1" /><inkscape:path-effect
       effect="spiro"
       id="path-effect65"
       is_visible="true"
       lpeversion="1" /><inkscape:path-effect
       effect="bspline"
       id="path-effect64"
       is_visible="true"
       lpeversion="1.3"
       weight="33.333333"
       steps="2"
       helper_size="0"
       apply_no_weight="true"
       apply_with_weight="true"
       only_selected="false"
       uniform="false" /></defs><sodipodi:namedview
     id="namedview1"
     pagecolor="#ffffff"
     bordercolor="#999999"
     borderopacity="1"
     inkscape:showpageshadow="2"
     inkscape:pageopacity="0"
     inkscape:pagecheckerboard="0"
     inkscape:deskcolor="#d1d1d1"
     inkscape:zoom="0.35355339"
     inkscape:cx="369.10974"
     inkscape:cy="1056.4175"
     inkscape:window-width="1920"
     inkscape:window-height="1001"
     inkscape:window-x="-9"
     inkscape:window-y="-9"
     inkscape:window-maximized="1"
     inkscape:current-layer="svg1"
     showguides="false"><sodipodi:guide
       position="866,410"
       orientation="0,-1"
       id="guide1"
       inkscape:locked="false" /><sodipodi:guide
       position="1230,1230"
       orientation="0,1"
       id="guide2"
       inkscape:locked="false"
       inkscape:label=""
       inkscape:color="rgb(0,134,229)" /><sodipodi:guide
       position="208,219.91946"
       orientation="-1,0"
       id="guide4"
       inkscape:locked="false"
       inkscape:label=""
       inkscape:color="rgb(0,134,229)" /><sodipodi:guide
       position="986,96.214765"
       orientation="-1,0"
       id="guide5"
       inkscape:locked="false"
       inkscape:label=""
       inkscape:color="rgb(0,134,229)" /><sodipodi:guide
       position="0,0"
       orientation="0,-1"
       id="guide7"
       inkscape:locked="false" /><sodipodi:guide
       position="1239,481.27157"
       orientation="1,0"
       id="guide8"
       inkscape:locked="false" /><sodipodi:guide
       position="250,248.01176"
       orientation="-1,0"
       id="guide9"
       inkscape:locked="false"
       inkscape:label=""
       inkscape:color="rgb(0,134,229)" /><sodipodi:guide
       position="1028,452"
       orientation="-1,0"
       id="guide10"
       inkscape:locked="false"
       inkscape:label=""
       inkscape:color="rgb(0,134,229)" /><sodipodi:guide
       position="124.40523,452"
       orientation="0,1"
       id="guide11"
       inkscape:locked="false"
       inkscape:label=""
       inkscape:color="rgb(0,134,229)" /><sodipodi:guide
       position="427.64299,1188"
       orientation="0,1"
       id="guide12"
       inkscape:locked="false"
       inkscape:label=""
       inkscape:color="rgb(0,134,229)" /><sodipodi:guide
       position="97.19159,84"
       orientation="0,1"
       id="guide13"
       inkscape:locked="false"
       inkscape:label=""
       inkscape:color="rgb(0,134,229)" /><sodipodi:guide
       position="590.92487,1556"
       orientation="0,1"
       id="guide14"
       inkscape:locked="false"
       inkscape:label=""
       inkscape:color="rgb(0,134,229)" /></sodipodi:namedview><g
     inkscape:groupmode="layer"
     id="layer2"
     inkscape:label="letter parts 1"><path
       id="path45-6"
       style="color:#000000;fill:#000000;stroke-linecap:round;stroke-linejoin:round;-inkscape-stroke:none"
       d="m 516,449.35547 c -23.19596,0 -42,18.80404 -42,42 V 725.35938 H 240 c -23.19596,0 -42,18.80404 -42,42 0,23.19596 18.80404,42 42,42 h 234 v 192.00002 h -50 c -67.9626,0 -125.75346,42.9198 -164.51367,101.3906 C 220.72611,1161.2208 198,1237.5292 198,1319.3555 v 69.0039 c 0,63.359 17.47722,122.4161 47.86328,168.2539 30.38607,45.8376 76.67683,80.7402 132.13672,80.7402 55.45987,0 101.75285,-34.9025 132.13867,-80.7402 C 540.52449,1510.7755 558,1451.7183 558,1388.3594 v -303 h 234 c 32.06112,0 66.26995,21.2139 94.50391,63.8086 C 914.73785,1191.7626 934,1253.454 934,1319.3555 c 0,65.9107 -19.26532,127.6019 -47.5,170.1953 -28.23468,42.5932 -62.44301,63.8027 -94.5,63.8027 -23.19596,0 -42,18.804 -42,42 0,23.196 18.80404,42 42,42 67.9629,0 125.7553,-42.9189 164.51562,-101.3906 C 995.27596,1477.4911 1018,1401.1825 1018,1319.3555 c 0,-81.818 -22.72165,-158.1248 -61.48047,-216.5977 C 917.76071,1044.285 859.96774,1001.3594 792,1001.3594 H 558 V 809.35938 h 142 c 23.19596,0 42,-18.80404 42,-42 0,-23.19596 -18.80404,-42 -42,-42 H 558 V 491.35547 c 0,-23.19596 -18.80404,-42 -42,-42 z m 242.40039,154.80469 c -13.91669,18.55667 -10.15575,44.88144 8.40039,58.79882 l 184,138 c 18.55615,13.91711 44.88084,10.15707 58.79882,-8.39843 13.9185,-18.55648 10.1583,-44.88266 -8.3984,-58.80078 l -184.00198,-138 c -18.4515,-13.83881 -44.85417,-10.19385 -58.79883,8.40039 z M 424,1085.3594 h 50 v 303 c 0,47.4426 -14.01512,91.8826 -33.875,121.8418 -19.85988,29.959 -42.56984,43.1523 -62.125,43.1523 -19.55522,0 -42.26298,-13.1933 -62.12305,-43.1523 C 296.01689,1480.242 282,1435.8019 282,1388.3594 v -69.0039 c 0,-65.9101 19.26566,-127.601 47.5,-170.1934 28.23434,-42.5922 62.44236,-63.8027 94.5,-63.8027 z"
       sodipodi:nodetypes="sscsssccsssssssscsssssssssssccssscssscssccsscssssssss" /></g></svg>
