<?xml version="1.0" encoding="UTF-8" standalone="no"?>
<svg
   version="1.1"
   viewBox="-10 0 1239 2048"
   id="svg1"
   sodipodi:docname="arcomp_hiragana_ma_final.svg"
   inkscape:version="1.3 (0e150ed6c4, 2023-07-21)"
   xml:space="preserve"
   xmlns:inkscape="http://www.inkscape.org/namespaces/inkscape"
   xmlns:sodipodi="http://sodipodi.sourceforge.net/DTD/sodipodi-0.dtd"
   xmlns="http://www.w3.org/2000/svg"
   xmlns:svg="http://www.w3.org/2000/svg"><defs
     id="defs1"><inkscape:path-effect
       effect="spiro"
       id="path-effect69"
       is_visible="true"
       lpeversion="1" /><inkscape:path-effect
       effect="spiro"
       id="path-effect68"
       is_visible="true"
       lpeversion="1" /><inkscape:path-effect
       effect="spiro"
       id="path-effect67"
       is_visible="true"
       lpeversion="1" /><inkscape:path-effect
       effect="spiro"
       id="path-effect66"
       is_visible="true"
       lpeversion="1" /><inkscape:path-effect
       effect="spiro"
       id="path-effect65"
       is_visible="true"
       lpeversion="1" /><inkscape:path-effect
       effect="bspline"
       id="path-effect64"
       is_visible="true"
       lpeversion="1.3"
       weight="33.333333"
       steps="2"
       helper_size="0"
       apply_no_weight="true"
       apply_with_weight="true"
       only_selected="false"
       uniform="false" /></defs><sodipodi:namedview
     id="namedview1"
     pagecolor="#ffffff"
     bordercolor="#999999"
     borderopacity="1"
     inkscape:showpageshadow="2"
     inkscape:pageopacity="0"
     inkscape:pagecheckerboard="0"
     inkscape:deskcolor="#d1d1d1"
     inkscape:zoom="0.5"
     inkscape:cx="695"
     inkscape:cy="1073"
     inkscape:window-width="1920"
     inkscape:window-height="1001"
     inkscape:window-x="-9"
     inkscape:window-y="-9"
     inkscape:window-maximized="1"
     inkscape:current-layer="svg1"
     showguides="true"><sodipodi:guide
       position="866,410"
       orientation="0,-1"
       id="guide1"
       inkscape:locked="false" /><sodipodi:guide
       position="1230,1230"
       orientation="0,1"
       id="guide2"
       inkscape:locked="false"
       inkscape:label=""
       inkscape:color="rgb(0,134,229)" /><sodipodi:guide
       position="208,219.91946"
       orientation="-1,0"
       id="guide4"
       inkscape:locked="false"
       inkscape:label=""
       inkscape:color="rgb(0,134,229)" /><sodipodi:guide
       position="986,96.214765"
       orientation="-1,0"
       id="guide5"
       inkscape:locked="false"
       inkscape:label=""
       inkscape:color="rgb(0,134,229)" /><sodipodi:guide
       position="0,0"
       orientation="0,-1"
       id="guide7"
       inkscape:locked="false" /><sodipodi:guide
       position="1239,481.27157"
       orientation="1,0"
       id="guide8"
       inkscape:locked="false" /><sodipodi:guide
       position="250,248.01176"
       orientation="-1,0"
       id="guide9"
       inkscape:locked="false"
       inkscape:label=""
       inkscape:color="rgb(0,134,229)" /><sodipodi:guide
       position="1028,452"
       orientation="-1,0"
       id="guide10"
       inkscape:locked="false"
       inkscape:label=""
       inkscape:color="rgb(0,134,229)" /><sodipodi:guide
       position="124.40523,452"
       orientation="0,1"
       id="guide11"
       inkscape:locked="false"
       inkscape:label=""
       inkscape:color="rgb(0,134,229)" /><sodipodi:guide
       position="427.64299,1188"
       orientation="0,1"
       id="guide12"
       inkscape:locked="false"
       inkscape:label=""
       inkscape:color="rgb(0,134,229)" /><sodipodi:guide
       position="97.19159,84"
       orientation="0,1"
       id="guide13"
       inkscape:locked="false"
       inkscape:label=""
       inkscape:color="rgb(0,134,229)" /><sodipodi:guide
       position="590.92487,1556"
       orientation="0,1"
       id="guide14"
       inkscape:locked="false"
       inkscape:label=""
       inkscape:color="rgb(0,134,229)" /></sodipodi:namedview><g
     inkscape:groupmode="layer"
     id="layer2"
     inkscape:label="letter parts 1"><path
       id="path13"
       style="color:#000000;fill:#000000;stroke-linecap:round;stroke-linejoin:round;-inkscape-stroke:none"
       d="M 608 450 A 42 42 0 0 0 566 492 L 566 588 L 240 588 A 42 42 0 0 0 198 630 A 42 42 0 0 0 240 672 L 566 672 L 566 864 L 240 864 A 42 42 0 0 0 198 906 A 42 42 0 0 0 240 948 L 566 948 L 566 1150.6934 C 534.79145 1143.7737 502.75282 1140 470 1140 L 377.99805 1140 C 322.53435 1140 276.24226 1174.9083 245.85742 1220.748 C 215.47258 1266.5879 197.99805 1325.646 197.99805 1389 C 197.99805 1452.3511 215.47129 1511.4076 245.85547 1557.248 C 276.23964 1603.0886 322.53233 1638 377.99805 1638 L 470 1638 C 525.47752 1638 571.75946 1603.0623 602.14062 1557.2168 C 632.5218 1511.3713 650 1452.321 650 1389 L 650 1272.0996 C 772.80989 1338.0099 877.80814 1465.0804 937.05469 1611.7324 A 42 42 0 0 0 991.72852 1634.9414 A 42 42 0 0 0 1014.9395 1580.2676 C 943.57086 1403.6102 812.21487 1247.0657 650 1177.8105 L 650 948 L 976 948 A 42 42 0 0 0 1018 906 A 42 42 0 0 0 976 864 L 650 864 L 650 672 L 976 672 A 42 42 0 0 0 1018 630 A 42 42 0 0 0 976 588 L 650 588 L 650 492 A 42 42 0 0 0 608 450 z M 377.99805 1224 L 470 1224 C 502.42639 1224 534.54907 1228.8592 566 1237.7891 L 566 1389 C 566 1436.3921 551.98584 1480.8403 532.12109 1510.8164 C 512.25635 1540.7925 489.53813 1554 470 1554 L 377.99805 1554 C 358.4418 1554 335.73124 1540.8028 315.87109 1510.8398 C 296.01094 1480.8769 281.99805 1436.4341 281.99805 1389 C 281.99805 1341.5629 296.01272 1297.1203 315.87305 1267.1582 C 335.73338 1237.1961 358.44317 1224 377.99805 1224 z " /></g></svg>
