<?xml version="1.0" encoding="UTF-8" standalone="no"?>
<svg
   version="1.1"
   viewBox="-10 0 1239 2048"
   id="svg1"
   sodipodi:docname="arcomp_hiragana_nu_final.svg"
   inkscape:version="1.3 (0e150ed6c4, 2023-07-21)"
   xml:space="preserve"
   xmlns:inkscape="http://www.inkscape.org/namespaces/inkscape"
   xmlns:sodipodi="http://sodipodi.sourceforge.net/DTD/sodipodi-0.dtd"
   xmlns="http://www.w3.org/2000/svg"
   xmlns:svg="http://www.w3.org/2000/svg"><defs
     id="defs1"><inkscape:path-effect
       effect="spiro"
       id="path-effect69"
       is_visible="true"
       lpeversion="1" /><inkscape:path-effect
       effect="spiro"
       id="path-effect68"
       is_visible="true"
       lpeversion="1" /><inkscape:path-effect
       effect="spiro"
       id="path-effect67"
       is_visible="true"
       lpeversion="1" /><inkscape:path-effect
       effect="spiro"
       id="path-effect66"
       is_visible="true"
       lpeversion="1" /><inkscape:path-effect
       effect="spiro"
       id="path-effect65"
       is_visible="true"
       lpeversion="1" /><inkscape:path-effect
       effect="bspline"
       id="path-effect64"
       is_visible="true"
       lpeversion="1.3"
       weight="33.333333"
       steps="2"
       helper_size="0"
       apply_no_weight="true"
       apply_with_weight="true"
       only_selected="false"
       uniform="false" /></defs><sodipodi:namedview
     id="namedview1"
     pagecolor="#ffffff"
     bordercolor="#999999"
     borderopacity="1"
     inkscape:showpageshadow="2"
     inkscape:pageopacity="0"
     inkscape:pagecheckerboard="0"
     inkscape:deskcolor="#d1d1d1"
     inkscape:zoom="0.49497475"
     inkscape:cx="479.82246"
     inkscape:cy="1154.6044"
     inkscape:window-width="1920"
     inkscape:window-height="1001"
     inkscape:window-x="-9"
     inkscape:window-y="-9"
     inkscape:window-maximized="1"
     inkscape:current-layer="svg1"
     showguides="false"><sodipodi:guide
       position="866,410"
       orientation="0,-1"
       id="guide1"
       inkscape:locked="false" /><sodipodi:guide
       position="1230,1230"
       orientation="0,1"
       id="guide2"
       inkscape:locked="false"
       inkscape:label=""
       inkscape:color="rgb(0,134,229)" /><sodipodi:guide
       position="208,219.91946"
       orientation="-1,0"
       id="guide4"
       inkscape:locked="false"
       inkscape:label=""
       inkscape:color="rgb(0,134,229)" /><sodipodi:guide
       position="986,96.214765"
       orientation="-1,0"
       id="guide5"
       inkscape:locked="false"
       inkscape:label=""
       inkscape:color="rgb(0,134,229)" /><sodipodi:guide
       position="0,0"
       orientation="0,-1"
       id="guide7"
       inkscape:locked="false" /><sodipodi:guide
       position="1239,481.27157"
       orientation="1,0"
       id="guide8"
       inkscape:locked="false" /><sodipodi:guide
       position="250,248.01176"
       orientation="-1,0"
       id="guide9"
       inkscape:locked="false"
       inkscape:label=""
       inkscape:color="rgb(0,134,229)" /><sodipodi:guide
       position="1028,452"
       orientation="-1,0"
       id="guide10"
       inkscape:locked="false"
       inkscape:label=""
       inkscape:color="rgb(0,134,229)" /><sodipodi:guide
       position="124.40523,452"
       orientation="0,1"
       id="guide11"
       inkscape:locked="false"
       inkscape:label=""
       inkscape:color="rgb(0,134,229)" /><sodipodi:guide
       position="427.64299,1188"
       orientation="0,1"
       id="guide12"
       inkscape:locked="false"
       inkscape:label=""
       inkscape:color="rgb(0,134,229)" /><sodipodi:guide
       position="97.19159,84"
       orientation="0,1"
       id="guide13"
       inkscape:locked="false"
       inkscape:label=""
       inkscape:color="rgb(0,134,229)" /><sodipodi:guide
       position="590.92487,1556"
       orientation="0,1"
       id="guide14"
       inkscape:locked="false"
       inkscape:label=""
       inkscape:color="rgb(0,134,229)" /></sodipodi:namedview><g
     inkscape:groupmode="layer"
     id="layer2"
     inkscape:label="letter parts 1"><path
       id="path28"
       style="color:#000000;fill:#000000;stroke-linecap:round;stroke-linejoin:round;-inkscape-stroke:none"
       d="m 791.94141,434.89844 c -23.19596,0 -42,18.80404 -42,42 0,63.09516 -3.56266,155.09413 -16.84766,263.17968 -39.14848,-18.73062 -81.16045,-29.17968 -125.15234,-29.17968 -67.74885,0 -130.77653,24.82074 -185.88477,66.52148 L 372.32422,603.35938 c -6.66388,-23.32479 -30.79004,-34.88407 -51.92188,-28.84571 -22.30325,6.37243 -35.21786,29.61855 -28.8457,51.92188 l 61.79297,216.27343 c -13.9693,16.31701 -27.18656,33.71209 -39.42969,52.18164 C 241.6625,1003.8957 197.94141,1149.2054 197.94141,1304.8984 v 31.5938 c 0,112.9507 44.40102,216.5322 123.73632,263.4883 40.43935,23.9346 88.09033,28.4647 130.31836,14.2129 42.22804,-14.252 78.77149,-45.6144 105.55664,-88.5938 13.77515,-22.1035 26.17758,-42.8847 44.0293,-75.4336 103.31437,-188.3725 161.29464,-384.8035 193.53125,-557.25194 12.86063,14.65094 25.1787,30.80246 36.83399,48.38477 61.73301,93.12587 101.99414,223.81927 101.99414,363.59957 0,9.54 -0.51298,18.9494 -1.28907,28.2676 -37.02998,-41.9561 -85.51338,-70.2676 -140.71093,-70.2676 -42.95906,0 -77.75263,26.8878 -99.76368,60.0938 -22.01103,33.206 -34.23632,75.0132 -34.23632,119.9043 0,44.8995 12.23071,86.7102 34.24414,119.914 22.01342,33.204 56.80288,60.086 99.75586,60.086 55.19523,0 103.67973,-28.3103 140.71093,-70.2676 0.7762,9.3188 1.28907,18.7273 1.28907,28.2676 0,23.196 18.80404,42 42,42 23.19596,0 41.99999,-18.804 41.99999,-42 0,-48.8508 -8.1556,-95.7003 -22.93359,-138 14.77739,-42.2979 22.93359,-89.1462 22.93359,-137.9981 0,-155.6972 -43.72186,-301.0077 -115.98046,-410.01168 -26.21603,-39.54755 -56.63001,-74.52871 -90.31836,-103.16406 18.26342,-130.34977 22.29883,-240.90562 22.29883,-314.82422 0,-23.19596 -18.80404,-42 -42,-42 z m -184,360 c 38.47651,0 76.51654,11.84857 112.46484,33.88867 C 696.0296,977.44744 652.47702,1147.8481 575.60938,1314.8496 L 447.25195,865.60352 c 49.13177,-45.6849 104.4722,-70.70508 160.68946,-70.70508 z m -225.67188,149.0332 137.3125,480.58596 c -10.67131,19.002 -21.64952,37.9286 -33.31836,56.6523 -18.36813,29.4735 -40.56624,46.4937 -61.1289,53.4336 -20.56267,6.9399 -39.75385,5.4705 -60.67188,-6.9101 -40.35807,-23.8867 -82.52148,-102.2613 -82.52148,-191.2012 v -31.5938 c 0,-138.4928 39.55536,-268.0139 100.32812,-360.96676 z m 409.67188,402.96676 c 32.06197,0 66.27017,21.2139 94.5039,63.8106 6.46463,9.7533 12.38672,20.6126 17.78711,32.1894 -5.40125,11.5781 -11.32537,22.4376 -17.79101,32.1914 -28.23495,42.5949 -62.44454,63.8067 -94.5,63.8067 -7.04826,0 -18.25788,-5.1766 -29.74414,-22.502 -11.48628,-17.3253 -20.25586,-44.5152 -20.25586,-73.498 0,-28.976 8.76652,-56.1672 20.25195,-73.4942 11.48543,-17.3269 22.69295,-22.5039 29.74805,-22.5039 z"
       sodipodi:nodetypes="sscscccccssssssscsscssssscssscsscssscccsccssssscssccsssss" /></g></svg>
