<?xml version="1.0" encoding="UTF-8" standalone="no"?>
<svg
   version="1.1"
   viewBox="-10 0 1239 2048"
   id="svg1"
   sodipodi:docname="arcomp_hiragana_wi_final.svg"
   inkscape:version="1.3 (0e150ed6c4, 2023-07-21)"
   xml:space="preserve"
   xmlns:inkscape="http://www.inkscape.org/namespaces/inkscape"
   xmlns:sodipodi="http://sodipodi.sourceforge.net/DTD/sodipodi-0.dtd"
   xmlns="http://www.w3.org/2000/svg"
   xmlns:svg="http://www.w3.org/2000/svg"><defs
     id="defs1"><inkscape:path-effect
       effect="spiro"
       id="path-effect69"
       is_visible="true"
       lpeversion="1" /><inkscape:path-effect
       effect="spiro"
       id="path-effect68"
       is_visible="true"
       lpeversion="1" /><inkscape:path-effect
       effect="spiro"
       id="path-effect67"
       is_visible="true"
       lpeversion="1" /><inkscape:path-effect
       effect="spiro"
       id="path-effect66"
       is_visible="true"
       lpeversion="1" /><inkscape:path-effect
       effect="spiro"
       id="path-effect65"
       is_visible="true"
       lpeversion="1" /><inkscape:path-effect
       effect="bspline"
       id="path-effect64"
       is_visible="true"
       lpeversion="1.3"
       weight="33.333333"
       steps="2"
       helper_size="0"
       apply_no_weight="true"
       apply_with_weight="true"
       only_selected="false"
       uniform="false" /></defs><sodipodi:namedview
     id="namedview1"
     pagecolor="#ffffff"
     bordercolor="#999999"
     borderopacity="1"
     inkscape:showpageshadow="2"
     inkscape:pageopacity="0"
     inkscape:pagecheckerboard="0"
     inkscape:deskcolor="#d1d1d1"
     inkscape:zoom="0.70710678"
     inkscape:cx="613.06158"
     inkscape:cy="1132.078"
     inkscape:window-width="1920"
     inkscape:window-height="1001"
     inkscape:window-x="-9"
     inkscape:window-y="-9"
     inkscape:window-maximized="1"
     inkscape:current-layer="svg1"
     showguides="true"><sodipodi:guide
       position="866,410"
       orientation="0,-1"
       id="guide1"
       inkscape:locked="false" /><sodipodi:guide
       position="1230,1230"
       orientation="0,1"
       id="guide2"
       inkscape:locked="false"
       inkscape:label=""
       inkscape:color="rgb(0,134,229)" /><sodipodi:guide
       position="208,219.91946"
       orientation="-1,0"
       id="guide4"
       inkscape:locked="false"
       inkscape:label=""
       inkscape:color="rgb(0,134,229)" /><sodipodi:guide
       position="986,96.214765"
       orientation="-1,0"
       id="guide5"
       inkscape:locked="false"
       inkscape:label=""
       inkscape:color="rgb(0,134,229)" /><sodipodi:guide
       position="0,0"
       orientation="0,-1"
       id="guide7"
       inkscape:locked="false" /><sodipodi:guide
       position="1239,481.27157"
       orientation="1,0"
       id="guide8"
       inkscape:locked="false" /><sodipodi:guide
       position="250,248.01176"
       orientation="-1,0"
       id="guide9"
       inkscape:locked="false"
       inkscape:label=""
       inkscape:color="rgb(0,134,229)" /><sodipodi:guide
       position="986,84"
       orientation="-1,0"
       id="guide10"
       inkscape:locked="false"
       inkscape:label=""
       inkscape:color="rgb(0,134,229)" /><sodipodi:guide
       position="124.40523,452"
       orientation="0,1"
       id="guide11"
       inkscape:locked="false"
       inkscape:label=""
       inkscape:color="rgb(0,134,229)" /><sodipodi:guide
       position="427.64299,1188"
       orientation="0,1"
       id="guide12"
       inkscape:locked="false"
       inkscape:label=""
       inkscape:color="rgb(0,134,229)" /><sodipodi:guide
       position="97.19159,84"
       orientation="0,1"
       id="guide13"
       inkscape:locked="false"
       inkscape:label=""
       inkscape:color="rgb(0,134,229)" /><sodipodi:guide
       position="590.92487,1556"
       orientation="0,1"
       id="guide14"
       inkscape:locked="false"
       inkscape:label=""
       inkscape:color="rgb(0,134,229)" /></sodipodi:namedview><g
     inkscape:groupmode="layer"
     id="layer2"
     inkscape:label="letter parts 1"><path
       id="path5"
       style="color:#000000;fill:#000000;stroke-linecap:round;stroke-linejoin:round;-inkscape-stroke:none"
       d="m 332.00391,450 c -23.19596,0 -42,18.80404 -42,42 0,23.19596 18.80404,42 42,42 H 647.15625 L 618.55078,657.42969 C 615.03234,657.29596 611.54981,657 608.00195,657 482.0897,657 376.12331,741.75298 304.66797,855.00781 233.21263,968.26265 192.7071,1113.0708 198.03125,1252.5996 c 5.52942,144.9091 75.61483,225.2276 146.68164,243.2266 47.57687,12.0497 96.00363,-4.7116 131.35742,-36.2012 35.35381,-31.4896 60.69469,-77.2323 73.19531,-131.1719 L 682.02344,755.60547 c 57.31602,22.59367 110.52148,70.57719 153.89648,137.66992 61.60615,95.29276 100.12793,226.22331 98.08789,357.06841 -0.62801,40.2794 -6.01856,78.0506 -14.97656,112.2871 -44.66892,-49.989 -104.43491,-84.6329 -173.02734,-84.6329 -42.95459,0 -77.74706,26.8851 -99.75977,60.0899 -22.01271,33.2047 -34.24219,75.0143 -34.24219,119.9121 0,44.8906 12.22548,86.6982 34.23633,119.9043 22.01085,33.206 56.80673,60.0937 99.76563,60.0937 76.849,0 145.41206,-46.9509 193.14843,-116.4882 32.85855,-47.8649 76.76606,-136.4674 78.84566,-269.8555 2.3059,-147.8941 -39.76243,-292.96294 -111.53706,-403.98438 -52.7155,-81.54064 -123.28065,-146.0128 -205.3125,-174.58008 L 740.91797,501.48242 C 747.01598,475.15513 727.02623,450.00311 700.00195,450 Z M 599.09375,741.38672 467.43359,1309.4883 c -9.13007,39.3957 -27.70614,70.0183 -47.23437,87.4121 -19.52823,17.3938 -36.9476,22.0355 -54.86328,17.498 -23.40451,-5.9276 -78.81337,-45.6587 -83.36719,-165 -4.60516,-120.6861 32.10493,-251.87797 93.74023,-349.56832 C 435.2489,805.46087 514.74016,745.37499 599.09375,741.38672 Z M 746.00391,1361.998 c 50.00522,0 102.49576,37.4481 136.46289,91.8868 -4.02717,7.0261 -8.21459,13.7466 -12.56641,20.0859 -36.70446,53.4672 -81.59748,80.0273 -123.89648,80.0273 -7.05913,0 -18.26541,-5.1779 -29.75,-22.5039 -11.48461,-17.3258 -20.25196,-44.5169 -20.25196,-73.4941 0,-28.9822 8.76999,-56.1725 20.25586,-73.498 11.48588,-17.3257 22.69517,-22.504 29.7461,-22.504 z"
       sodipodi:nodetypes="sssccsssssccsscsssssssscccsccsssscscssssss" /></g></svg>
