<?xml version="1.0" encoding="UTF-8" standalone="no"?>
<svg
   version="1.1"
   viewBox="-10 0 1239 2048"
   id="svg1"
   sodipodi:docname="arcomp_hiragana_mi_final.svg"
   inkscape:version="1.3 (0e150ed6c4, 2023-07-21)"
   xml:space="preserve"
   xmlns:inkscape="http://www.inkscape.org/namespaces/inkscape"
   xmlns:sodipodi="http://sodipodi.sourceforge.net/DTD/sodipodi-0.dtd"
   xmlns="http://www.w3.org/2000/svg"
   xmlns:svg="http://www.w3.org/2000/svg"><defs
     id="defs1"><inkscape:path-effect
       effect="spiro"
       id="path-effect69"
       is_visible="true"
       lpeversion="1" /><inkscape:path-effect
       effect="spiro"
       id="path-effect68"
       is_visible="true"
       lpeversion="1" /><inkscape:path-effect
       effect="spiro"
       id="path-effect67"
       is_visible="true"
       lpeversion="1" /><inkscape:path-effect
       effect="spiro"
       id="path-effect66"
       is_visible="true"
       lpeversion="1" /><inkscape:path-effect
       effect="spiro"
       id="path-effect65"
       is_visible="true"
       lpeversion="1" /><inkscape:path-effect
       effect="bspline"
       id="path-effect64"
       is_visible="true"
       lpeversion="1.3"
       weight="33.333333"
       steps="2"
       helper_size="0"
       apply_no_weight="true"
       apply_with_weight="true"
       only_selected="false"
       uniform="false" /></defs><sodipodi:namedview
     id="namedview1"
     pagecolor="#ffffff"
     bordercolor="#999999"
     borderopacity="1"
     inkscape:showpageshadow="2"
     inkscape:pageopacity="0"
     inkscape:pagecheckerboard="0"
     inkscape:deskcolor="#d1d1d1"
     inkscape:zoom="0.25"
     inkscape:cx="394"
     inkscape:cy="1518"
     inkscape:window-width="1920"
     inkscape:window-height="1001"
     inkscape:window-x="-9"
     inkscape:window-y="-9"
     inkscape:window-maximized="1"
     inkscape:current-layer="layer2"
     showguides="true"><sodipodi:guide
       position="866,410"
       orientation="0,-1"
       id="guide1"
       inkscape:locked="false" /><sodipodi:guide
       position="1230,1230"
       orientation="0,1"
       id="guide2"
       inkscape:locked="false"
       inkscape:label=""
       inkscape:color="rgb(0,134,229)" /><sodipodi:guide
       position="208,219.91946"
       orientation="-1,0"
       id="guide4"
       inkscape:locked="false"
       inkscape:label=""
       inkscape:color="rgb(0,134,229)" /><sodipodi:guide
       position="986,96.214765"
       orientation="-1,0"
       id="guide5"
       inkscape:locked="false"
       inkscape:label=""
       inkscape:color="rgb(0,134,229)" /><sodipodi:guide
       position="0,0"
       orientation="0,-1"
       id="guide7"
       inkscape:locked="false" /><sodipodi:guide
       position="1239,481.27157"
       orientation="1,0"
       id="guide8"
       inkscape:locked="false" /><sodipodi:guide
       position="250,248.01176"
       orientation="-1,0"
       id="guide9"
       inkscape:locked="false"
       inkscape:label=""
       inkscape:color="rgb(0,134,229)" /><sodipodi:guide
       position="1028,452"
       orientation="-1,0"
       id="guide10"
       inkscape:locked="false"
       inkscape:label=""
       inkscape:color="rgb(0,134,229)" /><sodipodi:guide
       position="124.40523,452"
       orientation="0,1"
       id="guide11"
       inkscape:locked="false"
       inkscape:label=""
       inkscape:color="rgb(0,134,229)" /><sodipodi:guide
       position="427.64299,1188"
       orientation="0,1"
       id="guide12"
       inkscape:locked="false"
       inkscape:label=""
       inkscape:color="rgb(0,134,229)" /><sodipodi:guide
       position="97.19159,84"
       orientation="0,1"
       id="guide13"
       inkscape:locked="false"
       inkscape:label=""
       inkscape:color="rgb(0,134,229)" /><sodipodi:guide
       position="590.92487,1556"
       orientation="0,1"
       id="guide14"
       inkscape:locked="false"
       inkscape:label=""
       inkscape:color="rgb(0,134,229)" /></sodipodi:namedview><g
     inkscape:groupmode="layer"
     id="layer2"
     inkscape:label="letter parts 1"><path
       id="path20"
       style="color:#000000;fill:#000000;stroke-linecap:round;stroke-linejoin:round;-inkscape-stroke:none"
       d="M 424 450 C 400.80406 450 382 468.80406 382 492 C 382 515.19594 400.80406 534 424 534 L 735.9043 534 L 594.4707 1015.9668 C 554.01569 1006.903 512.43494 1002 470 1002 C 389.53329 1002 320.24243 1052.9373 273.10742 1124.043 C 225.97242 1195.1485 197.99805 1288.7082 197.99805 1389 C 197.99805 1452.0296 215.90898 1509.1004 241.55273 1552.7051 C 267.17251 1596.2688 298.2009 1633.3537 349.45312 1633.5605 C 396.4401 1633.75 440.02208 1622.2719 474.50977 1596.0137 C 509.04183 1569.7216 532.38711 1530.3009 544.89648 1483.166 L 651.18555 1121.0195 C 731.33087 1152.109 805.97122 1202.4183 870.81836 1265.4883 C 821.06779 1401.8355 748.15181 1508.4974 675.13086 1562.1543 A 42 42 0 0 0 666.1543 1620.8691 A 42 42 0 0 0 724.86914 1629.8438 C 808.58064 1568.3313 882.84379 1465.565 935.69922 1337.168 C 938.05393 1340.1 940.57473 1342.8725 942.89062 1345.8398 C 957.16179 1364.1252 983.55391 1367.3798 1001.8398 1353.1094 C 1020.1265 1338.8381 1023.3812 1312.4445 1009.1094 1294.1582 C 996.12665 1277.5234 982.48172 1261.3971 968.34961 1245.7246 C 999.80861 1142.5367 1018 1027.1997 1018 906 A 42 42 0 0 0 976 864 A 42 42 0 0 0 934 906 C 934 1001.3695 920.7874 1092.9654 898.64062 1176.6289 C 831.98272 1117.9279 756.46345 1070.5232 674.95898 1040.002 L 832.30078 503.82617 C 840.18887 476.93222 820.02689 450.00365 792 450 L 424 450 z M 470 1086 C 504.02911 1086 537.70161 1089.7409 570.74219 1096.8242 L 464.00195 1460.5664 C 457.45591 1487.2697 445.01922 1511.6005 423.625 1529.1797 C 401.7995 1545.7972 376.24017 1552.0255 349.59375 1549.5684 C 338.95152 1548.5871 331.75398 1540.3816 313.95898 1510.123 C 296.164 1479.8645 281.99805 1435.6525 281.99805 1389.002 C 281.99805 1304.627 306.51149 1225.6845 343.12109 1170.457 C 379.73071 1115.2276 425.44008 1086 470 1086 z " /></g></svg>
