<?xml version="1.0" encoding="UTF-8" standalone="no"?>
<svg
   version="1.1"
   viewBox="-10 0 1239 2048"
   id="svg1"
   sodipodi:docname="arcomp_hiragana_a_final.svg"
   inkscape:version="1.3 (0e150ed6c4, 2023-07-21)"
   xml:space="preserve"
   xmlns:inkscape="http://www.inkscape.org/namespaces/inkscape"
   xmlns:sodipodi="http://sodipodi.sourceforge.net/DTD/sodipodi-0.dtd"
   xmlns="http://www.w3.org/2000/svg"
   xmlns:svg="http://www.w3.org/2000/svg"><defs
     id="defs1"><inkscape:path-effect
       effect="spiro"
       id="path-effect69"
       is_visible="true"
       lpeversion="1" /><inkscape:path-effect
       effect="spiro"
       id="path-effect68"
       is_visible="true"
       lpeversion="1" /><inkscape:path-effect
       effect="spiro"
       id="path-effect67"
       is_visible="true"
       lpeversion="1" /><inkscape:path-effect
       effect="spiro"
       id="path-effect66"
       is_visible="true"
       lpeversion="1" /><inkscape:path-effect
       effect="spiro"
       id="path-effect65"
       is_visible="true"
       lpeversion="1" /><inkscape:path-effect
       effect="bspline"
       id="path-effect64"
       is_visible="true"
       lpeversion="1.3"
       weight="33.333333"
       steps="2"
       helper_size="0"
       apply_no_weight="true"
       apply_with_weight="true"
       only_selected="false"
       uniform="false" /></defs><sodipodi:namedview
     id="namedview1"
     pagecolor="#ffffff"
     bordercolor="#999999"
     borderopacity="1"
     inkscape:showpageshadow="2"
     inkscape:pageopacity="0"
     inkscape:pagecheckerboard="0"
     inkscape:deskcolor="#d1d1d1"
     inkscape:zoom="0.5"
     inkscape:cx="847"
     inkscape:cy="1207"
     inkscape:window-width="1920"
     inkscape:window-height="1001"
     inkscape:window-x="-9"
     inkscape:window-y="-9"
     inkscape:window-maximized="1"
     inkscape:current-layer="svg1"
     showguides="true"><sodipodi:guide
       position="866,410"
       orientation="0,-1"
       id="guide1"
       inkscape:locked="false" /><sodipodi:guide
       position="1230,1230"
       orientation="0,1"
       id="guide2"
       inkscape:locked="false"
       inkscape:label=""
       inkscape:color="rgb(0,134,229)" /><sodipodi:guide
       position="208,219.91946"
       orientation="-1,0"
       id="guide4"
       inkscape:locked="false"
       inkscape:label=""
       inkscape:color="rgb(0,134,229)" /><sodipodi:guide
       position="986,96.214765"
       orientation="-1,0"
       id="guide5"
       inkscape:locked="false"
       inkscape:label=""
       inkscape:color="rgb(0,134,229)" /><sodipodi:guide
       position="0,0"
       orientation="0,-1"
       id="guide7"
       inkscape:locked="false" /><sodipodi:guide
       position="1239,481.27157"
       orientation="1,0"
       id="guide8"
       inkscape:locked="false" /><sodipodi:guide
       position="250,248.01176"
       orientation="-1,0"
       id="guide9"
       inkscape:locked="false"
       inkscape:label=""
       inkscape:color="rgb(0,134,229)" /><sodipodi:guide
       position="1028,452"
       orientation="-1,0"
       id="guide10"
       inkscape:locked="false"
       inkscape:label=""
       inkscape:color="rgb(0,134,229)" /><sodipodi:guide
       position="124.40523,452"
       orientation="0,1"
       id="guide11"
       inkscape:locked="false"
       inkscape:label=""
       inkscape:color="rgb(0,134,229)" /><sodipodi:guide
       position="427.64299,1188"
       orientation="0,1"
       id="guide12"
       inkscape:locked="false"
       inkscape:label=""
       inkscape:color="rgb(0,134,229)" /><sodipodi:guide
       position="97.19159,84"
       orientation="0,1"
       id="guide13"
       inkscape:locked="false"
       inkscape:label=""
       inkscape:color="rgb(0,134,229)" /><sodipodi:guide
       position="590.92487,1556"
       orientation="0,1"
       id="guide14"
       inkscape:locked="false"
       inkscape:label=""
       inkscape:color="rgb(0,134,229)" /></sodipodi:namedview><g
     inkscape:groupmode="layer"
     id="layer2"
     inkscape:label="letter parts 1"><path
       id="path48-9"
       style="color:#000000;fill:#000000;stroke-linecap:round;stroke-linejoin:round;-inkscape-stroke:none"
       d="M 424.00195 450.00586 A 42 42 0 0 0 382.00195 492.00586 L 382.00195 588.00586 L 240.00195 588.00586 A 42 42 0 0 0 198.00195 630.00586 A 42 42 0 0 0 240.00195 672.00586 L 382.00195 672.00586 L 382.00195 885.31445 C 339.10083 906.67352 301.94524 942.54668 273.11133 986.04297 C 225.97571 1057.1476 198 1150.7049 198 1251 L 198 1458.0059 C 198 1503.733 210.74744 1545.7524 233.01172 1578.7285 C 255.276 1611.7046 289.64633 1638 332.00195 1638 C 523.75723 1638 642.59274 1490.902 690.46094 1419.8203 C 767.62519 1305.2355 819.45476 1147.0969 831.35156 984.08789 C 846.0152 996.93216 860.01521 1013.0503 872.87695 1032.4531 C 909.48552 1087.6795 934 1166.6214 934 1251 C 934 1335.3794 909.48712 1414.3208 872.87891 1469.5469 C 836.27068 1524.7728 790.5616 1554 746.00195 1554 A 42 42 0 0 0 704.00195 1596 A 42 42 0 0 0 746.00195 1638 C 826.46704 1638 895.75871 1587.0636 942.89258 1515.959 C 990.02645 1444.8543 1018 1351.295 1018 1251 C 1018 1150.7053 990.02667 1057.1477 942.89258 986.04297 C 908.93292 934.81268 863.4293 894.17432 810.57422 875.39062 A 42 42 0 0 0 798.33789 871.47852 C 781.52582 866.69316 764.06439 864.00195 746.00195 864.00195 L 470.00195 864.00195 C 468.65667 864.00195 467.34094 864.13182 466.00195 864.16016 L 466.00195 672.00586 L 976.00195 672.00586 A 42 42 0 0 0 1018.002 630.00586 A 42 42 0 0 0 976.00195 588.00586 L 466.00195 588.00586 L 466.00195 492.00586 A 42 42 0 0 0 424.00195 450.00586 z M 470.00195 948.00195 L 746.00195 948.00195 C 747.06222 948.00195 748.12607 948.09975 749.1875 948.13281 C 742.54776 1107.298 691.80952 1267.4359 620.78711 1372.9004 C 593.40787 1413.5571 540.82067 1479.0128 466.00195 1519.1035 L 466.00195 948.16602 C 467.33539 948.11389 468.6703 948.00195 470.00195 948.00195 z M 382.00195 986.71484 L 382.00195 1549.3008 C 366.00365 1552.3024 349.34944 1554 332.00195 1554 C 325.87506 1554 314.24535 1548.93 302.62891 1531.7246 C 291.01245 1514.5192 282 1487.5424 282 1458.0059 L 282 1251 C 282 1166.6219 306.51511 1087.6815 343.125 1032.4551 C 355.19621 1014.2455 368.31973 999.15539 382.00195 986.71484 z " /></g></svg>
