<?xml version="1.0" encoding="UTF-8" standalone="no"?>
<svg
   version="1.1"
   viewBox="-10 0 1239 2048"
   id="svg1"
   sodipodi:docname="arcomp_hiragana_yu_small_final.svg"
   inkscape:version="1.3 (0e150ed6c4, 2023-07-21)"
   xml:space="preserve"
   xmlns:inkscape="http://www.inkscape.org/namespaces/inkscape"
   xmlns:sodipodi="http://sodipodi.sourceforge.net/DTD/sodipodi-0.dtd"
   xmlns="http://www.w3.org/2000/svg"
   xmlns:svg="http://www.w3.org/2000/svg"><defs
     id="defs1"><inkscape:path-effect
       effect="spiro"
       id="path-effect69"
       is_visible="true"
       lpeversion="1" /><inkscape:path-effect
       effect="spiro"
       id="path-effect68"
       is_visible="true"
       lpeversion="1" /><inkscape:path-effect
       effect="spiro"
       id="path-effect67"
       is_visible="true"
       lpeversion="1" /><inkscape:path-effect
       effect="spiro"
       id="path-effect66"
       is_visible="true"
       lpeversion="1" /><inkscape:path-effect
       effect="spiro"
       id="path-effect65"
       is_visible="true"
       lpeversion="1" /><inkscape:path-effect
       effect="bspline"
       id="path-effect64"
       is_visible="true"
       lpeversion="1.3"
       weight="33.333333"
       steps="2"
       helper_size="0"
       apply_no_weight="true"
       apply_with_weight="true"
       only_selected="false"
       uniform="false" /></defs><sodipodi:namedview
     id="namedview1"
     pagecolor="#ffffff"
     bordercolor="#999999"
     borderopacity="1"
     inkscape:showpageshadow="2"
     inkscape:pageopacity="0"
     inkscape:pagecheckerboard="0"
     inkscape:deskcolor="#d1d1d1"
     inkscape:zoom="0.7"
     inkscape:cx="495"
     inkscape:cy="1336.4286"
     inkscape:window-width="1920"
     inkscape:window-height="1001"
     inkscape:window-x="-9"
     inkscape:window-y="-9"
     inkscape:window-maximized="1"
     inkscape:current-layer="svg1"
     showguides="true"><sodipodi:guide
       position="866,410"
       orientation="0,-1"
       id="guide1"
       inkscape:locked="false" /><sodipodi:guide
       position="1230,1230"
       orientation="0,1"
       id="guide2"
       inkscape:locked="false"
       inkscape:label=""
       inkscape:color="rgb(0,134,229)" /><sodipodi:guide
       position="208,219.91946"
       orientation="-1,0"
       id="guide4"
       inkscape:locked="false"
       inkscape:label=""
       inkscape:color="rgb(0,134,229)" /><sodipodi:guide
       position="986,96.214765"
       orientation="-1,0"
       id="guide5"
       inkscape:locked="false"
       inkscape:label=""
       inkscape:color="rgb(0,134,229)" /><sodipodi:guide
       position="0,0"
       orientation="0,-1"
       id="guide7"
       inkscape:locked="false" /><sodipodi:guide
       position="1239,481.27157"
       orientation="1,0"
       id="guide8"
       inkscape:locked="false" /><sodipodi:guide
       position="250,248.01176"
       orientation="-1,0"
       id="guide9"
       inkscape:locked="false"
       inkscape:label=""
       inkscape:color="rgb(0,134,229)" /><sodipodi:guide
       position="1028,452"
       orientation="-1,0"
       id="guide10"
       inkscape:locked="false"
       inkscape:label=""
       inkscape:color="rgb(0,134,229)" /><sodipodi:guide
       position="124.40523,452"
       orientation="0,1"
       id="guide11"
       inkscape:locked="false"
       inkscape:label=""
       inkscape:color="rgb(0,134,229)" /><sodipodi:guide
       position="427.64299,1188"
       orientation="0,1"
       id="guide12"
       inkscape:locked="false"
       inkscape:label=""
       inkscape:color="rgb(0,134,229)" /><sodipodi:guide
       position="97.19159,84"
       orientation="0,1"
       id="guide13"
       inkscape:locked="false"
       inkscape:label=""
       inkscape:color="rgb(0,134,229)" /><sodipodi:guide
       position="590.92487,1556"
       orientation="0,1"
       id="guide14"
       inkscape:locked="false"
       inkscape:label=""
       inkscape:color="rgb(0,134,229)" /></sodipodi:namedview><path
     id="path15"
     style="color:#000000;fill:#000000;stroke-linecap:round;stroke-linejoin:round;-inkscape-stroke:none"
     d="m 608,818 c -23.19596,0 -42,18.80404 -42,42 V 987.23242 C 499.7231,1010.0657 425.83461,1049.1756 358.50391,1116.5059 329.08019,1145.9287 303.61252,1178.6891 282,1213.332 V 952 c 0,-23.19596 -18.80404,-42 -42,-42 -23.19596,0 -42,18.80404 -42,42 v 552 h 0.0176 c 0.009,0.3694 -0.0118,0.7481 -0.002,1.1172 0.75868,22.8604 19.66888,40.9115 42.5398,40.6072 22.87092,-0.3042 41.29426,-18.8519 41.44458,-41.7244 0,-41.096 8.65556,-200.8545 135.90039,-328.0957 47.54659,-47.5463 99.41143,-78.5178 148.09961,-98.7266 v 302.334 c -28.54552,-11.9204 -54.98125,-26.197 -78.46875,-42.164 -19.1828,-13.0404 -45.30479,-8.0613 -58.3457,11.1211 -13.04037,19.1828 -8.06134,45.3048 11.12109,58.3457 37.11758,25.2329 79.54064,46.7095 125.69336,62.7031 V 1596 c 0,23.196 18.80404,42 42,42 23.19596,0 42,-18.804 42,-42 v -104.6113 c 31.01601,5.5307 63.1075,8.6113 96,8.6113 147.96028,0 272,-124.0412 272,-272 0,-147.9959 -124.08022,-272 -272,-272 -20.30304,0 -54.36228,1.61574 -96,9.20898 V 860 c 0,-23.19596 -18.80404,-42 -42,-42 z m 138,222 c 100.08408,0 188,87.8449 188,188 0,100.1229 -87.8756,188 -188,188 -32.95826,0 -65.15627,-3.7066 -96,-10.2734 V 1050.9688 C 692.71744,1041.721 727.43387,1040 746,1040 Z"
     sodipodi:nodetypes="sscccssscccsccccscccssscssscsssssccs" /></svg>
