<?xml version="1.0" encoding="UTF-8" standalone="no"?>
<svg
   version="1.1"
   viewBox="-10 0 1239 2048"
   id="svg1"
   sodipodi:docname="arcomp_hiragana_ne_final.svg"
   inkscape:version="1.3 (0e150ed6c4, 2023-07-21)"
   xml:space="preserve"
   xmlns:inkscape="http://www.inkscape.org/namespaces/inkscape"
   xmlns:sodipodi="http://sodipodi.sourceforge.net/DTD/sodipodi-0.dtd"
   xmlns="http://www.w3.org/2000/svg"
   xmlns:svg="http://www.w3.org/2000/svg"><defs
     id="defs1"><inkscape:path-effect
       effect="spiro"
       id="path-effect69"
       is_visible="true"
       lpeversion="1" /><inkscape:path-effect
       effect="spiro"
       id="path-effect68"
       is_visible="true"
       lpeversion="1" /><inkscape:path-effect
       effect="spiro"
       id="path-effect67"
       is_visible="true"
       lpeversion="1" /><inkscape:path-effect
       effect="spiro"
       id="path-effect66"
       is_visible="true"
       lpeversion="1" /><inkscape:path-effect
       effect="spiro"
       id="path-effect65"
       is_visible="true"
       lpeversion="1" /><inkscape:path-effect
       effect="bspline"
       id="path-effect64"
       is_visible="true"
       lpeversion="1.3"
       weight="33.333333"
       steps="2"
       helper_size="0"
       apply_no_weight="true"
       apply_with_weight="true"
       only_selected="false"
       uniform="false" /></defs><sodipodi:namedview
     id="namedview1"
     pagecolor="#ffffff"
     bordercolor="#999999"
     borderopacity="1"
     inkscape:showpageshadow="2"
     inkscape:pageopacity="0"
     inkscape:pagecheckerboard="0"
     inkscape:deskcolor="#d1d1d1"
     inkscape:zoom="0.49497474"
     inkscape:cx="663.67023"
     inkscape:cy="1174.8074"
     inkscape:window-width="1920"
     inkscape:window-height="1001"
     inkscape:window-x="-9"
     inkscape:window-y="-9"
     inkscape:window-maximized="1"
     inkscape:current-layer="svg1"
     showguides="false"><sodipodi:guide
       position="866,410"
       orientation="0,-1"
       id="guide1"
       inkscape:locked="false" /><sodipodi:guide
       position="1230,1230"
       orientation="0,1"
       id="guide2"
       inkscape:locked="false"
       inkscape:label=""
       inkscape:color="rgb(0,134,229)" /><sodipodi:guide
       position="208,219.91946"
       orientation="-1,0"
       id="guide4"
       inkscape:locked="false"
       inkscape:label=""
       inkscape:color="rgb(0,134,229)" /><sodipodi:guide
       position="986,96.214765"
       orientation="-1,0"
       id="guide5"
       inkscape:locked="false"
       inkscape:label=""
       inkscape:color="rgb(0,134,229)" /><sodipodi:guide
       position="0,0"
       orientation="0,-1"
       id="guide7"
       inkscape:locked="false" /><sodipodi:guide
       position="1239,481.27157"
       orientation="1,0"
       id="guide8"
       inkscape:locked="false" /><sodipodi:guide
       position="250,248.01176"
       orientation="-1,0"
       id="guide9"
       inkscape:locked="false"
       inkscape:label=""
       inkscape:color="rgb(0,134,229)" /><sodipodi:guide
       position="1028,452"
       orientation="-1,0"
       id="guide10"
       inkscape:locked="false"
       inkscape:label=""
       inkscape:color="rgb(0,134,229)" /><sodipodi:guide
       position="124.40523,452"
       orientation="0,1"
       id="guide11"
       inkscape:locked="false"
       inkscape:label=""
       inkscape:color="rgb(0,134,229)" /><sodipodi:guide
       position="427.64299,1188"
       orientation="0,1"
       id="guide12"
       inkscape:locked="false"
       inkscape:label=""
       inkscape:color="rgb(0,134,229)" /><sodipodi:guide
       position="97.19159,84"
       orientation="0,1"
       id="guide13"
       inkscape:locked="false"
       inkscape:label=""
       inkscape:color="rgb(0,134,229)" /><sodipodi:guide
       position="590.92487,1556"
       orientation="0,1"
       id="guide14"
       inkscape:locked="false"
       inkscape:label=""
       inkscape:color="rgb(0,134,229)" /></sodipodi:namedview><g
     inkscape:groupmode="layer"
     id="layer2"
     inkscape:label="letter parts 1"><path
       id="path27-6"
       style="color:#000000;fill:#000000;stroke-linecap:round;stroke-linejoin:round;-inkscape-stroke:none"
       d="m 424,450 c -23.19596,0 -42,18.80404 -42,42 V 726 H 240 c -23.19596,0 -42,18.80404 -42,42 0,23.19596 18.80404,42 42,42 h 142 v 287.0293 l -173.39062,195.0684 c -15.41075,17.337 -13.84899,43.8844 3.48828,59.2949 17.33677,15.4094 43.88265,13.8477 59.29296,-3.4883 L 382,1223.4668 V 1596 c 0,23.196 18.80404,42 42,42 23.19596,0 42,-18.804 42,-42 V 1128.9668 L 712.98828,851.10156 C 756.95865,801.63428 803.15314,796.28681 849.08594,830.73633 893.54958,864.08398 934,949.63998 934,1043.9961 c 0,92.0013 0,276.0039 0,276.0039 0,9.5406 -0.51289,18.9507 -1.28906,28.2695 C 895.68093,1306.3134 847.1977,1278 792,1278 c -42.95914,0 -77.7527,26.8897 -99.76367,60.0957 C 670.22536,1371.3017 658,1413.1091 658,1458 c 0,44.8996 12.23074,86.7101 34.24414,119.9141 C 714.25754,1611.1179 749.04707,1638 792,1638 c 55.19522,0 103.67969,-28.3124 140.71094,-70.2695 0.77621,9.3189 1.28906,18.7291 1.28906,28.2695 0,23.196 18.80404,42 42,42 23.19596,0 42,-18.804 42,-42 0,-48.8499 -8.1561,-95.6989 -22.93359,-137.998 C 1009.8445,1415.7031 1018,1368.8533 1018,1320 c 0,0 0,-184.0026 0,-276.0039 0,-116.50038 -42.93073,-223.77192 -118.51367,-280.45899 -33.77321,-25.32985 -73.00506,-36.71091 -112.01172,-35.24609 -50.15142,1.88332 -99.93325,24.99984 -137.26953,67.0039 L 466,1002.5293 V 492 c 0,-23.19596 -18.80404,-42 -42,-42 z m 368,912 c 32.06232,0 66.27021,21.214 94.50391,63.8105 6.46421,9.7527 12.38504,20.6135 17.78515,32.1895 -5.40117,11.5778 -11.32355,22.4396 -17.78906,32.1934 C 858.26508,1532.788 824.05564,1554 792,1554 c -7.04795,0 -18.25981,-5.1766 -29.74609,-22.502 C 750.76762,1514.1728 742,1486.9828 742,1458 c 0,-28.9757 8.76651,-56.1672 20.25195,-73.4941 C 773.73739,1367.1788 784.94514,1362 792,1362 Z"
       sodipodi:nodetypes="sscsssccccccssscsssscssssscssscssssscsssscssssss" /></g></svg>
