<?xml version="1.0" encoding="UTF-8" standalone="no"?>
<svg
   version="1.1"
   viewBox="-10 0 1239 2048"
   id="svg1"
   sodipodi:docname="arcomp_hiragana_ta_final.svg"
   inkscape:version="1.3 (0e150ed6c4, 2023-07-21)"
   xml:space="preserve"
   xmlns:inkscape="http://www.inkscape.org/namespaces/inkscape"
   xmlns:sodipodi="http://sodipodi.sourceforge.net/DTD/sodipodi-0.dtd"
   xmlns="http://www.w3.org/2000/svg"
   xmlns:svg="http://www.w3.org/2000/svg"><defs
     id="defs1"><inkscape:path-effect
       effect="spiro"
       id="path-effect69"
       is_visible="true"
       lpeversion="1" /><inkscape:path-effect
       effect="spiro"
       id="path-effect68"
       is_visible="true"
       lpeversion="1" /><inkscape:path-effect
       effect="spiro"
       id="path-effect67"
       is_visible="true"
       lpeversion="1" /><inkscape:path-effect
       effect="spiro"
       id="path-effect66"
       is_visible="true"
       lpeversion="1" /><inkscape:path-effect
       effect="spiro"
       id="path-effect65"
       is_visible="true"
       lpeversion="1" /><inkscape:path-effect
       effect="bspline"
       id="path-effect64"
       is_visible="true"
       lpeversion="1.3"
       weight="33.333333"
       steps="2"
       helper_size="0"
       apply_no_weight="true"
       apply_with_weight="true"
       only_selected="false"
       uniform="false" /></defs><sodipodi:namedview
     id="namedview1"
     pagecolor="#ffffff"
     bordercolor="#999999"
     borderopacity="1"
     inkscape:showpageshadow="2"
     inkscape:pageopacity="0"
     inkscape:pagecheckerboard="0"
     inkscape:deskcolor="#d1d1d1"
     inkscape:zoom="0.35"
     inkscape:cx="15.714286"
     inkscape:cy="1090"
     inkscape:window-width="1920"
     inkscape:window-height="1001"
     inkscape:window-x="-9"
     inkscape:window-y="-9"
     inkscape:window-maximized="1"
     inkscape:current-layer="svg1"
     showguides="true"><sodipodi:guide
       position="866,410"
       orientation="0,-1"
       id="guide1"
       inkscape:locked="false" /><sodipodi:guide
       position="1230,1230"
       orientation="0,1"
       id="guide2"
       inkscape:locked="false"
       inkscape:label=""
       inkscape:color="rgb(0,134,229)" /><sodipodi:guide
       position="208,219.91946"
       orientation="-1,0"
       id="guide4"
       inkscape:locked="false"
       inkscape:label=""
       inkscape:color="rgb(0,134,229)" /><sodipodi:guide
       position="986,96.214765"
       orientation="-1,0"
       id="guide5"
       inkscape:locked="false"
       inkscape:label=""
       inkscape:color="rgb(0,134,229)" /><sodipodi:guide
       position="0,0"
       orientation="0,-1"
       id="guide7"
       inkscape:locked="false" /><sodipodi:guide
       position="1239,481.27157"
       orientation="1,0"
       id="guide8"
       inkscape:locked="false" /><sodipodi:guide
       position="250,248.01176"
       orientation="-1,0"
       id="guide9"
       inkscape:locked="false"
       inkscape:label=""
       inkscape:color="rgb(0,134,229)" /><sodipodi:guide
       position="1028,452"
       orientation="-1,0"
       id="guide10"
       inkscape:locked="false"
       inkscape:label=""
       inkscape:color="rgb(0,134,229)" /><sodipodi:guide
       position="124.40523,452"
       orientation="0,1"
       id="guide11"
       inkscape:locked="false"
       inkscape:label=""
       inkscape:color="rgb(0,134,229)" /><sodipodi:guide
       position="427.64299,1188"
       orientation="0,1"
       id="guide12"
       inkscape:locked="false"
       inkscape:label=""
       inkscape:color="rgb(0,134,229)" /><sodipodi:guide
       position="97.19159,84"
       orientation="0,1"
       id="guide13"
       inkscape:locked="false"
       inkscape:label=""
       inkscape:color="rgb(0,134,229)" /><sodipodi:guide
       position="590.92487,1556"
       orientation="0,1"
       id="guide14"
       inkscape:locked="false"
       inkscape:label=""
       inkscape:color="rgb(0,134,229)" /></sodipodi:namedview><g
     inkscape:groupmode="layer"
     id="layer2"
     inkscape:label="letter parts 1"><path
       id="path34-0"
       style="color:#000000;fill:#000000;stroke-linecap:round;stroke-linejoin:round;-inkscape-stroke:none"
       d="m 424,450.00195 c -23.19596,0 -42,18.80404 -42,42 0,77.72895 -2.81559,155.92589 -8.12109,233.99805 h -133.875 c -23.19596,0 -42,18.80404 -42,42 0,23.19596 18.80404,42 42,42 h 127.11328 c -7.58044,81.97088 -17.90506,163.57563 -31.31836,244.0547 -30.74671,184.4785 -76.3827,363.2651 -135.33594,527.7773 -7.82416,21.8357 3.5338,45.8799 25.36914,53.7051 21.8357,7.8241 45.87986,-3.5338 53.70508,-25.3691 60.82662,-169.7401 107.60425,-353.2152 139.11914,-542.3028 C 432.83598,982.78767 443.66029,896.57078 451.47461,810 h 156.52734 c 23.19596,0 42,-18.80404 42,-42 0,-23.19596 -18.80404,-42 -42,-42 H 458.09375 C 463.27202,647.92907 466,569.75389 466,492.00195 c 0,-23.19596 -18.80404,-42 -42,-42 z M 654.00195,1002 c -23.19596,0 -42,18.804 -42,42 0,23.196 18.80404,42 42,42 h 276 c 23.19596,0 42,-18.804 42,-42 0,-23.196 -18.80404,-42 -42,-42 z m -78.8164,307.668 c -16.74097,65.9568 -12.50249,147.4891 20.14843,216.75 5.50197,11.671 18.47216,37.0191 42.08399,61.7246 23.61182,24.7075 60.6327,49.8574 108.58398,49.8574 H 976 c 23.19596,0 42,-18.804 42,-42 0,-23.196 -18.80404,-42 -42,-42 H 746.00195 c -19.04313,0 -34.04055,-9.4337 -47.85937,-23.8926 -13.81883,-14.4589 -23.69234,-32.856 -26.82813,-39.5078 -22.10475,-46.8897 -26.02887,-115.6747 -14.71093,-160.2656 5.70729,-22.4836 -7.89314,-45.3367 -30.37696,-51.043 -21.30728,-5.4104 -45.07503,6.87 -51.04101,30.377 z"
       sodipodi:nodetypes="sscssscscccscssscssssssssscscsssssssccc" /></g></svg>
