<?xml version="1.0" encoding="UTF-8" standalone="no"?>
<svg
   version="1.1"
   viewBox="-10 0 1239 2048"
   id="svg1"
   sodipodi:docname="arcomp_hiragana_we_final.svg"
   inkscape:version="1.3 (0e150ed6c4, 2023-07-21)"
   xml:space="preserve"
   xmlns:inkscape="http://www.inkscape.org/namespaces/inkscape"
   xmlns:sodipodi="http://sodipodi.sourceforge.net/DTD/sodipodi-0.dtd"
   xmlns="http://www.w3.org/2000/svg"
   xmlns:svg="http://www.w3.org/2000/svg"><defs
     id="defs1"><inkscape:path-effect
       effect="spiro"
       id="path-effect69"
       is_visible="true"
       lpeversion="1" /><inkscape:path-effect
       effect="spiro"
       id="path-effect68"
       is_visible="true"
       lpeversion="1" /><inkscape:path-effect
       effect="spiro"
       id="path-effect67"
       is_visible="true"
       lpeversion="1" /><inkscape:path-effect
       effect="spiro"
       id="path-effect66"
       is_visible="true"
       lpeversion="1" /><inkscape:path-effect
       effect="spiro"
       id="path-effect65"
       is_visible="true"
       lpeversion="1" /><inkscape:path-effect
       effect="bspline"
       id="path-effect64"
       is_visible="true"
       lpeversion="1.3"
       weight="33.333333"
       steps="2"
       helper_size="0"
       apply_no_weight="true"
       apply_with_weight="true"
       only_selected="false"
       uniform="false" /></defs><sodipodi:namedview
     id="namedview1"
     pagecolor="#ffffff"
     bordercolor="#999999"
     borderopacity="1"
     inkscape:showpageshadow="2"
     inkscape:pageopacity="0"
     inkscape:pagecheckerboard="0"
     inkscape:deskcolor="#d1d1d1"
     inkscape:zoom="0.5"
     inkscape:cx="949"
     inkscape:cy="1139"
     inkscape:window-width="1920"
     inkscape:window-height="1001"
     inkscape:window-x="-9"
     inkscape:window-y="-9"
     inkscape:window-maximized="1"
     inkscape:current-layer="svg1"
     showguides="true"><sodipodi:guide
       position="866,410"
       orientation="0,-1"
       id="guide1"
       inkscape:locked="false" /><sodipodi:guide
       position="1230,1230"
       orientation="0,1"
       id="guide2"
       inkscape:locked="false"
       inkscape:label=""
       inkscape:color="rgb(0,134,229)" /><sodipodi:guide
       position="208,219.91946"
       orientation="-1,0"
       id="guide4"
       inkscape:locked="false"
       inkscape:label=""
       inkscape:color="rgb(0,134,229)" /><sodipodi:guide
       position="986,96.214765"
       orientation="-1,0"
       id="guide5"
       inkscape:locked="false"
       inkscape:label=""
       inkscape:color="rgb(0,134,229)" /><sodipodi:guide
       position="0,0"
       orientation="0,-1"
       id="guide7"
       inkscape:locked="false" /><sodipodi:guide
       position="1239,481.27157"
       orientation="1,0"
       id="guide8"
       inkscape:locked="false" /><sodipodi:guide
       position="250,248.01176"
       orientation="-1,0"
       id="guide9"
       inkscape:locked="false"
       inkscape:label=""
       inkscape:color="rgb(0,134,229)" /><sodipodi:guide
       position="986,84"
       orientation="-1,0"
       id="guide10"
       inkscape:locked="false"
       inkscape:label=""
       inkscape:color="rgb(0,134,229)" /><sodipodi:guide
       position="124.40523,452"
       orientation="0,1"
       id="guide11"
       inkscape:locked="false"
       inkscape:label=""
       inkscape:color="rgb(0,134,229)" /><sodipodi:guide
       position="427.64299,1188"
       orientation="0,1"
       id="guide12"
       inkscape:locked="false"
       inkscape:label=""
       inkscape:color="rgb(0,134,229)" /><sodipodi:guide
       position="97.19159,84"
       orientation="0,1"
       id="guide13"
       inkscape:locked="false"
       inkscape:label=""
       inkscape:color="rgb(0,134,229)" /><sodipodi:guide
       position="590.92487,1556"
       orientation="0,1"
       id="guide14"
       inkscape:locked="false"
       inkscape:label=""
       inkscape:color="rgb(0,134,229)" /></sodipodi:namedview><g
     inkscape:groupmode="layer"
     id="layer2"
     inkscape:label="letter parts 1"><path
       id="path3"
       style="color:#000000;fill:#000000;stroke-linecap:round;stroke-linejoin:round;-inkscape-stroke:none"
       d="m 435.5,450.00586 c -23.19596,0 -42,18.80404 -42,42 0,23.19596 18.80404,42 42,42 H 635.61328 L 345.20312,897.01562 c -14.49024,18.11274 -11.55388,44.54264 6.5586,59.03321 18.11305,14.49157 44.54444,11.55513 59.03516,-6.5586 L 583.59375,733.49609 c 14.55595,-18.19478 35.26135,-29.92185 55.42578,-34.7207 23.04507,-5.48438 46.21098,-2.77352 71.44531,14.95508 C 754.52063,744.68224 796,829.2681 796,923.25195 c 0,61.28904 -17.95243,118.66915 -44.09375,158.10545 -23.76274,35.8481 -51.79942,54.8033 -78.4375,57.9883 18.35397,-41.6042 21.89942,-90.9734 10.98047,-138.3867 C 669.54586,936.24429 625.34664,881.25195 562,881.25195 c -41.39993,0 -74.75316,25.89053 -95.7168,57.51758 -20.96363,31.62705 -32.53515,71.27657 -32.53515,113.85347 0,42.5792 11.56956,82.2317 32.5332,113.8594 11.73511,17.7048 27.47064,33.4123 46.20898,43.9864 l -304.49609,358.3339 c -15.02114,17.6762 -12.86823,44.1828 4.80859,59.2032 17.67621,15.0211 44.18271,12.8682 59.20313,-4.8086 l 216.77539,-255.1055 c 10.95682,-12.8942 23.70194,-17.5952 40.62891,-5.2441 C 545.07548,1374.2781 566,1413.786 566,1458.002 c 0,44.885 12.22475,86.6915 34.23438,119.8984 C 622.24401,1611.1073 657.03718,1638 700,1638 c 44.56147,0 79.34856,-27.2976 100.2832,-59.5547 12.62778,-19.4577 7.09078,-45.4682 -12.36718,-58.0957 -19.45736,-12.6264 -45.46637,-7.0896 -58.09375,12.3672 C 720.62334,1546.8909 707.67793,1554 700,1554 c -7.05739,0 -18.26477,-5.1795 -29.75,-22.5078 -11.48523,-17.3283 -20.25,-44.5206 -20.25,-73.4902 0,-66.5984 -23.36775,-128.1984 -71.07617,-163.0098 -6.04343,-4.4097 -12.31224,-7.995 -18.69922,-10.9746 l 50.99805,-60.0156 H 665.5 c 64.83839,0 119.75367,-40.9204 156.41992,-96.2344 C 858.58618,1072.4535 880,1000.4582 880,923.25195 880,806.57706 836.12082,699.35282 758.75391,644.99805 733.75415,627.43425 706.39256,617.40271 679.21289,613.97461 l 76.58399,-95.73047 c 10.08285,-12.60807 12.04755,-29.87916 5.05419,-44.42977 C 753.85772,459.26376 739.14396,450.00873 723,450.00586 Z M 562,965.25195 c 8.27444,0 31.58356,15.44228 40.5918,54.55855 8.99231,39.0474 -3.49292,88.7364 -19.35938,107.4083 l -10.86328,12.7832 H 562 c -5.49053,0 -15.26156,-4.1775 -25.70117,-19.9278 -10.43961,-15.7502 -18.55078,-40.7891 -18.55078,-67.4512 0,-26.6584 8.11109,-51.6933 18.55078,-67.44331 C 546.73851,969.42972 556.50995,965.25195 562,965.25195 Z M 714.27344,1288 c -17.67675,15.0204 -19.82967,41.5269 -4.8086,59.2031 l 234.5293,275.9942 c 15.02025,17.6755 41.52524,19.8284 59.20116,4.8086 17.6768,-15.0204 19.8297,-41.527 4.8086,-59.2032 L 773.47461,1292.8086 C 758.48656,1275.1722 731.90993,1273.0147 714.27344,1288 Z"
       sodipodi:nodetypes="sssccccssssscsssssccccsssssscsssssccssssccscsssccssssscccsccc" /></g></svg>
