<?xml version="1.0" encoding="UTF-8" standalone="no"?>
<svg
   version="1.1"
   viewBox="-10 0 1239 2048"
   id="svg1"
   sodipodi:docname="arcomp_hiragana_ho_final.svg"
   inkscape:version="1.3 (0e150ed6c4, 2023-07-21)"
   xml:space="preserve"
   xmlns:inkscape="http://www.inkscape.org/namespaces/inkscape"
   xmlns:sodipodi="http://sodipodi.sourceforge.net/DTD/sodipodi-0.dtd"
   xmlns="http://www.w3.org/2000/svg"
   xmlns:svg="http://www.w3.org/2000/svg"><defs
     id="defs1"><inkscape:path-effect
       effect="spiro"
       id="path-effect69"
       is_visible="true"
       lpeversion="1" /><inkscape:path-effect
       effect="spiro"
       id="path-effect68"
       is_visible="true"
       lpeversion="1" /><inkscape:path-effect
       effect="spiro"
       id="path-effect67"
       is_visible="true"
       lpeversion="1" /><inkscape:path-effect
       effect="spiro"
       id="path-effect66"
       is_visible="true"
       lpeversion="1" /><inkscape:path-effect
       effect="spiro"
       id="path-effect65"
       is_visible="true"
       lpeversion="1" /><inkscape:path-effect
       effect="bspline"
       id="path-effect64"
       is_visible="true"
       lpeversion="1.3"
       weight="33.333333"
       steps="2"
       helper_size="0"
       apply_no_weight="true"
       apply_with_weight="true"
       only_selected="false"
       uniform="false" /></defs><sodipodi:namedview
     id="namedview1"
     pagecolor="#ffffff"
     bordercolor="#999999"
     borderopacity="1"
     inkscape:showpageshadow="2"
     inkscape:pageopacity="0"
     inkscape:pagecheckerboard="0"
     inkscape:deskcolor="#d1d1d1"
     inkscape:zoom="0.35"
     inkscape:cx="878.57143"
     inkscape:cy="1258.5714"
     inkscape:window-width="1920"
     inkscape:window-height="1001"
     inkscape:window-x="-9"
     inkscape:window-y="-9"
     inkscape:window-maximized="1"
     inkscape:current-layer="svg1"
     showguides="false"><sodipodi:guide
       position="866,410"
       orientation="0,-1"
       id="guide1"
       inkscape:locked="false" /><sodipodi:guide
       position="1230,1230"
       orientation="0,1"
       id="guide2"
       inkscape:locked="false"
       inkscape:label=""
       inkscape:color="rgb(0,134,229)" /><sodipodi:guide
       position="208,219.91946"
       orientation="-1,0"
       id="guide4"
       inkscape:locked="false"
       inkscape:label=""
       inkscape:color="rgb(0,134,229)" /><sodipodi:guide
       position="986,96.214765"
       orientation="-1,0"
       id="guide5"
       inkscape:locked="false"
       inkscape:label=""
       inkscape:color="rgb(0,134,229)" /><sodipodi:guide
       position="0,0"
       orientation="0,-1"
       id="guide7"
       inkscape:locked="false" /><sodipodi:guide
       position="1239,481.27157"
       orientation="1,0"
       id="guide8"
       inkscape:locked="false" /><sodipodi:guide
       position="250,248.01176"
       orientation="-1,0"
       id="guide9"
       inkscape:locked="false"
       inkscape:label=""
       inkscape:color="rgb(0,134,229)" /><sodipodi:guide
       position="1028,452"
       orientation="-1,0"
       id="guide10"
       inkscape:locked="false"
       inkscape:label=""
       inkscape:color="rgb(0,134,229)" /><sodipodi:guide
       position="124.40523,452"
       orientation="0,1"
       id="guide11"
       inkscape:locked="false"
       inkscape:label=""
       inkscape:color="rgb(0,134,229)" /><sodipodi:guide
       position="427.64299,1188"
       orientation="0,1"
       id="guide12"
       inkscape:locked="false"
       inkscape:label=""
       inkscape:color="rgb(0,134,229)" /><sodipodi:guide
       position="97.19159,84"
       orientation="0,1"
       id="guide13"
       inkscape:locked="false"
       inkscape:label=""
       inkscape:color="rgb(0,134,229)" /><sodipodi:guide
       position="590.92487,1556"
       orientation="0,1"
       id="guide14"
       inkscape:locked="false"
       inkscape:label=""
       inkscape:color="rgb(0,134,229)" /></sodipodi:namedview><g
     inkscape:groupmode="layer"
     id="layer2"
     inkscape:label="letter parts 1"><path
       id="path21"
       style="color:#000000;fill:#000000;stroke-linecap:round;stroke-linejoin:round;-inkscape-stroke:none"
       d="M 240 450 A 42 42 0 0 0 198 492 L 198 1457.998 C 198 1502.8887 210.22721 1544.6984 232.23828 1577.9043 C 254.24935 1611.1102 289.04058 1638 332 1638 A 42 42 0 0 0 374 1596 A 42 42 0 0 0 332 1554 C 324.94961 1554 313.74019 1548.8204 302.25391 1531.4922 C 290.76762 1514.164 282 1486.9715 282 1457.998 L 282 492 A 42 42 0 0 0 240 450 z M 516 450 A 42 42 0 0 0 474 492 A 42 42 0 0 0 516 534 L 750 534 L 750 864 L 516 864 A 42 42 0 0 0 474 906 A 42 42 0 0 0 516 948 L 750 948 L 750 1158.9551 C 719.87818 1146.844 687.76865 1140 654 1140 C 598.54032 1140 552.24947 1174.9037 521.86328 1220.7422 C 491.47709 1266.5805 474 1325.6377 474 1388.998 C 474 1452.3561 491.47566 1511.4149 521.86133 1557.2539 C 552.24699 1603.093 598.53869 1638 654 1638 C 709.45969 1638 755.75062 1603.0964 786.13672 1557.2578 C 816.52282 1511.4194 834 1452.3587 834 1388.998 L 834 1329.0566 C 838.71094 1334.954 843.3512 1340.9735 847.83203 1347.248 C 900.95511 1421.6383 934 1519.1595 934 1596 A 42 42 0 0 0 976 1638 A 42 42 0 0 0 1018 1596 C 1018 1496.4167 979.393 1386.9352 916.19141 1298.4316 C 892.51018 1265.27 864.9216 1234.7193 834 1209.4746 L 834 948 L 976 948 A 42 42 0 0 0 1018 906 A 42 42 0 0 0 976 864 L 834 864 L 834 534 L 976 534 A 42 42 0 0 0 1018 492 A 42 42 0 0 0 976 450 L 516 450 z M 654 1224 C 686.7011 1224 719.21515 1234.5466 750 1253.125 L 750 1388.998 C 750 1436.4421 735.98357 1480.8854 716.12305 1510.8457 C 696.26253 1540.806 673.55287 1554 654 1554 C 634.44642 1554 611.73552 1540.8048 591.875 1510.8438 C 572.01448 1480.8826 558 1436.4393 558 1388.998 C 558 1341.5546 572.01635 1297.1146 591.87695 1267.1543 C 611.73756 1237.194 634.44723 1224 654 1224 z " /></g></svg>
