<?xml version="1.0" encoding="UTF-8" standalone="no"?>
<svg
   version="1.1"
   viewBox="-10 0 1239 2048"
   id="svg1"
   sodipodi:docname="arcomp_hiragana_na_final.svg"
   inkscape:version="1.3 (0e150ed6c4, 2023-07-21)"
   xml:space="preserve"
   xmlns:inkscape="http://www.inkscape.org/namespaces/inkscape"
   xmlns:sodipodi="http://sodipodi.sourceforge.net/DTD/sodipodi-0.dtd"
   xmlns="http://www.w3.org/2000/svg"
   xmlns:svg="http://www.w3.org/2000/svg"><defs
     id="defs1"><inkscape:path-effect
       effect="spiro"
       id="path-effect69"
       is_visible="true"
       lpeversion="1" /><inkscape:path-effect
       effect="spiro"
       id="path-effect68"
       is_visible="true"
       lpeversion="1" /><inkscape:path-effect
       effect="spiro"
       id="path-effect67"
       is_visible="true"
       lpeversion="1" /><inkscape:path-effect
       effect="spiro"
       id="path-effect66"
       is_visible="true"
       lpeversion="1" /><inkscape:path-effect
       effect="spiro"
       id="path-effect65"
       is_visible="true"
       lpeversion="1" /><inkscape:path-effect
       effect="bspline"
       id="path-effect64"
       is_visible="true"
       lpeversion="1.3"
       weight="33.333333"
       steps="2"
       helper_size="0"
       apply_no_weight="true"
       apply_with_weight="true"
       only_selected="false"
       uniform="false" /></defs><sodipodi:namedview
     id="namedview1"
     pagecolor="#ffffff"
     bordercolor="#999999"
     borderopacity="1"
     inkscape:showpageshadow="2"
     inkscape:pageopacity="0"
     inkscape:pagecheckerboard="0"
     inkscape:deskcolor="#d1d1d1"
     inkscape:zoom="0.49497475"
     inkscape:cx="433.35544"
     inkscape:cy="986.91903"
     inkscape:window-width="1920"
     inkscape:window-height="1001"
     inkscape:window-x="-9"
     inkscape:window-y="-9"
     inkscape:window-maximized="1"
     inkscape:current-layer="svg1"
     showguides="false"><sodipodi:guide
       position="866,410"
       orientation="0,-1"
       id="guide1"
       inkscape:locked="false" /><sodipodi:guide
       position="1230,1230"
       orientation="0,1"
       id="guide2"
       inkscape:locked="false"
       inkscape:label=""
       inkscape:color="rgb(0,134,229)" /><sodipodi:guide
       position="208,219.91946"
       orientation="-1,0"
       id="guide4"
       inkscape:locked="false"
       inkscape:label=""
       inkscape:color="rgb(0,134,229)" /><sodipodi:guide
       position="986,96.214765"
       orientation="-1,0"
       id="guide5"
       inkscape:locked="false"
       inkscape:label=""
       inkscape:color="rgb(0,134,229)" /><sodipodi:guide
       position="0,0"
       orientation="0,-1"
       id="guide7"
       inkscape:locked="false" /><sodipodi:guide
       position="1239,481.27157"
       orientation="1,0"
       id="guide8"
       inkscape:locked="false" /><sodipodi:guide
       position="250,248.01176"
       orientation="-1,0"
       id="guide9"
       inkscape:locked="false"
       inkscape:label=""
       inkscape:color="rgb(0,134,229)" /><sodipodi:guide
       position="1028,452"
       orientation="-1,0"
       id="guide10"
       inkscape:locked="false"
       inkscape:label=""
       inkscape:color="rgb(0,134,229)" /><sodipodi:guide
       position="124.40523,452"
       orientation="0,1"
       id="guide11"
       inkscape:locked="false"
       inkscape:label=""
       inkscape:color="rgb(0,134,229)" /><sodipodi:guide
       position="427.64299,1188"
       orientation="0,1"
       id="guide12"
       inkscape:locked="false"
       inkscape:label=""
       inkscape:color="rgb(0,134,229)" /><sodipodi:guide
       position="97.19159,84"
       orientation="0,1"
       id="guide13"
       inkscape:locked="false"
       inkscape:label=""
       inkscape:color="rgb(0,134,229)" /><sodipodi:guide
       position="590.92487,1556"
       orientation="0,1"
       id="guide14"
       inkscape:locked="false"
       inkscape:label=""
       inkscape:color="rgb(0,134,229)" /></sodipodi:namedview><g
     inkscape:groupmode="layer"
     id="layer2"
     inkscape:label="letter parts 1"><path
       id="path32-7"
       style="color:#000000;fill:#000000;stroke-linecap:round;stroke-linejoin:round;-inkscape-stroke:none"
       d="m 516,450 c -23.19596,0 -42,18.80404 -42,42 0,55.97042 -3.39932,111.14247 -9.62305,165.00195 H 240.00391 c -23.19596,0 -42,18.80404 -42,42 0,23.19596 18.80404,42 42,42 h 212.21093 c -40.8917,233.57928 -134.87873,434.25255 -242.95898,550.38475 -15.80349,16.98 -14.84946,43.5563 2.13086,59.3594 16.98049,15.803 43.55681,14.8481 59.35937,-2.1328 126.23523,-135.6397 226.35799,-354.59454 267.24414,-607.61135 h 162.01368 c 23.19596,0 42,-18.80404 42,-42 0,-23.19596 -18.80404,-42 -42,-42 H 549.26953 C 554.98307,603.08923 558,547.94648 558,492 c 0,-23.19596 -18.80404,-42 -42,-42 z m 242.40234,223.80078 c -13.91802,18.557 -10.157,44.88327 8.40039,58.80078 l 184,138 c 18.557,13.91802 44.88327,10.157 58.80077,-8.40039 13.918,-18.55701 10.157,-44.88328 -8.4004,-58.80078 l -183.99998,-138 c -18.44844,-13.8341 -44.85341,-10.19493 -58.80078,8.40039 z M 792.00391,864 c -23.19596,0 -42,18.80404 -42,42 v 252.957 C 719.88147,1146.8456 687.76933,1140 654,1140 c -55.46589,0 -101.75652,34.9113 -132.14062,80.752 C 491.47528,1266.5925 474,1325.649 474,1389 c 0,63.3517 17.47507,122.4096 47.85938,168.25 30.38431,45.8404 76.67536,80.75 132.14062,80.75 55.4665,0 101.75985,-34.9094 132.14453,-80.75 30.38469,-45.8406 47.85938,-104.899 47.85938,-168.25 v -59.9395 c 4.70958,5.8959 9.35046,11.9127 13.83007,18.1856 C 900.95684,1421.6352 934,1519.1558 934,1596 c 0,23.196 18.80404,42 42,42 23.19596,0 42,-18.804 42,-42 0,-99.5861 -38.60692,-209.0676 -101.80859,-297.5703 -23.68042,-33.1603 -51.26723,-63.7096 -82.1875,-88.9531 V 906 c 0,-23.19596 -18.80404,-42 -42,-42 z M 654,1224 c 32.70255,0 65.21803,10.5496 96.00391,29.1289 V 1389 c 0,47.4341 -14.01469,91.8772 -33.875,121.8398 C 696.26859,1540.8026 673.55873,1554 654,1554 c -19.55629,0 -42.26488,-13.1955 -62.125,-43.1582 C 572.01488,1480.8791 558,1436.4349 558,1389 c 0,-47.4342 14.01495,-91.877 33.875,-121.8398 C 611.73505,1237.1972 634.44324,1224 654,1224 Z"
       sodipodi:nodetypes="sscsssccsccssscsscccccccsscssssssscssssscssscsssssss" /></g></svg>
