<?xml version="1.0" encoding="UTF-8" standalone="no"?>
<svg
   version="1.1"
   viewBox="-10 0 1239 2048"
   id="svg1"
   sodipodi:docname="arcomp_hiragana_ya_small_final.svg"
   inkscape:version="1.3 (0e150ed6c4, 2023-07-21)"
   xml:space="preserve"
   xmlns:inkscape="http://www.inkscape.org/namespaces/inkscape"
   xmlns:sodipodi="http://sodipodi.sourceforge.net/DTD/sodipodi-0.dtd"
   xmlns="http://www.w3.org/2000/svg"
   xmlns:svg="http://www.w3.org/2000/svg"><defs
     id="defs1"><inkscape:path-effect
       effect="spiro"
       id="path-effect69"
       is_visible="true"
       lpeversion="1" /><inkscape:path-effect
       effect="spiro"
       id="path-effect68"
       is_visible="true"
       lpeversion="1" /><inkscape:path-effect
       effect="spiro"
       id="path-effect67"
       is_visible="true"
       lpeversion="1" /><inkscape:path-effect
       effect="spiro"
       id="path-effect66"
       is_visible="true"
       lpeversion="1" /><inkscape:path-effect
       effect="spiro"
       id="path-effect65"
       is_visible="true"
       lpeversion="1" /><inkscape:path-effect
       effect="bspline"
       id="path-effect64"
       is_visible="true"
       lpeversion="1.3"
       weight="33.333333"
       steps="2"
       helper_size="0"
       apply_no_weight="true"
       apply_with_weight="true"
       only_selected="false"
       uniform="false" /></defs><sodipodi:namedview
     id="namedview1"
     pagecolor="#ffffff"
     bordercolor="#999999"
     borderopacity="1"
     inkscape:showpageshadow="2"
     inkscape:pageopacity="0"
     inkscape:pagecheckerboard="0"
     inkscape:deskcolor="#d1d1d1"
     inkscape:zoom="0.49497475"
     inkscape:cx="459.6194"
     inkscape:cy="1257.6399"
     inkscape:window-width="1920"
     inkscape:window-height="1001"
     inkscape:window-x="-9"
     inkscape:window-y="-9"
     inkscape:window-maximized="1"
     inkscape:current-layer="svg1"
     showguides="true"><sodipodi:guide
       position="866,410"
       orientation="0,-1"
       id="guide1"
       inkscape:locked="false" /><sodipodi:guide
       position="1230,1230"
       orientation="0,1"
       id="guide2"
       inkscape:locked="false"
       inkscape:label=""
       inkscape:color="rgb(0,134,229)" /><sodipodi:guide
       position="208,219.91946"
       orientation="-1,0"
       id="guide4"
       inkscape:locked="false"
       inkscape:label=""
       inkscape:color="rgb(0,134,229)" /><sodipodi:guide
       position="986,96.214765"
       orientation="-1,0"
       id="guide5"
       inkscape:locked="false"
       inkscape:label=""
       inkscape:color="rgb(0,134,229)" /><sodipodi:guide
       position="0,0"
       orientation="0,-1"
       id="guide7"
       inkscape:locked="false" /><sodipodi:guide
       position="1239,481.27157"
       orientation="1,0"
       id="guide8"
       inkscape:locked="false" /><sodipodi:guide
       position="250,248.01176"
       orientation="-1,0"
       id="guide9"
       inkscape:locked="false"
       inkscape:label=""
       inkscape:color="rgb(0,134,229)" /><sodipodi:guide
       position="1028,452"
       orientation="-1,0"
       id="guide10"
       inkscape:locked="false"
       inkscape:label=""
       inkscape:color="rgb(0,134,229)" /><sodipodi:guide
       position="124.40523,452"
       orientation="0,1"
       id="guide11"
       inkscape:locked="false"
       inkscape:label=""
       inkscape:color="rgb(0,134,229)" /><sodipodi:guide
       position="427.64299,1188"
       orientation="0,1"
       id="guide12"
       inkscape:locked="false"
       inkscape:label=""
       inkscape:color="rgb(0,134,229)" /><sodipodi:guide
       position="97.19159,84"
       orientation="0,1"
       id="guide13"
       inkscape:locked="false"
       inkscape:label=""
       inkscape:color="rgb(0,134,229)" /><sodipodi:guide
       position="590.92487,1556"
       orientation="0,1"
       id="guide14"
       inkscape:locked="false"
       inkscape:label=""
       inkscape:color="rgb(0,134,229)" /></sodipodi:namedview><path
     id="path16"
     style="color:#000000;fill:#000000;stroke-linecap:round;stroke-linejoin:round;-inkscape-stroke:none"
     d="m 333.42578,818.02344 c -5.51236,-0.18697 -11.00757,0.71363 -16.17187,2.65039 -21.72027,8.14406 -32.72538,32.35441 -24.58008,54.07422 L 357.32422,1047.1465 225.25,1096.6738 c -21.71949,8.1448 -32.7236,32.3549 -24.57812,54.0742 8.14483,21.7185 32.35355,32.7224 54.07226,24.5782 l 132.07422,-49.5274 181.85547,484.9492 c 8.14482,21.7195 32.35494,32.7237 54.07422,24.5782 21.71949,-8.1448 32.7236,-32.3549 24.57812,-54.0742 L 465.4707,1096.3047 736.33789,994.72852 c 40.17015,-15.06395 99.43504,-7.69705 134.69531,16.73828 35.26153,24.4362 62.96289,77.3393 62.96289,120.2383 0,42.9023 -27.70241,95.809 -62.96484,120.2461 -35.57426,24.653 -95.26142,32.6255 -133.73047,17.1093 -21.51216,-8.6771 -45.98536,1.728 -54.66211,23.2403 -8.6771,21.5121 1.72797,45.9853 23.24024,54.6621 70.23763,28.3296 152.24057,16.1358 213,-25.9707 61.08017,-42.3289 99.11719,-114.9766 99.11719,-189.2871 0,-74.3096 -38.03877,-146.95204 -99.11719,-189.27932 -38.17268,-26.4536 -84.27605,-40.32565 -130.47266,-40.63867 -27.71797,-0.18781 -55.46908,4.506 -81.5625,14.29101 l -33.76563,12.66211 20.24805,-53.99218 c 8.1455,-21.71926 -2.85862,-45.92937 -24.57812,-54.07422 -5.16492,-1.93701 -10.66082,-2.83762 -16.17383,-2.65039 -16.97783,0.57683 -31.93639,11.32418 -37.90039,27.23047 L 568.6875,967.88672 435.97656,1017.6523 371.32617,845.25195 c -5.96462,-15.90552 -20.92305,-26.652 -37.90039,-27.22851 z"
     sodipodi:nodetypes="ccccccccscccssssccssssssccscccccc" /></svg>
