<?xml version="1.0" encoding="UTF-8" standalone="no"?>
<svg
   version="1.1"
   viewBox="-10 0 1239 2048"
   id="svg1"
   sodipodi:docname="arcomp_hiragana_ru_final.svg"
   inkscape:version="1.3 (0e150ed6c4, 2023-07-21)"
   xml:space="preserve"
   xmlns:inkscape="http://www.inkscape.org/namespaces/inkscape"
   xmlns:sodipodi="http://sodipodi.sourceforge.net/DTD/sodipodi-0.dtd"
   xmlns="http://www.w3.org/2000/svg"
   xmlns:svg="http://www.w3.org/2000/svg"><defs
     id="defs1"><inkscape:path-effect
       effect="spiro"
       id="path-effect69"
       is_visible="true"
       lpeversion="1" /><inkscape:path-effect
       effect="spiro"
       id="path-effect68"
       is_visible="true"
       lpeversion="1" /><inkscape:path-effect
       effect="spiro"
       id="path-effect67"
       is_visible="true"
       lpeversion="1" /><inkscape:path-effect
       effect="spiro"
       id="path-effect66"
       is_visible="true"
       lpeversion="1" /><inkscape:path-effect
       effect="spiro"
       id="path-effect65"
       is_visible="true"
       lpeversion="1" /><inkscape:path-effect
       effect="bspline"
       id="path-effect64"
       is_visible="true"
       lpeversion="1.3"
       weight="33.333333"
       steps="2"
       helper_size="0"
       apply_no_weight="true"
       apply_with_weight="true"
       only_selected="false"
       uniform="false" /></defs><sodipodi:namedview
     id="namedview1"
     pagecolor="#ffffff"
     bordercolor="#999999"
     borderopacity="1"
     inkscape:showpageshadow="2"
     inkscape:pageopacity="0"
     inkscape:pagecheckerboard="0"
     inkscape:deskcolor="#d1d1d1"
     inkscape:zoom="0.5"
     inkscape:cx="605"
     inkscape:cy="1231"
     inkscape:window-width="1920"
     inkscape:window-height="1001"
     inkscape:window-x="-9"
     inkscape:window-y="-9"
     inkscape:window-maximized="1"
     inkscape:current-layer="svg1"
     showguides="true"><sodipodi:guide
       position="866,410"
       orientation="0,-1"
       id="guide1"
       inkscape:locked="false" /><sodipodi:guide
       position="1230,1230"
       orientation="0,1"
       id="guide2"
       inkscape:locked="false"
       inkscape:label=""
       inkscape:color="rgb(0,134,229)" /><sodipodi:guide
       position="208,219.91946"
       orientation="-1,0"
       id="guide4"
       inkscape:locked="false"
       inkscape:label=""
       inkscape:color="rgb(0,134,229)" /><sodipodi:guide
       position="986,96.214765"
       orientation="-1,0"
       id="guide5"
       inkscape:locked="false"
       inkscape:label=""
       inkscape:color="rgb(0,134,229)" /><sodipodi:guide
       position="0,0"
       orientation="0,-1"
       id="guide7"
       inkscape:locked="false" /><sodipodi:guide
       position="1239,481.27157"
       orientation="1,0"
       id="guide8"
       inkscape:locked="false" /><sodipodi:guide
       position="250,248.01176"
       orientation="-1,0"
       id="guide9"
       inkscape:locked="false"
       inkscape:label=""
       inkscape:color="rgb(0,134,229)" /><sodipodi:guide
       position="986,84"
       orientation="-1,0"
       id="guide10"
       inkscape:locked="false"
       inkscape:label=""
       inkscape:color="rgb(0,134,229)" /><sodipodi:guide
       position="124.40523,452"
       orientation="0,1"
       id="guide11"
       inkscape:locked="false"
       inkscape:label=""
       inkscape:color="rgb(0,134,229)" /><sodipodi:guide
       position="427.64299,1188"
       orientation="0,1"
       id="guide12"
       inkscape:locked="false"
       inkscape:label=""
       inkscape:color="rgb(0,134,229)" /><sodipodi:guide
       position="97.19159,84"
       orientation="0,1"
       id="guide13"
       inkscape:locked="false"
       inkscape:label=""
       inkscape:color="rgb(0,134,229)" /><sodipodi:guide
       position="590.92487,1556"
       orientation="0,1"
       id="guide14"
       inkscape:locked="false"
       inkscape:label=""
       inkscape:color="rgb(0,134,229)" /></sodipodi:namedview><g
     inkscape:groupmode="layer"
     id="layer2"
     inkscape:label="letter parts 1"><path
       id="path9"
       style="color:#000000;fill:#000000;stroke-linecap:round;stroke-linejoin:round;-inkscape-stroke:none"
       d="m 332,450 c -23.19596,0 -42,18.80404 -42,42 0,23.19596 18.80404,42 42,42 h 372.61328 l -497.41016,621.7617 c -14.49114,18.1136 -11.55383,44.5451 6.56055,59.0352 18.11327,14.4898 44.54323,11.5525 59.03321,-6.5606 L 545.24609,867.67383 c 27.85747,-34.82194 66.22047,-59.68011 106.37305,-69.29688 43.32963,-10.37769 88.75229,-4.59499 134.8125,27.76563 C 866.91117,882.68523 934,1024.8169 934,1182 c 0,74.4481 -15.6532,145.3488 -41.33203,204.6035 -17.6418,-48.3589 -42.96818,-93.6924 -74.31641,-132.3965 C 764.84837,1188.1495 691.56771,1139.5909 607.79492,1140 552.15864,1140.2717 505.843,1175.3172 475.56055,1221.1992 445.27809,1267.0813 428,1326.0102 428,1389 c 0,63.3603 17.47715,122.4195 47.86328,168.2578 C 506.24941,1603.0962 552.54044,1638 608,1638 h 92 c 82.60104,0 155.55296,-46.5878 209.72461,-115.709 6.85435,-8.7459 13.36447,-17.7541 19.54492,-26.9883 C 984.77813,1411.5634 1018,1300.7554 1018,1182 c 0,-179.8745 -69.48837,-344.64354 -183.2793,-424.58984 -44.39102,-31.1879 -92.90432,-46.07729 -139.94922,-47.29297 -8.07284,-0.20861 -16.07902,0.11393 -24.0371,0.69726 l 154.0625,-192.57812 c 10.08164,-12.6081 12.04563,-29.87837 5.05243,-44.42824 C 822.85611,459.25822 808.14322,450.00347 792,450 Z m 276.20508,774 c 50.41677,-0.2462 102.30018,30.5157 144.87304,83.0781 39.06101,48.2266 68.19406,113.3378 78.87696,177.5684 C 792.20927,1529.6991 746.06098,1554 700,1554 h -92 c -19.55249,0 -42.26248,-13.194 -62.12305,-43.1543 C 526.01638,1480.8854 512,1436.4436 512,1389 c 0,-47.1505 13.87417,-91.539 33.66797,-121.5293 19.7938,-29.9903 42.47958,-43.3728 62.53711,-43.4707 z"
       sodipodi:nodetypes="sssccccsssscssssssssssssccscssscssssss" /></g></svg>
