<?xml version="1.0" encoding="UTF-8" standalone="no"?>
<svg
   version="1.1"
   viewBox="-10 0 1239 2048"
   id="svg1"
   sodipodi:docname="arcomp_superscript_8_final.svg"
   inkscape:version="1.3 (0e150ed6c4, 2023-07-21)"
   xml:space="preserve"
   xmlns:inkscape="http://www.inkscape.org/namespaces/inkscape"
   xmlns:sodipodi="http://sodipodi.sourceforge.net/DTD/sodipodi-0.dtd"
   xmlns="http://www.w3.org/2000/svg"
   xmlns:svg="http://www.w3.org/2000/svg"><defs
     id="defs1"><inkscape:path-effect
       effect="spiro"
       id="path-effect69"
       is_visible="true"
       lpeversion="1" /><inkscape:path-effect
       effect="spiro"
       id="path-effect68"
       is_visible="true"
       lpeversion="1" /><inkscape:path-effect
       effect="spiro"
       id="path-effect67"
       is_visible="true"
       lpeversion="1" /><inkscape:path-effect
       effect="spiro"
       id="path-effect66"
       is_visible="true"
       lpeversion="1" /><inkscape:path-effect
       effect="spiro"
       id="path-effect65"
       is_visible="true"
       lpeversion="1" /><inkscape:path-effect
       effect="bspline"
       id="path-effect64"
       is_visible="true"
       lpeversion="1.3"
       weight="33.333333"
       steps="2"
       helper_size="0"
       apply_no_weight="true"
       apply_with_weight="true"
       only_selected="false"
       uniform="false" /></defs><sodipodi:namedview
     id="namedview1"
     pagecolor="#ffffff"
     bordercolor="#999999"
     borderopacity="1"
     inkscape:showpageshadow="2"
     inkscape:pageopacity="0"
     inkscape:pagecheckerboard="0"
     inkscape:deskcolor="#d1d1d1"
     inkscape:zoom="0.70710678"
     inkscape:cx="774.28193"
     inkscape:cy="1013.284"
     inkscape:window-width="1920"
     inkscape:window-height="1001"
     inkscape:window-x="-9"
     inkscape:window-y="-9"
     inkscape:window-maximized="1"
     inkscape:current-layer="layer2"
     showguides="false"><sodipodi:guide
       position="866,410"
       orientation="0,-1"
       id="guide1"
       inkscape:locked="false" /><sodipodi:guide
       position="1230,1230"
       orientation="0,1"
       id="guide2"
       inkscape:locked="false"
       inkscape:label=""
       inkscape:color="rgb(0,134,229)" /><sodipodi:guide
       position="208,219.91946"
       orientation="-1,0"
       id="guide4"
       inkscape:locked="false"
       inkscape:label=""
       inkscape:color="rgb(0,134,229)" /><sodipodi:guide
       position="986,96.214765"
       orientation="-1,0"
       id="guide5"
       inkscape:locked="false"
       inkscape:label=""
       inkscape:color="rgb(0,134,229)" /><sodipodi:guide
       position="0,0"
       orientation="0,-1"
       id="guide7"
       inkscape:locked="false" /><sodipodi:guide
       position="1239,481.27157"
       orientation="1,0"
       id="guide8"
       inkscape:locked="false" /><sodipodi:guide
       position="250,248.01176"
       orientation="-1,0"
       id="guide9"
       inkscape:locked="false"
       inkscape:label=""
       inkscape:color="rgb(0,134,229)" /><sodipodi:guide
       position="1028,452"
       orientation="-1,0"
       id="guide10"
       inkscape:locked="false"
       inkscape:label=""
       inkscape:color="rgb(0,134,229)" /><sodipodi:guide
       position="124.40523,452"
       orientation="0,1"
       id="guide11"
       inkscape:locked="false"
       inkscape:label=""
       inkscape:color="rgb(0,134,229)" /><sodipodi:guide
       position="427.64299,1188"
       orientation="0,1"
       id="guide12"
       inkscape:locked="false"
       inkscape:label=""
       inkscape:color="rgb(0,134,229)" /><sodipodi:guide
       position="97.19159,84"
       orientation="0,1"
       id="guide13"
       inkscape:locked="false"
       inkscape:label=""
       inkscape:color="rgb(0,134,229)" /><sodipodi:guide
       position="590.92487,1556"
       orientation="0,1"
       id="guide14"
       inkscape:locked="false"
       inkscape:label=""
       inkscape:color="rgb(0,134,229)" /></sodipodi:namedview><g
     inkscape:groupmode="layer"
     id="layer2"
     inkscape:label="letter parts 1"
     style="display:inline"><path
       id="path20"
       style="color:#000000;fill:#000000;stroke-linecap:round;stroke-linejoin:round;-inkscape-stroke:none"
       d="m 608,450 c -66.58121,0 -121.77762,11.83486 -163.19531,42.89844 -41.4177,31.06358 -62.79883,81.76706 -62.79883,137.09961 0,81.69812 44.24921,123.41088 64.06445,137.99218 -19.8329,14.59293 -64.07422,56.30213 -64.07422,137.99805 0,55.33224 21.38117,106.03422 62.79883,137.09762 41.41767,31.0635 96.61409,42.9004 163.19531,42.9004 66.58125,0 121.77766,-11.8369 163.19532,-42.9004 41.41765,-31.0634 62.79883,-81.76538 62.79883,-137.09762 0,-81.70121 -44.25185,-123.41235 -64.06446,-137.99219 19.81548,-14.57963 64.07422,-56.28668 64.07422,-137.99804 0,-55.33255 -21.38114,-106.03603 -62.79883,-137.09961 C 729.77762,461.83486 674.58121,450 608,450 Z m 0,84 c 56.08118,0 92.88122,11.16418 112.79492,26.09961 19.9137,14.93542 29.19922,33.23224 29.19922,69.89844 0,36.66575 -9.2855,54.96111 -29.19922,69.89648 -19.90091,14.92578 -56.67103,26.08332 -112.79613,26.08291 -56.1251,-4e-4 -92.89352,-11.15768 -112.79371,-26.08291 -19.91372,-14.93537 -29.19922,-33.23073 -29.19922,-69.89648 0,-36.6662 9.28552,-54.96302 29.19922,-69.89844 C 515.11878,545.16418 551.91882,534 608,534 Z m -0.009,276.00693 c 56.12511,4.1e-4 92.89353,11.15764 112.7937,26.08291 19.91368,14.93542 29.19922,33.23222 29.19922,69.89844 0,36.66573 -9.28551,54.96304 -29.19922,69.89844 -19.91372,14.93539 -56.71374,26.09958 -112.79493,26.09958 -56.08116,0 -92.88119,-11.16419 -112.79492,-26.09958 -19.91372,-14.93541 -29.19922,-33.23271 -29.19922,-69.89844 0,-36.66621 9.28553,-54.96301 29.19922,-69.89844 19.9009,-14.92581 56.67103,-26.08332 112.79615,-26.08291 z"
       sodipodi:nodetypes="ssscssssscssssssscsssscsssssssc" /></g></svg>
