<?xml version="1.0" encoding="UTF-8" standalone="no"?>
<svg
   version="1.1"
   viewBox="-10 0 1239 2048"
   id="svg1"
   sodipodi:docname="arcomp_superscript_3_final.svg"
   inkscape:version="1.3 (0e150ed6c4, 2023-07-21)"
   xml:space="preserve"
   xmlns:inkscape="http://www.inkscape.org/namespaces/inkscape"
   xmlns:sodipodi="http://sodipodi.sourceforge.net/DTD/sodipodi-0.dtd"
   xmlns="http://www.w3.org/2000/svg"
   xmlns:svg="http://www.w3.org/2000/svg"><defs
     id="defs1"><inkscape:path-effect
       effect="spiro"
       id="path-effect69"
       is_visible="true"
       lpeversion="1" /><inkscape:path-effect
       effect="spiro"
       id="path-effect68"
       is_visible="true"
       lpeversion="1" /><inkscape:path-effect
       effect="spiro"
       id="path-effect67"
       is_visible="true"
       lpeversion="1" /><inkscape:path-effect
       effect="spiro"
       id="path-effect66"
       is_visible="true"
       lpeversion="1" /><inkscape:path-effect
       effect="spiro"
       id="path-effect65"
       is_visible="true"
       lpeversion="1" /><inkscape:path-effect
       effect="bspline"
       id="path-effect64"
       is_visible="true"
       lpeversion="1.3"
       weight="33.333333"
       steps="2"
       helper_size="0"
       apply_no_weight="true"
       apply_with_weight="true"
       only_selected="false"
       uniform="false" /></defs><sodipodi:namedview
     id="namedview1"
     pagecolor="#ffffff"
     bordercolor="#999999"
     borderopacity="1"
     inkscape:showpageshadow="2"
     inkscape:pageopacity="0"
     inkscape:pagecheckerboard="0"
     inkscape:deskcolor="#d1d1d1"
     inkscape:zoom="0.70710678"
     inkscape:cx="655.48799"
     inkscape:cy="863.37738"
     inkscape:window-width="1920"
     inkscape:window-height="1001"
     inkscape:window-x="-9"
     inkscape:window-y="-9"
     inkscape:window-maximized="1"
     inkscape:current-layer="layer2"
     showguides="false"><sodipodi:guide
       position="866,410"
       orientation="0,-1"
       id="guide1"
       inkscape:locked="false" /><sodipodi:guide
       position="1230,1230"
       orientation="0,1"
       id="guide2"
       inkscape:locked="false"
       inkscape:label=""
       inkscape:color="rgb(0,134,229)" /><sodipodi:guide
       position="208,219.91946"
       orientation="-1,0"
       id="guide4"
       inkscape:locked="false"
       inkscape:label=""
       inkscape:color="rgb(0,134,229)" /><sodipodi:guide
       position="986,96.214765"
       orientation="-1,0"
       id="guide5"
       inkscape:locked="false"
       inkscape:label=""
       inkscape:color="rgb(0,134,229)" /><sodipodi:guide
       position="0,0"
       orientation="0,-1"
       id="guide7"
       inkscape:locked="false" /><sodipodi:guide
       position="1239,481.27157"
       orientation="1,0"
       id="guide8"
       inkscape:locked="false" /><sodipodi:guide
       position="250,248.01176"
       orientation="-1,0"
       id="guide9"
       inkscape:locked="false"
       inkscape:label=""
       inkscape:color="rgb(0,134,229)" /><sodipodi:guide
       position="1028,452"
       orientation="-1,0"
       id="guide10"
       inkscape:locked="false"
       inkscape:label=""
       inkscape:color="rgb(0,134,229)" /><sodipodi:guide
       position="124.40523,452"
       orientation="0,1"
       id="guide11"
       inkscape:locked="false"
       inkscape:label=""
       inkscape:color="rgb(0,134,229)" /><sodipodi:guide
       position="427.64299,1188"
       orientation="0,1"
       id="guide12"
       inkscape:locked="false"
       inkscape:label=""
       inkscape:color="rgb(0,134,229)" /><sodipodi:guide
       position="97.19159,84"
       orientation="0,1"
       id="guide13"
       inkscape:locked="false"
       inkscape:label=""
       inkscape:color="rgb(0,134,229)" /><sodipodi:guide
       position="590.92487,1556"
       orientation="0,1"
       id="guide14"
       inkscape:locked="false"
       inkscape:label=""
       inkscape:color="rgb(0,134,229)" /></sodipodi:namedview><g
     inkscape:groupmode="layer"
     id="layer2"
     inkscape:label="letter parts 1"
     style="display:inline"><path
       style="color:#000000;fill:#000000;stroke-linecap:round;stroke-linejoin:round;-inkscape-stroke:none"
       d="m 608,450 c -66.58128,0 -121.77758,11.83483 -163.19531,42.89844 -41.41773,31.0636 -62.79883,81.76701 -62.79883,137.09961 0,23.19596 18.80404,42 42,42 23.19596,0 42,-18.80404 42,-42 0,-36.66623 9.2855,-54.96301 29.19922,-69.89844 C 515.11879,545.16418 551.91876,534 608,534 c 56.08124,0 92.88198,11.16291 112.79492,26.09766 19.91294,14.93474 29.19731,33.22967 29.19531,69.89257 -0.002,36.66367 -9.28818,54.96232 -29.20312,69.89844 -19.91495,14.93612 -56.71595,26.09961 -112.79688,26.09961 -22.96436,0.32477 -41.4102,19.03336 -41.4102,42 0,22.96664 18.44584,41.67523 41.4102,42 56.08139,10e-4 92.88096,11.16573 112.79493,26.10156 19.91396,14.93584 29.19921,33.23223 29.19921,69.89844 0,36.6658 -9.28548,54.96304 -29.19921,69.89844 -19.91374,14.93539 -56.71369,26.09958 -112.79493,26.09958 -56.08123,0 -92.88118,-11.16419 -112.79492,-26.09958 -19.91373,-14.9354 -29.19922,-33.23264 -29.19922,-69.89844 0,-23.19596 -18.80404,-42 -42,-42 -23.19596,0 -42,18.80404 -42,42 0,55.33231 21.38112,106.03422 62.79883,137.09762 41.41771,31.0635 96.61403,42.9004 163.19531,42.9004 66.58129,0 121.77761,-11.8369 163.19532,-42.9004 41.41771,-31.0634 62.79883,-81.76531 62.79882,-137.09762 0,-81.70609 -44.25798,-123.41938 -64.07421,-138 19.81649,-14.58038 64.07577,-56.28737 64.08007,-137.99414 0.003,-55.33106 -21.37759,-106.03262 -62.79492,-137.0957 C 729.77798,461.83536 674.58128,450 608,450 Z"
       id="path20"
       sodipodi:nodetypes="sssssssssscscsssssssssssscsss" /></g></svg>
