<?xml version="1.0" encoding="UTF-8" standalone="no"?>
<svg
   version="1.1"
   viewBox="-10 0 1239 2048"
   id="svg1"
   sodipodi:docname="arcomp_half_final.svg"
   inkscape:version="1.3 (0e150ed6c4, 2023-07-21)"
   xml:space="preserve"
   xmlns:inkscape="http://www.inkscape.org/namespaces/inkscape"
   xmlns:sodipodi="http://sodipodi.sourceforge.net/DTD/sodipodi-0.dtd"
   xmlns="http://www.w3.org/2000/svg"
   xmlns:svg="http://www.w3.org/2000/svg"><defs
     id="defs1"><inkscape:path-effect
       effect="spiro"
       id="path-effect69"
       is_visible="true"
       lpeversion="1" /><inkscape:path-effect
       effect="spiro"
       id="path-effect68"
       is_visible="true"
       lpeversion="1" /><inkscape:path-effect
       effect="spiro"
       id="path-effect67"
       is_visible="true"
       lpeversion="1" /><inkscape:path-effect
       effect="spiro"
       id="path-effect66"
       is_visible="true"
       lpeversion="1" /><inkscape:path-effect
       effect="spiro"
       id="path-effect65"
       is_visible="true"
       lpeversion="1" /><inkscape:path-effect
       effect="bspline"
       id="path-effect64"
       is_visible="true"
       lpeversion="1.3"
       weight="33.333333"
       steps="2"
       helper_size="0"
       apply_no_weight="true"
       apply_with_weight="true"
       only_selected="false"
       uniform="false" /></defs><sodipodi:namedview
     id="namedview1"
     pagecolor="#ffffff"
     bordercolor="#999999"
     borderopacity="1"
     inkscape:showpageshadow="2"
     inkscape:pageopacity="0"
     inkscape:pagecheckerboard="0"
     inkscape:deskcolor="#d1d1d1"
     inkscape:zoom="0.2572239"
     inkscape:cx="569.54272"
     inkscape:cy="1253.7715"
     inkscape:window-width="1920"
     inkscape:window-height="1001"
     inkscape:window-x="-9"
     inkscape:window-y="-9"
     inkscape:window-maximized="1"
     inkscape:current-layer="layer2"
     showguides="false"><sodipodi:guide
       position="866,410"
       orientation="0,-1"
       id="guide1"
       inkscape:locked="false" /><sodipodi:guide
       position="1230,1230"
       orientation="0,1"
       id="guide2"
       inkscape:locked="false"
       inkscape:label=""
       inkscape:color="rgb(0,134,229)" /><sodipodi:guide
       position="208,219.91946"
       orientation="-1,0"
       id="guide4"
       inkscape:locked="false"
       inkscape:label=""
       inkscape:color="rgb(0,134,229)" /><sodipodi:guide
       position="986,96.214765"
       orientation="-1,0"
       id="guide5"
       inkscape:locked="false"
       inkscape:label=""
       inkscape:color="rgb(0,134,229)" /><sodipodi:guide
       position="0,0"
       orientation="0,-1"
       id="guide7"
       inkscape:locked="false" /><sodipodi:guide
       position="1239,481.27157"
       orientation="1,0"
       id="guide8"
       inkscape:locked="false" /><sodipodi:guide
       position="250,248.01176"
       orientation="-1,0"
       id="guide9"
       inkscape:locked="false"
       inkscape:label=""
       inkscape:color="rgb(0,134,229)" /><sodipodi:guide
       position="1028,452"
       orientation="-1,0"
       id="guide10"
       inkscape:locked="false"
       inkscape:label=""
       inkscape:color="rgb(0,134,229)" /><sodipodi:guide
       position="124.40523,452"
       orientation="0,1"
       id="guide11"
       inkscape:locked="false"
       inkscape:label=""
       inkscape:color="rgb(0,134,229)" /><sodipodi:guide
       position="427.64299,1188"
       orientation="0,1"
       id="guide12"
       inkscape:locked="false"
       inkscape:label=""
       inkscape:color="rgb(0,134,229)" /><sodipodi:guide
       position="97.19159,84"
       orientation="0,1"
       id="guide13"
       inkscape:locked="false"
       inkscape:label=""
       inkscape:color="rgb(0,134,229)" /><sodipodi:guide
       position="590.92487,1556"
       orientation="0,1"
       id="guide14"
       inkscape:locked="false"
       inkscape:label=""
       inkscape:color="rgb(0,134,229)" /></sodipodi:namedview><g
     inkscape:groupmode="layer"
     id="layer2"
     inkscape:label="letter parts 1"
     style="display:inline"><path
       id="path24-1"
       style="color:#000000;fill:#000000;stroke-linecap:round;stroke-linejoin:round;-inkscape-stroke:none"
       d="m 378,450.00586 c -11.13831,-0.001 -21.82117,4.42102 -29.69922,12.29492 l -138,138 c -16.403,16.40219 -16.403,42.99625 0,59.39844 16.40219,16.403 42.99625,16.403 59.39844,0 L 336,593.39844 V 864 h -96 c -23.19596,0 -42,18.80404 -42,42 0,23.19596 18.80404,42 42,42 h 276 c 23.19596,0 42,-18.80404 42,-42 0,-23.19596 -18.80404,-42 -42,-42 H 420 V 492 c -0.006,-23.19271 -18.80729,-41.99182 -42,-41.99414 z m 606.15039,0.79297 c -16.66414,-3.29613 -33.67299,3.77027 -43.0957,17.90429 l -736,1103.99998 c -12.86596,19.2999 -7.65086,45.3754 11.64843,58.2422 19.29987,12.866 45.37535,7.6509 58.24219,-11.6484 L 1010.9453,515.29688 c 12.866,-19.29987 7.6509,-45.37536 -11.64842,-58.24219 -4.58909,-3.05959 -9.73587,-5.18533 -15.14649,-6.25586 z M 838.00781,1140.0117 c -51.24841,0 -94.946,8.9597 -128.69726,34.2735 -33.75128,25.3136 -51.29883,67.3918 -51.29883,111.2246 0,23.196 18.80404,42 42,42 23.19596,0 42,-18.804 42,-42 0,-25.1664 5.45194,-34.8399 17.69922,-44.0254 12.24727,-9.1856 37.54848,-17.4727 78.29687,-17.4727 40.7484,0 66.04972,8.2875 78.29688,17.4727 12.24716,9.1852 17.69799,18.8562 17.69726,44.0195 0,22.0613 -4.92298,32.2075 -13.62695,40.5684 l -249.4707,239.6386 c -12.35715,11.8763 -16.25943,30.0691 -9.86005,45.9685 6.39939,15.8995 21.81677,26.3163 38.95575,26.3206 h 276 c 23.19596,0 42,-18.804 42,-42 0,-23.196 -18.80404,-42 -42,-42 H 804.35156 l 174.21485,-167.3477 c 26.66669,-25.6155 39.43509,-62.7116 39.43559,-101.1464 0,-43.8315 -17.5477,-85.9079 -51.29888,-111.2207 -33.75114,-25.313 -77.44689,-34.2735 -128.69531,-34.2735 z"
       sodipodi:nodetypes="cccccccsssssscccccccccscsssssssscccscssscscss" /></g></svg>
