<?xml version="1.0" encoding="UTF-8" standalone="no"?>
<svg
   version="1.1"
   viewBox="-10 0 1239 2048"
   id="svg1"
   sodipodi:docname="arcomp_fraction_3_final.svg"
   inkscape:version="1.3 (0e150ed6c4, 2023-07-21)"
   xml:space="preserve"
   xmlns:inkscape="http://www.inkscape.org/namespaces/inkscape"
   xmlns:sodipodi="http://sodipodi.sourceforge.net/DTD/sodipodi-0.dtd"
   xmlns="http://www.w3.org/2000/svg"
   xmlns:svg="http://www.w3.org/2000/svg"><defs
     id="defs1"><inkscape:path-effect
       effect="spiro"
       id="path-effect69"
       is_visible="true"
       lpeversion="1" /><inkscape:path-effect
       effect="spiro"
       id="path-effect68"
       is_visible="true"
       lpeversion="1" /><inkscape:path-effect
       effect="spiro"
       id="path-effect67"
       is_visible="true"
       lpeversion="1" /><inkscape:path-effect
       effect="spiro"
       id="path-effect66"
       is_visible="true"
       lpeversion="1" /><inkscape:path-effect
       effect="spiro"
       id="path-effect65"
       is_visible="true"
       lpeversion="1" /><inkscape:path-effect
       effect="bspline"
       id="path-effect64"
       is_visible="true"
       lpeversion="1.3"
       weight="33.333333"
       steps="2"
       helper_size="0"
       apply_no_weight="true"
       apply_with_weight="true"
       only_selected="false"
       uniform="false" /></defs><sodipodi:namedview
     id="namedview1"
     pagecolor="#ffffff"
     bordercolor="#999999"
     borderopacity="1"
     inkscape:showpageshadow="2"
     inkscape:pageopacity="0"
     inkscape:pagecheckerboard="0"
     inkscape:deskcolor="#d1d1d1"
     inkscape:zoom="0.5144478"
     inkscape:cx="426.67108"
     inkscape:cy="1398.587"
     inkscape:window-width="1920"
     inkscape:window-height="1001"
     inkscape:window-x="-9"
     inkscape:window-y="-9"
     inkscape:window-maximized="1"
     inkscape:current-layer="layer2"
     showguides="false"><sodipodi:guide
       position="866,410"
       orientation="0,-1"
       id="guide1"
       inkscape:locked="false" /><sodipodi:guide
       position="1230,1230"
       orientation="0,1"
       id="guide2"
       inkscape:locked="false"
       inkscape:label=""
       inkscape:color="rgb(0,134,229)" /><sodipodi:guide
       position="208,219.91946"
       orientation="-1,0"
       id="guide4"
       inkscape:locked="false"
       inkscape:label=""
       inkscape:color="rgb(0,134,229)" /><sodipodi:guide
       position="986,96.214765"
       orientation="-1,0"
       id="guide5"
       inkscape:locked="false"
       inkscape:label=""
       inkscape:color="rgb(0,134,229)" /><sodipodi:guide
       position="0,0"
       orientation="0,-1"
       id="guide7"
       inkscape:locked="false" /><sodipodi:guide
       position="1239,481.27157"
       orientation="1,0"
       id="guide8"
       inkscape:locked="false" /><sodipodi:guide
       position="250,248.01176"
       orientation="-1,0"
       id="guide9"
       inkscape:locked="false"
       inkscape:label=""
       inkscape:color="rgb(0,134,229)" /><sodipodi:guide
       position="1028,452"
       orientation="-1,0"
       id="guide10"
       inkscape:locked="false"
       inkscape:label=""
       inkscape:color="rgb(0,134,229)" /><sodipodi:guide
       position="124.40523,452"
       orientation="0,1"
       id="guide11"
       inkscape:locked="false"
       inkscape:label=""
       inkscape:color="rgb(0,134,229)" /><sodipodi:guide
       position="427.64299,1188"
       orientation="0,1"
       id="guide12"
       inkscape:locked="false"
       inkscape:label=""
       inkscape:color="rgb(0,134,229)" /><sodipodi:guide
       position="97.19159,84"
       orientation="0,1"
       id="guide13"
       inkscape:locked="false"
       inkscape:label=""
       inkscape:color="rgb(0,134,229)" /><sodipodi:guide
       position="590.92487,1556"
       orientation="0,1"
       id="guide14"
       inkscape:locked="false"
       inkscape:label=""
       inkscape:color="rgb(0,134,229)" /></sodipodi:namedview><g
     inkscape:groupmode="layer"
     id="layer2"
     inkscape:label="letter parts 1"
     style="display:inline"><path
       style="color:#000000;fill:#000000;stroke-linecap:round;stroke-linejoin:round;-inkscape-stroke:none"
       d="m 838.50586,1139.4922 c -51.25056,0 -94.95078,8.9609 -128.70313,34.2754 -33.75234,25.3145 -51.29882,67.3922 -51.29882,111.2265 a 42,42 0 0 0 42,42 42,42 0 0 0 42,-42 c 0,-25.1679 5.45088,-34.841 17.69921,-44.0273 12.24834,-9.1863 37.55222,-17.4746 78.30274,-17.4746 40.75052,0 66.05305,8.2888 78.30078,17.4746 12.24773,9.1858 17.69873,18.8564 17.69727,44.0215 -0.001,25.166 -5.45372,34.8403 -17.70313,44.0273 -12.2494,9.187 -37.55253,17.4766 -78.30273,17.4766 a 42.0042,42.0042 0 0 0 -0.002,84 c 6.9e-4,0 0.001,0 0.002,0 40.74947,0 66.05239,8.29 78.30078,17.4766 12.24859,9.1866 17.70117,18.8613 17.70117,44.0292 0,25.1677 -5.45282,34.8411 -17.70117,44.0274 -12.24835,9.1863 -37.55026,17.4746 -78.30078,17.4746 -40.75052,0 -66.05244,-8.2883 -78.30078,-17.4746 -12.24835,-9.1863 -17.70118,-18.8597 -17.70118,-44.0274 a 42,42 0 0 0 -42,-42 42,42 0 0 0 -42,42 c 0,43.8342 17.54846,85.9122 51.30078,111.2266 33.75233,25.3144 77.45062,34.2754 128.70118,34.2754 51.25056,0 94.94884,-8.961 128.70117,-34.2754 33.75228,-25.3144 51.30078,-67.3924 51.30078,-111.2266 0,-39.6585 -14.4119,-77.8363 -42.14453,-103.5058 27.73233,-25.6687 42.14633,-63.8415 42.14843,-103.4981 0,-43.8334 -17.5447,-85.9124 -51.29687,-111.2265 -33.75213,-25.3141 -77.45061,-34.2754 -128.70117,-34.2754 z"
       id="path20" /></g></svg>
