<?xml version="1.0" encoding="UTF-8" standalone="no"?>
<svg
   version="1.1"
   viewBox="-10 0 1239 2048"
   id="svg1"
   sodipodi:docname="arcomp_fraction_numerator_3_final.svg"
   inkscape:version="1.3 (0e150ed6c4, 2023-07-21)"
   xml:space="preserve"
   xmlns:inkscape="http://www.inkscape.org/namespaces/inkscape"
   xmlns:sodipodi="http://sodipodi.sourceforge.net/DTD/sodipodi-0.dtd"
   xmlns="http://www.w3.org/2000/svg"
   xmlns:svg="http://www.w3.org/2000/svg"><defs
     id="defs1"><inkscape:path-effect
       effect="spiro"
       id="path-effect69"
       is_visible="true"
       lpeversion="1" /><inkscape:path-effect
       effect="spiro"
       id="path-effect68"
       is_visible="true"
       lpeversion="1" /><inkscape:path-effect
       effect="spiro"
       id="path-effect67"
       is_visible="true"
       lpeversion="1" /><inkscape:path-effect
       effect="spiro"
       id="path-effect66"
       is_visible="true"
       lpeversion="1" /><inkscape:path-effect
       effect="spiro"
       id="path-effect65"
       is_visible="true"
       lpeversion="1" /><inkscape:path-effect
       effect="bspline"
       id="path-effect64"
       is_visible="true"
       lpeversion="1.3"
       weight="33.333333"
       steps="2"
       helper_size="0"
       apply_no_weight="true"
       apply_with_weight="true"
       only_selected="false"
       uniform="false" /></defs><sodipodi:namedview
     id="namedview1"
     pagecolor="#ffffff"
     bordercolor="#999999"
     borderopacity="1"
     inkscape:showpageshadow="2"
     inkscape:pageopacity="0"
     inkscape:pagecheckerboard="0"
     inkscape:deskcolor="#d1d1d1"
     inkscape:zoom="0.5144478"
     inkscape:cx="358.63697"
     inkscape:cy="862.08941"
     inkscape:window-width="1920"
     inkscape:window-height="1001"
     inkscape:window-x="-9"
     inkscape:window-y="-9"
     inkscape:window-maximized="1"
     inkscape:current-layer="layer2"
     showguides="false"><sodipodi:guide
       position="866,410"
       orientation="0,-1"
       id="guide1"
       inkscape:locked="false" /><sodipodi:guide
       position="1230,1230"
       orientation="0,1"
       id="guide2"
       inkscape:locked="false"
       inkscape:label=""
       inkscape:color="rgb(0,134,229)" /><sodipodi:guide
       position="208,219.91946"
       orientation="-1,0"
       id="guide4"
       inkscape:locked="false"
       inkscape:label=""
       inkscape:color="rgb(0,134,229)" /><sodipodi:guide
       position="986,96.214765"
       orientation="-1,0"
       id="guide5"
       inkscape:locked="false"
       inkscape:label=""
       inkscape:color="rgb(0,134,229)" /><sodipodi:guide
       position="0,0"
       orientation="0,-1"
       id="guide7"
       inkscape:locked="false" /><sodipodi:guide
       position="1239,481.27157"
       orientation="1,0"
       id="guide8"
       inkscape:locked="false" /><sodipodi:guide
       position="250,248.01176"
       orientation="-1,0"
       id="guide9"
       inkscape:locked="false"
       inkscape:label=""
       inkscape:color="rgb(0,134,229)" /><sodipodi:guide
       position="1028,452"
       orientation="-1,0"
       id="guide10"
       inkscape:locked="false"
       inkscape:label=""
       inkscape:color="rgb(0,134,229)" /><sodipodi:guide
       position="124.40523,452"
       orientation="0,1"
       id="guide11"
       inkscape:locked="false"
       inkscape:label=""
       inkscape:color="rgb(0,134,229)" /><sodipodi:guide
       position="427.64299,1188"
       orientation="0,1"
       id="guide12"
       inkscape:locked="false"
       inkscape:label=""
       inkscape:color="rgb(0,134,229)" /><sodipodi:guide
       position="97.19159,84"
       orientation="0,1"
       id="guide13"
       inkscape:locked="false"
       inkscape:label=""
       inkscape:color="rgb(0,134,229)" /><sodipodi:guide
       position="590.92487,1556"
       orientation="0,1"
       id="guide14"
       inkscape:locked="false"
       inkscape:label=""
       inkscape:color="rgb(0,134,229)" /></sodipodi:namedview><g
     inkscape:groupmode="layer"
     id="layer2"
     inkscape:label="letter parts 1"
     style="display:inline"><path
       style="color:#000000;fill:#000000;stroke-linecap:round;stroke-linejoin:round;-inkscape-stroke:none"
       d="m 378.00977,450 c -51.25056,0 -94.94883,8.96089 -128.70118,34.27539 -33.75234,25.3145 -51.30078,67.39226 -51.30078,111.22656 a 42,42 0 0 0 42,42 42,42 0 0 0 42,-42 c 0,-25.16792 5.45284,-34.841 17.70117,-44.02734 C 311.95731,542.28827 337.25925,534 378.00977,534 c 40.75052,0 66.05305,8.28881 78.30078,17.47461 12.24773,9.1858 17.69872,18.85639 17.69726,44.02148 -0.001,25.16601 -5.45372,34.84035 -17.70312,44.02735 -12.2492,9.18684 -37.55178,17.47628 -78.30078,17.47656 -6.9e-4,0 -0.001,0 -0.002,0 a 42.0042,42.0042 0 0 0 0,84 c 40.75068,9.3e-4 66.05219,8.29184 78.30078,17.47852 12.2486,9.18667 17.70118,18.85942 17.70118,44.02734 0,25.16761 -5.45283,34.84103 -17.70118,44.02734 -12.24834,9.18632 -37.55026,17.47461 -78.30078,17.47461 -40.75052,0 -66.05243,-8.28829 -78.30078,-17.47461 C 287.45282,837.34689 282,827.67347 282,802.50586 a 42,42 0 0 0 -42,-42 42,42 0 0 0 -42,42 c 0,43.83412 17.54845,85.91216 51.30078,111.22656 33.75233,25.3144 77.45061,34.27539 128.70117,34.27539 51.25056,0 94.94885,-8.96099 128.70117,-34.27539 33.75233,-25.3144 51.30079,-67.39244 51.30079,-111.22656 0,-39.65835 -14.41027,-77.83632 -42.14258,-103.50586 27.73197,-25.66871 42.14439,-63.84168 42.14648,-103.49805 0.003,-43.83343 -17.54474,-85.91245 -51.29687,-111.22656 C 472.95881,458.96128 429.26032,450 378.00977,450 Z"
       id="path20" /></g></svg>
