<?xml version="1.0" encoding="UTF-8" standalone="no"?>
<svg
   version="1.1"
   viewBox="-10 0 1239 2048"
   id="svg1"
   sodipodi:docname="arcomp_at_final.svg"
   inkscape:version="1.3 (0e150ed6c4, 2023-07-21)"
   xml:space="preserve"
   xmlns:inkscape="http://www.inkscape.org/namespaces/inkscape"
   xmlns:sodipodi="http://sodipodi.sourceforge.net/DTD/sodipodi-0.dtd"
   xmlns="http://www.w3.org/2000/svg"
   xmlns:svg="http://www.w3.org/2000/svg"><defs
     id="defs1"><inkscape:path-effect
       effect="spiro"
       id="path-effect69"
       is_visible="true"
       lpeversion="1" /><inkscape:path-effect
       effect="spiro"
       id="path-effect68"
       is_visible="true"
       lpeversion="1" /><inkscape:path-effect
       effect="spiro"
       id="path-effect67"
       is_visible="true"
       lpeversion="1" /><inkscape:path-effect
       effect="spiro"
       id="path-effect66"
       is_visible="true"
       lpeversion="1" /><inkscape:path-effect
       effect="spiro"
       id="path-effect65"
       is_visible="true"
       lpeversion="1" /><inkscape:path-effect
       effect="bspline"
       id="path-effect64"
       is_visible="true"
       lpeversion="1.3"
       weight="33.333333"
       steps="2"
       helper_size="0"
       apply_no_weight="true"
       apply_with_weight="true"
       only_selected="false"
       uniform="false" /></defs><sodipodi:namedview
     id="namedview1"
     pagecolor="#ffffff"
     bordercolor="#999999"
     borderopacity="1"
     inkscape:showpageshadow="2"
     inkscape:pageopacity="0"
     inkscape:pagecheckerboard="0"
     inkscape:deskcolor="#d1d1d1"
     inkscape:zoom="0.3535534"
     inkscape:cx="909.3393"
     inkscape:cy="1186.5251"
     inkscape:window-width="1920"
     inkscape:window-height="1001"
     inkscape:window-x="-9"
     inkscape:window-y="-9"
     inkscape:window-maximized="1"
     inkscape:current-layer="svg1"
     showguides="false"><sodipodi:guide
       position="866,410"
       orientation="0,-1"
       id="guide1"
       inkscape:locked="false" /><sodipodi:guide
       position="1230,1230"
       orientation="0,1"
       id="guide2"
       inkscape:locked="false"
       inkscape:label=""
       inkscape:color="rgb(0,134,229)" /><sodipodi:guide
       position="208,219.91946"
       orientation="-1,0"
       id="guide4"
       inkscape:locked="false"
       inkscape:label=""
       inkscape:color="rgb(0,134,229)" /><sodipodi:guide
       position="986,96.214765"
       orientation="-1,0"
       id="guide5"
       inkscape:locked="false"
       inkscape:label=""
       inkscape:color="rgb(0,134,229)" /><sodipodi:guide
       position="0,0"
       orientation="0,-1"
       id="guide7"
       inkscape:locked="false" /><sodipodi:guide
       position="1239,481.27157"
       orientation="1,0"
       id="guide8"
       inkscape:locked="false" /><sodipodi:guide
       position="250,248.01176"
       orientation="-1,0"
       id="guide9"
       inkscape:locked="false"
       inkscape:label=""
       inkscape:color="rgb(0,134,229)" /><sodipodi:guide
       position="1028,452"
       orientation="-1,0"
       id="guide10"
       inkscape:locked="false"
       inkscape:label=""
       inkscape:color="rgb(0,134,229)" /><sodipodi:guide
       position="124.40523,452"
       orientation="0,1"
       id="guide11"
       inkscape:locked="false"
       inkscape:label=""
       inkscape:color="rgb(0,134,229)" /><sodipodi:guide
       position="427.64299,1188"
       orientation="0,1"
       id="guide12"
       inkscape:locked="false"
       inkscape:label=""
       inkscape:color="rgb(0,134,229)" /><sodipodi:guide
       position="97.19159,84"
       orientation="0,1"
       id="guide13"
       inkscape:locked="false"
       inkscape:label=""
       inkscape:color="rgb(0,134,229)" /><sodipodi:guide
       position="590.92487,1556"
       orientation="0,1"
       id="guide14"
       inkscape:locked="false"
       inkscape:label=""
       inkscape:color="rgb(0,134,229)" /></sodipodi:namedview><g
     inkscape:groupmode="layer"
     id="layer2"
     inkscape:label="letter parts 1"
     style="display:inline" /><g
     inkscape:groupmode="layer"
     id="g16"
     inkscape:label="letter parts 2 copy"><path
       id="path16"
       style="color:#000000;fill:#000000;stroke-linecap:round;stroke-linejoin:round;-inkscape-stroke:none"
       d="m 198,860 v 368 c 0,225.94 184.14835,408.0007 409.63672,410.002 153.00778,1.3578 312.85311,-76.3604 402.51558,-201.5332 13.5083,-18.8581 9.1711,-45.096 -9.6875,-58.6036 -18.85767,-13.507 -45.09402,-9.1698 -58.60152,9.6875 -70.92931,99.0216 -210.70414,167.5427 -333.48047,166.4532 C 427.38694,1552.3995 282,1408.5408 282,1228 V 860 c 0,-180.54196 145.45805,-326 326,-326 180.54195,0 325.99888,145.45773 326,326 v 3.98633 H 699.98438 c -95.50303,0 -169.77097,10.92676 -225.78907,38.9375 -56.01808,28.01073 -92.21479,81.07463 -92.20703,141.07817 0.008,60.0023 36.40149,112.8276 92.34961,140.58 55.94812,27.7526 130.00364,38.6668 225.33594,39.418 82.6348,0.6511 167.12185,-28.0746 234.32812,-78.4414 v 36.4394 c 0,23.196 18.80404,42 42,42 23.19598,0 42.00005,-18.804 42.00005,-42 V 860 C 1018.002,634.06149 833.94078,450 608.00098,450 382.06118,450 198,634.06117 198,860 Z m 501.98633,87.98633 H 934 l 0.002,81.70117 c -52.9884,65.5496 -149.59791,110.9766 -233.66601,110.3145 -88.66394,-0.6982 -152.61247,-12.784 -188.66992,-30.67 -36.05747,-17.8859 -45.67374,-33.3378 -45.67774,-65.3418 -0.004,-32.0032 9.79405,-47.94375 45.77539,-65.93551 35.98136,-17.99176 99.71948,-30.06836 188.22266,-30.06836 z"
       sodipodi:nodetypes="ssssssssssscssssscsssssssccssssss" /></g></svg>
