<?xml version="1.0" encoding="UTF-8" standalone="no"?>
<svg
   version="1.1"
   viewBox="-10 0 1239 2048"
   id="svg1"
   sodipodi:docname="arcomp_3_final.svg"
   inkscape:version="1.3 (0e150ed6c4, 2023-07-21)"
   xml:space="preserve"
   xmlns:inkscape="http://www.inkscape.org/namespaces/inkscape"
   xmlns:sodipodi="http://sodipodi.sourceforge.net/DTD/sodipodi-0.dtd"
   xmlns="http://www.w3.org/2000/svg"
   xmlns:svg="http://www.w3.org/2000/svg"><defs
     id="defs1"><inkscape:path-effect
       effect="spiro"
       id="path-effect69"
       is_visible="true"
       lpeversion="1" /><inkscape:path-effect
       effect="spiro"
       id="path-effect68"
       is_visible="true"
       lpeversion="1" /><inkscape:path-effect
       effect="spiro"
       id="path-effect67"
       is_visible="true"
       lpeversion="1" /><inkscape:path-effect
       effect="spiro"
       id="path-effect66"
       is_visible="true"
       lpeversion="1" /><inkscape:path-effect
       effect="spiro"
       id="path-effect65"
       is_visible="true"
       lpeversion="1" /><inkscape:path-effect
       effect="bspline"
       id="path-effect64"
       is_visible="true"
       lpeversion="1.3"
       weight="33.333333"
       steps="2"
       helper_size="0"
       apply_no_weight="true"
       apply_with_weight="true"
       only_selected="false"
       uniform="false" /></defs><sodipodi:namedview
     id="namedview1"
     pagecolor="#ffffff"
     bordercolor="#999999"
     borderopacity="1"
     inkscape:showpageshadow="2"
     inkscape:pageopacity="0"
     inkscape:pagecheckerboard="0"
     inkscape:deskcolor="#d1d1d1"
     inkscape:zoom="0.5"
     inkscape:cx="889"
     inkscape:cy="1097"
     inkscape:window-width="1920"
     inkscape:window-height="1001"
     inkscape:window-x="-9"
     inkscape:window-y="-9"
     inkscape:window-maximized="1"
     inkscape:current-layer="svg1"
     showguides="true"><sodipodi:guide
       position="866,410"
       orientation="0,-1"
       id="guide1"
       inkscape:locked="false" /><sodipodi:guide
       position="1230,1230"
       orientation="0,1"
       id="guide2"
       inkscape:locked="false"
       inkscape:label=""
       inkscape:color="rgb(0,134,229)" /><sodipodi:guide
       position="208,219.91946"
       orientation="-1,0"
       id="guide4"
       inkscape:locked="false"
       inkscape:label=""
       inkscape:color="rgb(0,134,229)" /><sodipodi:guide
       position="986,96.214765"
       orientation="-1,0"
       id="guide5"
       inkscape:locked="false"
       inkscape:label=""
       inkscape:color="rgb(0,134,229)" /><sodipodi:guide
       position="0,0"
       orientation="0,-1"
       id="guide7"
       inkscape:locked="false" /><sodipodi:guide
       position="1239,481.27157"
       orientation="1,0"
       id="guide8"
       inkscape:locked="false" /><sodipodi:guide
       position="250,248.01176"
       orientation="-1,0"
       id="guide9"
       inkscape:locked="false"
       inkscape:label=""
       inkscape:color="rgb(0,134,229)" /><sodipodi:guide
       position="1028,452"
       orientation="-1,0"
       id="guide10"
       inkscape:locked="false"
       inkscape:label=""
       inkscape:color="rgb(0,134,229)" /><sodipodi:guide
       position="124.40523,452"
       orientation="0,1"
       id="guide11"
       inkscape:locked="false"
       inkscape:label=""
       inkscape:color="rgb(0,134,229)" /><sodipodi:guide
       position="427.64299,1188"
       orientation="0,1"
       id="guide12"
       inkscape:locked="false"
       inkscape:label=""
       inkscape:color="rgb(0,134,229)" /><sodipodi:guide
       position="97.19159,84"
       orientation="0,1"
       id="guide13"
       inkscape:locked="false"
       inkscape:label=""
       inkscape:color="rgb(0,134,229)" /><sodipodi:guide
       position="590.92487,1556"
       orientation="0,1"
       id="guide14"
       inkscape:locked="false"
       inkscape:label=""
       inkscape:color="rgb(0,134,229)" /></sodipodi:namedview><g
     inkscape:groupmode="layer"
     id="layer2"
     inkscape:label="letter parts 1"
     style="display:inline"><path
       style="color:#000000;fill:#000000;stroke-linecap:round;stroke-linejoin:round;-inkscape-stroke:none"
       d="m 608.01953,450.0293 c -127.91254,0 -229.10795,23.33531 -301.19141,77.39843 -72.08345,54.06313 -108.79687,139.2637 -108.79687,240.59571 0,23.19596 18.80404,42 42,42 23.19596,0 42,-18.80404 42,-42 0,-82.66565 24.61783,-135.46153 75.19727,-173.39649 50.57943,-37.93495 133.37851,-60.59765 250.79101,-60.59765 117.4125,0 200.21294,22.66399 250.79102,60.59765 50.57807,37.93366 75.19199,90.72488 75.1875,173.38477 -0.004,82.66064 -24.62368,135.45389 -75.20508,173.38867 -66.47728,49.85629 -172.12041,60.60551 -250.79497,60.60551 -22.96435,0.3253 -41.40975,19.0343 -41.4092,42.001 5.5e-4,22.9666 18.44683,41.6748 41.4112,41.999 78.60232,0 184.28011,10.7191 250.79107,60.6035 50.57969,37.9357 75.19726,90.7308 75.19726,173.3965 0,82.6648 -24.61781,135.4616 -75.19726,173.3964 C 808.21156,1531.3372 725.41249,1554 608,1554 c -117.41249,0 -200.21156,-22.6628 -250.79102,-60.5977 -50.57946,-37.9348 -75.19726,-90.7316 -75.19726,-173.3964 0,-23.196 -18.80404,-42 -42,-42 -23.19596,0 -42,18.804 -42,42 0,101.3313 36.71344,186.5328 108.79687,240.5957 C 378.89203,1614.6645 480.08746,1638 608,1638 c 127.91254,0 229.10798,-23.3355 301.19141,-77.3984 72.08343,-54.0629 108.79689,-139.2644 108.79689,-240.5957 0,-101.332 -36.71369,-186.534 -108.79689,-240.5977 -18.34416,-13.7585 -38.59451,-25.5039 -60.66993,-35.4043 22.07517,-9.9 42.32577,-21.6447 60.66993,-35.4023 C 981.27536,954.54041 1017.9927,869.34485 1017.998,768.01758 1018.0036,666.68953 981.29145,581.48777 909.20898,527.42578 837.12652,473.36379 735.93207,450.0293 608.01953,450.0293 Z"
       id="path20"
       sodipodi:nodetypes="sssssssscssssssssssssssssscscss" /></g></svg>
