<?xml version="1.0" encoding="UTF-8" standalone="no"?>
<svg
   version="1.1"
   viewBox="-10 0 1239 2048"
   id="svg1"
   sodipodi:docname="arcomp_fraction_8_final.svg"
   inkscape:version="1.3 (0e150ed6c4, 2023-07-21)"
   xml:space="preserve"
   xmlns:inkscape="http://www.inkscape.org/namespaces/inkscape"
   xmlns:sodipodi="http://sodipodi.sourceforge.net/DTD/sodipodi-0.dtd"
   xmlns="http://www.w3.org/2000/svg"
   xmlns:svg="http://www.w3.org/2000/svg"><defs
     id="defs1"><inkscape:path-effect
       effect="spiro"
       id="path-effect69"
       is_visible="true"
       lpeversion="1" /><inkscape:path-effect
       effect="spiro"
       id="path-effect68"
       is_visible="true"
       lpeversion="1" /><inkscape:path-effect
       effect="spiro"
       id="path-effect67"
       is_visible="true"
       lpeversion="1" /><inkscape:path-effect
       effect="spiro"
       id="path-effect66"
       is_visible="true"
       lpeversion="1" /><inkscape:path-effect
       effect="spiro"
       id="path-effect65"
       is_visible="true"
       lpeversion="1" /><inkscape:path-effect
       effect="bspline"
       id="path-effect64"
       is_visible="true"
       lpeversion="1.3"
       weight="33.333333"
       steps="2"
       helper_size="0"
       apply_no_weight="true"
       apply_with_weight="true"
       only_selected="false"
       uniform="false" /></defs><sodipodi:namedview
     id="namedview1"
     pagecolor="#ffffff"
     bordercolor="#999999"
     borderopacity="1"
     inkscape:showpageshadow="2"
     inkscape:pageopacity="0"
     inkscape:pagecheckerboard="0"
     inkscape:deskcolor="#d1d1d1"
     inkscape:zoom="0.5144478"
     inkscape:cx="636.60492"
     inkscape:cy="1316.9461"
     inkscape:window-width="1920"
     inkscape:window-height="1001"
     inkscape:window-x="-9"
     inkscape:window-y="-9"
     inkscape:window-maximized="1"
     inkscape:current-layer="layer2"
     showguides="false"><sodipodi:guide
       position="866,410"
       orientation="0,-1"
       id="guide1"
       inkscape:locked="false" /><sodipodi:guide
       position="1230,1230"
       orientation="0,1"
       id="guide2"
       inkscape:locked="false"
       inkscape:label=""
       inkscape:color="rgb(0,134,229)" /><sodipodi:guide
       position="208,219.91946"
       orientation="-1,0"
       id="guide4"
       inkscape:locked="false"
       inkscape:label=""
       inkscape:color="rgb(0,134,229)" /><sodipodi:guide
       position="986,96.214765"
       orientation="-1,0"
       id="guide5"
       inkscape:locked="false"
       inkscape:label=""
       inkscape:color="rgb(0,134,229)" /><sodipodi:guide
       position="0,0"
       orientation="0,-1"
       id="guide7"
       inkscape:locked="false" /><sodipodi:guide
       position="1239,481.27157"
       orientation="1,0"
       id="guide8"
       inkscape:locked="false" /><sodipodi:guide
       position="250,248.01176"
       orientation="-1,0"
       id="guide9"
       inkscape:locked="false"
       inkscape:label=""
       inkscape:color="rgb(0,134,229)" /><sodipodi:guide
       position="1028,452"
       orientation="-1,0"
       id="guide10"
       inkscape:locked="false"
       inkscape:label=""
       inkscape:color="rgb(0,134,229)" /><sodipodi:guide
       position="124.40523,452"
       orientation="0,1"
       id="guide11"
       inkscape:locked="false"
       inkscape:label=""
       inkscape:color="rgb(0,134,229)" /><sodipodi:guide
       position="427.64299,1188"
       orientation="0,1"
       id="guide12"
       inkscape:locked="false"
       inkscape:label=""
       inkscape:color="rgb(0,134,229)" /><sodipodi:guide
       position="97.19159,84"
       orientation="0,1"
       id="guide13"
       inkscape:locked="false"
       inkscape:label=""
       inkscape:color="rgb(0,134,229)" /><sodipodi:guide
       position="590.92487,1556"
       orientation="0,1"
       id="guide14"
       inkscape:locked="false"
       inkscape:label=""
       inkscape:color="rgb(0,134,229)" /></sodipodi:namedview><g
     inkscape:groupmode="layer"
     id="layer2"
     inkscape:label="letter parts 1"
     style="display:inline"><path
       id="path20"
       style="color:#000000;fill:#000000;stroke-linecap:round;stroke-linejoin:round;-inkscape-stroke:none"
       d="m 838.00586,1140 c -51.25051,0 -94.9508,8.9609 -128.70313,34.2754 -33.75231,25.3145 -51.29882,67.3943 -51.29882,111.2285 0,39.6555 14.4098,77.8288 42.13867,103.4981 -27.73355,25.6693 -42.14649,63.8447 -42.14649,103.5039 0,43.834 17.54849,85.9121 51.30079,111.2265 33.7523,25.3144 77.45065,34.2754 128.70117,34.2754 51.25052,0 94.94887,-8.961 128.70117,-34.2754 C 1000.4515,1578.418 1018,1536.3399 1018,1492.5059 c 0,-39.6558 -14.4098,-77.8288 -42.13867,-103.4981 27.73357,-25.6693 42.14647,-63.845 42.14647,-103.5039 0,-43.8342 -17.5484,-85.914 -51.30077,-111.2285 C 932.95472,1148.9609 889.25637,1140 838.00586,1140 Z m 0,84 c 40.75048,0 66.05246,8.2883 78.30078,17.4746 12.24832,9.1864 17.70117,18.8613 17.70117,44.0293 0,25.1676 -5.45283,34.8391 -17.70117,44.0254 -12.24033,9.1803 -37.52096,17.4638 -78.30229,17.4633 -40.78134,-6e-4 -66.06171,-8.2836 -78.30123,-17.4633 -12.24833,-9.1863 -17.69921,-18.8578 -17.69921,-44.0254 0,-25.168 5.4509,-34.8429 17.69921,-44.0293 C 771.95145,1232.2883 797.25537,1224 838.00586,1224 Z m -0.006,207.0153 c 40.78134,5e-4 66.0598,8.2835 78.29928,17.4632 12.24831,9.1864 17.70117,18.8594 17.70117,44.0274 0,25.1675 -5.45284,34.841 -17.70117,44.0273 -12.24833,9.1863 -37.55029,17.4746 -78.30078,17.4746 -40.75049,0 -66.05245,-8.2883 -78.30078,-17.4746 -12.24835,-9.1863 -17.70118,-18.8598 -17.70118,-44.0273 0,-25.168 5.45285,-34.841 17.70118,-44.0274 12.24031,-9.1803 37.52095,-17.4638 78.30228,-17.4632 z"
       sodipodi:nodetypes="ssscssssscssssssscsssscsssssssc" /></g></svg>
