<?xml version="1.0" encoding="UTF-8" standalone="no"?>
<svg
   version="1.1"
   viewBox="-10 0 1239 2048"
   id="svg1"
   sodipodi:docname="arcomp_capricorn_final.svg"
   inkscape:version="1.3 (0e150ed6c4, 2023-07-21)"
   xml:space="preserve"
   xmlns:inkscape="http://www.inkscape.org/namespaces/inkscape"
   xmlns:sodipodi="http://sodipodi.sourceforge.net/DTD/sodipodi-0.dtd"
   xmlns="http://www.w3.org/2000/svg"
   xmlns:svg="http://www.w3.org/2000/svg"><defs
     id="defs1"><inkscape:path-effect
       effect="spiro"
       id="path-effect69"
       is_visible="true"
       lpeversion="1" /><inkscape:path-effect
       effect="spiro"
       id="path-effect68"
       is_visible="true"
       lpeversion="1" /><inkscape:path-effect
       effect="spiro"
       id="path-effect67"
       is_visible="true"
       lpeversion="1" /><inkscape:path-effect
       effect="spiro"
       id="path-effect66"
       is_visible="true"
       lpeversion="1" /><inkscape:path-effect
       effect="spiro"
       id="path-effect65"
       is_visible="true"
       lpeversion="1" /><inkscape:path-effect
       effect="bspline"
       id="path-effect64"
       is_visible="true"
       lpeversion="1.3"
       weight="33.333333"
       steps="2"
       helper_size="0"
       apply_no_weight="true"
       apply_with_weight="true"
       only_selected="false"
       uniform="false" /></defs><sodipodi:namedview
     id="namedview1"
     pagecolor="#ffffff"
     bordercolor="#999999"
     borderopacity="1"
     inkscape:showpageshadow="2"
     inkscape:pageopacity="0"
     inkscape:pagecheckerboard="0"
     inkscape:deskcolor="#d1d1d1"
     inkscape:zoom="0.35355339"
     inkscape:cx="575.58492"
     inkscape:cy="1364.7161"
     inkscape:window-width="1920"
     inkscape:window-height="1001"
     inkscape:window-x="-9"
     inkscape:window-y="-9"
     inkscape:window-maximized="1"
     inkscape:current-layer="layer2"
     showguides="false"><sodipodi:guide
       position="866,410"
       orientation="0,-1"
       id="guide1"
       inkscape:locked="false" /><sodipodi:guide
       position="1230,1230"
       orientation="0,1"
       id="guide2"
       inkscape:locked="false"
       inkscape:label=""
       inkscape:color="rgb(0,134,229)" /><sodipodi:guide
       position="208,219.91946"
       orientation="-1,0"
       id="guide4"
       inkscape:locked="false"
       inkscape:label=""
       inkscape:color="rgb(0,134,229)" /><sodipodi:guide
       position="986,96.214765"
       orientation="-1,0"
       id="guide5"
       inkscape:locked="false"
       inkscape:label=""
       inkscape:color="rgb(0,134,229)" /><sodipodi:guide
       position="0,0"
       orientation="0,-1"
       id="guide7"
       inkscape:locked="false" /><sodipodi:guide
       position="1239,481.27157"
       orientation="1,0"
       id="guide8"
       inkscape:locked="false" /><sodipodi:guide
       position="250,248.01176"
       orientation="-1,0"
       id="guide9"
       inkscape:locked="false"
       inkscape:label=""
       inkscape:color="rgb(0,134,229)" /><sodipodi:guide
       position="1028,452"
       orientation="-1,0"
       id="guide10"
       inkscape:locked="false"
       inkscape:label=""
       inkscape:color="rgb(0,134,229)" /><sodipodi:guide
       position="124.40523,452"
       orientation="0,1"
       id="guide11"
       inkscape:locked="false"
       inkscape:label=""
       inkscape:color="rgb(0,134,229)" /><sodipodi:guide
       position="427.64299,1188"
       orientation="0,1"
       id="guide12"
       inkscape:locked="false"
       inkscape:label=""
       inkscape:color="rgb(0,134,229)" /><sodipodi:guide
       position="97.19159,84"
       orientation="0,1"
       id="guide13"
       inkscape:locked="false"
       inkscape:label=""
       inkscape:color="rgb(0,134,229)" /><sodipodi:guide
       position="590.92487,1556"
       orientation="0,1"
       id="guide14"
       inkscape:locked="false"
       inkscape:label=""
       inkscape:color="rgb(0,134,229)" /></sodipodi:namedview><g
     inkscape:groupmode="layer"
     id="layer2"
     inkscape:label="letter parts 1"
     style="display:inline"><path
       id="path4"
       style="color:#000000;fill:#000000;stroke-linecap:round;stroke-linejoin:round;-inkscape-stroke:none;paint-order:markers fill stroke"
       d="m 148,450 c -23.19596,0 -42,18.80404 -42,42 0,23.19596 18.80404,42 42,42 20.1667,0 34.4005,5.79895 50.80078,22.19922 16.40028,16.40026 33.35035,45.06663 47.35547,87.08203 C 274.16649,727.31205 289.99995,862.33373 290,1044 v 552 c 0,23.196 18.80404,42 42,42 23.19596,0 42,-18.804 42,-42 v -552 c 0,-181.66601 15.83351,-316.68795 43.84375,-400.71875 14.00512,-42.0154 30.95515,-70.6817 47.35547,-87.08203 C 481.59954,539.79888 495.83325,534.00007 516,534 c 20.16672,-7e-5 34.40052,5.79903 50.80078,22.19922 16.40026,16.40019 33.34839,45.06666 47.35352,87.08203 C 642.16454,727.31198 657.99995,862.33373 658,1044 v 552 c 0,180.5419 -145.45804,326 -326,326 -23.19596,0 -42,18.804 -42,42 0,23.196 18.80404,42 42,42 225.93883,0 410,-184.0611 410,-410 v -8.5469 c 38.87656,31.557 88.31581,50.5469 142,50.5469 124.3187,0 226,-101.6813 226,-226 0,-124.3187 -101.6813,-226 -226,-226 -53.68419,0 -103.12344,18.9899 -142,50.5469 V 1044 C 741.99995,857.66711 727.16663,716.68737 693.84375,616.71875 677.18232,566.73444 655.79888,526.40031 626.19922,496.80078 596.59956,467.20125 557.16663,449.99985 516,450 c -41.1666,1.5e-4 -80.59963,17.20311 -110.19922,46.80273 -37.94841,38.44339 -58.76695,89.12448 -73.63281,140.19336 C 305.88102,547.36907 273.01911,511.62066 258.19922,496.80078 228.59961,467.2012 189.1666,450 148,450 Z m 736,820 c 78.92175,0 142,63.0783 142,142 0,78.9217 -63.07825,142 -142,142 -78.92175,0 -142,-63.0783 -142,-142 0,-78.9217 63.07825,-142 142,-142 z"
       sodipodi:nodetypes="ssssssssssssssssssssscssscssssscsssssss" /></g></svg>
