<?xml version="1.0" encoding="UTF-8" standalone="no"?>
<svg
   version="1.1"
   viewBox="-10 0 1239 2048"
   id="svg1"
   sodipodi:docname="arcomp_three_quarters_final.svg"
   inkscape:version="1.3 (0e150ed6c4, 2023-07-21)"
   xml:space="preserve"
   xmlns:inkscape="http://www.inkscape.org/namespaces/inkscape"
   xmlns:sodipodi="http://sodipodi.sourceforge.net/DTD/sodipodi-0.dtd"
   xmlns="http://www.w3.org/2000/svg"
   xmlns:svg="http://www.w3.org/2000/svg"><defs
     id="defs1"><inkscape:path-effect
       effect="spiro"
       id="path-effect69"
       is_visible="true"
       lpeversion="1" /><inkscape:path-effect
       effect="spiro"
       id="path-effect68"
       is_visible="true"
       lpeversion="1" /><inkscape:path-effect
       effect="spiro"
       id="path-effect67"
       is_visible="true"
       lpeversion="1" /><inkscape:path-effect
       effect="spiro"
       id="path-effect66"
       is_visible="true"
       lpeversion="1" /><inkscape:path-effect
       effect="spiro"
       id="path-effect65"
       is_visible="true"
       lpeversion="1" /><inkscape:path-effect
       effect="bspline"
       id="path-effect64"
       is_visible="true"
       lpeversion="1.3"
       weight="33.333333"
       steps="2"
       helper_size="0"
       apply_no_weight="true"
       apply_with_weight="true"
       only_selected="false"
       uniform="false" /></defs><sodipodi:namedview
     id="namedview1"
     pagecolor="#ffffff"
     bordercolor="#999999"
     borderopacity="1"
     inkscape:showpageshadow="2"
     inkscape:pageopacity="0"
     inkscape:pagecheckerboard="0"
     inkscape:deskcolor="#d1d1d1"
     inkscape:zoom="0.5144478"
     inkscape:cx="652.15557"
     inkscape:cy="1052.5849"
     inkscape:window-width="1920"
     inkscape:window-height="1001"
     inkscape:window-x="-9"
     inkscape:window-y="-9"
     inkscape:window-maximized="1"
     inkscape:current-layer="layer2"
     showguides="false"><sodipodi:guide
       position="866,410"
       orientation="0,-1"
       id="guide1"
       inkscape:locked="false" /><sodipodi:guide
       position="1230,1230"
       orientation="0,1"
       id="guide2"
       inkscape:locked="false"
       inkscape:label=""
       inkscape:color="rgb(0,134,229)" /><sodipodi:guide
       position="208,219.91946"
       orientation="-1,0"
       id="guide4"
       inkscape:locked="false"
       inkscape:label=""
       inkscape:color="rgb(0,134,229)" /><sodipodi:guide
       position="986,96.214765"
       orientation="-1,0"
       id="guide5"
       inkscape:locked="false"
       inkscape:label=""
       inkscape:color="rgb(0,134,229)" /><sodipodi:guide
       position="0,0"
       orientation="0,-1"
       id="guide7"
       inkscape:locked="false" /><sodipodi:guide
       position="1239,481.27157"
       orientation="1,0"
       id="guide8"
       inkscape:locked="false" /><sodipodi:guide
       position="250,248.01176"
       orientation="-1,0"
       id="guide9"
       inkscape:locked="false"
       inkscape:label=""
       inkscape:color="rgb(0,134,229)" /><sodipodi:guide
       position="1028,452"
       orientation="-1,0"
       id="guide10"
       inkscape:locked="false"
       inkscape:label=""
       inkscape:color="rgb(0,134,229)" /><sodipodi:guide
       position="124.40523,452"
       orientation="0,1"
       id="guide11"
       inkscape:locked="false"
       inkscape:label=""
       inkscape:color="rgb(0,134,229)" /><sodipodi:guide
       position="427.64299,1188"
       orientation="0,1"
       id="guide12"
       inkscape:locked="false"
       inkscape:label=""
       inkscape:color="rgb(0,134,229)" /><sodipodi:guide
       position="97.19159,84"
       orientation="0,1"
       id="guide13"
       inkscape:locked="false"
       inkscape:label=""
       inkscape:color="rgb(0,134,229)" /><sodipodi:guide
       position="590.92487,1556"
       orientation="0,1"
       id="guide14"
       inkscape:locked="false"
       inkscape:label=""
       inkscape:color="rgb(0,134,229)" /></sodipodi:namedview><g
     inkscape:groupmode="layer"
     id="layer2"
     inkscape:label="letter parts 1"
     style="display:inline"><path
       id="path2"
       style="color:#000000;fill:#000000;stroke-linecap:round;-inkscape-stroke:none"
       d="m 377.99609,450 c -51.24841,0 -94.946,8.96168 -128.69726,34.27539 C 215.54755,509.58911 198,551.6653 198,595.49805 c 0,23.19596 18.80404,42 42,42 23.19596,0 42,-18.80404 42,-42 0,-25.16643 5.45195,-34.8379 17.69922,-44.02344 C 311.94649,542.28907 337.2477,534 377.99609,534 c 40.74839,0 66.04835,8.28962 78.29493,17.47461 12.24656,9.18499 17.69836,18.85368 17.69726,44.01758 -10e-4,25.16436 -5.45478,34.83722 -17.70312,44.02343 -21.26379,15.94777 -62.90756,17.47657 -78.29693,17.47657 -22.96436,0.32477 -41.4102,19.03336 -41.4102,42 0,22.96664 18.44384,41.88261 41.4102,42 40.74799,0.20827 66.04935,8.28873 78.29688,17.47461 12.24751,9.18587 17.69922,18.85903 17.69922,44.02539 0,25.16597 -5.45194,34.83792 -17.69922,44.02343 -12.24729,9.18553 -37.54849,17.47266 -78.29688,17.47266 -40.74839,0 -66.04959,-8.28713 -78.29687,-17.47266 -12.24729,-9.18551 -17.69922,-18.85746 -17.69922,-44.02343 0,-23.19596 -18.80404,-42 -42,-42 -23.19596,0 -42,18.80404 -42,42 0,43.83248 17.54757,85.90909 51.29883,111.22265 33.75124,25.31358 77.44885,34.27344 128.69726,34.27344 51.24841,0 94.94601,-8.95986 128.69727,-34.27344 33.75124,-25.31356 51.29883,-67.39017 51.29883,-111.22265 0,-39.65618 -14.4102,-77.83126 -42.14063,-103.5 27.73071,-25.66792 42.14244,-63.84147 42.14453,-103.4961 0.002,-43.83156 -17.54598,-85.90932 -51.29687,-111.22265 C 472.94056,458.96009 429.2445,450 377.99609,450 Z m 606.1543,0.79883 c -16.66414,-3.29613 -33.67299,3.77027 -43.0957,17.90429 l -736,1103.99998 c -12.86596,19.2999 -7.65086,45.3754 11.64843,58.2422 19.29987,12.866 45.37535,7.6509 58.24219,-11.6484 L 1010.9453,515.29688 c 12.866,-19.29987 7.6509,-45.37536 -11.64842,-58.24219 -4.58909,-3.05959 -9.73587,-5.18533 -15.14649,-6.25586 z M 976,1140 c -23.19596,0 -42,18.804 -42,42 v 165 H 778.47656 l 94.46875,-141.7031 c 12.86596,-19.2999 7.65086,-45.3754 -11.64843,-58.2422 -19.29987,-12.866 -45.37535,-7.6509 -58.24219,11.6484 l -138,207 C 646.4553,1393.6144 666.45934,1430.9928 700,1431 h 234 v 165 c 0,23.196 18.80404,42 42,42 23.19596,0 42,-18.804 42,-42 v -414 c 0,-23.196 -18.80404,-42 -42,-42 z"
       sodipodi:nodetypes="sssssssssssssssssssssssssccssccccccscssccccccccsssss" /></g></svg>
