<?xml version="1.0" encoding="UTF-8" standalone="no"?>
<svg
   version="1.1"
   viewBox="-10 0 1239 2048"
   id="svg1"
   sodipodi:docname="arcomp_ae_2_final.svg"
   inkscape:version="1.3 (0e150ed6c4, 2023-07-21)"
   xml:space="preserve"
   xmlns:inkscape="http://www.inkscape.org/namespaces/inkscape"
   xmlns:sodipodi="http://sodipodi.sourceforge.net/DTD/sodipodi-0.dtd"
   xmlns="http://www.w3.org/2000/svg"
   xmlns:svg="http://www.w3.org/2000/svg"><defs
     id="defs1"><inkscape:path-effect
       effect="bspline"
       id="path-effect5"
       is_visible="true"
       lpeversion="1.3"
       weight="33.333333"
       steps="2"
       helper_size="0"
       apply_no_weight="true"
       apply_with_weight="true"
       only_selected="false"
       uniform="false" /><inkscape:path-effect
       effect="spiro"
       id="path-effect69"
       is_visible="true"
       lpeversion="1" /><inkscape:path-effect
       effect="spiro"
       id="path-effect68"
       is_visible="true"
       lpeversion="1" /><inkscape:path-effect
       effect="spiro"
       id="path-effect67"
       is_visible="true"
       lpeversion="1" /><inkscape:path-effect
       effect="spiro"
       id="path-effect66"
       is_visible="true"
       lpeversion="1" /><inkscape:path-effect
       effect="spiro"
       id="path-effect65"
       is_visible="true"
       lpeversion="1" /><inkscape:path-effect
       effect="bspline"
       id="path-effect64"
       is_visible="true"
       lpeversion="1.3"
       weight="33.333333"
       steps="2"
       helper_size="0"
       apply_no_weight="true"
       apply_with_weight="true"
       only_selected="false"
       uniform="false" /></defs><sodipodi:namedview
     id="namedview1"
     pagecolor="#ffffff"
     bordercolor="#999999"
     borderopacity="1"
     inkscape:showpageshadow="2"
     inkscape:pageopacity="0"
     inkscape:pagecheckerboard="0"
     inkscape:deskcolor="#d1d1d1"
     inkscape:zoom="0.25"
     inkscape:cx="434"
     inkscape:cy="1394"
     inkscape:window-width="1920"
     inkscape:window-height="1001"
     inkscape:window-x="-9"
     inkscape:window-y="-9"
     inkscape:window-maximized="1"
     inkscape:current-layer="layer2"
     showguides="false"><sodipodi:guide
       position="866,410"
       orientation="0,-1"
       id="guide1"
       inkscape:locked="false" /><sodipodi:guide
       position="1230,1230"
       orientation="0,1"
       id="guide2"
       inkscape:locked="false"
       inkscape:label=""
       inkscape:color="rgb(0,134,229)" /><sodipodi:guide
       position="208,219.91946"
       orientation="-1,0"
       id="guide4"
       inkscape:locked="false"
       inkscape:label=""
       inkscape:color="rgb(0,134,229)" /><sodipodi:guide
       position="986,96.214765"
       orientation="-1,0"
       id="guide5"
       inkscape:locked="false"
       inkscape:label=""
       inkscape:color="rgb(0,134,229)" /><sodipodi:guide
       position="0,0"
       orientation="0,-1"
       id="guide7"
       inkscape:locked="false" /><sodipodi:guide
       position="1239,481.27157"
       orientation="1,0"
       id="guide8"
       inkscape:locked="false" /><sodipodi:guide
       position="250,248.01176"
       orientation="-1,0"
       id="guide9"
       inkscape:locked="false"
       inkscape:label=""
       inkscape:color="rgb(0,134,229)" /><sodipodi:guide
       position="1028,452"
       orientation="-1,0"
       id="guide10"
       inkscape:locked="false"
       inkscape:label=""
       inkscape:color="rgb(0,134,229)" /><sodipodi:guide
       position="124.40523,452"
       orientation="0,1"
       id="guide11"
       inkscape:locked="false"
       inkscape:label=""
       inkscape:color="rgb(0,134,229)" /><sodipodi:guide
       position="427.64299,1188"
       orientation="0,1"
       id="guide12"
       inkscape:locked="false"
       inkscape:label=""
       inkscape:color="rgb(0,134,229)" /><sodipodi:guide
       position="97.19159,84"
       orientation="0,1"
       id="guide13"
       inkscape:locked="false"
       inkscape:label=""
       inkscape:color="rgb(0,134,229)" /><sodipodi:guide
       position="590.92487,1556"
       orientation="0,1"
       id="guide14"
       inkscape:locked="false"
       inkscape:label=""
       inkscape:color="rgb(0,134,229)" /></sodipodi:namedview><g
     inkscape:groupmode="layer"
     id="layer2"
     inkscape:label="letter parts 1"><path
       id="path2"
       style="color:#000000;fill:#000000;stroke-linecap:round;stroke-linejoin:round;-inkscape-stroke:none"
       d="m 423.87891,818 c -50.64635,0.14499 -100.38123,17.28184 -140.47852,49.05859 -53.81086,42.64464 -85.93368,108.40745 -85.39844,177.26761 0.18029,23.1947 19.12952,41.8519 42.32422,41.6718 23.19472,-0.1802 41.85192,-19.1295 41.67188,-42.3242 -0.3238,-41.7154 20.57573,-84.87111 49.38882,-107.68821 28.81309,-22.81711 60.93494,-33.89456 92.73422,-33.98559 41.98906,-0.12021 85.14941,20.62353 110.91993,53.47656 C 547.42728,971.26694 566,1002.0269 566,1044 v 142 H 424 c -124.31863,0 -226,101.6813 -226,226 0,124.3187 101.68137,226 226,226 53.68419,0 103.12344,-18.9899 142,-50.5469 V 1596 c 0,23.196 18.80404,42 42,42 23.19596,0 42,-18.804 42,-42 v -8.5469 c 38.87656,31.557 88.31581,50.5469 142,50.5469 62.15927,0 118.9562,-25.3428 159.80664,-66.1934 16.40297,-16.4022 16.40297,-42.9962 0,-59.3984 -16.40219,-16.403 -42.99625,-16.403 -59.39844,0 C 866.66394,1538.1526 831.46081,1554 792,1554 c -78.92175,0 -142,-63.0783 -142,-142 v -142 h 326 c 23.195,0 42,-18.805 42,-42 V 1044 C 1018,919.68137 916.31863,818 792,818 716.36201,818 649.156,855.67892 608.08008,913.15625 570.08837,859.94727 505.12091,817.76742 423.87891,818 Z M 792,902 c 78.92174,0 142,63.07826 142,142 v 142 H 650 v -142 c 0,-78.92174 63.07826,-142 142,-142 z m -368,368 h 142 v 142 c 0,78.9217 -63.07825,142 -142,142 -78.92175,0 -142,-63.0783 -142,-142 0,-78.9217 63.07825,-142 142,-142 z"
       sodipodi:nodetypes="ssssssssscssscssscscccsscsssscsssccssscssss" /></g></svg>
