<?xml version="1.0" encoding="UTF-8" standalone="no"?>
<svg
   version="1.1"
   viewBox="-10 0 1239 2048"
   id="svg1"
   sodipodi:docname="arcomp_ampersand_2_final.svg"
   inkscape:version="1.3 (0e150ed6c4, 2023-07-21)"
   xml:space="preserve"
   xmlns:inkscape="http://www.inkscape.org/namespaces/inkscape"
   xmlns:sodipodi="http://sodipodi.sourceforge.net/DTD/sodipodi-0.dtd"
   xmlns="http://www.w3.org/2000/svg"
   xmlns:svg="http://www.w3.org/2000/svg"><defs
     id="defs1"><inkscape:path-effect
       effect="spiro"
       id="path-effect69"
       is_visible="true"
       lpeversion="1" /><inkscape:path-effect
       effect="spiro"
       id="path-effect68"
       is_visible="true"
       lpeversion="1" /><inkscape:path-effect
       effect="spiro"
       id="path-effect67"
       is_visible="true"
       lpeversion="1" /><inkscape:path-effect
       effect="spiro"
       id="path-effect66"
       is_visible="true"
       lpeversion="1" /><inkscape:path-effect
       effect="spiro"
       id="path-effect65"
       is_visible="true"
       lpeversion="1" /><inkscape:path-effect
       effect="bspline"
       id="path-effect64"
       is_visible="true"
       lpeversion="1.3"
       weight="33.333333"
       steps="2"
       helper_size="0"
       apply_no_weight="true"
       apply_with_weight="true"
       only_selected="false"
       uniform="false" /></defs><sodipodi:namedview
     id="namedview1"
     pagecolor="#ffffff"
     bordercolor="#999999"
     borderopacity="1"
     inkscape:showpageshadow="2"
     inkscape:pageopacity="0"
     inkscape:pagecheckerboard="0"
     inkscape:deskcolor="#d1d1d1"
     inkscape:zoom="0.5"
     inkscape:cx="435"
     inkscape:cy="1047"
     inkscape:window-width="1920"
     inkscape:window-height="1001"
     inkscape:window-x="-9"
     inkscape:window-y="-9"
     inkscape:window-maximized="1"
     inkscape:current-layer="layer2"
     showguides="false"><sodipodi:guide
       position="866,410"
       orientation="0,-1"
       id="guide1"
       inkscape:locked="false" /><sodipodi:guide
       position="1230,1230"
       orientation="0,1"
       id="guide2"
       inkscape:locked="false"
       inkscape:label=""
       inkscape:color="rgb(0,134,229)" /><sodipodi:guide
       position="208,219.91946"
       orientation="-1,0"
       id="guide4"
       inkscape:locked="false"
       inkscape:label=""
       inkscape:color="rgb(0,134,229)" /><sodipodi:guide
       position="986,96.214765"
       orientation="-1,0"
       id="guide5"
       inkscape:locked="false"
       inkscape:label=""
       inkscape:color="rgb(0,134,229)" /><sodipodi:guide
       position="0,0"
       orientation="0,-1"
       id="guide7"
       inkscape:locked="false" /><sodipodi:guide
       position="1239,481.27157"
       orientation="1,0"
       id="guide8"
       inkscape:locked="false" /><sodipodi:guide
       position="250,248.01176"
       orientation="-1,0"
       id="guide9"
       inkscape:locked="false"
       inkscape:label=""
       inkscape:color="rgb(0,134,229)" /><sodipodi:guide
       position="1028,452"
       orientation="-1,0"
       id="guide10"
       inkscape:locked="false"
       inkscape:label=""
       inkscape:color="rgb(0,134,229)" /><sodipodi:guide
       position="124.40523,452"
       orientation="0,1"
       id="guide11"
       inkscape:locked="false"
       inkscape:label=""
       inkscape:color="rgb(0,134,229)" /><sodipodi:guide
       position="427.64299,1188"
       orientation="0,1"
       id="guide12"
       inkscape:locked="false"
       inkscape:label=""
       inkscape:color="rgb(0,134,229)" /><sodipodi:guide
       position="97.19159,84"
       orientation="0,1"
       id="guide13"
       inkscape:locked="false"
       inkscape:label=""
       inkscape:color="rgb(0,134,229)" /><sodipodi:guide
       position="590.92487,1556"
       orientation="0,1"
       id="guide14"
       inkscape:locked="false"
       inkscape:label=""
       inkscape:color="rgb(0,134,229)" /></sodipodi:namedview><g
     inkscape:groupmode="layer"
     id="layer2"
     inkscape:label="guide 2"><path
       id="path9"
       style="color:#000000;fill:#000000;stroke-linecap:round;-inkscape-stroke:none"
       d="M 608,450 C 481.83378,450 384.56748,464.75837 313.2168,500.43359 241.86611,536.10884 198,600.66692 198,676 c 0,44.96444 14.55431,87.46964 42.78711,120.6543 L 341.83203,915.42188 C 251.75004,991.41026 196.90916,1111.8652 198.00195,1228.3945 200.1162,1453.8471 382.05996,1638 608,1638 c 101.08859,0 193.7267,-36.9225 265.31445,-97.8789 l 70.69727,83.0957 c 15.03104,17.6671 41.53794,19.8044 59.20508,4.7734 17.6672,-15.0308 19.8042,-41.5377 4.7734,-59.205 l -76.30661,-89.6914 C 985.69973,1409.6417 1018,1322.5206 1018,1228 c 0,-23.196 -18.80404,-42 -42,-42 -23.19596,0 -42,18.804 -42,42 0,69.1575 -21.40205,133.1233 -57.88477,185.7812 L 304.76562,742.22266 C 289.29701,724.04102 282,704.2521 282,676 282,628.66679 299.46762,601.22411 350.7832,575.56641 402.09879,549.90868 488.8337,534 608,534 727.16587,534 813.90131,549.90868 865.2168,575.56641 916.53228,601.2241 934,628.66679 934,676 c 0,23.19596 18.80404,42 42,42 23.19596,0 42,-18.80404 42,-42 C 1018,600.66692 974.13378,536.10885 902.7832,500.43359 831.43262,464.75837 734.16581,450 608,450 Z M 396.44922,979.61914 819.23047,1476.5508 C 762.39759,1524.8537 688.73333,1554 608,1554 c -180.54072,0 -324.30448,-145.3841 -326.00195,-326.3945 -0.82572,-88.0496 46.2523,-188.9415 114.45117,-247.98636 z"
       sodipodi:nodetypes="sssscsscssscssscssssssssssccssc" /></g></svg>
