<?xml version="1.0" encoding="UTF-8" standalone="no"?>
<svg
   version="1.1"
   viewBox="-10 0 1239 2048"
   id="svg1"
   sodipodi:docname="arcomp_2_final.svg"
   inkscape:version="1.3 (0e150ed6c4, 2023-07-21)"
   xml:space="preserve"
   xmlns:inkscape="http://www.inkscape.org/namespaces/inkscape"
   xmlns:sodipodi="http://sodipodi.sourceforge.net/DTD/sodipodi-0.dtd"
   xmlns="http://www.w3.org/2000/svg"
   xmlns:svg="http://www.w3.org/2000/svg"><defs
     id="defs1"><inkscape:path-effect
       effect="spiro"
       id="path-effect69"
       is_visible="true"
       lpeversion="1" /><inkscape:path-effect
       effect="spiro"
       id="path-effect68"
       is_visible="true"
       lpeversion="1" /><inkscape:path-effect
       effect="spiro"
       id="path-effect67"
       is_visible="true"
       lpeversion="1" /><inkscape:path-effect
       effect="spiro"
       id="path-effect66"
       is_visible="true"
       lpeversion="1" /><inkscape:path-effect
       effect="spiro"
       id="path-effect65"
       is_visible="true"
       lpeversion="1" /><inkscape:path-effect
       effect="bspline"
       id="path-effect64"
       is_visible="true"
       lpeversion="1.3"
       weight="33.333333"
       steps="2"
       helper_size="0"
       apply_no_weight="true"
       apply_with_weight="true"
       only_selected="false"
       uniform="false" /></defs><sodipodi:namedview
     id="namedview1"
     pagecolor="#ffffff"
     bordercolor="#999999"
     borderopacity="1"
     inkscape:showpageshadow="2"
     inkscape:pageopacity="0"
     inkscape:pagecheckerboard="0"
     inkscape:deskcolor="#d1d1d1"
     inkscape:zoom="0.25"
     inkscape:cx="1114"
     inkscape:cy="1642"
     inkscape:window-width="1920"
     inkscape:window-height="1001"
     inkscape:window-x="-9"
     inkscape:window-y="-9"
     inkscape:window-maximized="1"
     inkscape:current-layer="svg1"
     showguides="false"><sodipodi:guide
       position="866,410"
       orientation="0,-1"
       id="guide1"
       inkscape:locked="false" /><sodipodi:guide
       position="1230,1230"
       orientation="0,1"
       id="guide2"
       inkscape:locked="false"
       inkscape:label=""
       inkscape:color="rgb(0,134,229)" /><sodipodi:guide
       position="208,219.91946"
       orientation="-1,0"
       id="guide4"
       inkscape:locked="false"
       inkscape:label=""
       inkscape:color="rgb(0,134,229)" /><sodipodi:guide
       position="986,96.214765"
       orientation="-1,0"
       id="guide5"
       inkscape:locked="false"
       inkscape:label=""
       inkscape:color="rgb(0,134,229)" /><sodipodi:guide
       position="0,0"
       orientation="0,-1"
       id="guide7"
       inkscape:locked="false" /><sodipodi:guide
       position="1239,481.27157"
       orientation="1,0"
       id="guide8"
       inkscape:locked="false" /><sodipodi:guide
       position="250,248.01176"
       orientation="-1,0"
       id="guide9"
       inkscape:locked="false"
       inkscape:label=""
       inkscape:color="rgb(0,134,229)" /><sodipodi:guide
       position="1028,452"
       orientation="-1,0"
       id="guide10"
       inkscape:locked="false"
       inkscape:label=""
       inkscape:color="rgb(0,134,229)" /><sodipodi:guide
       position="124.40523,452"
       orientation="0,1"
       id="guide11"
       inkscape:locked="false"
       inkscape:label=""
       inkscape:color="rgb(0,134,229)" /><sodipodi:guide
       position="427.64299,1188"
       orientation="0,1"
       id="guide12"
       inkscape:locked="false"
       inkscape:label=""
       inkscape:color="rgb(0,134,229)" /><sodipodi:guide
       position="97.19159,84"
       orientation="0,1"
       id="guide13"
       inkscape:locked="false"
       inkscape:label=""
       inkscape:color="rgb(0,134,229)" /><sodipodi:guide
       position="590.92487,1556"
       orientation="0,1"
       id="guide14"
       inkscape:locked="false"
       inkscape:label=""
       inkscape:color="rgb(0,134,229)" /></sodipodi:namedview><g
     inkscape:groupmode="layer"
     id="layer2"
     inkscape:label="letter parts 1"
     style="display:inline"><path
       style="color:#000000;fill:#000000;stroke-linecap:round;stroke-linejoin:round;-inkscape-stroke:none"
       d="m 608.01953,450.0293 c -127.91254,0 -229.10795,23.33531 -301.19141,77.39843 -72.08345,54.06313 -108.79687,139.2637 -108.79687,240.59571 0,23.19596 18.80404,42 42,42 23.19596,0 42,-18.80404 42,-42 0,-82.66565 24.61783,-135.46153 75.19727,-173.39649 50.57943,-37.93495 133.37851,-60.59765 250.79101,-60.59765 117.4125,0 200.21191,22.66396 250.79102,60.59765 50.57911,37.93369 75.19568,90.72598 75.19336,173.38477 -0.002,72.47683 -19.66233,121.99152 -57.8418,158.66601 C 654.40997,1139.6887 222.2033,1554.8516 210.9043,1565.7109 c -12.35715,11.8763 -16.25943,30.0691 -9.86005,45.9685 C 207.44364,1627.5789 222.86102,1638 240,1638 h 736 c 23.19596,0 42,-18.804 42,-42 0,-23.196 -18.80404,-42 -42,-42 H 344.35156 c 81.4399,-78.2296 393.33502,-377.8295 590.00196,-566.74414 56.14365,-53.93056 83.64938,-130.39365 83.65038,-219.24219 0,-101.32695 -36.70985,-186.52647 -108.79296,-240.58789 C 837.12783,473.36437 735.93207,450.0293 608.01953,450.0293 Z"
       id="path24-1"
       sodipodi:nodetypes="sssssssssssssssscssss" /></g><g
     inkscape:groupmode="layer"
     id="layer9"
     inkscape:label="letter parts 2"
     style="display:none"><path
       d="M 905.25692,956.96572 239.99984,1595.9994"
       stroke="#000000"
       stroke-width="2.457"
       fill="none"
       id="path1-43" /><path
       d="m 791.99932,491.99942 c 122.6669,0 184.00085,183.99983 184.00085,552.00048"
       stroke="#000000"
       stroke-width="2.457"
       fill="none"
       id="path2-9" /><path
       d="m 239.99984,491.99942 c 490.66655,0 736.00033,183.99983 736.00033,552.00048"
       stroke="#000000"
       stroke-width="2.457"
       fill="none"
       id="path3-4" /><path
       d="m 607.9995,491.99942 c 245.33378,0 368.00067,183.99983 368.00067,552.00048"
       stroke="#000000"
       stroke-width="2.457"
       fill="none"
       id="path4" /><path
       d="m 239.99984,767.99967 c 0,183.99983 122.66689,276.00023 367.99966,276.00023"
       stroke="#000000"
       stroke-width="2.457"
       fill="none"
       id="path5" /><path
       d="m 239.99984,767.99967 c 0,-183.99982 122.66689,-276.00025 367.99966,-276.00025"
       stroke="#000000"
       stroke-width="2.457"
       fill="none"
       id="path6" /><path
       d="m 976.00017,767.99967 c 0,-183.99982 -122.66689,-276.00025 -368.00067,-276.00025"
       stroke="#000000"
       stroke-width="2.457"
       fill="none"
       id="path7" /><path
       d="m 976.00017,1227.9998 v 183.9998"
       stroke="#000000"
       stroke-width="2.457"
       fill="none"
       id="path8" /><path
       d="M 976.00017,676.00027 V 860.0001"
       stroke="#000000"
       stroke-width="2.457"
       fill="none"
       id="path9" /><path
       d="m 976.00017,1227.9998 c 0,245.3327 -61.33395,367.9996 -184.00085,367.9996"
       stroke="#000000"
       stroke-width="2.457"
       fill="none"
       id="path10" /><path
       d="m 239.99984,1227.9998 c 0,245.3327 61.33294,367.9996 183.99983,367.9996"
       stroke="#000000"
       stroke-width="2.457"
       fill="none"
       id="path11" /><path
       d="m 607.9995,1595.9994 c 245.33378,0 368.00067,-61.3329 368.00067,-183.9998"
       stroke="#000000"
       stroke-width="2.457"
       fill="none"
       id="path12" /><path
       d="m 607.9995,860.0001 c 245.33378,0 368.00067,61.33293 368.00067,183.9998"
       stroke="#000000"
       stroke-width="2.457"
       fill="none"
       id="path13" /><path
       d="m 607.9995,1595.9994 c -245.33277,0 -367.99966,-61.3329 -367.99966,-183.9998"
       stroke="#000000"
       stroke-width="2.457"
       fill="none"
       id="path14" /><path
       d="m 607.9995,860.0001 c -245.33277,0 -367.99966,61.33293 -367.99966,183.9998"
       stroke="#000000"
       stroke-width="2.457"
       fill="none"
       id="path15" /><path
       d="m 607.9995,1595.9994 c 137.85833,3.0201 287.7007,-71.9011 368.00067,-183.9998"
       stroke="#000000"
       stroke-width="2.457"
       fill="none"
       id="path16" /><path
       d="m 607.9995,1595.9994 c -137.85834,3.0201 -287.70071,-71.9011 -367.99966,-183.9998"
       stroke="#000000"
       stroke-width="2.457"
       fill="none"
       id="path17" /><path
       d="m 607.9995,860.0001 c 137.85833,-3.02007 287.7007,71.90112 368.00067,183.9998"
       stroke="#000000"
       stroke-width="2.457"
       fill="none"
       id="path18" /><path
       d="M 607.9995,860.0001 C 470.14116,856.98003 320.29879,931.90122 239.99984,1043.9999"
       stroke="#000000"
       stroke-width="2.457"
       fill="none"
       id="path19" /><path
       d="m 607.9995,1595.9994 c 85.83846,2.2819 189.10425,-36.6738 260.21503,-107.7846 71.11078,-71.1108 110.06759,-174.3766 107.78564,-260.215"
       stroke="#000000"
       stroke-width="2.457"
       fill="none"
       id="path20-0" /><path
       d="M 607.9995,1595.9994 C 522.16103,1598.2813 418.89525,1559.3256 347.78446,1488.2148 276.67368,1417.104 237.7179,1313.8382 239.99984,1227.9998"
       stroke="#000000"
       stroke-width="2.457"
       fill="none"
       id="path21" /><path
       d="m 607.9995,860.0001 c 85.83846,-2.28194 189.10425,36.67384 260.21503,107.78462 71.11078,71.11078 110.06759,174.37658 107.78564,260.21508"
       stroke="#000000"
       stroke-width="2.457"
       fill="none"
       id="path22" /><path
       d="M 607.9995,860.0001 C 522.16103,857.71816 418.89525,896.67394 347.78446,967.78472 276.67368,1038.8955 237.7179,1142.1613 239.99984,1227.9998"
       stroke="#000000"
       stroke-width="2.457"
       fill="none"
       id="path23" /><path
       d="m 976.00017,767.99967 c 0,80.67467 -23.58211,143.66301 -70.74325,188.96605"
       stroke="#000000"
       stroke-width="2.457"
       fill="none"
       id="path24" /><path
       d="M -10.000201,-4.7951999e-5 H 1228.9998 V 2047.9999 H -10.000201 Z"
       stroke="#000000"
       stroke-width="2.457"
       fill="none"
       id="path26-0" /><path
       d="M 239.99984,860.0001 V 492.00045"
       stroke="#000000"
       stroke-width="2.457"
       fill="none"
       id="path27-0" /><path
       d="M 976.00017,860.0001 V 492.00045"
       stroke="#000000"
       stroke-width="2.457"
       fill="none"
       id="path28" /><path
       d="m 239.99984,1595.9994 v 368.0007"
       stroke="#000000"
       stroke-width="2.457"
       fill="none"
       id="path29-0" /><path
       d="m 976.00017,1595.9994 v 368.0007"
       stroke="#000000"
       stroke-width="2.457"
       fill="none"
       id="path30-3" /><path
       d="M 608.00052,492.00045 V 1963.9991"
       stroke="#000000"
       stroke-width="2.457"
       fill="none"
       id="path31" /><path
       d="M 239.99984,676.00027 H 608.00052"
       stroke="#000000"
       stroke-width="2.457"
       fill="none"
       id="path32-9" /><path
       d="M 976.00017,676.00027 H 608.00052"
       stroke="#000000"
       stroke-width="2.457"
       fill="none"
       id="path33-0" /><path
       d="M 239.99984,1780.0003 H 608.00052"
       stroke="#000000"
       stroke-width="2.457"
       fill="none"
       id="path34-8" /><path
       d="M 976.00017,1780.0003 H 608.00052"
       stroke="#000000"
       stroke-width="2.457"
       fill="none"
       id="path35-4" /><path
       d="m 239.99984,860.0001 v 367.9997"
       stroke="#000000"
       stroke-width="2.457"
       fill="none"
       id="path36-0" /><path
       d="M 239.99984,1595.9994 V 1227.9998"
       stroke="#000000"
       stroke-width="2.457"
       fill="none"
       id="path37-5" /><path
       d="M 976.00017,1595.9994 V 1227.9998"
       stroke="#000000"
       stroke-width="2.457"
       fill="none"
       id="path38-4" /><path
       d="m 976.00017,860.0001 v 367.9997"
       stroke="#000000"
       stroke-width="2.457"
       fill="none"
       id="path39-6" /><path
       d="M 239.99984,860.0001 H 608.00052"
       stroke="#000000"
       stroke-width="2.457"
       fill="none"
       id="path40-4" /><path
       d="M 239.99984,1227.9998 H 608.00052"
       stroke="#000000"
       stroke-width="2.457"
       fill="none"
       id="path41-9" /><path
       d="M 239.99984,1595.9994 H 976.00017"
       stroke="#000000"
       stroke-width="2.457"
       fill="none"
       id="path42-3" /><path
       d="M 608.00052,1227.9998 H 976.00017"
       stroke="#000000"
       stroke-width="2.457"
       fill="none"
       id="path43-1" /><path
       d="M 239.99984,1964.0001 H 608.00052"
       stroke="#000000"
       stroke-width="2.457"
       fill="none"
       id="path44-1" /><path
       d="M 976.00017,1964.0001 H 608.00052"
       stroke="#000000"
       stroke-width="2.457"
       fill="none"
       id="path45-1" /><path
       d="M 608.00052,860.0001 H 976.00017"
       stroke="#000000"
       stroke-width="2.457"
       fill="none"
       id="path46-2" /><path
       d="M 976.00017,492.00045 H 608.00052"
       stroke="#000000"
       stroke-width="2.457"
       fill="none"
       id="path47-9" /><path
       d="M 239.99984,492.00045 H 608.00052"
       stroke="#000000"
       stroke-width="2.457"
       fill="none"
       id="path48-1" /><path
       d="M 792.00035,492.00045 V 1963.9991"
       stroke="#000000"
       stroke-width="2.457"
       fill="none"
       id="path49-2" /><path
       d="M 423.99967,492.00045 V 1963.9991"
       stroke="#000000"
       stroke-width="2.457"
       fill="none"
       id="path50-8" /><path
       d="M 239.99984,1411.9996 H 608.00052"
       stroke="#000000"
       stroke-width="2.457"
       fill="none"
       id="path51-1" /><path
       d="M 976.00017,1411.9996 H 608.00052"
       stroke="#000000"
       stroke-width="2.457"
       fill="none"
       id="path52-3" /><path
       d="M 239.99984,1043.9999 H 609.50032"
       stroke="#000000"
       stroke-width="2.457"
       fill="none"
       id="path53-0" /><path
       d="M 976.00017,1043.9999 H 608.00052"
       stroke="#000000"
       stroke-width="2.457"
       fill="none"
       id="path54-9" /></g></svg>
