<?xml version="1.0" encoding="UTF-8" standalone="no"?>
<svg
   version="1.1"
   viewBox="-10 0 1239 2048"
   id="svg1"
   sodipodi:docname="arcomp_at_3_final.svg"
   inkscape:version="1.3 (0e150ed6c4, 2023-07-21)"
   xml:space="preserve"
   xmlns:inkscape="http://www.inkscape.org/namespaces/inkscape"
   xmlns:sodipodi="http://sodipodi.sourceforge.net/DTD/sodipodi-0.dtd"
   xmlns="http://www.w3.org/2000/svg"
   xmlns:svg="http://www.w3.org/2000/svg"><defs
     id="defs1"><inkscape:path-effect
       effect="spiro"
       id="path-effect69"
       is_visible="true"
       lpeversion="1" /><inkscape:path-effect
       effect="spiro"
       id="path-effect68"
       is_visible="true"
       lpeversion="1" /><inkscape:path-effect
       effect="spiro"
       id="path-effect67"
       is_visible="true"
       lpeversion="1" /><inkscape:path-effect
       effect="spiro"
       id="path-effect66"
       is_visible="true"
       lpeversion="1" /><inkscape:path-effect
       effect="spiro"
       id="path-effect65"
       is_visible="true"
       lpeversion="1" /><inkscape:path-effect
       effect="bspline"
       id="path-effect64"
       is_visible="true"
       lpeversion="1.3"
       weight="33.333333"
       steps="2"
       helper_size="0"
       apply_no_weight="true"
       apply_with_weight="true"
       only_selected="false"
       uniform="false" /></defs><sodipodi:namedview
     id="namedview1"
     pagecolor="#ffffff"
     bordercolor="#999999"
     borderopacity="1"
     inkscape:showpageshadow="2"
     inkscape:pageopacity="0"
     inkscape:pagecheckerboard="0"
     inkscape:deskcolor="#d1d1d1"
     inkscape:zoom="0.25"
     inkscape:cx="70"
     inkscape:cy="1462"
     inkscape:window-width="1920"
     inkscape:window-height="1001"
     inkscape:window-x="-9"
     inkscape:window-y="-9"
     inkscape:window-maximized="1"
     inkscape:current-layer="svg1"
     showguides="false"><sodipodi:guide
       position="866,410"
       orientation="0,-1"
       id="guide1"
       inkscape:locked="false" /><sodipodi:guide
       position="1230,1230"
       orientation="0,1"
       id="guide2"
       inkscape:locked="false"
       inkscape:label=""
       inkscape:color="rgb(0,134,229)" /><sodipodi:guide
       position="208,219.91946"
       orientation="-1,0"
       id="guide4"
       inkscape:locked="false"
       inkscape:label=""
       inkscape:color="rgb(0,134,229)" /><sodipodi:guide
       position="986,96.214765"
       orientation="-1,0"
       id="guide5"
       inkscape:locked="false"
       inkscape:label=""
       inkscape:color="rgb(0,134,229)" /><sodipodi:guide
       position="0,0"
       orientation="0,-1"
       id="guide7"
       inkscape:locked="false" /><sodipodi:guide
       position="1239,481.27157"
       orientation="1,0"
       id="guide8"
       inkscape:locked="false" /><sodipodi:guide
       position="250,248.01176"
       orientation="-1,0"
       id="guide9"
       inkscape:locked="false"
       inkscape:label=""
       inkscape:color="rgb(0,134,229)" /><sodipodi:guide
       position="1028,452"
       orientation="-1,0"
       id="guide10"
       inkscape:locked="false"
       inkscape:label=""
       inkscape:color="rgb(0,134,229)" /><sodipodi:guide
       position="124.40523,452"
       orientation="0,1"
       id="guide11"
       inkscape:locked="false"
       inkscape:label=""
       inkscape:color="rgb(0,134,229)" /><sodipodi:guide
       position="427.64299,1188"
       orientation="0,1"
       id="guide12"
       inkscape:locked="false"
       inkscape:label=""
       inkscape:color="rgb(0,134,229)" /><sodipodi:guide
       position="97.19159,84"
       orientation="0,1"
       id="guide13"
       inkscape:locked="false"
       inkscape:label=""
       inkscape:color="rgb(0,134,229)" /><sodipodi:guide
       position="590.92487,1556"
       orientation="0,1"
       id="guide14"
       inkscape:locked="false"
       inkscape:label=""
       inkscape:color="rgb(0,134,229)" /></sodipodi:namedview><g
     inkscape:groupmode="layer"
     id="g16"
     inkscape:label="letter parts 2 copy"><path
       style="color:#000000;fill:#000000;stroke-linecap:round;stroke-linejoin:round;-inkscape-stroke:none"
       d="M 608,450 C 382.06095,450 198,634.06094 198,860 v 368 c 0,225.9402 184.14813,408.0007 409.63672,410.002 153.00793,1.3578 312.85331,-76.3604 402.51558,-201.5332 13.5077,-18.857 9.1712,-45.0935 -9.6855,-58.6016 -18.85751,-13.5087 -45.09543,-9.1725 -58.60352,9.6855 -70.92952,99.0212 -210.70402,167.5427 -333.48047,166.4532 C 427.38676,1552.3995 282,1408.541 282,1228 V 860 c 0,-180.54214 145.45787,-326 326,-326 180.54213,0 326.00896,145.45837 326,325.99805 l -0.0137,275.99415 c -0.001,28.1141 -21.88831,50.0039 -50,50.0039 -28.11169,0 -50,-21.8883 -50,-50 0,-61.334 0,-184.00196 0,-184.00196 0,-23.195 -18.805,-42 -42,-42 H 607.98242 c -64.8329,0 -116.09754,7.09247 -156.78125,27.43555 -40.68371,20.34307 -69.21481,61.90432 -69.20898,106.57231 0.006,44.6668 28.73107,86.1142 69.34375,106.2597 40.61268,20.1456 91.66426,27.2249 156.32812,27.7344 49.67369,0.3914 99.61753,-13.9057 142.43164,-39.8731 1.16507,72.5349 61.09964,131.8731 133.89063,131.8731 73.50861,0 133.99637,-60.4919 133.99997,-133.9981 0,0 0.01,-183.99737 0.014,-275.99605 C 1018.011,634.06044 833.93905,450 608,450 Z m -0.0176,543.99414 h 142.00391 v 35.35356 c -33.02157,37.906 -91.97629,65.0418 -141.66016,64.6503 -57.99544,-0.4569 -98.94011,-8.7093 -119.66211,-18.9882 -20.722,-10.279 -22.66978,-14.3493 -22.67187,-31.0176 -0.002,-16.6676 2.13039,-21.1076 22.77734,-31.4317 20.64695,-10.324 61.37986,-18.56636 119.21289,-18.56636 z"
       id="path20"
       sodipodi:nodetypes="sssssssssssssssssssssscsssssccsssss" /></g></svg>
