<?xml version="1.0" encoding="UTF-8" standalone="no"?>
<svg
   version="1.1"
   viewBox="-10 0 1239 2048"
   id="svg1"
   sodipodi:docname="arcomp_florin_2_final.svg"
   inkscape:version="1.3 (0e150ed6c4, 2023-07-21)"
   xml:space="preserve"
   xmlns:inkscape="http://www.inkscape.org/namespaces/inkscape"
   xmlns:sodipodi="http://sodipodi.sourceforge.net/DTD/sodipodi-0.dtd"
   xmlns="http://www.w3.org/2000/svg"
   xmlns:svg="http://www.w3.org/2000/svg"><defs
     id="defs1"><inkscape:path-effect
       effect="pts2ellipse"
       id="path-effect25"
       is_visible="true"
       lpeversion="1"
       method="auto"
       gen_arc="true"
       arc_other="false"
       slice_arc="false"
       gen_isometric_frame="false"
       draw_axes="false"
       gen_perspective_frame="false"
       draw_perspective_axes="false"
       rot_axes="0"
       draw_ori_path="false" /><inkscape:path-effect
       effect="pts2ellipse"
       id="path-effect21"
       is_visible="true"
       lpeversion="1"
       method="auto"
       gen_arc="true"
       arc_other="false"
       slice_arc="false"
       gen_isometric_frame="false"
       draw_axes="false"
       gen_perspective_frame="false"
       draw_perspective_axes="false"
       rot_axes="0"
       draw_ori_path="false" /><inkscape:path-effect
       effect="spiro"
       id="path-effect69"
       is_visible="true"
       lpeversion="1" /><inkscape:path-effect
       effect="spiro"
       id="path-effect68"
       is_visible="true"
       lpeversion="1" /><inkscape:path-effect
       effect="spiro"
       id="path-effect67"
       is_visible="true"
       lpeversion="1" /><inkscape:path-effect
       effect="spiro"
       id="path-effect66"
       is_visible="true"
       lpeversion="1" /><inkscape:path-effect
       effect="spiro"
       id="path-effect65"
       is_visible="true"
       lpeversion="1" /><inkscape:path-effect
       effect="bspline"
       id="path-effect64"
       is_visible="true"
       lpeversion="1.3"
       weight="33.333333"
       steps="2"
       helper_size="0"
       apply_no_weight="true"
       apply_with_weight="true"
       only_selected="false"
       uniform="false" /></defs><sodipodi:namedview
     id="namedview1"
     pagecolor="#ffffff"
     bordercolor="#999999"
     borderopacity="1"
     inkscape:showpageshadow="2"
     inkscape:pageopacity="0"
     inkscape:pagecheckerboard="0"
     inkscape:deskcolor="#d1d1d1"
     inkscape:zoom="0.35355339"
     inkscape:cx="708.521"
     inkscape:cy="1692.8136"
     inkscape:window-width="1920"
     inkscape:window-height="1001"
     inkscape:window-x="-9"
     inkscape:window-y="-9"
     inkscape:window-maximized="1"
     inkscape:current-layer="svg1"
     showguides="false"><sodipodi:guide
       position="866,410"
       orientation="0,-1"
       id="guide1"
       inkscape:locked="false" /><sodipodi:guide
       position="1230,1230"
       orientation="0,1"
       id="guide2"
       inkscape:locked="false"
       inkscape:label=""
       inkscape:color="rgb(0,134,229)" /><sodipodi:guide
       position="208,219.91946"
       orientation="-1,0"
       id="guide4"
       inkscape:locked="false"
       inkscape:label=""
       inkscape:color="rgb(0,134,229)" /><sodipodi:guide
       position="986,96.214765"
       orientation="-1,0"
       id="guide5"
       inkscape:locked="false"
       inkscape:label=""
       inkscape:color="rgb(0,134,229)" /><sodipodi:guide
       position="0,0"
       orientation="0,-1"
       id="guide7"
       inkscape:locked="false" /><sodipodi:guide
       position="1239,481.27157"
       orientation="1,0"
       id="guide8"
       inkscape:locked="false" /><sodipodi:guide
       position="250,248.01176"
       orientation="-1,0"
       id="guide9"
       inkscape:locked="false"
       inkscape:label=""
       inkscape:color="rgb(0,134,229)" /><sodipodi:guide
       position="1028,452"
       orientation="-1,0"
       id="guide10"
       inkscape:locked="false"
       inkscape:label=""
       inkscape:color="rgb(0,134,229)" /><sodipodi:guide
       position="124.40523,452"
       orientation="0,1"
       id="guide11"
       inkscape:locked="false"
       inkscape:label=""
       inkscape:color="rgb(0,134,229)" /><sodipodi:guide
       position="427.64299,1188"
       orientation="0,1"
       id="guide12"
       inkscape:locked="false"
       inkscape:label=""
       inkscape:color="rgb(0,134,229)" /><sodipodi:guide
       position="97.19159,84"
       orientation="0,1"
       id="guide13"
       inkscape:locked="false"
       inkscape:label=""
       inkscape:color="rgb(0,134,229)" /><sodipodi:guide
       position="590.92487,1556"
       orientation="0,1"
       id="guide14"
       inkscape:locked="false"
       inkscape:label=""
       inkscape:color="rgb(0,134,229)" /></sodipodi:namedview><g
     inkscape:groupmode="layer"
     id="layer2"
     inkscape:label="letter parts 1"
     style="display:inline"><path
       id="path25-1"
       style="color:#000000;fill:#000000;stroke-linecap:round;-inkscape-stroke:none"
       d="M 853.33398 450 C 812.1674 450 774.78965 467.21695 747.79883 493.58008 C 720.80801 519.9432 702.41207 553.91921 687.68945 591.77734 C 658.24424 667.49363 643.2376 761.09589 627.9043 853.0957 L 603.08789 1002 L 454.66602 1002 A 42 42 0 0 0 412.66602 1044 A 42 42 0 0 0 454.66602 1086 L 589.08789 1086 L 505.23828 1589.0957 C 489.90498 1681.0955 474.24477 1771.4939 450.02344 1833.7773 C 437.91277 1864.9191 423.72525 1888.4433 409.50781 1902.3301 C 395.29039 1916.2169 382.83264 1922 362.66602 1922 C 315.2757 1922 303.36699 1904.6537 293.17969 1884.1953 C 282.99239 1863.737 282.5 1842.0059 282.5 1842.0059 A 42 42 0 0 0 240.67188 1799.834 A 42 42 0 0 0 198.5 1841.6621 C 198.5 1841.6621 197.75702 1881.0138 217.98633 1921.6387 C 238.21563 1962.2635 287.3899 2006 362.66602 2006 C 403.83259 2006 441.21035 1988.7831 468.20117 1962.4199 C 495.19199 1936.0568 513.58793 1902.0807 528.31055 1864.2227 C 557.75577 1788.5063 572.7624 1694.9041 588.0957 1602.9043 L 674.24609 1086 L 822.66602 1086 A 42 42 0 0 0 864.66602 1044 A 42 42 0 0 0 822.66602 1002 L 688.24609 1002 L 710.76172 866.9043 C 726.09502 774.90447 741.75523 684.50609 765.97656 622.22266 C 778.08723 591.08093 792.27475 567.55672 806.49219 553.66992 C 820.70961 539.78314 833.16735 534 853.33398 534 C 900.72435 534 912.63301 551.34637 922.82031 571.80469 C 933.00762 592.26301 933.5 613.99414 933.5 613.99414 A 42 42 0 0 0 975.32812 656.16602 A 42 42 0 0 0 1017.5 614.33789 C 1017.5 614.33789 1018.243 574.98619 998.01367 534.36133 C 977.78435 493.73647 928.61013 450 853.33398 450 z " /></g></svg>
