<?xml version="1.0" encoding="UTF-8" standalone="no"?>
<svg
   version="1.1"
   viewBox="-10 0 1239 2048"
   id="svg1"
   sodipodi:docname="arcomp_2_2.svg"
   inkscape:version="1.3 (0e150ed6c4, 2023-07-21)"
   xml:space="preserve"
   xmlns:inkscape="http://www.inkscape.org/namespaces/inkscape"
   xmlns:sodipodi="http://sodipodi.sourceforge.net/DTD/sodipodi-0.dtd"
   xmlns="http://www.w3.org/2000/svg"
   xmlns:svg="http://www.w3.org/2000/svg"><defs
     id="defs1"><inkscape:path-effect
       effect="spiro"
       id="path-effect69"
       is_visible="true"
       lpeversion="1" /><inkscape:path-effect
       effect="spiro"
       id="path-effect68"
       is_visible="true"
       lpeversion="1" /><inkscape:path-effect
       effect="spiro"
       id="path-effect67"
       is_visible="true"
       lpeversion="1" /><inkscape:path-effect
       effect="spiro"
       id="path-effect66"
       is_visible="true"
       lpeversion="1" /><inkscape:path-effect
       effect="spiro"
       id="path-effect65"
       is_visible="true"
       lpeversion="1" /><inkscape:path-effect
       effect="bspline"
       id="path-effect64"
       is_visible="true"
       lpeversion="1.3"
       weight="33.333333"
       steps="2"
       helper_size="0"
       apply_no_weight="true"
       apply_with_weight="true"
       only_selected="false"
       uniform="false" /></defs><sodipodi:namedview
     id="namedview1"
     pagecolor="#ffffff"
     bordercolor="#999999"
     borderopacity="1"
     inkscape:showpageshadow="2"
     inkscape:pageopacity="0"
     inkscape:pagecheckerboard="0"
     inkscape:deskcolor="#d1d1d1"
     inkscape:zoom="0.25"
     inkscape:cx="314"
     inkscape:cy="1518"
     inkscape:window-width="1920"
     inkscape:window-height="1001"
     inkscape:window-x="-9"
     inkscape:window-y="-9"
     inkscape:window-maximized="1"
     inkscape:current-layer="layer2"
     showguides="false"><sodipodi:guide
       position="866,410"
       orientation="0,-1"
       id="guide1"
       inkscape:locked="false" /><sodipodi:guide
       position="1230,1230"
       orientation="0,1"
       id="guide2"
       inkscape:locked="false"
       inkscape:label=""
       inkscape:color="rgb(0,134,229)" /><sodipodi:guide
       position="208,219.91946"
       orientation="-1,0"
       id="guide4"
       inkscape:locked="false"
       inkscape:label=""
       inkscape:color="rgb(0,134,229)" /><sodipodi:guide
       position="986,96.214765"
       orientation="-1,0"
       id="guide5"
       inkscape:locked="false"
       inkscape:label=""
       inkscape:color="rgb(0,134,229)" /><sodipodi:guide
       position="0,0"
       orientation="0,-1"
       id="guide7"
       inkscape:locked="false" /><sodipodi:guide
       position="1239,481.27157"
       orientation="1,0"
       id="guide8"
       inkscape:locked="false" /><sodipodi:guide
       position="250,248.01176"
       orientation="-1,0"
       id="guide9"
       inkscape:locked="false"
       inkscape:label=""
       inkscape:color="rgb(0,134,229)" /><sodipodi:guide
       position="1028,452"
       orientation="-1,0"
       id="guide10"
       inkscape:locked="false"
       inkscape:label=""
       inkscape:color="rgb(0,134,229)" /><sodipodi:guide
       position="124.40523,452"
       orientation="0,1"
       id="guide11"
       inkscape:locked="false"
       inkscape:label=""
       inkscape:color="rgb(0,134,229)" /><sodipodi:guide
       position="427.64299,1188"
       orientation="0,1"
       id="guide12"
       inkscape:locked="false"
       inkscape:label=""
       inkscape:color="rgb(0,134,229)" /><sodipodi:guide
       position="97.19159,84"
       orientation="0,1"
       id="guide13"
       inkscape:locked="false"
       inkscape:label=""
       inkscape:color="rgb(0,134,229)" /><sodipodi:guide
       position="590.92487,1556"
       orientation="0,1"
       id="guide14"
       inkscape:locked="false"
       inkscape:label=""
       inkscape:color="rgb(0,134,229)" /></sodipodi:namedview><g
     inkscape:groupmode="layer"
     id="layer4"
     inkscape:label="guide 1"
     style="display:inline"><g
       inkscape:groupmode="layer"
       id="layer7"
       inkscape:label="courier letters"
       sodipodi:insensitive="true"><g
         inkscape:groupmode="layer"
         id="layer5"
         inkscape:label="courier m"
         style="display:none"
         sodipodi:insensitive="true"><path
           fill="currentColor"
           d="m 232,772 v 85 Q 339,742 447,742 512,742 561,776.5 610,811 643,881 699,811 756.5,776.5 814,742 872,742 q 91,0 145,59 71,76 71,166 v 587 h 71 q 30,0 43,11.5 13,11.5 13,30.5 0,18 -13,30 -13,12 -43,12 H 1004 V 975 q 0,-64 -39,-106 -39,-42 -90,-42 -46,0 -97,34.5 Q 727,896 662,997 v 557 h 70 q 30,0 43,11.5 13,11.5 13,30.5 0,18 -13,30 -13,12 -43,12 H 577 V 981 Q 577,914 537.5,870.5 498,827 449,827 q -45,0 -89,29 -61,41 -128,141 v 557 h 71 q 30,0 43,11.5 13,11.5 13,30.5 0,18 -13,30 -13,12 -43,12 H 77 q -30,0 -43,-12 -13,-12 -13,-30 0,-19 13,-30.5 13,-11.5 43,-11.5 h 71 V 857 H 77 Q 47,857 34,845 21,833 21,814 21,796 34,784 47,772 77,772 Z"
           id="path1-4"
           style="fill:#000000;fill-opacity:0.5" /></g><g
         inkscape:groupmode="layer"
         id="layer3"
         inkscape:label="courier a cap"
         style="display:none"
         sodipodi:insensitive="true"><path
           fill="currentColor"
           d="M 891,1247 H 339 l -113,307 h 161 q 30,0 43,11.5 13,11.5 13,30.5 0,18 -13,30 -13,12 -43,12 H 73 q -30,0 -43,-12 -13,-12 -13,-30 0,-19 13,-30.5 13,-11.5 43,-11.5 h 65 L 509,552 H 261 Q 231,552 218,540.5 205,529 205,510 205,491 218,479.5 231,468 261,468 h 423 l 410,1086 h 65 q 30,0 43,11.5 13,11.5 13,30.5 0,18 -13,30 -13,12 -43,12 H 846 q -31,0 -44,-12 -13,-12 -13,-30 0,-19 13,-30.5 13,-11.5 44,-11.5 h 160 z M 859,1163 627,552 h -31 l -225,611 z"
           id="path1-7"
           style="fill:#000000;fill-opacity:0.5" /></g><g
         inkscape:groupmode="layer"
         id="layer1"
         inkscape:label="courier a"
         style="display:none"
         sodipodi:insensitive="true"><path
           fill="currentColor"
           d="m 856,1638 v -121 q -183,154 -391,154 -151,0 -236,-76.5 -85,-76.5 -85,-187.5 0,-122 112,-213 112,-91 327,-91 58,0 126,7.5 68,7.5 147,23.5 V 998 q 0,-69 -64,-120 -64,-51 -192,-51 -98,0 -275,57 -32,10 -41,10 -16,0 -27.5,-12 -11.5,-12 -11.5,-30 0,-17 10,-27 14,-15 113,-41 156,-42 236,-42 159,0 248,78.5 89,78.5 89,177.5 v 556 h 112 q 31,0 44,11.5 13,11.5 13,30.5 0,18 -13,30 -13,12 -44,12 z m 0,-418 q -59,-17 -125,-25 -66,-8 -139,-8 -183,0 -286,79 -78,59 -78,141 0,76 59.5,128 59.5,52 173.5,52 109,0 202.5,-43.5 Q 757,1500 856,1405 Z"
           id="path1"
           style="fill:#000000;fill-opacity:0.5" /></g></g><g
       inkscape:groupmode="layer"
       id="layer6"
       inkscape:label="guide"
       sodipodi:insensitive="true"><path
         style="fill:none;stroke:#000000;stroke-width:1px;stroke-linecap:butt;stroke-linejoin:miter;stroke-opacity:1"
         d="M 240,860 V 492"
         id="path26" /><path
         style="fill:none;stroke:#000000;stroke-width:1px;stroke-linecap:butt;stroke-linejoin:miter;stroke-opacity:1"
         d="M 976,860 V 492"
         id="path27" /><path
         style="fill:none;stroke:#000000;stroke-width:1px;stroke-linecap:butt;stroke-linejoin:miter;stroke-opacity:1"
         d="m 240,1596 v 368"
         id="path29" /><path
         style="fill:none;stroke:#000000;stroke-width:1px;stroke-linecap:butt;stroke-linejoin:miter;stroke-opacity:1"
         d="m 976,1596 v 368"
         id="path30" /><path
         style="fill:none;stroke:#000000;stroke-width:1px;stroke-linecap:butt;stroke-linejoin:miter;stroke-opacity:1"
         d="M 608,492 V 1964"
         id="path32" /><path
         style="fill:none;stroke:#000000;stroke-width:1px;stroke-linecap:butt;stroke-linejoin:miter;stroke-opacity:1"
         d="M 240,676 H 608"
         id="path33" /><path
         style="fill:none;stroke:#000000;stroke-width:1px;stroke-linecap:butt;stroke-linejoin:miter;stroke-opacity:1"
         d="M 976,676 H 608"
         id="path34" /><path
         style="fill:none;stroke:#000000;stroke-width:1px;stroke-linecap:butt;stroke-linejoin:miter;stroke-opacity:1"
         d="M 240,1780 H 608"
         id="path35" /><path
         style="fill:none;stroke:#000000;stroke-width:1px;stroke-linecap:butt;stroke-linejoin:miter;stroke-opacity:1"
         d="M 976,1780 H 608"
         id="path36" /><path
         style="fill:none;stroke:#000000;stroke-width:1px;stroke-linecap:butt;stroke-linejoin:miter;stroke-opacity:1"
         d="m 240,860 v 368"
         id="path37" /><path
         style="fill:none;stroke:#000000;stroke-width:1px;stroke-linecap:butt;stroke-linejoin:miter;stroke-opacity:1"
         d="M 240,1596 V 1228"
         id="path38" /><path
         style="fill:none;stroke:#000000;stroke-width:1px;stroke-linecap:butt;stroke-linejoin:miter;stroke-opacity:1"
         d="M 976,1596 V 1228"
         id="path39" /><path
         style="fill:none;stroke:#000000;stroke-width:1px;stroke-linecap:butt;stroke-linejoin:miter;stroke-opacity:1"
         d="m 976,860 v 368"
         id="path40" /><path
         style="fill:none;stroke:#000000;stroke-width:1px;stroke-linecap:butt;stroke-linejoin:miter;stroke-opacity:1"
         d="M 240,860 H 608"
         id="path41" /><path
         style="fill:none;stroke:#000000;stroke-width:1px;stroke-linecap:butt;stroke-linejoin:miter;stroke-opacity:1"
         d="M 240,1228 H 608"
         id="path42" /><path
         style="fill:none;stroke:#000000;stroke-width:1px;stroke-linecap:butt;stroke-linejoin:miter;stroke-opacity:1"
         d="M 240,1596 H 608"
         id="path43" /><path
         style="fill:none;stroke:#000000;stroke-width:1px;stroke-linecap:butt;stroke-linejoin:miter;stroke-opacity:1"
         d="M 608,1596 H 976"
         id="path44" /><path
         style="fill:none;stroke:#000000;stroke-width:1px;stroke-linecap:butt;stroke-linejoin:miter;stroke-opacity:1"
         d="M 608,1228 H 976"
         id="path45" /><path
         style="fill:none;stroke:#000000;stroke-width:1px;stroke-linecap:butt;stroke-linejoin:miter;stroke-opacity:1"
         d="M 240,1964 H 608"
         id="path46" /><path
         style="fill:none;stroke:#000000;stroke-width:1px;stroke-linecap:butt;stroke-linejoin:miter;stroke-opacity:1"
         d="M 976,1964 H 608"
         id="path47" /><path
         style="fill:none;stroke:#000000;stroke-width:1px;stroke-linecap:butt;stroke-linejoin:miter;stroke-opacity:1"
         d="M 608,860 H 976"
         id="path48" /><path
         style="fill:none;stroke:#000000;stroke-width:1px;stroke-linecap:butt;stroke-linejoin:miter;stroke-opacity:1"
         d="M 976,492 H 608"
         id="path49" /><path
         style="fill:none;stroke:#000000;stroke-width:1px;stroke-linecap:butt;stroke-linejoin:miter;stroke-opacity:1"
         d="M 240,492 H 608"
         id="path50" /><path
         style="fill:none;stroke:#000000;stroke-width:1px;stroke-linecap:butt;stroke-linejoin:miter;stroke-opacity:1"
         d="M 792,492 V 1964"
         id="path51" /><path
         style="fill:none;stroke:#000000;stroke-width:1px;stroke-linecap:butt;stroke-linejoin:miter;stroke-opacity:1"
         d="M 424,492 V 1964"
         id="path52" /><path
         style="fill:none;stroke:#000000;stroke-width:1px;stroke-linecap:butt;stroke-linejoin:miter;stroke-opacity:1"
         d="M 240,1412 H 608"
         id="path53" /><path
         style="fill:none;stroke:#000000;stroke-width:1px;stroke-linecap:butt;stroke-linejoin:miter;stroke-opacity:1"
         d="M 976,1412 H 608"
         id="path54" /><path
         style="fill:none;stroke:#000000;stroke-width:1px;stroke-linecap:butt;stroke-linejoin:miter;stroke-opacity:1"
         d="M 240,1044 H 609.5"
         id="path55" /><path
         style="fill:none;stroke:#000000;stroke-width:1px;stroke-linecap:butt;stroke-linejoin:miter;stroke-opacity:1"
         d="M 976,1044 H 608"
         id="path56" /><rect
         style="fill:none;fill-opacity:0.5;stroke:#000000;stroke-width:3.644;stroke-linecap:butt;stroke-linejoin:miter;stroke-dasharray:none;stroke-opacity:1"
         id="rect65"
         width="1239"
         height="2048"
         x="-10"
         y="0" /></g></g><g
     inkscape:groupmode="layer"
     id="layer2"
     inkscape:label="letter parts 1"
     style="display:inline"><path
       id="path27-9"
       style="fill:none;stroke:#000000;stroke-opacity:1;stroke-width:84;stroke-dasharray:none;stroke-linecap:round;stroke-linejoin:round"
       d="M 976,1596 H 240 L 854.59728,1041.1545 C 928.82006,974.14774 976.56796,867.99221 976.0037,768.0117 974.96537,584.02919 853.34475,492.02883 608.01947,492.02883 c -245.32528,0 -367.98867,91.99743 -367.98867,275.99527"
       sodipodi:nodetypes="ccsssc" /></g><g
     inkscape:groupmode="layer"
     id="layer10"
     inkscape:label="Layer 1"
     style="display:none"><path
       d="m 976.00057,767.99959 c 0,80.67467 -23.58108,143.66301 -70.74325,188.96605"
       stroke="#000000"
       stroke-width="2.457"
       fill="none"
       id="path1-9" /><path
       d="m 976.00057,767.99959 c 0,184.00085 -122.66689,276.00021 -367.99965,276.00021"
       stroke="#000000"
       stroke-width="2.457"
       fill="none"
       id="path2" /><path
       d="M 905.25834,956.96564 240.00127,1596.0003"
       stroke="#000000"
       stroke-width="2.457"
       fill="none"
       id="path3-8" /><path
       d="m 792.00075,492.00036 c 122.66689,0 183.99982,183.99983 183.99982,551.99944"
       stroke="#000000"
       stroke-width="2.457"
       fill="none"
       id="path4" /><path
       d="m 240.00024,492.00036 c 490.66655,0 736.00033,183.99983 736.00033,551.99944"
       stroke="#000000"
       stroke-width="2.457"
       fill="none"
       id="path5" /><path
       d="m 608.00092,492.00036 c 245.33276,0 367.99965,183.99983 367.99965,551.99944"
       stroke="#000000"
       stroke-width="2.457"
       fill="none"
       id="path6" /><path
       d="m 240.00024,767.99959 c 0,184.00085 122.6669,276.00021 368.00068,276.00021"
       stroke="#000000"
       stroke-width="2.457"
       fill="none"
       id="path7" /><path
       d="m 240.00024,767.99959 c 0,-183.99982 122.6669,-275.99923 368.00068,-275.99923"
       stroke="#000000"
       stroke-width="2.457"
       fill="none"
       id="path8" /><path
       d="m 976.00057,767.99959 c 0,-183.99982 -122.66689,-275.99923 -367.99965,-275.99923"
       stroke="#000000"
       stroke-width="2.457"
       fill="none"
       id="path9" /><path
       d="m 976.00057,1228.0007 v 183.9998"
       stroke="#000000"
       stroke-width="2.457"
       fill="none"
       id="path10" /><path
       d="M 976.00057,676.00019 V 860.00002"
       stroke="#000000"
       stroke-width="2.457"
       fill="none"
       id="path11" /><path
       d="m 976.00057,1228.0007 c 0,245.3328 -61.33293,367.9996 -183.99982,367.9996"
       stroke="#000000"
       stroke-width="2.457"
       fill="none"
       id="path12" /><path
       d="m 240.00024,1228.0007 c 0,245.3328 61.33396,367.9996 183.99983,367.9996"
       stroke="#000000"
       stroke-width="2.457"
       fill="none"
       id="path13" /><path
       d="m 608.00092,1596.0003 c 245.33276,0 367.99965,-61.3339 367.99965,-183.9998"
       stroke="#000000"
       stroke-width="2.457"
       fill="none"
       id="path14" /><path
       d="m 608.00092,860.00002 c 245.33276,0 367.99965,61.33293 367.99965,183.99978"
       stroke="#000000"
       stroke-width="2.457"
       fill="none"
       id="path15" /><path
       d="m 608.00092,1596.0003 c -245.33378,0 -368.00068,-61.3339 -368.00068,-183.9998"
       stroke="#000000"
       stroke-width="2.457"
       fill="none"
       id="path16" /><path
       d="m 608.00092,860.00002 c -245.33378,0 -368.00068,61.33293 -368.00068,183.99978"
       stroke="#000000"
       stroke-width="2.457"
       fill="none"
       id="path17" /><path
       d="m 608.00092,1596.0003 c 137.85834,3.0191 287.70071,-71.9021 367.99965,-183.9998"
       stroke="#000000"
       stroke-width="2.457"
       fill="none"
       id="path18" /><path
       d="m 608.00092,1596.0003 c -137.85834,3.0191 -287.7007,-71.9021 -368.00068,-183.9998"
       stroke="#000000"
       stroke-width="2.457"
       fill="none"
       id="path19" /><path
       d="m 608.00092,860.00002 c 137.85834,-3.01904 287.70071,71.90214 367.99965,183.99978"
       stroke="#000000"
       stroke-width="2.457"
       fill="none"
       id="path20" /><path
       d="M 608.00092,860.00002 C 470.14258,856.98098 320.30022,931.90216 240.00024,1043.9998"
       stroke="#000000"
       stroke-width="2.457"
       fill="none"
       id="path21" /><path
       d="m 608.00092,1596.0003 c 85.83847,2.282 189.10425,-36.6738 260.21503,-107.7846 71.11079,-71.1108 110.06657,-174.3776 107.78462,-260.215"
       stroke="#000000"
       stroke-width="2.457"
       fill="none"
       id="path22" /><path
       d="m 608.00092,1596.0003 c -85.83847,2.282 -189.10527,-36.6738 -260.21606,-107.7846 -71.11078,-71.1108 -110.06656,-174.3776 -107.78462,-260.215"
       stroke="#000000"
       stroke-width="2.457"
       fill="none"
       id="path23" /><path
       d="m 608.00092,860.00002 c 85.83847,-2.28194 189.10425,36.67384 260.21503,107.78462 71.11079,71.11076 110.06657,174.37656 107.78462,260.21606"
       stroke="#000000"
       stroke-width="2.457"
       fill="none"
       id="path24" /><path
       d="M 608.00092,860.00002 C 522.16245,857.71808 418.89565,896.67386 347.78486,967.78464 276.67408,1038.8954 237.7183,1142.1612 240.00024,1228.0007"
       stroke="#000000"
       stroke-width="2.457"
       fill="none"
       id="path25" /><path
       d="M -9.9997999,-1.29672e-4 H 1229.0002 V 2047.9998 H -9.9997999 Z"
       stroke="#000000"
       stroke-width="2.457"
       fill="none"
       id="path28" /><path
       d="M 240.00127,860.00002 V 492.00036"
       stroke="#000000"
       stroke-width="2.457"
       fill="none"
       id="path29-0" /><path
       d="M 976.00057,860.00002 V 492.00036"
       stroke="#000000"
       stroke-width="2.457"
       fill="none"
       id="path30-0" /><path
       d="M 240.00127,1596.0003 V 1964"
       stroke="#000000"
       stroke-width="2.457"
       fill="none"
       id="path31" /><path
       d="M 976.00057,1596.0003 V 1964"
       stroke="#000000"
       stroke-width="2.457"
       fill="none"
       id="path32-6" /><path
       d="M 608.00092,492.00036 V 1964"
       stroke="#000000"
       stroke-width="2.457"
       fill="none"
       id="path33-2" /><path
       d="M 240.00127,676.00019 H 608.00092"
       stroke="#000000"
       stroke-width="2.457"
       fill="none"
       id="path34-8" /><path
       d="M 976.00057,676.00019 H 608.00092"
       stroke="#000000"
       stroke-width="2.457"
       fill="none"
       id="path35-2" /><path
       d="M 240.00127,1780.0002 H 608.00092"
       stroke="#000000"
       stroke-width="2.457"
       fill="none"
       id="path36-4" /><path
       d="M 976.00057,1780.0002 H 608.00092"
       stroke="#000000"
       stroke-width="2.457"
       fill="none"
       id="path37-5" /><path
       d="M 240.00127,860.00002 V 1228.0007"
       stroke="#000000"
       stroke-width="2.457"
       fill="none"
       id="path38-8" /><path
       d="M 240.00127,1596.0003 V 1228.0007"
       stroke="#000000"
       stroke-width="2.457"
       fill="none"
       id="path39-2" /><path
       d="M 976.00057,1596.0003 V 1228.0007"
       stroke="#000000"
       stroke-width="2.457"
       fill="none"
       id="path40-9" /><path
       d="M 976.00057,860.00002 V 1228.0007"
       stroke="#000000"
       stroke-width="2.457"
       fill="none"
       id="path41-2" /><path
       d="M 240.00127,860.00002 H 608.00092"
       stroke="#000000"
       stroke-width="2.457"
       fill="none"
       id="path42-6" /><path
       d="M 240.00127,1228.0007 H 608.00092"
       stroke="#000000"
       stroke-width="2.457"
       fill="none"
       id="path43-4" /><path
       d="m 240.00127,1596.0003 h 735.9993"
       stroke="#000000"
       stroke-width="2.457"
       fill="none"
       id="path44-1" /><path
       d="M 608.00092,1228.0007 H 976.00057"
       stroke="#000000"
       stroke-width="2.457"
       fill="none"
       id="path45-4" /><path
       d="M 240.00127,1964 H 608.00092"
       stroke="#000000"
       stroke-width="2.457"
       fill="none"
       id="path46-0" /><path
       d="M 976.00057,1964 H 608.00092"
       stroke="#000000"
       stroke-width="2.457"
       fill="none"
       id="path47-7" /><path
       d="M 608.00092,860.00002 H 976.00057"
       stroke="#000000"
       stroke-width="2.457"
       fill="none"
       id="path48-4" /><path
       d="M 976.00057,492.00036 H 608.00092"
       stroke="#000000"
       stroke-width="2.457"
       fill="none"
       id="path49-7" /><path
       d="M 240.00127,492.00036 H 608.00092"
       stroke="#000000"
       stroke-width="2.457"
       fill="none"
       id="path50-9" /><path
       d="M 792.00075,492.00036 V 1964"
       stroke="#000000"
       stroke-width="2.457"
       fill="none"
       id="path51-1" /><path
       d="M 424.00109,492.00036 V 1964"
       stroke="#000000"
       stroke-width="2.457"
       fill="none"
       id="path52-5" /><path
       d="M 240.00127,1412.0005 H 608.00092"
       stroke="#000000"
       stroke-width="2.457"
       fill="none"
       id="path53-6" /><path
       d="M 976.00057,1412.0005 H 608.00092"
       stroke="#000000"
       stroke-width="2.457"
       fill="none"
       id="path54-3" /><path
       d="M 240.00127,1043.9998 H 609.50072"
       stroke="#000000"
       stroke-width="2.457"
       fill="none"
       id="path55-1" /><path
       d="M 976.00057,1043.9998 H 608.00092"
       stroke="#000000"
       stroke-width="2.457"
       fill="none"
       id="path56-2" /></g></svg>
