<?xml version="1.0" encoding="UTF-8" standalone="no"?>
<svg
   version="1.1"
   viewBox="-10 0 1239 2048"
   id="svg1"
   sodipodi:docname="arcomp_superscript_2.svg"
   inkscape:version="1.3 (0e150ed6c4, 2023-07-21)"
   xml:space="preserve"
   xmlns:inkscape="http://www.inkscape.org/namespaces/inkscape"
   xmlns:sodipodi="http://sodipodi.sourceforge.net/DTD/sodipodi-0.dtd"
   xmlns="http://www.w3.org/2000/svg"
   xmlns:svg="http://www.w3.org/2000/svg"><defs
     id="defs1"><inkscape:path-effect
       effect="spiro"
       id="path-effect69"
       is_visible="true"
       lpeversion="1" /><inkscape:path-effect
       effect="spiro"
       id="path-effect68"
       is_visible="true"
       lpeversion="1" /><inkscape:path-effect
       effect="spiro"
       id="path-effect67"
       is_visible="true"
       lpeversion="1" /><inkscape:path-effect
       effect="spiro"
       id="path-effect66"
       is_visible="true"
       lpeversion="1" /><inkscape:path-effect
       effect="spiro"
       id="path-effect65"
       is_visible="true"
       lpeversion="1" /><inkscape:path-effect
       effect="bspline"
       id="path-effect64"
       is_visible="true"
       lpeversion="1.3"
       weight="33.333333"
       steps="2"
       helper_size="0"
       apply_no_weight="true"
       apply_with_weight="true"
       only_selected="false"
       uniform="false" /></defs><sodipodi:namedview
     id="namedview1"
     pagecolor="#ffffff"
     bordercolor="#999999"
     borderopacity="1"
     inkscape:showpageshadow="2"
     inkscape:pageopacity="0"
     inkscape:pagecheckerboard="0"
     inkscape:deskcolor="#d1d1d1"
     inkscape:zoom="0.25"
     inkscape:cx="766"
     inkscape:cy="738"
     inkscape:window-width="1920"
     inkscape:window-height="1001"
     inkscape:window-x="-9"
     inkscape:window-y="-9"
     inkscape:window-maximized="1"
     inkscape:current-layer="layer2"
     showguides="false"><sodipodi:guide
       position="866,410"
       orientation="0,-1"
       id="guide1"
       inkscape:locked="false" /><sodipodi:guide
       position="1230,1230"
       orientation="0,1"
       id="guide2"
       inkscape:locked="false"
       inkscape:label=""
       inkscape:color="rgb(0,134,229)" /><sodipodi:guide
       position="208,219.91946"
       orientation="-1,0"
       id="guide4"
       inkscape:locked="false"
       inkscape:label=""
       inkscape:color="rgb(0,134,229)" /><sodipodi:guide
       position="986,96.214765"
       orientation="-1,0"
       id="guide5"
       inkscape:locked="false"
       inkscape:label=""
       inkscape:color="rgb(0,134,229)" /><sodipodi:guide
       position="0,0"
       orientation="0,-1"
       id="guide7"
       inkscape:locked="false" /><sodipodi:guide
       position="1239,481.27157"
       orientation="1,0"
       id="guide8"
       inkscape:locked="false" /><sodipodi:guide
       position="250,248.01176"
       orientation="-1,0"
       id="guide9"
       inkscape:locked="false"
       inkscape:label=""
       inkscape:color="rgb(0,134,229)" /><sodipodi:guide
       position="1028,452"
       orientation="-1,0"
       id="guide10"
       inkscape:locked="false"
       inkscape:label=""
       inkscape:color="rgb(0,134,229)" /><sodipodi:guide
       position="124.40523,452"
       orientation="0,1"
       id="guide11"
       inkscape:locked="false"
       inkscape:label=""
       inkscape:color="rgb(0,134,229)" /><sodipodi:guide
       position="427.64299,1188"
       orientation="0,1"
       id="guide12"
       inkscape:locked="false"
       inkscape:label=""
       inkscape:color="rgb(0,134,229)" /><sodipodi:guide
       position="97.19159,84"
       orientation="0,1"
       id="guide13"
       inkscape:locked="false"
       inkscape:label=""
       inkscape:color="rgb(0,134,229)" /><sodipodi:guide
       position="590.92487,1556"
       orientation="0,1"
       id="guide14"
       inkscape:locked="false"
       inkscape:label=""
       inkscape:color="rgb(0,134,229)" /></sodipodi:namedview><g
     inkscape:groupmode="layer"
     id="layer4"
     inkscape:label="guide 1"
     style="display:inline"><g
       inkscape:groupmode="layer"
       id="layer7"
       inkscape:label="courier letters"
       sodipodi:insensitive="true"><g
         inkscape:groupmode="layer"
         id="layer5"
         inkscape:label="courier m"
         style="display:none"
         sodipodi:insensitive="true"><path
           fill="currentColor"
           d="m 232,772 v 85 Q 339,742 447,742 512,742 561,776.5 610,811 643,881 699,811 756.5,776.5 814,742 872,742 q 91,0 145,59 71,76 71,166 v 587 h 71 q 30,0 43,11.5 13,11.5 13,30.5 0,18 -13,30 -13,12 -43,12 H 1004 V 975 q 0,-64 -39,-106 -39,-42 -90,-42 -46,0 -97,34.5 Q 727,896 662,997 v 557 h 70 q 30,0 43,11.5 13,11.5 13,30.5 0,18 -13,30 -13,12 -43,12 H 577 V 981 Q 577,914 537.5,870.5 498,827 449,827 q -45,0 -89,29 -61,41 -128,141 v 557 h 71 q 30,0 43,11.5 13,11.5 13,30.5 0,18 -13,30 -13,12 -43,12 H 77 q -30,0 -43,-12 -13,-12 -13,-30 0,-19 13,-30.5 13,-11.5 43,-11.5 h 71 V 857 H 77 Q 47,857 34,845 21,833 21,814 21,796 34,784 47,772 77,772 Z"
           id="path1-4"
           style="fill:#000000;fill-opacity:0.5" /></g><g
         inkscape:groupmode="layer"
         id="layer3"
         inkscape:label="courier a cap"
         style="display:none"
         sodipodi:insensitive="true"><path
           fill="currentColor"
           d="M 891,1247 H 339 l -113,307 h 161 q 30,0 43,11.5 13,11.5 13,30.5 0,18 -13,30 -13,12 -43,12 H 73 q -30,0 -43,-12 -13,-12 -13,-30 0,-19 13,-30.5 13,-11.5 43,-11.5 h 65 L 509,552 H 261 Q 231,552 218,540.5 205,529 205,510 205,491 218,479.5 231,468 261,468 h 423 l 410,1086 h 65 q 30,0 43,11.5 13,11.5 13,30.5 0,18 -13,30 -13,12 -43,12 H 846 q -31,0 -44,-12 -13,-12 -13,-30 0,-19 13,-30.5 13,-11.5 44,-11.5 h 160 z M 859,1163 627,552 h -31 l -225,611 z"
           id="path1-7"
           style="fill:#000000;fill-opacity:0.5" /></g><g
         inkscape:groupmode="layer"
         id="layer1"
         inkscape:label="courier a"
         style="display:none"
         sodipodi:insensitive="true"><path
           fill="currentColor"
           d="m 856,1638 v -121 q -183,154 -391,154 -151,0 -236,-76.5 -85,-76.5 -85,-187.5 0,-122 112,-213 112,-91 327,-91 58,0 126,7.5 68,7.5 147,23.5 V 998 q 0,-69 -64,-120 -64,-51 -192,-51 -98,0 -275,57 -32,10 -41,10 -16,0 -27.5,-12 -11.5,-12 -11.5,-30 0,-17 10,-27 14,-15 113,-41 156,-42 236,-42 159,0 248,78.5 89,78.5 89,177.5 v 556 h 112 q 31,0 44,11.5 13,11.5 13,30.5 0,18 -13,30 -13,12 -44,12 z m 0,-418 q -59,-17 -125,-25 -66,-8 -139,-8 -183,0 -286,79 -78,59 -78,141 0,76 59.5,128 59.5,52 173.5,52 109,0 202.5,-43.5 Q 757,1500 856,1405 Z"
           id="path1"
           style="fill:#000000;fill-opacity:0.5" /></g></g><g
       inkscape:groupmode="layer"
       id="layer6"
       inkscape:label="guide"
       sodipodi:insensitive="true"><path
         style="fill:none;stroke:#000000;stroke-width:1px;stroke-linecap:butt;stroke-linejoin:miter;stroke-opacity:1"
         d="M 240,860 V 492"
         id="path26" /><path
         style="fill:none;stroke:#000000;stroke-width:1px;stroke-linecap:butt;stroke-linejoin:miter;stroke-opacity:1"
         d="M 976,860 V 492"
         id="path27" /><path
         style="fill:none;stroke:#000000;stroke-width:1px;stroke-linecap:butt;stroke-linejoin:miter;stroke-opacity:1"
         d="m 240,1596 v 368"
         id="path29" /><path
         style="fill:none;stroke:#000000;stroke-width:1px;stroke-linecap:butt;stroke-linejoin:miter;stroke-opacity:1"
         d="m 976,1596 v 368"
         id="path30" /><path
         style="fill:none;stroke:#000000;stroke-width:1px;stroke-linecap:butt;stroke-linejoin:miter;stroke-opacity:1"
         d="M 608,492 V 1964"
         id="path32" /><path
         style="fill:none;stroke:#000000;stroke-width:1px;stroke-linecap:butt;stroke-linejoin:miter;stroke-opacity:1"
         d="M 240,676 H 608"
         id="path33" /><path
         style="fill:none;stroke:#000000;stroke-width:1px;stroke-linecap:butt;stroke-linejoin:miter;stroke-opacity:1"
         d="M 976,676 H 608"
         id="path34" /><path
         style="fill:none;stroke:#000000;stroke-width:1px;stroke-linecap:butt;stroke-linejoin:miter;stroke-opacity:1"
         d="M 240,1780 H 608"
         id="path35" /><path
         style="fill:none;stroke:#000000;stroke-width:1px;stroke-linecap:butt;stroke-linejoin:miter;stroke-opacity:1"
         d="M 976,1780 H 608"
         id="path36" /><path
         style="fill:none;stroke:#000000;stroke-width:1px;stroke-linecap:butt;stroke-linejoin:miter;stroke-opacity:1"
         d="m 240,860 v 368"
         id="path37" /><path
         style="fill:none;stroke:#000000;stroke-width:1px;stroke-linecap:butt;stroke-linejoin:miter;stroke-opacity:1"
         d="M 240,1596 V 1228"
         id="path38" /><path
         style="fill:none;stroke:#000000;stroke-width:1px;stroke-linecap:butt;stroke-linejoin:miter;stroke-opacity:1"
         d="M 976,1596 V 1228"
         id="path39" /><path
         style="fill:none;stroke:#000000;stroke-width:1px;stroke-linecap:butt;stroke-linejoin:miter;stroke-opacity:1"
         d="m 976,860 v 368"
         id="path40" /><path
         style="fill:none;stroke:#000000;stroke-width:1px;stroke-linecap:butt;stroke-linejoin:miter;stroke-opacity:1"
         d="M 240,860 H 608"
         id="path41" /><path
         style="fill:none;stroke:#000000;stroke-width:1px;stroke-linecap:butt;stroke-linejoin:miter;stroke-opacity:1"
         d="M 240,1228 H 608"
         id="path42" /><path
         style="fill:none;stroke:#000000;stroke-width:1px;stroke-linecap:butt;stroke-linejoin:miter;stroke-opacity:1"
         d="M 240,1596 H 608"
         id="path43" /><path
         style="fill:none;stroke:#000000;stroke-width:1px;stroke-linecap:butt;stroke-linejoin:miter;stroke-opacity:1"
         d="M 608,1596 H 976"
         id="path44" /><path
         style="fill:none;stroke:#000000;stroke-width:1px;stroke-linecap:butt;stroke-linejoin:miter;stroke-opacity:1"
         d="M 608,1228 H 976"
         id="path45" /><path
         style="fill:none;stroke:#000000;stroke-width:1px;stroke-linecap:butt;stroke-linejoin:miter;stroke-opacity:1"
         d="M 240,1964 H 608"
         id="path46" /><path
         style="fill:none;stroke:#000000;stroke-width:1px;stroke-linecap:butt;stroke-linejoin:miter;stroke-opacity:1"
         d="M 976,1964 H 608"
         id="path47" /><path
         style="fill:none;stroke:#000000;stroke-width:1px;stroke-linecap:butt;stroke-linejoin:miter;stroke-opacity:1"
         d="M 608,860 H 976"
         id="path48" /><path
         style="fill:none;stroke:#000000;stroke-width:1px;stroke-linecap:butt;stroke-linejoin:miter;stroke-opacity:1"
         d="M 976,492 H 608"
         id="path49" /><path
         style="fill:none;stroke:#000000;stroke-width:1px;stroke-linecap:butt;stroke-linejoin:miter;stroke-opacity:1"
         d="M 240,492 H 608"
         id="path50" /><path
         style="fill:none;stroke:#000000;stroke-width:1px;stroke-linecap:butt;stroke-linejoin:miter;stroke-opacity:1"
         d="M 792,492 V 1964"
         id="path51" /><path
         style="fill:none;stroke:#000000;stroke-width:1px;stroke-linecap:butt;stroke-linejoin:miter;stroke-opacity:1"
         d="M 424,492 V 1964"
         id="path52" /><path
         style="fill:none;stroke:#000000;stroke-width:1px;stroke-linecap:butt;stroke-linejoin:miter;stroke-opacity:1"
         d="M 240,1412 H 608"
         id="path53" /><path
         style="fill:none;stroke:#000000;stroke-width:1px;stroke-linecap:butt;stroke-linejoin:miter;stroke-opacity:1"
         d="M 976,1412 H 608"
         id="path54" /><path
         style="fill:none;stroke:#000000;stroke-width:1px;stroke-linecap:butt;stroke-linejoin:miter;stroke-opacity:1"
         d="M 240,1044 H 609.5"
         id="path55" /><path
         style="fill:none;stroke:#000000;stroke-width:1px;stroke-linecap:butt;stroke-linejoin:miter;stroke-opacity:1"
         d="M 976,1044 H 608"
         id="path56" /><rect
         style="fill:none;fill-opacity:0.5;stroke:#000000;stroke-width:3.644;stroke-linecap:butt;stroke-linejoin:miter;stroke-dasharray:none;stroke-opacity:1"
         id="rect65"
         width="1239"
         height="2048"
         x="-10"
         y="0" /></g></g><g
     inkscape:groupmode="layer"
     id="layer2"
     inkscape:label="letter parts 1"
     style="display:inline"><path
       id="path24-1"
       style="display:inline;fill:none;stroke:#000000;stroke-width:84;stroke-linecap:round;stroke-dasharray:none;stroke-opacity:1;stroke-linejoin:round"
       d="M 424.00566,629.99763 C 424.00566,537.99871 485.33736,492 608,492 c 122.66264,0 183.99509,45.99871 183.99237,137.99167 -0.001,40.33139 -11.79275,71.8258 -35.37356,94.47709 L 423.99026,1043.9856 h 368"
       sodipodi:nodetypes="cssscc" /></g><g
     inkscape:groupmode="layer"
     id="layer9"
     inkscape:label="letter parts 2"
     style="display:none"><path
       d="M 905.25692,956.96572 239.99984,1595.9994"
       stroke="#000000"
       stroke-width="2.457"
       fill="none"
       id="path1-43" /><path
       d="m 791.99932,491.99942 c 122.6669,0 184.00085,183.99983 184.00085,552.00048"
       stroke="#000000"
       stroke-width="2.457"
       fill="none"
       id="path2-9" /><path
       d="m 239.99984,491.99942 c 490.66655,0 736.00033,183.99983 736.00033,552.00048"
       stroke="#000000"
       stroke-width="2.457"
       fill="none"
       id="path3-4" /><path
       d="m 607.9995,491.99942 c 245.33378,0 368.00067,183.99983 368.00067,552.00048"
       stroke="#000000"
       stroke-width="2.457"
       fill="none"
       id="path4" /><path
       d="m 239.99984,767.99967 c 0,183.99983 122.66689,276.00023 367.99966,276.00023"
       stroke="#000000"
       stroke-width="2.457"
       fill="none"
       id="path5" /><path
       d="m 239.99984,767.99967 c 0,-183.99982 122.66689,-276.00025 367.99966,-276.00025"
       stroke="#000000"
       stroke-width="2.457"
       fill="none"
       id="path6" /><path
       d="m 976.00017,767.99967 c 0,-183.99982 -122.66689,-276.00025 -368.00067,-276.00025"
       stroke="#000000"
       stroke-width="2.457"
       fill="none"
       id="path7" /><path
       d="m 976.00017,1227.9998 v 183.9998"
       stroke="#000000"
       stroke-width="2.457"
       fill="none"
       id="path8" /><path
       d="M 976.00017,676.00027 V 860.0001"
       stroke="#000000"
       stroke-width="2.457"
       fill="none"
       id="path9" /><path
       d="m 976.00017,1227.9998 c 0,245.3327 -61.33395,367.9996 -184.00085,367.9996"
       stroke="#000000"
       stroke-width="2.457"
       fill="none"
       id="path10" /><path
       d="m 239.99984,1227.9998 c 0,245.3327 61.33294,367.9996 183.99983,367.9996"
       stroke="#000000"
       stroke-width="2.457"
       fill="none"
       id="path11" /><path
       d="m 607.9995,1595.9994 c 245.33378,0 368.00067,-61.3329 368.00067,-183.9998"
       stroke="#000000"
       stroke-width="2.457"
       fill="none"
       id="path12" /><path
       d="m 607.9995,860.0001 c 245.33378,0 368.00067,61.33293 368.00067,183.9998"
       stroke="#000000"
       stroke-width="2.457"
       fill="none"
       id="path13" /><path
       d="m 607.9995,1595.9994 c -245.33277,0 -367.99966,-61.3329 -367.99966,-183.9998"
       stroke="#000000"
       stroke-width="2.457"
       fill="none"
       id="path14" /><path
       d="m 607.9995,860.0001 c -245.33277,0 -367.99966,61.33293 -367.99966,183.9998"
       stroke="#000000"
       stroke-width="2.457"
       fill="none"
       id="path15" /><path
       d="m 607.9995,1595.9994 c 137.85833,3.0201 287.7007,-71.9011 368.00067,-183.9998"
       stroke="#000000"
       stroke-width="2.457"
       fill="none"
       id="path16" /><path
       d="m 607.9995,1595.9994 c -137.85834,3.0201 -287.70071,-71.9011 -367.99966,-183.9998"
       stroke="#000000"
       stroke-width="2.457"
       fill="none"
       id="path17" /><path
       d="m 607.9995,860.0001 c 137.85833,-3.02007 287.7007,71.90112 368.00067,183.9998"
       stroke="#000000"
       stroke-width="2.457"
       fill="none"
       id="path18" /><path
       d="M 607.9995,860.0001 C 470.14116,856.98003 320.29879,931.90122 239.99984,1043.9999"
       stroke="#000000"
       stroke-width="2.457"
       fill="none"
       id="path19" /><path
       d="m 607.9995,1595.9994 c 85.83846,2.2819 189.10425,-36.6738 260.21503,-107.7846 71.11078,-71.1108 110.06759,-174.3766 107.78564,-260.215"
       stroke="#000000"
       stroke-width="2.457"
       fill="none"
       id="path20-0" /><path
       d="M 607.9995,1595.9994 C 522.16103,1598.2813 418.89525,1559.3256 347.78446,1488.2148 276.67368,1417.104 237.7179,1313.8382 239.99984,1227.9998"
       stroke="#000000"
       stroke-width="2.457"
       fill="none"
       id="path21" /><path
       d="m 607.9995,860.0001 c 85.83846,-2.28194 189.10425,36.67384 260.21503,107.78462 71.11078,71.11078 110.06759,174.37658 107.78564,260.21508"
       stroke="#000000"
       stroke-width="2.457"
       fill="none"
       id="path22" /><path
       d="M 607.9995,860.0001 C 522.16103,857.71816 418.89525,896.67394 347.78446,967.78472 276.67368,1038.8955 237.7179,1142.1613 239.99984,1227.9998"
       stroke="#000000"
       stroke-width="2.457"
       fill="none"
       id="path23" /><path
       d="m 976.00017,767.99967 c 0,80.67467 -23.58211,143.66301 -70.74325,188.96605"
       stroke="#000000"
       stroke-width="2.457"
       fill="none"
       id="path24" /><path
       d="M -10.000201,-4.7951999e-5 H 1228.9998 V 2047.9999 H -10.000201 Z"
       stroke="#000000"
       stroke-width="2.457"
       fill="none"
       id="path26-0" /><path
       d="M 239.99984,860.0001 V 492.00045"
       stroke="#000000"
       stroke-width="2.457"
       fill="none"
       id="path27-0" /><path
       d="M 976.00017,860.0001 V 492.00045"
       stroke="#000000"
       stroke-width="2.457"
       fill="none"
       id="path28" /><path
       d="m 239.99984,1595.9994 v 368.0007"
       stroke="#000000"
       stroke-width="2.457"
       fill="none"
       id="path29-0" /><path
       d="m 976.00017,1595.9994 v 368.0007"
       stroke="#000000"
       stroke-width="2.457"
       fill="none"
       id="path30-3" /><path
       d="M 608.00052,492.00045 V 1963.9991"
       stroke="#000000"
       stroke-width="2.457"
       fill="none"
       id="path31" /><path
       d="M 239.99984,676.00027 H 608.00052"
       stroke="#000000"
       stroke-width="2.457"
       fill="none"
       id="path32-9" /><path
       d="M 976.00017,676.00027 H 608.00052"
       stroke="#000000"
       stroke-width="2.457"
       fill="none"
       id="path33-0" /><path
       d="M 239.99984,1780.0003 H 608.00052"
       stroke="#000000"
       stroke-width="2.457"
       fill="none"
       id="path34-8" /><path
       d="M 976.00017,1780.0003 H 608.00052"
       stroke="#000000"
       stroke-width="2.457"
       fill="none"
       id="path35-4" /><path
       d="m 239.99984,860.0001 v 367.9997"
       stroke="#000000"
       stroke-width="2.457"
       fill="none"
       id="path36-0" /><path
       d="M 239.99984,1595.9994 V 1227.9998"
       stroke="#000000"
       stroke-width="2.457"
       fill="none"
       id="path37-5" /><path
       d="M 976.00017,1595.9994 V 1227.9998"
       stroke="#000000"
       stroke-width="2.457"
       fill="none"
       id="path38-4" /><path
       d="m 976.00017,860.0001 v 367.9997"
       stroke="#000000"
       stroke-width="2.457"
       fill="none"
       id="path39-6" /><path
       d="M 239.99984,860.0001 H 608.00052"
       stroke="#000000"
       stroke-width="2.457"
       fill="none"
       id="path40-4" /><path
       d="M 239.99984,1227.9998 H 608.00052"
       stroke="#000000"
       stroke-width="2.457"
       fill="none"
       id="path41-9" /><path
       d="M 239.99984,1595.9994 H 976.00017"
       stroke="#000000"
       stroke-width="2.457"
       fill="none"
       id="path42-3" /><path
       d="M 608.00052,1227.9998 H 976.00017"
       stroke="#000000"
       stroke-width="2.457"
       fill="none"
       id="path43-1" /><path
       d="M 239.99984,1964.0001 H 608.00052"
       stroke="#000000"
       stroke-width="2.457"
       fill="none"
       id="path44-1" /><path
       d="M 976.00017,1964.0001 H 608.00052"
       stroke="#000000"
       stroke-width="2.457"
       fill="none"
       id="path45-1" /><path
       d="M 608.00052,860.0001 H 976.00017"
       stroke="#000000"
       stroke-width="2.457"
       fill="none"
       id="path46-2" /><path
       d="M 976.00017,492.00045 H 608.00052"
       stroke="#000000"
       stroke-width="2.457"
       fill="none"
       id="path47-9" /><path
       d="M 239.99984,492.00045 H 608.00052"
       stroke="#000000"
       stroke-width="2.457"
       fill="none"
       id="path48-1" /><path
       d="M 792.00035,492.00045 V 1963.9991"
       stroke="#000000"
       stroke-width="2.457"
       fill="none"
       id="path49-2" /><path
       d="M 423.99967,492.00045 V 1963.9991"
       stroke="#000000"
       stroke-width="2.457"
       fill="none"
       id="path50-8" /><path
       d="M 239.99984,1411.9996 H 608.00052"
       stroke="#000000"
       stroke-width="2.457"
       fill="none"
       id="path51-1" /><path
       d="M 976.00017,1411.9996 H 608.00052"
       stroke="#000000"
       stroke-width="2.457"
       fill="none"
       id="path52-3" /><path
       d="M 239.99984,1043.9999 H 609.50032"
       stroke="#000000"
       stroke-width="2.457"
       fill="none"
       id="path53-0" /><path
       d="M 976.00017,1043.9999 H 608.00052"
       stroke="#000000"
       stroke-width="2.457"
       fill="none"
       id="path54-9" /></g></svg>
