<?xml version="1.0" encoding="UTF-8" standalone="no"?>
<svg
   version="1.1"
   viewBox="-10 0 1239 2048"
   id="svg1"
   sodipodi:docname="arcomp_3_2_final.svg"
   inkscape:version="1.3 (0e150ed6c4, 2023-07-21)"
   xml:space="preserve"
   xmlns:inkscape="http://www.inkscape.org/namespaces/inkscape"
   xmlns:sodipodi="http://sodipodi.sourceforge.net/DTD/sodipodi-0.dtd"
   xmlns="http://www.w3.org/2000/svg"
   xmlns:svg="http://www.w3.org/2000/svg"><defs
     id="defs1"><inkscape:path-effect
       effect="spiro"
       id="path-effect69"
       is_visible="true"
       lpeversion="1" /><inkscape:path-effect
       effect="spiro"
       id="path-effect68"
       is_visible="true"
       lpeversion="1" /><inkscape:path-effect
       effect="spiro"
       id="path-effect67"
       is_visible="true"
       lpeversion="1" /><inkscape:path-effect
       effect="spiro"
       id="path-effect66"
       is_visible="true"
       lpeversion="1" /><inkscape:path-effect
       effect="spiro"
       id="path-effect65"
       is_visible="true"
       lpeversion="1" /><inkscape:path-effect
       effect="bspline"
       id="path-effect64"
       is_visible="true"
       lpeversion="1.3"
       weight="33.333333"
       steps="2"
       helper_size="0"
       apply_no_weight="true"
       apply_with_weight="true"
       only_selected="false"
       uniform="false" /></defs><sodipodi:namedview
     id="namedview1"
     pagecolor="#ffffff"
     bordercolor="#999999"
     borderopacity="1"
     inkscape:showpageshadow="2"
     inkscape:pageopacity="0"
     inkscape:pagecheckerboard="0"
     inkscape:deskcolor="#d1d1d1"
     inkscape:zoom="0.5"
     inkscape:cx="775"
     inkscape:cy="1117"
     inkscape:window-width="1920"
     inkscape:window-height="1001"
     inkscape:window-x="-9"
     inkscape:window-y="-9"
     inkscape:window-maximized="1"
     inkscape:current-layer="layer2"
     showguides="false"><sodipodi:guide
       position="866,410"
       orientation="0,-1"
       id="guide1"
       inkscape:locked="false" /><sodipodi:guide
       position="1230,1230"
       orientation="0,1"
       id="guide2"
       inkscape:locked="false"
       inkscape:label=""
       inkscape:color="rgb(0,134,229)" /><sodipodi:guide
       position="208,219.91946"
       orientation="-1,0"
       id="guide4"
       inkscape:locked="false"
       inkscape:label=""
       inkscape:color="rgb(0,134,229)" /><sodipodi:guide
       position="986,96.214765"
       orientation="-1,0"
       id="guide5"
       inkscape:locked="false"
       inkscape:label=""
       inkscape:color="rgb(0,134,229)" /><sodipodi:guide
       position="0,0"
       orientation="0,-1"
       id="guide7"
       inkscape:locked="false" /><sodipodi:guide
       position="1239,481.27157"
       orientation="1,0"
       id="guide8"
       inkscape:locked="false" /><sodipodi:guide
       position="250,248.01176"
       orientation="-1,0"
       id="guide9"
       inkscape:locked="false"
       inkscape:label=""
       inkscape:color="rgb(0,134,229)" /><sodipodi:guide
       position="1028,452"
       orientation="-1,0"
       id="guide10"
       inkscape:locked="false"
       inkscape:label=""
       inkscape:color="rgb(0,134,229)" /><sodipodi:guide
       position="124.40523,452"
       orientation="0,1"
       id="guide11"
       inkscape:locked="false"
       inkscape:label=""
       inkscape:color="rgb(0,134,229)" /><sodipodi:guide
       position="427.64299,1188"
       orientation="0,1"
       id="guide12"
       inkscape:locked="false"
       inkscape:label=""
       inkscape:color="rgb(0,134,229)" /><sodipodi:guide
       position="97.19159,84"
       orientation="0,1"
       id="guide13"
       inkscape:locked="false"
       inkscape:label=""
       inkscape:color="rgb(0,134,229)" /><sodipodi:guide
       position="590.92487,1556"
       orientation="0,1"
       id="guide14"
       inkscape:locked="false"
       inkscape:label=""
       inkscape:color="rgb(0,134,229)" /></sodipodi:namedview><g
     inkscape:groupmode="layer"
     id="layer2"
     inkscape:label="letter parts 1"
     style="display:inline"><path
       style="color:#000000;fill:#000000;stroke-linecap:round;stroke-linejoin:round;-inkscape-stroke:none"
       d="m 608.34375,450.01562 c -152.95224,-1.21649 -312.80472,76.33899 -402.47656,201.52344 -13.50762,18.857 -9.17112,45.09345 9.68554,58.60156 18.85752,13.50873 45.09533,9.17236 58.60352,-9.68554 70.91988,-99.00662 210.68778,-167.41835 333.51953,-166.44141 117.58021,0.93517 200.60967,23.64603 251.21484,61.40039 50.60518,37.75437 75.11167,89.93835 75.10743,172.59766 -0.004,82.66064 -24.62368,135.45389 -75.20508,173.38867 -66.47728,49.85629 -172.12081,60.35371 -250.79497,60.60551 -22.96654,0.073 -41.40975,19.0343 -41.4092,42.001 5.5e-4,22.9666 18.44683,41.6748 41.4112,41.999 78.60232,0 184.28011,10.7191 250.79107,60.6035 50.57969,37.9357 75.19726,90.7308 75.19726,173.3965 0,82.6642 -24.50997,134.8537 -75.11523,172.6074 -50.60527,37.7537 -133.63167,60.4615 -251.20899,61.3867 -122.82857,0.9665 -262.59954,-67.4498 -333.51953,-166.457 -13.50765,-18.8572 -39.74405,-23.1947 -58.60156,-9.6875 -18.85744,13.5073 -23.19512,39.7443 -9.6875,58.6015 89.67111,125.1844 249.52198,202.7426 402.46875,201.5391 127.74579,-1.0052 228.7164,-24.2942 300.77734,-78.0547 72.06094,-53.7605 108.88679,-138.6036 108.88679,-239.9355 0,-101.332 -36.71374,-186.534 -108.79694,-240.5977 -18.34416,-13.7585 -38.59451,-25.5039 -60.66993,-35.4043 22.07517,-9.9 42.32577,-21.6447 60.66993,-35.4023 72.08395,-54.06119 108.79904,-139.25675 108.80664,-240.58402 0.01,-101.32863 -36.81721,-186.16899 -108.87696,-239.92969 -86.44787,-64.49507 -211.08689,-78.07227 -300.77739,-78.07227 z"
       id="path14-2"
       sodipodi:nodetypes="sssssssssssssssssssssscssss" /></g></svg>
