<?xml version="1.0" encoding="UTF-8" standalone="no"?>
<svg
   version="1.1"
   viewBox="-10 0 1239 2048"
   id="svg1"
   sodipodi:docname="arcomp_8_final.svg"
   inkscape:version="1.3 (0e150ed6c4, 2023-07-21)"
   xml:space="preserve"
   xmlns:inkscape="http://www.inkscape.org/namespaces/inkscape"
   xmlns:sodipodi="http://sodipodi.sourceforge.net/DTD/sodipodi-0.dtd"
   xmlns="http://www.w3.org/2000/svg"
   xmlns:svg="http://www.w3.org/2000/svg"><defs
     id="defs1"><inkscape:path-effect
       effect="spiro"
       id="path-effect69"
       is_visible="true"
       lpeversion="1" /><inkscape:path-effect
       effect="spiro"
       id="path-effect68"
       is_visible="true"
       lpeversion="1" /><inkscape:path-effect
       effect="spiro"
       id="path-effect67"
       is_visible="true"
       lpeversion="1" /><inkscape:path-effect
       effect="spiro"
       id="path-effect66"
       is_visible="true"
       lpeversion="1" /><inkscape:path-effect
       effect="spiro"
       id="path-effect65"
       is_visible="true"
       lpeversion="1" /><inkscape:path-effect
       effect="bspline"
       id="path-effect64"
       is_visible="true"
       lpeversion="1.3"
       weight="33.333333"
       steps="2"
       helper_size="0"
       apply_no_weight="true"
       apply_with_weight="true"
       only_selected="false"
       uniform="false" /></defs><sodipodi:namedview
     id="namedview1"
     pagecolor="#ffffff"
     bordercolor="#999999"
     borderopacity="1"
     inkscape:showpageshadow="2"
     inkscape:pageopacity="0"
     inkscape:pagecheckerboard="0"
     inkscape:deskcolor="#d1d1d1"
     inkscape:zoom="0.5"
     inkscape:cx="795"
     inkscape:cy="1037"
     inkscape:window-width="1920"
     inkscape:window-height="1001"
     inkscape:window-x="-9"
     inkscape:window-y="-9"
     inkscape:window-maximized="1"
     inkscape:current-layer="layer2"
     showguides="false"><sodipodi:guide
       position="866,410"
       orientation="0,-1"
       id="guide1"
       inkscape:locked="false" /><sodipodi:guide
       position="1230,1230"
       orientation="0,1"
       id="guide2"
       inkscape:locked="false"
       inkscape:label=""
       inkscape:color="rgb(0,134,229)" /><sodipodi:guide
       position="208,219.91946"
       orientation="-1,0"
       id="guide4"
       inkscape:locked="false"
       inkscape:label=""
       inkscape:color="rgb(0,134,229)" /><sodipodi:guide
       position="986,96.214765"
       orientation="-1,0"
       id="guide5"
       inkscape:locked="false"
       inkscape:label=""
       inkscape:color="rgb(0,134,229)" /><sodipodi:guide
       position="0,0"
       orientation="0,-1"
       id="guide7"
       inkscape:locked="false" /><sodipodi:guide
       position="1239,481.27157"
       orientation="1,0"
       id="guide8"
       inkscape:locked="false" /><sodipodi:guide
       position="250,248.01176"
       orientation="-1,0"
       id="guide9"
       inkscape:locked="false"
       inkscape:label=""
       inkscape:color="rgb(0,134,229)" /><sodipodi:guide
       position="1028,452"
       orientation="-1,0"
       id="guide10"
       inkscape:locked="false"
       inkscape:label=""
       inkscape:color="rgb(0,134,229)" /><sodipodi:guide
       position="124.40523,452"
       orientation="0,1"
       id="guide11"
       inkscape:locked="false"
       inkscape:label=""
       inkscape:color="rgb(0,134,229)" /><sodipodi:guide
       position="427.64299,1188"
       orientation="0,1"
       id="guide12"
       inkscape:locked="false"
       inkscape:label=""
       inkscape:color="rgb(0,134,229)" /><sodipodi:guide
       position="97.19159,84"
       orientation="0,1"
       id="guide13"
       inkscape:locked="false"
       inkscape:label=""
       inkscape:color="rgb(0,134,229)" /><sodipodi:guide
       position="590.92487,1556"
       orientation="0,1"
       id="guide14"
       inkscape:locked="false"
       inkscape:label=""
       inkscape:color="rgb(0,134,229)" /></sodipodi:namedview><g
     inkscape:groupmode="layer"
     id="layer2"
     inkscape:label="letter parts 1"
     style="display:inline"><path
       id="path20"
       style="color:#000000;fill:#000000;stroke-linecap:round;stroke-linejoin:round;-inkscape-stroke:none"
       d="m 608.01953,450.0293 c -127.91241,0 -229.10802,23.33537 -301.19141,77.39843 -72.08337,54.06308 -108.79687,139.2638 -108.79687,240.59571 0,101.33124 36.71352,186.5329 108.79687,240.59566 18.33613,13.7522 38.57843,25.4933 60.64258,35.3907 -22.07157,9.8991 -42.32065,21.6442 -60.66211,35.4004 -72.08333,54.0631 -108.79687,139.2637 -108.79687,240.5957 0,101.3312 36.71352,186.5328 108.79687,240.5957 C 378.89196,1614.6644 480.08759,1638 608,1638 c 127.91244,0 229.10806,-23.3356 301.19141,-77.3984 72.08333,-54.0629 108.79689,-139.2645 108.79689,-240.5957 0,-101.332 -36.71353,-186.5327 -108.79689,-240.5957 -18.33615,-13.7523 -38.57841,-25.4952 -60.64258,-35.3926 22.07155,-9.8992 42.32068,-21.6423 60.66211,-35.3985 72.08333,-54.06281 108.79686,-139.26442 108.79686,-240.59566 0,-101.33191 -36.71348,-186.53263 -108.79686,-240.59571 -72.08338,-54.06306 -173.279,-77.39843 -301.19141,-77.39843 z m 0,84 c 117.41238,0 200.21163,22.66274 250.79102,60.59765 50.57938,37.93493 75.19726,90.73092 75.19726,173.39649 0,82.66474 -24.61786,135.46171 -75.19726,173.39648 -50.54484,37.90886 -133.26984,60.56478 -250.79551,60.56248 -117.52567,-0 -200.24456,-22.65577 -250.78652,-60.56248 -50.57941,-37.93477 -75.19727,-90.73174 -75.19727,-173.39648 0,-82.66557 24.61788,-135.46156 75.19727,-173.39649 50.57938,-37.93491 133.37863,-60.59765 250.79101,-60.59765 z m -0.015,552.0176 c 117.52568,0 200.24458,22.6556 250.78652,60.5625 50.57936,37.9348 75.19726,90.7308 75.19726,173.3965 0,82.6647 -24.61787,135.4617 -75.19726,173.3964 C 808.21162,1531.3372 725.4124,1554 608,1554 c -117.41237,0 -200.21161,-22.6628 -250.79102,-60.5977 -50.57941,-37.9347 -75.19726,-90.7317 -75.19726,-173.3964 0,-82.6657 24.61788,-135.4617 75.19726,-173.3965 50.54482,-37.9091 133.26984,-60.5648 250.79552,-60.5625 z"
       sodipodi:nodetypes="sssscssssssscssssssssssssssssssssss" /></g></svg>
